<svg width="1440" height="444" viewBox="0 0 1440 444" fill="none" xmlns="http://www.w3.org/2000/svg">
<rect width="1440" height="444" fill="#F4F4F4"/>
<rect x="1113" y="293.378" width="192" height="56" rx="10" fill="url(#paint0_linear_2016_58781)"/>
<path d="M1172.28 327.798C1172.43 327.798 1172.5 327.864 1172.5 327.996V330.658C1172.5 330.805 1172.43 330.878 1172.28 330.878C1170.93 330.878 1169.89 330.592 1169.16 330.02C1167.79 330.724 1166.53 331.076 1165.37 331.076C1164.36 331.076 1163.45 330.834 1162.65 330.35C1161.85 329.866 1161.23 329.214 1160.78 328.392C1160.34 327.556 1160.12 326.632 1160.12 325.62C1160.12 324.608 1160.34 323.67 1160.78 322.804C1161.23 321.924 1161.85 321.228 1162.65 320.714C1163.45 320.201 1164.36 319.944 1165.37 319.944C1166.14 319.944 1166.96 320.098 1167.84 320.406L1167.82 319.152L1170.72 318.8L1170.74 326.082C1170.74 326.684 1170.87 327.124 1171.12 327.402C1171.37 327.666 1171.75 327.798 1172.28 327.798ZM1165.37 328.172C1166.27 328.187 1167.12 328.026 1167.93 327.688C1167.87 327.19 1167.84 326.779 1167.84 326.456V323.288C1167.38 323.127 1166.97 323.01 1166.61 322.936C1166.24 322.848 1165.87 322.804 1165.51 322.804C1164.71 322.804 1164.07 323.068 1163.57 323.596C1163.07 324.124 1162.82 324.777 1162.82 325.554C1162.82 326.302 1163.06 326.926 1163.53 327.424C1164.01 327.908 1164.63 328.158 1165.37 328.172ZM1167.24 318.25L1165.46 316.512L1163.72 318.25L1161.59 316.16L1163.68 314.07L1165.46 315.786L1167.22 314.07L1169.36 316.16L1167.24 318.25ZM1179.72 330.658C1179.72 330.805 1179.65 330.878 1179.5 330.878C1177.62 330.878 1176.27 330.409 1175.43 329.47C1174.9 329.969 1174.4 330.328 1173.91 330.548C1173.44 330.768 1172.9 330.878 1172.28 330.878C1172.14 330.878 1172.06 330.805 1172.06 330.658V327.996C1172.06 327.864 1172.14 327.798 1172.28 327.798C1173.13 327.798 1173.87 327.571 1174.48 327.116C1174.45 326.764 1174.44 326.493 1174.44 326.302L1174.42 315.192L1177.32 314.818L1177.34 325.334C1177.34 326.185 1177.51 326.808 1177.85 327.204C1178.2 327.6 1178.74 327.798 1179.48 327.798C1179.62 327.798 1179.7 327.864 1179.7 327.996L1179.72 330.658ZM1191.78 327.798C1191.92 327.798 1192 327.864 1192 327.996V330.658C1192 330.805 1191.92 330.878 1191.78 330.878C1189.92 330.878 1187.95 330.548 1185.88 329.888C1184.11 330.548 1181.98 330.878 1179.5 330.878C1179.36 330.864 1179.28 330.79 1179.28 330.658V327.996C1179.28 327.864 1179.36 327.798 1179.5 327.798C1180.46 327.798 1181.28 327.769 1181.99 327.71C1181.14 326.772 1180.71 325.701 1180.71 324.498C1180.71 323.618 1180.92 322.819 1181.35 322.1C1181.78 321.382 1182.36 320.817 1183.11 320.406C1183.87 319.981 1184.74 319.768 1185.71 319.768C1186.67 319.768 1187.53 319.981 1188.28 320.406C1189.04 320.832 1189.64 321.411 1190.06 322.144C1190.49 322.863 1190.7 323.648 1190.7 324.498C1190.7 325.642 1190.27 326.698 1189.4 327.666C1190.14 327.754 1190.93 327.798 1191.78 327.798ZM1185.57 322.584C1184.91 322.584 1184.38 322.797 1183.97 323.222C1183.56 323.648 1183.35 324.19 1183.35 324.85C1183.35 325.422 1183.55 325.958 1183.95 326.456C1184.36 326.955 1184.91 327.322 1185.6 327.556C1186.3 327.278 1186.86 326.896 1187.27 326.412C1187.69 325.914 1187.91 325.393 1187.91 324.85C1187.91 324.19 1187.67 323.648 1187.2 323.222C1186.75 322.797 1186.2 322.584 1185.57 322.584ZM1187.27 318.228L1185.49 316.49L1183.75 318.228L1181.61 316.138L1183.7 314.048L1185.49 315.764L1187.25 314.048L1189.38 316.138L1187.27 318.228ZM1191.77 330.878C1191.62 330.878 1191.55 330.805 1191.55 330.658L1191.57 327.996C1191.57 327.864 1191.64 327.798 1191.79 327.798C1193.23 327.798 1193.95 326.999 1193.95 325.4L1193.93 320.164L1196.85 319.812V326.39C1196.85 327.857 1196.43 328.972 1195.58 329.734C1194.72 330.497 1193.46 330.878 1191.77 330.878ZM1193.18 316.072L1195.27 313.982L1197.42 316.072L1195.31 318.184L1193.18 316.072ZM1221.91 327.798C1222.05 327.798 1222.13 327.864 1222.13 327.996V330.658C1222.13 330.805 1222.05 330.878 1221.91 330.878C1220.62 330.878 1219.48 330.402 1218.5 329.448C1217.72 330.343 1216.49 330.82 1214.8 330.878H1214.74H1209.04C1205.37 330.878 1203.54 329.177 1203.54 325.774C1203.54 324.601 1203.74 323.076 1204.15 321.198L1206.66 321.506C1206.4 322.944 1206.27 324.08 1206.27 324.916C1206.27 325.899 1206.54 326.625 1207.1 327.094C1207.67 327.564 1208.56 327.798 1209.76 327.798H1214.43C1215.86 327.798 1216.58 326.999 1216.58 325.4L1216.56 322.452L1219.49 322.078V326.39C1219.49 326.698 1219.48 326.926 1219.47 327.072C1220.2 327.556 1221.01 327.798 1221.91 327.798ZM1209.94 334.244L1212.03 332.132L1214.19 334.244L1212.07 336.334L1209.94 334.244ZM1229.35 330.658C1229.35 330.805 1229.27 330.878 1229.13 330.878C1227.25 330.878 1225.89 330.409 1225.06 329.47C1224.53 329.969 1224.02 330.328 1223.54 330.548C1223.07 330.768 1222.53 330.878 1221.91 330.878C1221.77 330.878 1221.69 330.805 1221.69 330.658V327.996C1221.69 327.864 1221.77 327.798 1221.91 327.798C1222.76 327.798 1223.5 327.571 1224.11 327.116C1224.08 326.764 1224.07 326.493 1224.07 326.302L1224.05 315.192L1226.95 314.818L1226.97 325.334C1226.97 326.185 1227.14 326.808 1227.48 327.204C1227.83 327.6 1228.37 327.798 1229.11 327.798C1229.25 327.798 1229.33 327.864 1229.33 327.996L1229.35 330.658ZM1242.33 319.416C1243.28 319.416 1244.13 319.629 1244.88 320.054C1245.65 320.48 1246.24 321.074 1246.66 321.836C1247.09 322.584 1247.3 323.442 1247.3 324.41C1247.3 324.953 1247.24 325.525 1247.13 326.126C1247.02 326.713 1246.86 327.454 1246.62 328.348L1244.46 330.878H1233.9H1231H1229.13C1228.98 330.878 1228.91 330.805 1228.91 330.658L1228.93 327.996C1228.93 327.864 1229.01 327.798 1229.15 327.798H1231V320.164V315.192L1233.9 314.818V319.812V321.99C1236.03 321.022 1237.69 320.355 1238.88 319.988C1240.08 319.607 1241.23 319.416 1242.33 319.416ZM1243.83 327.798C1244.02 327.124 1244.16 326.552 1244.24 326.082C1244.33 325.598 1244.38 325.144 1244.38 324.718C1244.36 324.029 1244.11 323.472 1243.61 323.046C1243.11 322.621 1242.46 322.408 1241.67 322.408C1241.03 322.408 1240.42 322.46 1239.87 322.562C1239.31 322.665 1238.62 322.848 1237.8 323.112C1236.98 323.362 1235.68 323.794 1233.9 324.41V327.798H1243.83ZM1249.91 317.898L1252.83 317.524V330.878H1249.91V317.898ZM1254.17 314.774L1253.8 316.446H1248.65V314.774H1249.69C1249.49 314.437 1249.4 314.048 1249.4 313.608C1249.4 313.051 1249.6 312.589 1249.99 312.222C1250.39 311.841 1250.9 311.65 1251.51 311.65C1252.13 311.65 1252.76 311.79 1253.4 312.068V313.542C1252.83 313.322 1252.36 313.212 1252 313.212C1251.72 313.212 1251.49 313.286 1251.31 313.432C1251.15 313.564 1251.07 313.74 1251.07 313.96C1251.07 314.268 1251.17 314.54 1251.36 314.774H1254.17Z" fill="white"/>
<path d="M239.573 306.254C239.573 306.254 280.898 166.899 234.703 57.3107C234.101 55.8819 232.233 55.5436 231.183 56.683C214.6 74.6799 114.844 192.793 239.573 306.254Z" fill="#DADADA"/>
<path opacity="0.28" d="M224.47 98.1981C222.821 106.481 221.497 114.863 220.497 123.262C219.441 131.658 218.644 140.083 218.074 148.519C217.537 156.958 217.174 165.405 217.135 173.855C217.053 182.303 217.21 190.755 217.721 199.184C218.193 207.614 218.894 216.035 220.001 224.403C220.131 225.451 220.245 226.5 220.387 227.546L220.853 230.676C221.176 232.761 221.445 234.856 221.813 236.934L222.921 243.167L223.193 244.727L223.513 246.276L224.152 249.377C224.939 253.527 226.016 257.608 226.964 261.724C227.474 263.772 228.06 265.8 228.604 267.841L229.435 270.898C229.722 271.914 230.059 272.914 230.358 273.927L232.204 279.991L234.273 285.984L235.31 288.981L236.462 291.936L238.732 297.866L238.738 297.881C238.855 298.189 238.702 298.534 238.396 298.652C238.103 298.764 237.775 298.628 237.644 298.347C230.462 282.923 224.861 266.697 221.132 250.041L220.417 246.922L220.059 245.362L219.748 243.792L218.531 237.508C218.13 235.412 217.83 233.299 217.475 231.195L216.961 228.035C216.804 226.98 216.673 225.922 216.528 224.865C215.317 216.414 214.609 207.902 214.083 199.388C213.123 182.35 213.481 165.254 214.964 148.276C215.706 139.787 216.768 131.328 218.116 122.919C218.801 118.717 219.578 114.529 220.423 110.357C221.265 106.181 222.191 102.034 223.316 97.9075C223.403 97.5899 223.73 97.4026 224.047 97.4895C224.35 97.5725 224.533 97.8755 224.474 98.1795L224.47 98.1981Z" fill="white"/>
<path d="M201.853 349.652C201.853 349.652 221.833 190.062 152.769 133.438C151.543 132.433 149.702 132.843 149.008 134.27C140.935 150.87 103.949 241.883 201.853 349.652Z" fill="#E8E8E8"/>
<path opacity="0.28" d="M155.785 162.221C156.674 169.959 157.837 177.687 159.074 185.39C159.711 189.24 160.349 193.09 161.028 196.933C161.746 200.769 162.413 204.614 163.172 208.442C163.947 212.267 164.691 216.098 165.491 219.917L167.992 231.353C169.776 238.951 171.555 246.55 173.547 254.095C175.408 261.675 177.622 269.159 179.7 276.68L183.124 287.872C183.702 289.735 184.254 291.607 184.852 293.463L186.715 299.01C187.965 302.705 189.177 306.414 190.46 310.098L194.501 321.081C195.176 322.91 195.821 324.752 196.522 326.572L198.702 332.001L203.063 342.862L203.069 342.877C203.187 343.171 203.045 343.504 202.753 343.622C202.463 343.739 202.133 343.601 202.013 343.313C195.971 328.894 190.143 314.362 185.318 299.478L183.432 293.924C182.826 292.066 182.266 290.192 181.681 288.327L178.21 277.121C176.1 269.59 173.856 262.096 171.964 254.506C168.026 239.368 164.623 224.092 161.71 208.724C160.964 204.886 160.31 201.03 159.605 197.183C158.94 193.33 158.316 189.469 157.692 185.609C156.528 177.872 155.458 170.13 154.648 162.334C154.615 162.019 154.843 161.738 155.157 161.705C155.468 161.672 155.747 161.897 155.783 162.208L155.785 162.221Z" fill="white"/>
<path d="M551.965 66.154C537.858 88.7263 461.117 223.445 574.271 318.354C574.271 318.354 647.564 242.703 555.862 66.302C555.06 64.7588 552.887 64.6794 551.965 66.154Z" fill="#DADADA"/>
<path opacity="0.28" d="M554.448 92.8916C554.374 95.0489 554.316 97.2069 554.26 99.3646L554.084 105.837C553.982 110.152 553.888 114.468 553.824 118.783C553.661 127.413 553.562 136.044 553.503 144.674C553.407 161.934 553.495 179.193 553.945 196.442C554.137 205.068 554.474 213.688 554.879 222.304C555.257 230.923 555.846 239.529 556.496 248.129L557.03 254.576L557.647 261.014C557.699 261.551 557.744 262.088 557.802 262.624L557.98 264.231L558.335 267.446C558.456 268.517 558.566 269.59 558.696 270.66L559.108 273.868C559.38 276.007 559.627 278.15 559.96 280.28L560.43 283.481C560.587 284.548 560.736 285.616 560.929 286.677C561.299 288.802 561.648 290.931 562.036 293.053L563.281 299.406L561.799 293.101C561.348 290.99 560.942 288.869 560.512 286.752C560.288 285.695 560.11 284.63 559.923 283.566L559.363 280.374C558.971 278.249 558.663 276.111 558.332 273.976C557.061 265.428 556.025 256.843 555.252 248.236C555.032 246.087 554.866 243.933 554.684 241.78C554.508 239.627 554.326 237.474 554.187 235.318L553.743 228.852L553.366 222.382C553.227 220.226 553.15 218.067 553.046 215.909C552.947 213.751 552.843 211.594 552.771 209.435L552.533 202.959L552.347 196.482C552.152 187.845 552.021 179.207 552.01 170.568C552.019 161.93 552.074 153.292 552.26 144.657C552.602 127.387 553.281 110.122 554.448 92.8916Z" fill="white"/>
<path d="M615.861 72.7097C599.492 92.2022 489.318 225.671 573.693 332.198C577.385 336.859 584.348 337.153 588.448 332.848C611.419 308.73 673.415 225.649 619.627 73.3887C619.059 71.7792 616.958 71.4036 615.861 72.7097Z" fill="#E8E8E8"/>
<path d="M596.871 193.65H522.49V337.474H596.871V193.65Z" fill="#363636"/>
<path d="M606.834 198.753H518.949L498.877 136.666L588.017 133.943L610.296 193.317C611.469 195.853 609.622 198.753 606.834 198.753Z" fill="url(#paint1_linear_2016_58781)"/>
<path d="M588.019 135.93L498.252 139.481V132.379L582.135 128.828C585.384 128.828 588.019 130.756 588.019 133.134V135.93Z" fill="url(#paint2_linear_2016_58781)"/>
<g opacity="0.89">
<path d="M580.891 298.41H538.914C538.768 298.41 538.65 298.292 538.65 298.146V232.976C538.65 232.831 538.768 232.712 538.914 232.712H580.891C581.036 232.712 581.154 232.831 581.154 232.976V298.146C581.154 298.292 581.036 298.41 580.891 298.41Z" fill="#666666"/>
<path d="M558.106 294.859H541.896C541.815 294.859 541.75 294.793 541.75 294.712V236.41C541.75 236.329 541.816 236.264 541.896 236.264H558.106C558.187 236.264 558.252 236.329 558.252 236.41V294.712C558.252 294.793 558.187 294.859 558.106 294.859Z" fill="#777777"/>
<path d="M577.909 294.859H561.699C561.618 294.859 561.553 294.793 561.553 294.712V236.41C561.553 236.329 561.618 236.264 561.699 236.264H577.909C577.99 236.264 578.055 236.329 578.055 236.41V294.712C578.055 294.793 577.99 294.859 577.909 294.859Z" fill="#777777"/>
</g>
<path d="M429.432 103.695C429.432 103.695 328.592 180.022 326.094 180.022V338.59C326.094 341.48 328.43 343.822 331.312 343.822H528.146C530.7 343.822 532.771 341.746 532.771 339.185V180.022L429.432 103.695Z" fill="#414141"/>
<path d="M456.851 337.474H392.771V327.32C392.771 326.909 393.104 326.575 393.514 326.575H456.109C456.519 326.575 456.851 326.909 456.851 327.32V337.474Z" fill="#777777"/>
<path d="M456.851 346.118H392.771V335.964C392.771 335.553 393.104 335.219 393.514 335.219H456.109C456.519 335.219 456.851 335.553 456.851 335.964V346.118Z" fill="#777777"/>
<path d="M446.68 326.575H402.943V241.865C402.943 241.403 403.317 241.029 403.778 241.029H445.846C446.307 241.029 446.68 241.403 446.68 241.865L446.68 326.575Z" fill="#777777"/>
<path opacity="0.35" d="M443.592 235.271H406.032C404.326 235.271 402.943 233.885 402.943 232.175V229.47C402.943 227.844 404.199 226.495 405.818 226.382L443.378 223.766C445.163 223.642 446.68 225.06 446.68 226.855V232.175C446.68 233.885 445.298 235.271 443.592 235.271Z" fill="white"/>
<path d="M481.413 197.269H480.997C470.195 197.269 460.738 204.936 460.738 215.766V235.271H481.413V197.269H481.413Z" fill="#777777"/>
<path d="M460.738 241.029V298.41C460.738 300.342 463.001 303.338 464.928 303.338H481.413V241.029H460.738Z" fill="#777777"/>
<path d="M487.057 197.269H486.006V235.271H506.681V215.766C506.68 204.936 497.859 197.269 487.057 197.269Z" fill="#777777"/>
<path d="M486.006 303.338H503.126C505.053 303.338 506.681 300.342 506.681 298.41V241.029H486.006V303.338Z" fill="#777777"/>
<path d="M418.74 303.578H412.138C409.937 303.578 408.146 301.783 408.146 299.576V250.649C408.146 248.442 409.937 246.646 412.138 246.646H418.74C420.941 246.646 422.732 248.442 422.732 250.649V299.576C422.732 301.783 420.941 303.578 418.74 303.578ZM412.138 247.127C410.202 247.127 408.626 248.707 408.626 250.649V299.576C408.626 301.518 410.202 303.098 412.138 303.098H418.74C420.676 303.098 422.252 301.518 422.252 299.576V250.649C422.252 248.707 420.676 247.127 418.74 247.127H412.138Z" fill="#666666"/>
<path d="M437.16 303.578H430.558C428.357 303.578 426.566 301.783 426.566 299.576V250.649C426.566 248.442 428.357 246.646 430.558 246.646H437.16C439.361 246.646 441.152 248.442 441.152 250.649V299.576C441.152 301.783 439.361 303.578 437.16 303.578ZM430.558 247.127C428.622 247.127 427.046 248.707 427.046 250.649V299.576C427.046 301.518 428.622 303.098 430.558 303.098H437.16C439.096 303.098 440.672 301.518 440.672 299.576V250.649C440.672 248.707 439.096 247.127 437.16 247.127H430.558Z" fill="#666666"/>
<path d="M418.74 320.073H412.138C409.937 320.073 408.146 318.278 408.146 316.071V310.444C408.146 308.237 409.937 306.441 412.138 306.441H418.74C420.941 306.441 422.732 308.237 422.732 310.444V316.071C422.732 318.278 420.941 320.073 418.74 320.073ZM412.138 306.922C410.202 306.922 408.626 308.502 408.626 310.444V316.071C408.626 318.013 410.202 319.593 412.138 319.593H418.74C420.676 319.593 422.252 318.013 422.252 316.071V310.444C422.252 308.502 420.676 306.922 418.74 306.922H412.138Z" fill="#666666"/>
<path d="M437.16 320.073H430.558C428.357 320.073 426.566 318.278 426.566 316.071V310.444C426.566 308.237 428.357 306.441 430.558 306.441H437.16C439.361 306.441 441.152 308.237 441.152 310.444V316.071C441.152 318.278 439.361 320.073 437.16 320.073ZM430.558 306.922C428.622 306.922 427.046 308.502 427.046 310.444V316.071C427.046 318.013 428.622 319.593 430.558 319.593H437.16C439.096 319.593 440.672 318.013 440.672 316.071V310.444C440.672 308.502 439.096 306.922 437.16 306.922H430.558Z" fill="#666666"/>
<path d="M508.471 306.922H458.703C455.849 306.922 453.527 304.595 453.527 301.733V215.34C453.527 201.678 464.614 190.563 478.24 190.563H488.934C502.56 190.563 513.646 201.678 513.646 215.34V301.733C513.646 304.595 511.324 306.922 508.471 306.922ZM478.24 191.044C464.877 191.044 454.007 201.943 454.007 215.34V301.733C454.007 304.33 456.113 306.442 458.703 306.442H508.471C511.06 306.442 513.167 304.33 513.167 301.733V215.34C513.167 201.943 502.296 191.044 488.934 191.044H478.24Z" fill="#666666"/>
<path d="M491.779 105.362H474.684V133.269H491.779V105.362Z" fill="url(#paint3_linear_2016_58781)"/>
<path d="M497.413 109.883H469.781V102.746C469.781 101.955 470.421 101.313 471.21 101.313H495.239C496.44 101.313 497.413 102.289 497.413 103.493V109.883Z" fill="url(#paint4_linear_2016_58781)"/>
<path d="M319.759 188.024L429.433 103.694L533.539 184.657C537.323 187.599 542.873 185.538 543.832 180.835L545.293 173.674L429.433 85.1846L317.286 171.067C315.278 172.605 314.549 175.303 315.509 177.646L319.759 188.024Z" fill="url(#paint5_linear_2016_58781)"/>
<path d="M544.963 370.555C548.08 370.614 550.64 368.097 550.64 364.97V340.115C550.64 336.849 548.022 334.192 544.765 334.157C534.991 334.05 514.831 334.045 498.336 335.438C496.085 335.628 494.334 337.478 494.253 339.741L492.711 363.771C492.596 366.949 495.103 369.605 498.274 369.665L544.963 370.555Z" fill="url(#paint6_linear_2016_58781)"/>
<path d="M544.98 342.804C545.021 344.919 544.958 348.275 544.907 350.443C544.88 351.571 543.893 352.43 542.775 352.299L534.731 351.354C533.659 351.228 532.904 350.237 533.064 349.168L534.052 342.563C534.192 341.626 534.995 340.932 535.941 340.932H543.07C544.108 340.932 544.959 341.763 544.98 342.804Z" fill="white"/>
<path opacity="0.37" d="M523.956 355.32L517.245 356.046C516.307 356.148 515.505 355.371 515.575 354.427L517.042 334.413C519.854 334.324 522.629 334.259 525.306 334.213V353.812C525.306 354.587 524.724 355.237 523.956 355.32Z" fill="white"/>
<path d="M521.206 351.851C521.185 352.211 520.888 352.488 520.533 352.488C520.519 352.488 520.506 352.488 520.493 352.487C520.121 352.465 519.837 352.145 519.859 351.772L520.87 334.305C521.324 334.294 521.774 334.284 522.224 334.274L521.206 351.851Z" fill="white"/>
<path d="M546.324 330.525V313.07C546.324 310.777 544.486 308.911 542.198 308.886C535.334 308.811 521.176 308.807 509.592 309.786C508.011 309.919 506.781 311.218 506.724 312.808L505.641 329.683C505.561 331.916 507.321 333.78 509.548 333.823L542.336 334.447C544.526 334.489 546.324 332.721 546.324 330.525Z" fill="url(#paint7_linear_2016_58781)"/>
<path d="M542.348 314.959C542.377 316.444 542.333 318.801 542.297 320.323C542.278 321.115 541.584 321.719 540.8 321.627L535.15 320.963C534.398 320.874 533.867 320.179 533.98 319.428L534.673 314.79C534.772 314.131 535.336 313.644 536 313.644H541.006C541.736 313.644 542.333 314.228 542.348 314.959Z" fill="white"/>
<path opacity="0.37" d="M527.584 323.748L522.872 324.258C522.212 324.329 521.65 323.784 521.698 323.121L522.729 309.066C524.704 309.003 526.653 308.957 528.533 308.925V322.689C528.533 323.233 528.124 323.69 527.584 323.748Z" fill="white"/>
<path d="M525.654 321.312C525.64 321.565 525.431 321.76 525.181 321.76C525.172 321.76 525.163 321.759 525.154 321.759C524.892 321.744 524.692 321.519 524.708 321.257L525.419 308.99C525.737 308.982 526.053 308.975 526.369 308.968L525.654 321.312Z" fill="white"/>
<path d="M524.706 369.065V351.61C524.706 349.317 523.117 347.451 521.14 347.426C515.208 347.351 502.972 347.347 492.961 348.326C491.595 348.459 490.532 349.758 490.483 351.348L489.547 368.223C489.478 370.456 490.999 372.32 492.924 372.363L521.26 372.987C523.152 373.029 524.706 371.261 524.706 369.065Z" fill="url(#paint8_linear_2016_58781)"/>
<path d="M521.27 353.499C521.295 354.984 521.257 357.341 521.226 358.863C521.21 359.655 520.611 360.259 519.932 360.167L515.05 359.503C514.399 359.415 513.941 358.719 514.038 357.968L514.638 353.33C514.723 352.671 515.21 352.184 515.784 352.184H520.111C520.741 352.184 521.257 352.768 521.27 353.499Z" fill="white"/>
<path opacity="0.37" d="M508.509 362.288L504.437 362.798C503.867 362.869 503.381 362.324 503.422 361.661L504.313 347.606C506.02 347.543 507.704 347.498 509.329 347.465V361.229C509.329 361.773 508.976 362.23 508.509 362.288Z" fill="white"/>
<path d="M506.84 359.852C506.828 360.105 506.647 360.3 506.432 360.3C506.424 360.3 506.416 360.3 506.407 360.299C506.182 360.284 506.009 360.059 506.022 359.797L506.636 347.53C506.912 347.522 507.185 347.515 507.458 347.508L506.84 359.852Z" fill="white"/>
<path d="M470.341 371.543C470.338 371.474 470.342 371.404 470.362 371.334C471.576 367.196 478.043 364.565 478.043 364.565L480.634 364.701C482.212 368.324 482.075 370.555 481.861 371.551C481.855 371.579 481.845 371.606 481.836 371.633C479.706 371.804 475.315 371.943 470.341 371.543Z" fill="#1E1F4B"/>
<path d="M481.837 371.633C481.73 371.966 481.427 372.227 481.032 372.297C478.009 372.83 473.172 372.469 471.141 372.278C470.693 372.236 470.358 371.912 470.342 371.543C475.316 371.943 479.706 371.804 481.837 371.633Z" fill="#414141"/>
<path d="M463.27 370.859C465.569 370.794 466.759 370.522 467.373 370.271C467.375 370.5 467.373 370.733 467.366 370.975C467.358 371.233 467.167 371.439 466.933 371.438L454.307 371.356C453.904 371.353 453.669 370.885 453.844 370.514C455.499 370.652 459.715 370.958 463.27 370.859Z" fill="#414141"/>
<path d="M453.844 370.514C453.859 370.482 453.872 370.449 453.894 370.418C455.009 368.856 457.849 365.746 463.46 364.397L466.152 364.312C466.152 364.312 467.351 366.4 467.374 370.27C466.759 370.522 465.57 370.793 463.27 370.858C459.715 370.957 455.499 370.651 453.844 370.514Z" fill="#1E1F4B"/>
<path d="M467.991 301.883C467.991 301.883 462.314 333.642 462.431 364.775C462.434 365.342 466.56 366.095 466.65 365.571C467.56 360.218 473.595 325.373 476.572 320.477C476.572 320.477 477.781 351.319 477.155 365.253C477.139 365.599 480.999 366.15 481.056 365.748C481.705 361.217 486.069 329.703 485.91 310.277C485.901 309.181 484.889 300.055 484.889 300.055C478.476 301.171 473.589 303.117 467.991 301.883Z" fill="#1E1F4B"/>
<path d="M488.592 283.645C492.335 275.37 492.733 269.557 488.592 267.085C488.345 267.022 488.093 266.973 487.838 266.94C486.519 266.772 484.694 266.54 482.592 266.262C482.592 266.262 482.586 266.262 482.574 266.259C482.269 266.192 478.065 265.291 473.499 265.007C469.112 264.732 464.397 265.028 462.493 267.185C462.493 267.185 461.187 270.443 458.733 273.672C455.207 278.311 453.476 283.481 451.645 282.473C451.145 282.199 450.775 280.353 450.392 279.517C449.057 279.677 446.403 280.08 444.334 282.293C445.863 290.632 450.929 294.079 463.346 283.84C465.704 290.525 468.3 298.973 467.457 305.102C467.387 305.625 467.81 306.185 468.331 306.261C471.158 306.682 480.133 307.76 484.51 306.001C484.766 305.9 485.474 305.761 485.474 305.483C485.465 303.458 484.956 295.406 488.285 284.838C488.407 284.447 488.51 284.049 488.592 283.645Z" fill="url(#paint9_linear_2016_58781)"/>
<path d="M480.285 258.319L481.129 266.964C481.129 266.964 476.278 268.429 472.75 265.933L475.23 258.076L480.285 258.319Z" fill="url(#paint10_linear_2016_58781)"/>
<path d="M472.051 250.951C471.994 251.101 471.75 261.726 471.75 261.726L477.804 261.737L479.528 251.7C479.528 251.7 473.016 248.439 472.051 250.951Z" fill="url(#paint11_linear_2016_58781)"/>
<path d="M477.452 252.955C477.649 253.14 477.749 253.404 477.724 253.674L477.237 258.951C477.229 259.031 477.212 259.109 477.182 259.184C477.021 259.597 476.403 260.869 475.114 260.163C474.015 259.561 472.998 259.023 472.172 258.997C471.689 258.982 471.291 259.371 471.282 259.855C471.262 260.852 471.264 262.865 471.516 264.653C471.58 265.101 471.98 265.422 472.43 265.393C473.619 265.318 475.936 265.101 477.797 264.502C478.103 264.404 478.328 264.146 478.387 263.829C478.643 262.436 479.378 258.534 479.754 257.465C480.104 256.472 481.464 256.127 482.099 256.019C482.34 255.978 482.551 255.84 482.685 255.635C483.088 255.02 483.668 253.693 482.073 252.687C481.676 252.437 481.562 251.904 481.803 251.502C482.236 250.78 482.546 249.667 481.285 248.715C480.009 247.751 478.772 248.205 478.015 248.691C477.68 248.906 477.229 248.893 476.933 248.626C476.801 248.508 476.62 248.44 476.375 248.502C475.128 248.818 475.344 247.074 474.703 246.529C473.806 245.765 472.834 246.876 472.472 247.696C472.271 248.15 472.128 248.63 471.908 249.076C471.562 249.774 471.025 250.375 470.37 250.795C470.27 250.86 470.162 250.925 470.106 251.031C470.028 251.182 470.085 251.374 470.198 251.501C470.311 251.627 470.47 251.7 470.626 251.767C471.908 252.313 473.236 252.371 474.572 251.924C475.735 251.536 476.91 252.445 477.452 252.955Z" fill="#1E1F4B"/>
<path d="M479.28 259.326C479.28 259.326 479.172 256.193 480.428 255.713C481.683 255.233 483.211 255.981 482.365 258.057C481.312 260.639 479.28 259.326 479.28 259.326Z" fill="url(#paint12_linear_2016_58781)"/>
<path d="M470.119 250.717C471.99 240.861 485.951 244.977 482.748 253.782C477.913 252.347 472.157 249.77 470.119 250.717Z" fill="url(#paint13_linear_2016_58781)"/>
<path d="M478.21 252.148L470.1 254.38C469.894 254.437 469.673 254.381 469.519 254.233C468.398 253.152 467.09 252.647 465.633 252.598C465.449 252.592 465.408 252.335 465.58 252.268L470.402 250.411C470.408 250.409 470.413 250.407 470.419 250.406C472.932 249.837 475.56 250.647 478.229 251.946C478.318 251.99 478.306 252.122 478.21 252.148Z" fill="url(#paint14_linear_2016_58781)"/>
<path d="M480.456 295.695C482.892 295.741 484.891 293.774 484.891 291.331V271.914C484.891 269.363 482.846 267.287 480.302 267.259C472.666 267.176 456.916 267.172 444.03 268.261C442.272 268.409 440.904 269.854 440.84 271.622L439.636 290.395C439.546 292.878 441.504 294.952 443.982 294.999L480.456 295.695Z" fill="url(#paint15_linear_2016_58781)"/>
<path d="M480.468 274.015C480.5 275.667 480.451 278.289 480.411 279.982C480.39 280.863 479.619 281.535 478.746 281.432L472.461 280.694C471.624 280.595 471.034 279.822 471.159 278.986L471.931 273.826C472.04 273.094 472.668 272.552 473.406 272.552H478.976C479.787 272.552 480.452 273.201 480.468 274.015Z" fill="white"/>
<path opacity="0.37" d="M464.045 283.793L458.803 284.36C458.069 284.439 457.443 283.833 457.497 283.095L458.643 267.46C460.841 267.391 463.009 267.34 465.1 267.304V282.615C465.1 283.22 464.645 283.728 464.045 283.793Z" fill="white"/>
<path d="M461.897 281.083C461.881 281.364 461.649 281.581 461.371 281.581C461.361 281.581 461.351 281.58 461.34 281.58C461.05 281.563 460.828 281.313 460.845 281.021L461.635 267.376C461.99 267.367 462.341 267.359 462.693 267.352L461.897 281.083Z" fill="white"/>
<path d="M462.563 297.719C461.618 296.399 462.328 295.519 462.328 295.519C467.098 293.811 473.934 293.946 479.117 287.424C481.222 288.543 479.521 289.208 481.829 292.574C470.974 299.577 462.563 297.719 462.563 297.719Z" fill="url(#paint16_linear_2016_58781)"/>
<path d="M484.617 273.202C484.55 281.044 482.087 287.019 470.354 293.105L472.751 296.833C478.463 296.3 488.516 288.655 491.55 282.98C492.299 281.58 493.333 277.175 493.183 274.071C492.873 267.686 486.313 261.853 484.617 273.202Z" fill="url(#paint17_linear_2016_58781)"/>
<path d="M462.668 297.682C459.803 298.743 457.839 297.019 456.562 295.155C459.239 294.848 460.921 294.81 463.124 295.255L462.668 297.682Z" fill="url(#paint18_linear_2016_58781)"/>
<path d="M439.319 277.702C440.047 277.523 441.682 275.305 441.856 276.115C442.03 276.926 441.537 277.954 441.61 278.298C441.684 278.643 442.232 280.574 441.796 281.384C441.481 281.968 440.864 283.807 440.544 284.785C440.438 285.109 440.352 285.538 440.013 285.5C439.674 285.462 439.412 285.005 439.38 284.665C439.368 284.528 438.591 277.881 439.319 277.702Z" fill="url(#paint19_linear_2016_58781)"/>
<path d="M380.174 342.037H185.943V353.721H380.174V342.037Z" fill="#1E1F4B"/>
<path d="M383.83 339.517H380.174V355.554H383.83V339.517Z" fill="#1E1F4B"/>
<path d="M189.143 271.324C189.143 268.401 192.234 265.974 196.97 265.974H375.352C380.088 265.974 383.83 268.401 383.83 271.324V337.829C383.83 340.752 380.088 343.182 375.352 343.182H196.97C192.234 343.182 189.143 340.752 189.143 337.829V271.324Z" fill="url(#paint20_linear_2016_58781)"/>
<path d="M193.484 274.005C193.484 271.33 197.37 269.411 201.836 269.411H370.116C374.582 269.411 378.346 271.33 378.346 274.005V334.796C378.346 337.471 374.582 339.517 370.116 339.517H201.836C197.37 339.517 193.484 337.471 193.484 334.796V274.005Z" fill="url(#paint21_linear_2016_58781)"/>
<path d="M141.571 318.162L150.367 291.377C150.587 290.699 151.223 290.489 151.939 290.489C158.077 290.489 185.715 290.489 187.543 290.489V353.721H139.488L141.571 318.162Z" fill="url(#paint22_linear_2016_58781)"/>
<path d="M138.782 344.582C139.256 344.272 140.052 344.105 140.712 344.117L177.667 344.823L177.885 355.234L140.659 356.133C139.31 356.133 137.729 355.486 137.729 354.579V345.76C137.729 345.316 138.309 344.891 138.782 344.582Z" fill="url(#paint23_linear_2016_58781)"/>
<path d="M148.437 316.618L153.754 295.68C153.939 294.951 154.599 294.384 155.355 294.384H176.147C176.594 294.384 177.022 294.62 177.333 294.938C177.644 295.257 177.812 295.715 177.799 296.159L177.3 312.941C177.277 313.729 176.694 314.396 175.912 314.522L150.302 318.639C149.753 318.728 149.196 318.537 148.821 318.129C148.445 317.721 148.301 317.154 148.437 316.618Z" fill="#1E1F4B"/>
<path d="M149.5 294.154L149.772 294.198C150.232 294.274 150.638 294.54 150.891 294.93C151.143 295.32 151.218 295.798 151.097 296.246L145.302 317.676C145.078 318.504 144.25 319.022 143.402 318.864L141.572 318.523L149.5 294.154Z" fill="#1E1F4B"/>
<path d="M177.261 321.702C177.261 320.879 176.79 320.042 175.962 320.042H169.368C168.54 320.042 167.664 320.879 167.664 321.702V321.972C167.664 322.796 168.54 323.479 169.368 323.479H175.962C176.79 323.479 177.261 322.796 177.261 321.972V321.702Z" fill="url(#paint24_linear_2016_58781)"/>
<path d="M184.832 271.578C185.386 271.538 186.214 271.695 186.622 272.072C187.029 272.448 187.544 272.942 187.544 273.495V290.489H165.734C165.734 290.489 166.893 272.88 184.832 271.578Z" fill="url(#paint25_linear_2016_58781)"/>
<path d="M165.19 372.19C174.443 372.19 181.944 364.73 181.944 355.529C181.944 346.327 174.443 338.868 165.19 338.868C155.937 338.868 148.436 346.327 148.436 355.529C148.436 364.73 155.937 372.19 165.19 372.19Z" fill="url(#paint26_linear_2016_58781)"/>
<path d="M165.19 369.059C172.705 369.059 178.797 363.001 178.797 355.528C178.797 348.056 172.705 341.998 165.19 341.998C157.676 341.998 151.584 348.056 151.584 355.528C151.584 363.001 157.676 369.059 165.19 369.059Z" fill="url(#paint27_linear_2016_58781)"/>
<path d="M153.761 360.421C153.672 360.421 153.588 360.368 153.551 360.281C152.91 358.776 152.586 357.177 152.586 355.529C152.586 348.797 158.093 343.32 164.861 343.32C166.96 343.32 169.032 343.856 170.853 344.871C170.963 344.932 171.003 345.071 170.942 345.182C170.881 345.293 170.741 345.333 170.631 345.271C168.878 344.295 166.883 343.778 164.861 343.778C158.345 343.778 153.043 349.049 153.043 355.529C153.043 357.115 153.355 358.654 153.971 360.102C154.021 360.218 153.967 360.353 153.851 360.403C153.821 360.415 153.791 360.421 153.761 360.421Z" fill="url(#paint28_linear_2016_58781)"/>
<path d="M165.189 361.735C168.635 361.735 171.429 358.957 171.429 355.529C171.429 352.102 168.635 349.324 165.189 349.324C161.743 349.324 158.949 352.102 158.949 355.529C158.949 358.957 161.743 361.735 165.189 361.735Z" fill="#1E1F4B"/>
<path d="M324.577 372.655C333.83 372.655 341.331 365.196 341.331 355.994C341.331 346.792 333.83 339.333 324.577 339.333C315.323 339.333 307.822 346.792 307.822 355.994C307.822 365.196 315.323 372.655 324.577 372.655Z" fill="#1E1F4B"/>
<path d="M324.577 369.524C332.092 369.524 338.184 363.466 338.184 355.993C338.184 348.521 332.092 342.463 324.577 342.463C317.063 342.463 310.971 348.521 310.971 355.993C310.971 363.466 317.063 369.524 324.577 369.524Z" fill="url(#paint29_linear_2016_58781)"/>
<path d="M313.148 360.885C313.059 360.885 312.975 360.833 312.938 360.746C312.297 359.241 311.973 357.642 311.973 355.993C311.973 349.261 317.479 343.785 324.248 343.785C326.347 343.785 328.419 344.321 330.24 345.335C330.35 345.397 330.39 345.536 330.329 345.647C330.267 345.758 330.128 345.798 330.018 345.736C328.265 344.759 326.27 344.243 324.248 344.243C317.731 344.243 312.43 349.514 312.43 355.994C312.43 357.58 312.742 359.119 313.358 360.567C313.408 360.683 313.353 360.818 313.237 360.867C313.208 360.879 313.178 360.885 313.148 360.885Z" fill="url(#paint30_linear_2016_58781)"/>
<path d="M324.578 362.2C328.024 362.2 330.818 359.421 330.818 355.994C330.818 352.567 328.024 349.789 324.578 349.789C321.132 349.789 318.338 352.567 318.338 355.994C318.338 359.421 321.132 362.2 324.578 362.2Z" fill="#1E1F4B"/>
<path d="M230.161 372.655C239.414 372.655 246.915 365.196 246.915 355.994C246.915 346.792 239.414 339.333 230.161 339.333C220.907 339.333 213.406 346.792 213.406 355.994C213.406 365.196 220.907 372.655 230.161 372.655Z" fill="url(#paint31_linear_2016_58781)"/>
<path d="M230.161 369.524C237.676 369.524 243.767 363.466 243.767 355.993C243.767 348.521 237.676 342.463 230.161 342.463C222.646 342.463 216.555 348.521 216.555 355.993C216.555 363.466 222.646 369.524 230.161 369.524Z" fill="url(#paint32_linear_2016_58781)"/>
<path d="M218.732 360.885C218.643 360.885 218.559 360.833 218.522 360.746C217.881 359.241 217.557 357.642 217.557 355.993C217.557 349.261 223.063 343.785 229.832 343.785C231.931 343.785 234.003 344.321 235.824 345.335C235.934 345.397 235.974 345.536 235.912 345.647C235.851 345.757 235.712 345.798 235.602 345.736C233.849 344.759 231.854 344.243 229.832 344.243C223.315 344.243 218.014 349.514 218.014 355.994C218.014 357.58 218.326 359.119 218.942 360.567C218.991 360.683 218.937 360.818 218.821 360.867C218.792 360.879 218.762 360.885 218.732 360.885Z" fill="url(#paint33_linear_2016_58781)"/>
<path d="M230.162 362.2C233.608 362.2 236.402 359.421 236.402 355.994C236.402 352.567 233.608 349.789 230.162 349.789C226.716 349.789 223.922 352.567 223.922 355.994C223.922 359.421 226.716 362.2 230.162 362.2Z" fill="#1E1F4B"/>
<path d="M362.905 372.655C372.158 372.655 379.659 365.196 379.659 355.994C379.659 346.792 372.158 339.333 362.905 339.333C353.652 339.333 346.15 346.792 346.15 355.994C346.15 365.196 353.652 372.655 362.905 372.655Z" fill="#1E1F4B"/>
<path d="M362.905 369.524C370.42 369.524 376.512 363.466 376.512 355.993C376.512 348.521 370.42 342.463 362.905 342.463C355.391 342.463 349.299 348.521 349.299 355.993C349.299 363.466 355.391 369.524 362.905 369.524Z" fill="url(#paint34_linear_2016_58781)"/>
<path d="M351.476 360.885C351.388 360.885 351.303 360.833 351.266 360.746C350.626 359.241 350.301 357.642 350.301 355.993C350.301 349.261 355.808 343.785 362.576 343.785C364.675 343.785 366.747 344.321 368.568 345.335C368.678 345.397 368.718 345.536 368.657 345.647C368.596 345.758 368.456 345.798 368.346 345.736C366.593 344.759 364.598 344.243 362.576 344.243C356.059 344.243 350.758 349.514 350.758 355.994C350.758 357.58 351.07 359.119 351.686 360.567C351.735 360.683 351.682 360.818 351.565 360.867C351.537 360.879 351.506 360.885 351.476 360.885Z" fill="url(#paint35_linear_2016_58781)"/>
<path d="M362.904 362.2C366.35 362.2 369.144 359.421 369.144 355.994C369.144 352.567 366.35 349.789 362.904 349.789C359.458 349.789 356.664 352.567 356.664 355.994C356.664 359.421 359.458 362.2 362.904 362.2Z" fill="#1E1F4B"/>
<path d="M146.64 335.298C146.64 334.39 145.979 333.789 145.065 333.789H140.524C139.611 333.789 138.871 334.39 138.871 335.298V340.248C138.871 341.156 139.611 341.808 140.524 341.808H145.065C145.978 341.808 146.64 341.156 146.64 340.248V335.298Z" fill="url(#paint36_linear_2016_58781)"/>
<path opacity="0.8" d="M143.67 333.102V342.495H144.916C145.829 342.495 147.326 341.541 147.326 340.633V335.223C147.326 334.316 145.829 333.102 144.916 333.102H143.67Z" fill="white"/>
<path d="M184.801 333.101C184.674 333.101 184.572 332.999 184.572 332.872V294.383C184.572 294.256 184.675 294.154 184.801 294.154C184.927 294.154 185.029 294.256 185.029 294.383V332.872C185.029 332.999 184.927 333.101 184.801 333.101Z" fill="url(#paint37_linear_2016_58781)"/>
<path d="M169.691 288.614C169.666 288.614 169.641 288.61 169.616 288.601C169.497 288.559 169.434 288.429 169.476 288.309C170.945 284.074 173.846 278.489 179.32 275.93C182.609 274.392 185.23 274.68 185.341 274.693C185.466 274.708 185.555 274.821 185.541 274.947C185.526 275.073 185.412 275.165 185.288 275.148C185.262 275.145 182.663 274.865 179.488 276.357C174.174 278.854 171.345 284.317 169.907 288.46C169.874 288.554 169.786 288.614 169.691 288.614Z" fill="white"/>
<path d="M379.989 339.96H237.93V170.292H375.675C380.199 170.292 383.866 173.968 383.866 178.504V336.073C383.866 338.22 382.13 339.96 379.989 339.96Z" fill="url(#paint38_linear_2016_58781)"/>
<path d="M360.24 338.463V198.553C360.24 196.717 361.761 195.248 363.592 195.316L375.857 195.827C378.159 195.923 379.978 197.818 379.984 200.128L380.331 335.936C380.308 338.115 378.454 339.823 376.287 339.661L360.24 338.463Z" fill="url(#paint39_linear_2016_58781)"/>
<path d="M522.145 274.249L525.196 275.895C528.855 278.128 532.129 279.308 535.075 279.752C544.275 281.136 550.271 275.316 554.739 271.785C560.638 267.124 565.228 269.392 565.228 269.392L558.937 281.43C549.542 290.311 539.91 288.339 533.837 285.461C529.972 283.629 527.548 281.43 527.548 281.43C520.637 277.298 522.145 274.249 522.145 274.249Z" fill="url(#paint40_linear_2016_58781)"/>
<path d="M513.157 278.558C513.354 277.902 513.838 277.371 514.472 277.115L520.664 274.619C520.664 274.619 520.758 273.823 519.356 273.282C517.954 272.74 518.282 271.167 518.282 271.167C518.282 271.167 520.197 272.042 523 273.431C524.603 274.226 525.503 275.628 525.98 276.684L524.386 278.786C520.57 279.935 516.709 280.155 512.814 279.699L513.157 278.558Z" fill="url(#paint41_linear_2016_58781)"/>
<path d="M566.58 366.295C566.58 366.295 567.052 368.97 567.283 371.618C567.373 372.653 566.577 373.552 565.542 373.595C562.025 373.742 554.501 374.027 551.802 373.907C551.396 373.889 551.13 373.472 551.281 373.093C551.407 372.776 551.649 372.52 551.959 372.377L564.386 366.651L566.58 366.295Z" fill="#1E1F4B"/>
<path d="M566.966 364.723L566.588 367.922C566.588 367.922 564.411 368.938 562.924 367.794L563.825 364.229L566.966 364.723Z" fill="url(#paint42_linear_2016_58781)"/>
<path d="M567.574 302.457C567.738 303.323 567.281 347.837 562.924 366.823C562.853 367.133 562.402 367.741 562.558 368.008C562.936 368.656 565.72 368.474 567.289 368.529C567.776 368.546 568.037 367.974 568.174 367.489C569.419 363.084 575.387 341.013 576.165 319.929C577.035 296.37 576.165 319.127 576.165 319.127L576.552 304.201L567.574 302.457Z" fill="#1E1F4B"/>
<path d="M580.876 367.69C580.876 367.69 581.627 369.041 582.353 372.629C582.484 373.278 582.033 373.898 581.376 373.962C580.215 374.077 578.427 374.224 576.995 374.214C576.334 374.21 575.819 373.633 575.899 372.976C576.057 371.666 576.552 369.517 578.078 367.842L580.876 367.69Z" fill="#1E1F4B"/>
<path d="M581.535 363.575L580.65 368.414C580.65 368.414 579.776 369.066 578.045 368.593L578.467 363.387L581.535 363.575Z" fill="url(#paint43_linear_2016_58781)"/>
<path d="M583.661 304.192C587.224 326.696 583.152 361.539 581.69 368.021C581.6 368.418 581.294 368.722 580.91 368.789C580.257 368.902 579.182 368.994 578.123 368.672C577.758 368.561 577.501 368.217 577.486 367.819C577.29 362.579 577.643 330.409 574.323 317.695C574.155 317.051 573.779 316.489 573.259 316.102L567.795 311.637L567.693 302.011L583.661 304.192Z" fill="#1E1F4B"/>
<path d="M563.246 268.089C572.637 267.934 582.998 270.561 582.998 270.561C585.306 284.06 584.379 299.02 583.899 303.947C583.801 304.957 584.339 306.026 583.34 306.188C578.427 306.984 570.703 306.174 568.304 305.475C567.427 305.219 567.576 304.283 567.389 303.386C565.778 295.638 561.171 278.549 561.171 278.549C558.937 281.43 555.786 285.461 551.127 286.534C553.501 283.774 548.947 277.988 549.433 275.912C553.645 271.167 560.349 268.137 563.246 268.089Z" fill="url(#paint44_linear_2016_58781)"/>
<path d="M572.76 260.445L575.748 269.109C575.797 269.252 575.738 269.411 575.606 269.485C574.791 269.936 571.857 271.241 568.32 268.993C567.952 268.759 567.701 268.377 567.645 267.943L566.678 260.445H572.76V260.445Z" fill="url(#paint45_linear_2016_58781)"/>
<path d="M566.257 252.423C566.257 252.423 562.976 258.615 563.397 261.117C563.817 263.618 567.884 263.439 571.435 261.407L573.916 254.721L566.257 252.423Z" fill="url(#paint46_linear_2016_58781)"/>
<path d="M571.278 258.124C571.134 258.06 571.081 257.883 571.167 257.751C571.43 257.348 571.923 256.527 572.08 255.808C572.08 255.808 572.67 255.429 570.578 254.927C569.44 254.654 567.421 254.428 566.534 253.607C565.541 252.689 567.372 250.954 568.141 250.487C569.157 249.873 570.394 249.509 571.539 249.819C572.092 249.968 572.592 250.264 573.084 250.557C573.923 251.056 574.791 251.583 575.324 252.401C575.669 252.931 575.85 253.549 576.016 254.16C576.254 255.037 576.472 255.936 576.431 256.844C576.32 259.264 573.492 261.432 571.217 261.697C571.031 261.719 570.886 261.535 570.947 261.357L571.877 258.647C571.921 258.521 571.861 258.383 571.739 258.329L571.278 258.124Z" fill="#1E1F4B"/>
<path d="M570.903 258.508C570.903 258.508 573.239 256.901 573.41 258.255C573.581 259.608 571.306 260.215 570.18 259.71L570.903 258.508Z" fill="url(#paint47_linear_2016_58781)"/>
<path d="M565.061 250.904C569.854 241.826 582.278 250.073 576.496 257.72C572.197 254.854 567.339 250.594 565.061 250.904Z" fill="url(#paint48_linear_2016_58781)"/>
<path d="M572.548 254.75L563.94 254.483C563.722 254.476 563.522 254.355 563.416 254.163C562.645 252.767 561.517 251.877 560.106 251.389C559.928 251.327 559.965 251.063 560.153 251.05L565.43 250.69C565.436 250.69 565.442 250.69 565.448 250.69C568.078 250.893 570.406 252.479 572.627 254.558C572.701 254.627 572.65 254.753 572.548 254.75Z" fill="url(#paint49_linear_2016_58781)"/>
<path d="M581.935 284.303C576.679 278.387 577.211 273.833 583.144 270.554C583.144 270.554 592.977 277.253 594.594 285.746C592.736 285.883 589.355 286.368 586.046 288.043C585.319 284.033 581.935 284.303 581.935 284.303Z" fill="url(#paint50_linear_2016_58781)"/>
<path d="M570.514 290.391C570.514 290.391 581.554 296.647 585.279 291.306C586.052 290.196 586.237 289.094 586.047 288.043C589.356 286.368 592.737 285.883 594.595 285.746C595.083 288.307 594.825 291.03 593.324 293.782C586.799 305.749 569.053 293.121 569.053 293.121L570.514 290.391Z" fill="url(#paint51_linear_2016_58781)"/>
<path d="M571.84 298.305L565.815 277.208C565.746 276.969 565.543 276.794 565.296 276.765C564.204 276.638 561.041 276.279 557.389 275.969C552.989 275.596 547.881 275.294 544.827 275.551C544.394 275.588 544.131 276.048 544.324 276.44C546.06 279.961 553.201 294.286 556.778 298.978C556.896 299.134 557.079 299.224 557.275 299.223L571.254 299.092C571.661 299.089 571.952 298.697 571.84 298.305Z" fill="#1E1F4B"/>
<path d="M556.763 274.14L552.395 273.41C552.162 273.371 551.971 273.594 552.046 273.819L552.478 275.132C552.516 275.247 552.615 275.33 552.734 275.345L556.938 275.908C557.155 275.937 557.335 275.739 557.285 275.525L557.017 274.378C556.988 274.255 556.888 274.161 556.763 274.14Z" fill="#D0D0D0"/>
<path d="M560.034 277.848L559.674 275.969C559.638 275.781 559.483 275.638 559.293 275.619L550.47 274.721C550.172 274.691 549.935 274.964 550.004 275.255L550.565 277.597C550.61 277.784 550.773 277.919 550.965 277.929L559.587 278.364C559.868 278.378 560.087 278.125 560.034 277.848Z" fill="#D0D0D0"/>
<path d="M570.383 293.208C570.383 293.208 571.223 289.747 570.884 288.52C570.546 287.293 569.89 285.714 567.703 286.065C565.517 286.416 562.938 287.339 562.938 287.339C562.938 287.339 563.068 288.938 564.729 288.422L563.699 289.222C563.699 289.222 563.846 290.502 565.25 289.818L564.292 290.878C564.292 290.878 564.894 291.93 565.927 291.255C566.96 290.581 567.455 293.624 570.383 293.208Z" fill="url(#paint52_linear_2016_58781)"/>
<path d="M573.883 280.036C574.572 280.091 580.401 280.279 580.401 280.279L580.166 286.162L577.146 287.869L573.883 286.162V280.036Z" fill="url(#paint53_linear_2016_58781)"/>
<path d="M573.42 280.036L580.388 280.279L580.672 282.536L577.046 283.48L573.191 281.758L573.42 280.036Z" fill="url(#paint54_linear_2016_58781)"/>
<path d="M393.428 365.875C395.842 366.084 400.033 366.424 403.337 366.57C405.324 366.658 406.467 366.463 407.126 366.198C407.124 366.273 407.122 366.343 407.119 366.408C407.104 366.757 406.821 367.036 406.47 367.055C400.227 367.405 395.262 367.176 393.494 367.069C393.129 367.046 392.911 366.648 393.098 366.336C393.191 366.179 393.305 366.026 393.428 365.875Z" fill="#414141"/>
<path d="M403.338 366.571C400.034 366.425 395.843 366.085 393.428 365.876C395.802 362.955 403.338 360.987 403.338 360.987H405.466C406.93 363.103 407.142 365.117 407.126 366.199C406.467 366.463 405.324 366.658 403.338 366.571Z" fill="#1E1F4B"/>
<path d="M405.824 357.503L405.625 361.455C405.603 361.883 405.284 362.242 404.856 362.303C404.431 362.364 403.861 362.372 403.257 362.171C402.886 362.047 402.61 361.733 402.542 361.35L401.854 357.503H405.824Z" fill="url(#paint55_linear_2016_58781)"/>
<path d="M430.527 370.434C431.575 370.245 432.048 369.54 432.247 368.786C432.249 368.793 432.25 368.8 432.251 368.806C432.405 369.601 432.048 370.425 431.334 370.817C430.471 371.291 429.527 371.371 428.795 371.332C428.009 371.29 427.287 370.869 426.891 370.194L426.885 370.184C427.673 370.69 428.781 370.749 430.527 370.434Z" fill="#414141"/>
<path d="M425.59 358.72H427.345C430.019 358.65 431.698 365.956 432.247 368.786C432.049 369.54 431.575 370.244 430.528 370.434C428.781 370.749 427.674 370.69 426.885 370.184C425.441 367.721 424.724 364.114 424.38 362.009C423.988 359.615 425.59 358.72 425.59 358.72Z" fill="#1E1F4B"/>
<path d="M427.12 355.053L428.095 358.939C428.214 359.416 427.986 359.909 427.547 360.135C427.002 360.415 426.234 360.71 425.529 360.625C425.197 360.585 424.921 360.35 424.812 360.037L423.381 355.948L427.12 355.053Z" fill="url(#paint56_linear_2016_58781)"/>
<path d="M392.834 303.863C392.834 303.863 401.544 358.45 401.4 358.75C401.4 358.75 403.806 359.846 406.428 358.889C406.428 358.889 405.641 329.709 403.795 318.52C403.795 318.52 418.66 344.602 423.381 357.598C423.381 357.598 425.843 357.303 427.881 355.959C427.881 355.959 411.875 309.013 407.605 302.76L392.834 303.863Z" fill="#1E1F4B"/>
<path d="M391.46 265.749C390.838 265.785 390.224 265.905 389.636 266.109C383.252 268.327 378.24 267.769 374.386 266.023C373.493 267.212 372.054 269.685 371.428 273.841C378.443 279.076 387.264 277.697 390.149 277.05C389.394 282.668 389.401 291.556 392.485 304.584C392.566 304.925 392.858 305.177 393.21 305.207C395.181 305.37 401.777 305.758 408.119 304.33C408.404 304.266 408.56 303.959 408.446 303.692L408.389 303.556C407.86 302.308 407.624 300.96 407.699 299.609C407.93 295.505 409.031 286.231 411.378 279.876C411.515 280.108 411.642 280.336 411.766 280.563C412.191 276.383 413.788 272.271 414.915 268.125C405.73 265.197 394.809 265.552 391.46 265.749Z" fill="url(#paint57_linear_2016_58781)"/>
<path d="M405.788 258.16C405.788 258.16 406.43 264.961 406.995 266.973C407.081 267.278 406.948 267.6 406.672 267.759C405.713 268.308 403.413 269.204 400.268 267.658C399.758 267.408 399.452 266.875 399.476 266.312L399.753 259.739L405.788 258.16Z" fill="url(#paint58_linear_2016_58781)"/>
<path d="M399.614 249.459C399.614 249.459 397.562 254.185 397.425 256.666C397.287 259.147 396.753 260.756 399.614 261.256C402.475 261.755 404.885 260.326 406.191 257.855C406.191 257.855 408.237 254.048 407.778 252.488C407.319 250.929 399.614 249.459 399.614 249.459Z" fill="url(#paint59_linear_2016_58781)"/>
<path d="M405.214 256.079L405.051 256.007C404.844 255.915 404.756 255.668 404.86 255.466C405.263 254.684 406.049 252.894 405.033 252.476C404.076 252.082 403.04 251.861 402.056 251.545C401.143 251.252 399.368 250.945 398.892 249.979C398.754 249.7 398.905 249.37 399.054 249.096C399.332 248.584 399.61 248.071 399.888 247.559C400.123 247.126 400.366 246.682 400.741 246.362C401.598 245.631 402.621 246.273 403.57 246.449C407.1 247.102 409.433 248.534 409.491 250.979C409.495 251.134 409.66 251.221 409.792 251.14C410.053 250.98 410.47 250.906 411.027 251.376C411.996 252.193 411.6 254.312 409.475 256.056C409.374 256.139 409.375 256.297 409.484 256.368C409.869 256.62 410.443 257.218 408.956 258.015C407.417 258.84 406.267 258.772 405.825 258.699C405.715 258.681 405.644 258.574 405.668 258.465L406.14 256.316C406.167 256.194 406.074 256.079 405.95 256.079H405.214Z" fill="#1E1F4B"/>
<path d="M405.125 256.532C405.125 256.532 405.908 253.513 407.258 254.359C408.608 255.206 406.557 257.742 405.472 257.855L405.125 256.532Z" fill="url(#paint60_linear_2016_58781)"/>
<path d="M397.918 250.262C401.274 240.285 415.2 246.574 410.608 255.267C405.788 253.078 400.172 249.571 397.918 250.262Z" fill="url(#paint61_linear_2016_58781)"/>
<path d="M406.125 252.914L397.372 254.067C397.15 254.097 396.928 254.007 396.79 253.83C395.78 252.545 394.492 251.832 392.984 251.571C392.794 251.538 392.787 251.265 392.976 251.221L398.256 249.984C398.262 249.983 398.268 249.982 398.274 249.981C400.968 249.752 403.584 250.972 406.173 252.707C406.259 252.765 406.228 252.901 406.125 252.914Z" fill="url(#paint62_linear_2016_58781)"/>
<path d="M408.028 303.291C410.036 303.329 411.683 301.708 411.683 299.695V283.694C411.683 281.591 409.998 279.881 407.901 279.858C401.609 279.789 388.63 279.786 378.01 280.683C376.561 280.805 375.434 281.996 375.382 283.453L374.389 298.924C374.315 300.97 375.929 302.679 377.971 302.718L408.028 303.291Z" fill="url(#paint63_linear_2016_58781)"/>
<path d="M408.038 285.425C408.065 286.786 408.025 288.947 407.992 290.342C407.974 291.068 407.339 291.622 406.619 291.537L401.44 290.929C400.75 290.848 400.264 290.21 400.367 289.521L401.003 285.27C401.093 284.666 401.61 284.22 402.219 284.22H406.809C407.477 284.219 408.025 284.754 408.038 285.425Z" fill="white"/>
<path opacity="0.37" d="M394.506 293.484L390.186 293.951C389.581 294.016 389.066 293.517 389.11 292.909L390.055 280.024C391.866 279.966 393.652 279.924 395.376 279.895V292.513C395.375 293.011 395 293.43 394.506 293.484Z" fill="white"/>
<path d="M392.734 291.25C392.72 291.482 392.529 291.66 392.3 291.66C392.292 291.66 392.283 291.66 392.275 291.66C392.035 291.646 391.852 291.44 391.866 291.2L392.517 279.954C392.81 279.947 393.099 279.94 393.389 279.934L392.734 291.25Z" fill="white"/>
<path d="M397.342 280.453C398.845 280.481 400.079 279.268 400.079 277.761V265.782C400.079 264.209 398.817 262.928 397.247 262.911C392.537 262.859 382.821 262.857 374.871 263.528C373.786 263.62 372.942 264.512 372.903 265.602L372.16 277.183C372.105 278.715 373.313 279.995 374.841 280.024L397.342 280.453Z" fill="url(#paint64_linear_2016_58781)"/>
<path d="M397.35 267.079C397.371 268.098 397.34 269.715 397.316 270.76C397.303 271.303 396.827 271.718 396.288 271.654L392.411 271.199C391.895 271.138 391.531 270.661 391.608 270.145L392.084 266.963C392.151 266.511 392.539 266.176 392.994 266.176H396.43C396.931 266.176 397.341 266.577 397.35 267.079Z" fill="white"/>
<path opacity="0.37" d="M387.219 273.11L383.985 273.46C383.533 273.509 383.146 273.135 383.18 272.68L383.887 263.035C385.242 262.991 386.58 262.96 387.87 262.938V272.384C387.87 272.757 387.589 273.07 387.219 273.11Z" fill="white"/>
<path d="M385.894 271.439C385.884 271.612 385.741 271.746 385.569 271.746C385.563 271.746 385.557 271.746 385.55 271.745C385.371 271.735 385.234 271.581 385.245 271.401L385.732 262.983C385.951 262.977 386.168 262.972 386.385 262.968L385.894 271.439Z" fill="white"/>
<path d="M371.099 269.836C371.76 269.674 373.244 267.66 373.402 268.395C373.56 269.131 373.113 270.064 373.179 270.377C373.246 270.69 373.744 272.442 373.348 273.178C373.062 273.708 372.501 275.377 372.211 276.266C372.115 276.56 372.037 276.95 371.729 276.915C371.422 276.88 371.183 276.466 371.155 276.157C371.143 276.033 370.438 269.999 371.099 269.836Z" fill="url(#paint65_linear_2016_58781)"/>
<path d="M418.458 272.321C417.644 270.448 415.05 268.168 414.914 268.125C413.786 272.271 411.802 275.696 411.377 279.876C414.159 284.999 413.521 291.04 411.784 293.978C412.638 295.251 413.637 296.983 414.503 299.137C425.199 292.718 420.965 278.088 418.458 272.321Z" fill="url(#paint66_linear_2016_58781)"/>
<path d="M404.72 303.783L395.459 303.581C395.459 303.581 403.535 301.292 404.035 301.916C404.035 301.916 409.041 298.618 411.784 293.979C412.638 295.252 413.637 296.984 414.502 299.138C412.043 300.585 408.814 303.1 404.72 303.783Z" fill="url(#paint67_linear_2016_58781)"/>
<path d="M404.981 302.175C404.981 302.175 405.172 305.874 400.329 305.337C397.697 305.045 393.447 302.584 393.447 302.584C393.447 302.584 404.523 302.555 404.981 302.175Z" fill="url(#paint68_linear_2016_58781)"/>
<path d="M1120.8 152.249C1121.06 152.249 1121.2 152.369 1121.2 152.609V156.449C1121.2 156.716 1121.06 156.849 1120.8 156.849C1118.29 156.849 1116.44 156.302 1115.24 155.209C1113.93 155.876 1112.7 156.382 1111.56 156.729C1110.44 157.049 1109.3 157.209 1108.16 157.209C1106.34 157.209 1104.73 156.782 1103.32 155.929C1101.9 155.076 1100.8 153.902 1100 152.409C1099.2 150.916 1098.8 149.262 1098.8 147.449C1098.8 145.636 1099.2 143.956 1100 142.409C1100.8 140.836 1101.9 139.596 1103.32 138.689C1104.76 137.756 1106.37 137.289 1108.16 137.289C1109.73 137.289 1111.37 137.609 1113.08 138.249V135.889L1117.4 135.289L1117.44 148.449C1117.44 149.809 1117.7 150.782 1118.24 151.369C1118.77 151.956 1119.62 152.249 1120.8 152.249ZM1108.16 152.849C1109.92 152.876 1111.65 152.489 1113.36 151.689C1113.2 150.889 1113.12 149.969 1113.12 148.929V142.649C1112.16 142.302 1111.32 142.049 1110.6 141.889C1109.88 141.702 1109.13 141.609 1108.36 141.609C1106.76 141.609 1105.44 142.169 1104.4 143.289C1103.38 144.382 1102.88 145.742 1102.88 147.369C1102.88 148.916 1103.37 150.209 1104.36 151.249C1105.34 152.289 1106.61 152.822 1108.16 152.849ZM1111.56 134.009L1108.24 130.769L1105 134.009L1101.44 130.489L1104.96 127.009L1108.24 130.209L1111.52 127.009L1115.08 130.489L1111.56 134.009ZM1135.07 156.449C1135.07 156.716 1134.94 156.849 1134.67 156.849C1131.34 156.849 1128.96 155.996 1127.55 154.289C1126.56 155.196 1125.62 155.849 1124.71 156.249C1123.83 156.649 1122.8 156.849 1121.63 156.849C1121.36 156.849 1121.23 156.716 1121.23 156.449V152.609C1121.23 152.369 1121.36 152.249 1121.63 152.249C1123.31 152.249 1124.78 151.769 1126.03 150.809C1125.92 150.249 1125.87 149.542 1125.87 148.689L1125.83 128.249L1130.19 127.649V147.409C1130.19 149.062 1130.55 150.289 1131.27 151.089C1131.99 151.862 1133.11 152.249 1134.63 152.249C1134.9 152.249 1135.03 152.369 1135.03 152.609L1135.07 156.449ZM1158.07 152.249C1158.34 152.249 1158.47 152.369 1158.47 152.609V156.449C1158.47 156.716 1158.34 156.849 1158.07 156.849C1154.26 156.849 1150.6 156.316 1147.11 155.249C1143.94 156.316 1140.08 156.849 1135.55 156.849C1135.28 156.822 1135.15 156.689 1135.15 156.449V152.609C1135.15 152.369 1135.28 152.249 1135.55 152.249C1137.71 152.249 1139.46 152.182 1140.79 152.049C1139.86 151.196 1139.14 150.236 1138.63 149.169C1138.12 148.076 1137.87 146.889 1137.87 145.609C1137.87 144.009 1138.26 142.556 1139.03 141.249C1139.83 139.942 1140.91 138.916 1142.27 138.169C1143.66 137.422 1145.2 137.049 1146.91 137.049C1148.64 137.049 1150.19 137.436 1151.55 138.209C1152.94 138.982 1154 140.022 1154.75 141.329C1155.52 142.609 1155.91 144.022 1155.91 145.569C1155.91 148.022 1154.94 150.156 1152.99 151.969C1154.38 152.156 1156.07 152.249 1158.07 152.249ZM1146.79 141.289C1145.4 141.289 1144.27 141.742 1143.39 142.649C1142.51 143.529 1142.07 144.676 1142.07 146.089C1142.07 147.316 1142.5 148.436 1143.35 149.449C1144.23 150.462 1145.39 151.196 1146.83 151.649C1148.3 151.116 1149.47 150.342 1150.35 149.329C1151.26 148.316 1151.71 147.236 1151.71 146.089C1151.71 144.702 1151.23 143.556 1150.27 142.649C1149.34 141.742 1148.18 141.289 1146.79 141.289ZM1149.95 134.129L1146.63 130.889L1143.39 134.129L1139.83 130.609L1143.35 127.129L1146.63 130.329L1149.91 127.129L1153.47 130.609L1149.95 134.129ZM1158.93 156.849C1158.66 156.849 1158.53 156.716 1158.53 156.449L1158.57 152.609C1158.57 152.369 1158.7 152.249 1158.97 152.249C1161.95 152.249 1163.45 150.689 1163.45 147.569L1163.41 137.449L1167.77 136.849V148.929C1167.77 151.489 1167.02 153.449 1165.53 154.809C1164.06 156.169 1161.86 156.849 1158.93 156.849ZM1161.89 130.329L1165.41 126.849L1169.01 130.329L1165.49 133.849L1161.89 130.329ZM1205.46 152.249C1205.73 152.249 1205.86 152.369 1205.86 152.609V156.449C1205.86 156.716 1205.73 156.849 1205.46 156.849C1203.22 156.849 1201.16 156.569 1199.26 156.009C1197.37 155.449 1195.56 154.609 1193.82 153.489C1192.06 154.422 1190.76 155.156 1189.9 155.689C1189.05 156.196 1188.36 156.742 1187.82 157.329C1187.29 157.916 1187.02 158.569 1187.02 159.289C1187.02 160.569 1187.69 161.582 1189.02 162.329C1190.36 163.076 1192.17 163.449 1194.46 163.449C1197.13 163.449 1200.04 162.969 1203.18 162.009L1204.38 165.729C1202.33 166.502 1200.52 167.049 1198.94 167.369C1197.37 167.689 1195.73 167.849 1194.02 167.849C1191.78 167.849 1189.82 167.516 1188.14 166.849C1186.49 166.209 1185.21 165.276 1184.3 164.049C1183.4 162.849 1182.94 161.436 1182.94 159.809C1182.94 158.156 1183.5 156.756 1184.62 155.609C1185.74 154.436 1187.42 153.236 1189.66 152.009C1188.17 150.302 1186.92 148.729 1185.9 147.289C1184.92 145.849 1183.84 144.009 1182.66 141.769L1184.3 137.889C1186.25 136.902 1188.01 136.196 1189.58 135.769C1191.18 135.316 1192.76 135.089 1194.3 135.089C1196.09 135.089 1197.7 135.409 1199.14 136.049C1200.58 136.689 1201.7 137.582 1202.5 138.729C1203.33 139.876 1203.74 141.182 1203.74 142.649C1203.74 145.636 1201.82 148.436 1197.98 151.049C1199.1 151.422 1200.25 151.716 1201.42 151.929C1202.62 152.142 1203.97 152.249 1205.46 152.249ZM1193.46 139.409C1191.7 139.409 1189.64 139.929 1187.26 140.969C1188.25 142.916 1189.21 144.569 1190.14 145.929C1191.08 147.289 1192.16 148.662 1193.38 150.049C1195.38 148.929 1196.86 147.902 1197.82 146.969C1198.81 146.036 1199.3 145.076 1199.3 144.089C1199.3 142.702 1198.77 141.582 1197.7 140.729C1196.66 139.849 1195.25 139.409 1193.46 139.409ZM1217.27 137.049C1219.03 137.049 1220.62 137.462 1222.03 138.289C1223.44 139.089 1224.55 140.196 1225.35 141.609C1226.18 143.022 1226.59 144.609 1226.59 146.369C1226.59 148.502 1226.14 150.369 1225.23 151.969C1224.32 153.542 1223.02 154.756 1221.31 155.609C1219.63 156.436 1217.63 156.849 1215.31 156.849H1206.31C1206.04 156.849 1205.91 156.716 1205.91 156.449V152.609C1205.91 152.369 1206.04 152.249 1206.31 152.249H1209.23C1208.24 150.062 1207.75 148.222 1207.75 146.729C1207.75 144.809 1208.15 143.116 1208.95 141.649C1209.75 140.182 1210.87 139.049 1212.31 138.249C1213.75 137.449 1215.4 137.049 1217.27 137.049ZM1215.51 152.249C1217.59 152.249 1219.23 151.742 1220.43 150.729C1221.63 149.689 1222.23 148.262 1222.23 146.449C1222.23 144.956 1221.74 143.729 1220.75 142.769C1219.79 141.782 1218.58 141.289 1217.11 141.289C1216.18 141.289 1215.31 141.529 1214.51 142.009C1213.74 142.489 1213.12 143.142 1212.67 143.969C1212.22 144.769 1211.99 145.636 1211.99 146.569C1211.99 148.382 1212.55 150.276 1213.67 152.249H1215.51ZM1251.83 165.449C1248.26 165.449 1245.49 164.569 1243.51 162.809C1241.54 161.049 1240.55 158.436 1240.55 154.969C1240.55 152.196 1241.14 149.022 1242.31 145.449L1245.83 146.409C1244.95 149.102 1244.51 151.556 1244.51 153.769C1244.54 156.116 1245.19 157.876 1246.47 159.049C1247.75 160.249 1249.58 160.849 1251.95 160.849C1254.41 160.849 1256.23 160.169 1257.43 158.809C1258.63 157.449 1259.23 155.342 1259.23 152.489V137.449L1263.55 136.849V153.009C1263.55 156.876 1262.58 159.916 1260.63 162.129C1258.69 164.342 1255.75 165.449 1251.83 165.449ZM1248.11 137.289L1251.63 133.809L1255.23 137.289L1251.71 140.809L1248.11 137.289ZM1290.22 127.649V148.689C1290.22 154.129 1287.27 156.849 1281.38 156.849H1268.38L1267.62 152.249H1276.22L1272.54 133.969L1276.82 132.889L1280.26 152.249H1281.38H1281.42C1282.94 152.249 1284.06 151.862 1284.78 151.089C1285.5 150.289 1285.86 149.062 1285.86 147.409L1285.9 128.249L1290.22 127.649ZM1272.26 126.649C1272.66 126.649 1273.03 126.716 1273.38 126.849C1273.75 126.956 1274.2 127.129 1274.74 127.369C1275.22 127.609 1275.66 127.796 1276.06 127.929C1276.46 128.062 1276.87 128.129 1277.3 128.129C1277.75 128.129 1278.27 128.049 1278.86 127.889C1279.47 127.702 1279.99 127.462 1280.42 127.169L1280.38 129.969C1279.39 130.609 1278.36 130.929 1277.3 130.929C1276.6 130.929 1275.75 130.662 1274.74 130.129C1274.66 130.076 1274.46 129.982 1274.14 129.849C1273.84 129.716 1273.56 129.622 1273.3 129.569C1273.06 129.489 1272.82 129.449 1272.58 129.449C1272.04 129.449 1271.6 129.582 1271.26 129.849C1270.94 130.116 1270.74 130.502 1270.66 131.009H1268.42C1268.44 129.676 1268.79 128.622 1269.46 127.849C1270.15 127.049 1271.08 126.649 1272.26 126.649ZM1297.54 128.249L1301.9 127.649V156.849H1297.54V128.249ZM924.775 216.649L924.295 210.729V196.649H926.975V210.729L926.495 216.649H924.775ZM924.415 223.849V219.929H926.815V223.849H924.415ZM960.139 221.249C960.406 221.249 960.539 221.369 960.539 221.609V223.489C960.539 223.729 960.406 223.849 960.139 223.849C959.019 223.849 958.006 223.649 957.099 223.249C956.193 222.822 955.473 222.182 954.939 221.329C954.726 224.769 953.726 227.476 951.939 229.449C950.153 231.449 947.446 232.449 943.819 232.449C940.619 232.449 938.046 231.569 936.099 229.809C934.179 228.076 933.219 225.529 933.219 222.169C933.219 219.236 933.819 215.996 935.019 212.449L937.019 213.009C935.979 215.996 935.459 218.862 935.459 221.609C935.539 224.302 936.313 226.342 937.779 227.729C939.273 229.142 941.366 229.849 944.059 229.849C946.913 229.849 949.033 229.022 950.419 227.369C951.833 225.742 952.539 223.209 952.539 219.769V204.569V195.049L954.979 194.569V214.249H955.019V216.729C955.019 218.222 955.539 219.356 956.579 220.129C957.619 220.876 958.806 221.249 960.139 221.249ZM982.921 221.249C983.188 221.249 983.321 221.369 983.321 221.609V223.489C983.321 223.729 983.188 223.849 982.921 223.849H981.121V224.889C981.121 227.396 980.401 229.316 978.961 230.649C977.521 231.982 975.428 232.649 972.681 232.649C970.254 232.649 968.214 231.862 966.561 230.289C964.908 228.742 963.814 226.582 963.281 223.809C962.774 223.836 961.974 223.849 960.881 223.849C960.614 223.849 960.481 223.729 960.481 223.489V221.609C960.481 221.369 960.614 221.249 960.881 221.249C961.841 221.249 962.548 221.236 963.001 221.209V220.289C963.001 216.982 963.708 213.729 965.121 210.529C966.561 207.329 968.828 204.129 971.921 200.929H974.241C976.241 202.929 977.801 205.036 978.921 207.249C980.068 209.436 980.641 211.422 980.641 213.209C980.641 216.836 979.014 219.516 975.761 221.249H982.921ZM965.401 219.729C965.401 220.369 965.414 220.836 965.441 221.129C969.868 220.889 973.094 220.169 975.121 218.969C977.174 217.769 978.201 215.889 978.201 213.329C978.201 211.836 977.734 210.182 976.801 208.369C975.894 206.556 974.614 204.742 972.961 202.929C970.721 205.222 968.894 207.876 967.481 210.889C966.094 213.876 965.401 216.822 965.401 219.729ZM978.881 223.849H978.721H973.001L972.561 222.529C970.694 223.089 968.428 223.476 965.761 223.689C966.214 225.796 967.028 227.396 968.201 228.489C969.401 229.609 970.908 230.169 972.721 230.169C976.828 230.169 978.881 228.409 978.881 224.889V223.849ZM1016.15 204.089V216.369C1016.15 218.716 1015.48 220.542 1014.15 221.849C1012.84 223.156 1010.91 223.809 1008.35 223.809C1006.24 223.809 1004.02 223.116 1001.67 221.729C1000.28 223.116 998.31 223.809 995.75 223.809C994.87 223.809 993.897 223.649 992.83 223.329C991.764 222.982 990.71 222.489 989.67 221.849C988.284 223.182 986.284 223.849 983.67 223.849C983.404 223.849 983.27 223.729 983.27 223.489V221.609C983.27 221.369 983.404 221.249 983.67 221.249C985.484 221.249 986.87 220.809 987.83 219.929C988.79 219.022 989.27 217.702 989.27 215.969V208.929L991.71 208.449V216.409C991.71 217.716 991.457 218.942 990.95 220.089C991.75 220.436 992.564 220.716 993.39 220.929C994.217 221.116 994.95 221.209 995.59 221.209C997.404 221.209 998.79 220.769 999.75 219.889C1000.71 218.982 1001.19 217.662 1001.19 215.929V208.889L1003.63 208.409V216.369C1003.63 217.729 1003.39 218.929 1002.91 219.969C1004.72 220.796 1006.47 221.209 1008.15 221.209C1009.94 221.209 1011.31 220.769 1012.27 219.889C1013.23 218.982 1013.71 217.662 1013.71 215.929V204.529L1016.15 204.089ZM1023.23 200.249L1025.67 199.769V223.849H1023.23V200.249ZM1029.23 195.849L1028.75 197.569H1019.87V195.849H1022.23C1021.77 195.129 1021.55 194.329 1021.55 193.449C1021.55 192.462 1021.87 191.649 1022.51 191.009C1023.17 190.369 1024.01 190.049 1025.03 190.049C1025.75 190.049 1026.73 190.289 1027.99 190.769V192.369C1026.89 191.969 1026.03 191.769 1025.39 191.769C1024.75 191.769 1024.23 191.956 1023.83 192.329C1023.45 192.702 1023.27 193.182 1023.27 193.769C1023.27 194.596 1023.51 195.289 1023.99 195.849H1029.23ZM1039.38 230.209C1044.56 230.209 1047.13 227.689 1047.1 222.649V204.569L1049.5 204.129V222.729C1049.5 229.209 1046.22 232.449 1039.66 232.449L1039.38 230.209ZM1064.78 223.849C1062.06 223.849 1060.05 223.196 1058.74 221.889C1057.43 220.582 1056.78 218.636 1056.78 216.049V195.129L1059.22 194.649V215.689C1059.22 217.556 1059.67 218.956 1060.58 219.889C1061.49 220.796 1062.89 221.249 1064.78 221.249C1065.05 221.249 1065.18 221.369 1065.18 221.609V223.489C1065.18 223.729 1065.05 223.849 1064.78 223.849ZM1088.06 204.729C1089.66 204.729 1091.11 205.089 1092.42 205.809C1093.72 206.502 1094.75 207.476 1095.5 208.729C1096.27 209.982 1096.66 211.396 1096.66 212.969C1096.66 214.089 1096.58 215.076 1096.42 215.929C1096.28 216.756 1096 217.982 1095.58 219.609L1095.1 221.489L1093.02 223.849H1071.1H1065.62C1065.35 223.849 1065.22 223.729 1065.22 223.489V221.609C1065.22 221.369 1065.35 221.249 1065.62 221.249H1069.9V204.569L1072.34 204.129V209.289C1076.63 207.529 1079.82 206.329 1081.9 205.689C1084 205.049 1086.06 204.729 1088.06 204.729ZM1092.7 221.249C1093.23 219.462 1093.6 217.996 1093.82 216.849C1094.06 215.702 1094.18 214.542 1094.18 213.369C1094.15 211.556 1093.51 210.089 1092.26 208.969C1091.03 207.849 1089.47 207.289 1087.58 207.289C1086.35 207.289 1085.18 207.409 1084.06 207.649C1082.94 207.862 1081.71 208.196 1080.38 208.649C1079.04 209.076 1076.79 209.862 1073.62 211.009L1072.34 211.489V221.249H1092.7ZM1145.41 223.489C1145.41 223.729 1145.28 223.849 1145.01 223.849C1141.68 223.849 1139.39 222.849 1138.13 220.849C1136.61 221.916 1134.99 222.689 1133.25 223.169C1131.52 223.622 1129.52 223.849 1127.25 223.849H1121.81C1118.69 223.849 1116.29 223.129 1114.61 221.689C1112.96 220.249 1112.13 218.116 1112.13 215.289C1112.13 213.476 1112.43 211.156 1113.01 208.329L1115.17 208.649C1114.91 210.142 1114.72 211.329 1114.61 212.209C1114.51 213.062 1114.45 213.876 1114.45 214.649C1114.45 216.889 1115.12 218.556 1116.45 219.649C1117.79 220.716 1119.76 221.249 1122.37 221.249H1127.25C1129.49 221.249 1131.43 221.062 1133.05 220.689C1134.71 220.316 1136.15 219.742 1137.37 218.969C1137.13 218.116 1137.01 217.142 1137.01 216.049L1136.97 195.129L1139.41 194.649V215.689C1139.41 217.556 1139.87 218.956 1140.77 219.889C1141.71 220.796 1143.11 221.249 1144.97 221.249C1145.24 221.249 1145.37 221.369 1145.37 221.609L1145.41 223.489ZM1131.05 209.369H1121.81V207.369H1124.37C1123.79 206.542 1123.49 205.702 1123.49 204.849C1123.49 203.756 1123.87 202.862 1124.61 202.169C1125.36 201.476 1126.31 201.129 1127.45 201.129C1128.41 201.129 1129.41 201.382 1130.45 201.889V203.729C1129.17 203.329 1128.27 203.129 1127.73 203.129C1126.99 203.129 1126.39 203.316 1125.93 203.689C1125.51 204.062 1125.29 204.582 1125.29 205.249C1125.29 205.996 1125.59 206.702 1126.17 207.369H1131.69L1131.05 209.369ZM1183.25 221.249C1183.52 221.249 1183.65 221.369 1183.65 221.609V223.489C1183.65 223.729 1183.52 223.849 1183.25 223.849C1181.01 223.849 1178.88 222.996 1176.85 221.289C1175.52 222.969 1173.41 223.809 1170.53 223.809C1168.43 223.809 1166.2 223.116 1163.85 221.729C1162.47 223.116 1160.49 223.809 1157.93 223.809C1157.05 223.809 1156.08 223.649 1155.01 223.329C1153.95 222.982 1152.89 222.489 1151.85 221.849C1150.47 223.182 1148.47 223.849 1145.85 223.849C1145.59 223.849 1145.45 223.729 1145.45 223.489V221.609C1145.45 221.369 1145.59 221.249 1145.85 221.249C1147.67 221.249 1149.05 220.809 1150.01 219.929C1150.97 219.022 1151.45 217.702 1151.45 215.969V208.929L1153.89 208.449V216.409C1153.89 217.716 1153.64 218.942 1153.13 220.089C1153.93 220.436 1154.75 220.716 1155.57 220.929C1156.4 221.116 1157.13 221.209 1157.77 221.209C1159.59 221.209 1160.97 220.769 1161.93 219.889C1162.89 218.982 1163.37 217.662 1163.37 215.929V208.889L1165.81 208.409V216.369C1165.81 217.729 1165.57 218.929 1165.09 219.969C1166.91 220.796 1168.65 221.209 1170.33 221.209C1172.12 221.209 1173.49 220.769 1174.45 219.889C1175.41 218.982 1175.89 217.662 1175.89 215.929V204.529L1178.33 204.089V216.369C1178.33 217.436 1178.19 218.436 1177.89 219.369C1179.68 220.622 1181.47 221.249 1183.25 221.249ZM1162.53 194.849L1164.25 193.089L1166.05 194.849L1164.29 196.649L1162.53 194.849ZM1158.61 199.529L1160.89 197.249L1163.21 199.529L1160.89 201.809L1158.61 199.529ZM1165.25 199.529L1167.57 197.249L1169.89 199.529L1167.61 201.809L1165.25 199.529ZM1206.59 221.249C1206.86 221.249 1206.99 221.369 1206.99 221.609V223.489C1206.99 223.729 1206.86 223.849 1206.59 223.849C1204.43 223.849 1202.46 223.756 1200.67 223.569C1198.91 223.356 1197.2 223.009 1195.55 222.529C1192.62 223.409 1188.79 223.849 1184.07 223.849C1183.8 223.849 1183.67 223.729 1183.67 223.489V221.609C1183.67 221.369 1183.8 221.249 1184.07 221.249C1187.14 221.249 1189.62 221.142 1191.51 220.929C1190.04 220.076 1188.91 218.996 1188.11 217.689C1187.31 216.382 1186.91 214.916 1186.91 213.289C1186.91 211.689 1187.28 210.249 1188.03 208.969C1188.78 207.689 1189.79 206.689 1191.07 205.969C1192.38 205.249 1193.83 204.889 1195.43 204.889C1197.08 204.889 1198.56 205.262 1199.87 206.009C1201.18 206.756 1202.2 207.769 1202.95 209.049C1203.7 210.302 1204.07 211.702 1204.07 213.249C1204.07 214.876 1203.67 216.342 1202.87 217.649C1202.07 218.929 1200.92 220.009 1199.43 220.889C1201.19 221.129 1203.58 221.249 1206.59 221.249ZM1189.31 213.529C1189.31 215.156 1189.86 216.596 1190.95 217.849C1192.04 219.102 1193.54 219.996 1195.43 220.529C1197.38 219.916 1198.9 218.996 1199.99 217.769C1201.08 216.542 1201.63 215.116 1201.63 213.489C1201.63 211.702 1201.03 210.236 1199.83 209.089C1198.66 207.942 1197.16 207.369 1195.35 207.369C1193.59 207.369 1192.14 207.942 1190.99 209.089C1189.87 210.236 1189.31 211.716 1189.31 213.529ZM1193.07 198.769L1195.39 196.489L1197.71 198.769L1195.43 201.049L1193.07 198.769ZM1214.76 221.089C1216.95 220.982 1219.02 220.822 1220.96 220.609C1222.94 220.369 1225.28 220.022 1228 219.569L1227.48 222.129C1224.47 222.689 1221.42 223.116 1218.32 223.409C1215.23 223.702 1211.6 223.849 1207.44 223.849C1207.18 223.849 1207.04 223.729 1207.04 223.489V221.609C1207.04 221.369 1207.18 221.249 1207.44 221.249C1209.63 221.249 1211.2 221.236 1212.16 221.209C1210.32 218.596 1209.4 215.969 1209.4 213.329C1209.4 211.729 1209.8 210.289 1210.6 209.009C1211.4 207.729 1212.48 206.729 1213.84 206.009C1215.2 205.289 1216.68 204.929 1218.28 204.929C1219.22 204.929 1220.2 205.049 1221.24 205.289C1222.28 205.502 1223.63 205.889 1225.28 206.449L1224.6 208.569C1223.22 208.142 1222.1 207.849 1221.24 207.689C1220.42 207.529 1219.59 207.449 1218.76 207.449C1216.76 207.449 1215.1 208.036 1213.76 209.209C1212.46 210.382 1211.8 211.956 1211.8 213.929C1211.8 216.329 1212.79 218.716 1214.76 221.089ZM1269.83 221.249C1270.1 221.249 1270.23 221.369 1270.23 221.609V223.489C1270.23 223.729 1270.1 223.849 1269.83 223.849C1268.71 223.849 1267.7 223.649 1266.79 223.249C1265.88 222.822 1265.16 222.182 1264.63 221.329C1264.42 224.769 1263.42 227.476 1261.63 229.449C1259.84 231.449 1257.14 232.449 1253.51 232.449C1250.31 232.449 1247.74 231.569 1245.79 229.809C1243.87 228.076 1242.91 225.529 1242.91 222.169C1242.91 219.236 1243.51 215.996 1244.71 212.449L1246.71 213.009C1245.67 215.996 1245.15 218.862 1245.15 221.609C1245.23 224.302 1246 226.342 1247.47 227.729C1248.96 229.142 1251.06 229.849 1253.75 229.849C1256.6 229.849 1258.72 229.022 1260.11 227.369C1261.52 225.742 1262.23 223.209 1262.23 219.769V204.569V195.049L1264.67 194.569V214.249H1264.71V216.729C1264.71 218.222 1265.23 219.356 1266.27 220.129C1267.31 220.876 1268.5 221.249 1269.83 221.249ZM1293.17 221.249C1293.44 221.249 1293.57 221.369 1293.57 221.609V223.489C1293.57 223.729 1293.44 223.849 1293.17 223.849C1291.01 223.849 1289.04 223.756 1287.25 223.569C1285.49 223.356 1283.78 223.009 1282.13 222.529C1279.2 223.409 1275.37 223.849 1270.65 223.849C1270.38 223.849 1270.25 223.729 1270.25 223.489V221.609C1270.25 221.369 1270.38 221.249 1270.65 221.249C1273.72 221.249 1276.2 221.142 1278.09 220.929C1276.62 220.076 1275.49 218.996 1274.69 217.689C1273.89 216.382 1273.49 214.916 1273.49 213.289C1273.49 211.689 1273.86 210.249 1274.61 208.969C1275.36 207.689 1276.37 206.689 1277.65 205.969C1278.96 205.249 1280.41 204.889 1282.01 204.889C1283.66 204.889 1285.14 205.262 1286.45 206.009C1287.76 206.756 1288.78 207.769 1289.53 209.049C1290.28 210.302 1290.65 211.702 1290.65 213.249C1290.65 214.876 1290.25 216.342 1289.45 217.649C1288.65 218.929 1287.5 220.009 1286.01 220.889C1287.77 221.129 1290.16 221.249 1293.17 221.249ZM1275.89 213.529C1275.89 215.156 1276.44 216.596 1277.53 217.849C1278.62 219.102 1280.12 219.996 1282.01 220.529C1283.96 219.916 1285.48 218.996 1286.57 217.769C1287.66 216.542 1288.21 215.116 1288.21 213.489C1288.21 211.702 1287.61 210.236 1286.41 209.089C1285.24 207.942 1283.74 207.369 1281.93 207.369C1280.17 207.369 1278.72 207.942 1277.57 209.089C1276.45 210.236 1275.89 211.716 1275.89 213.529ZM1276.77 198.809L1279.05 196.529L1281.37 198.809L1279.09 201.129L1276.77 198.809ZM1282.89 198.809L1285.21 196.529L1287.53 198.809L1285.25 201.129L1282.89 198.809ZM1294.02 223.849C1293.76 223.849 1293.62 223.729 1293.62 223.489V221.609C1293.62 221.369 1293.76 221.249 1294.02 221.249C1295.84 221.249 1297.22 220.809 1298.18 219.929C1299.14 219.022 1299.62 217.702 1299.62 215.969V204.569L1302.06 204.129V216.409C1302.06 218.782 1301.38 220.622 1300.02 221.929C1298.66 223.209 1296.66 223.849 1294.02 223.849ZM1298.42 198.169L1300.74 195.889L1303.06 198.169L1300.78 200.449L1298.42 198.169Z" fill="#1E1F4B"/>
<path d="M1042 266.892C1036.01 286.504 1003.31 285.57 987.708 282.651C920.312 265.141 830.45 298.411 785.519 321.175C669.448 373.123 390.5 388.457 368.5 273.5" stroke="url(#paint69_linear_2016_58781)" stroke-width="3.49493" stroke-linecap="round" stroke-linejoin="round" stroke-dasharray="6.99 6.99"/>
<defs>
<linearGradient id="paint0_linear_2016_58781" x1="944.589" y1="287.378" x2="1350.01" y2="312.579" gradientUnits="userSpaceOnUse">
<stop stop-color="#FD6D17"/>
<stop offset="1" stop-color="#FF6103"/>
</linearGradient>
<linearGradient id="paint1_linear_2016_58781" x1="494.911" y1="125.942" x2="537.743" y2="349.113" gradientUnits="userSpaceOnUse">
<stop stop-color="#FD6D17"/>
<stop offset="1" stop-color="#FFBC95"/>
</linearGradient>
<linearGradient id="paint2_linear_2016_58781" x1="491.628" y1="127.512" x2="494.447" y2="208.094" gradientUnits="userSpaceOnUse">
<stop stop-color="#CE540B"/>
<stop offset="1" stop-color="#FFBC95"/>
</linearGradient>
<linearGradient id="paint3_linear_2016_58781" x1="473.422" y1="101.916" x2="514.256" y2="180.277" gradientUnits="userSpaceOnUse">
<stop stop-color="#FD6D17"/>
<stop offset="1" stop-color="#FFBC95"/>
</linearGradient>
<linearGradient id="paint4_linear_2016_58781" x1="467.742" y1="100.255" x2="470.742" y2="130.556" gradientUnits="userSpaceOnUse">
<stop stop-color="#FD6D17"/>
<stop offset="1" stop-color="#FFBC95"/>
</linearGradient>
<linearGradient id="paint5_linear_2016_58781" x1="298.104" y1="72.4878" x2="398.91" y2="838.032" gradientUnits="userSpaceOnUse">
<stop stop-color="#CE540B"/>
<stop offset="1" stop-color="#FFBC95"/>
</linearGradient>
<linearGradient id="paint6_linear_2016_58781" x1="538.424" y1="341.547" x2="422.385" y2="422.294" gradientUnits="userSpaceOnUse">
<stop stop-color="#F5C25B"/>
<stop offset="1" stop-color="#FF928E"/>
</linearGradient>
<linearGradient id="paint7_linear_2016_58781" x1="537.745" y1="314.076" x2="456.254" y2="370.783" gradientUnits="userSpaceOnUse">
<stop stop-color="#F5C25B"/>
<stop offset="1" stop-color="#FF928E"/>
</linearGradient>
<linearGradient id="paint8_linear_2016_58781" x1="517.291" y1="352.616" x2="440.526" y2="398.781" gradientUnits="userSpaceOnUse">
<stop stop-color="#F5C25B"/>
<stop offset="1" stop-color="#FF928E"/>
</linearGradient>
<linearGradient id="paint9_linear_2016_58781" x1="440.85" y1="259.729" x2="480.346" y2="398.647" gradientUnits="userSpaceOnUse">
<stop stop-color="#FD6D17"/>
<stop offset="1" stop-color="#FFBC95"/>
</linearGradient>
<linearGradient id="paint10_linear_2016_58781" x1="475.105" y1="256.006" x2="481.994" y2="285.699" gradientUnits="userSpaceOnUse">
<stop stop-color="#FF928E"/>
<stop offset="1" stop-color="#FEB3B1"/>
</linearGradient>
<linearGradient id="paint11_linear_2016_58781" x1="474.253" y1="251.876" x2="479.847" y2="271.304" gradientUnits="userSpaceOnUse">
<stop stop-color="#FF928E"/>
<stop offset="1" stop-color="#FEB3B1"/>
</linearGradient>
<linearGradient id="paint12_linear_2016_58781" x1="486.114" y1="270.07" x2="480.656" y2="257.371" gradientUnits="userSpaceOnUse">
<stop stop-color="#FF928E"/>
<stop offset="1" stop-color="#FEB3B1"/>
</linearGradient>
<linearGradient id="paint13_linear_2016_58781" x1="469.152" y1="243.916" x2="475.565" y2="273.897" gradientUnits="userSpaceOnUse">
<stop stop-color="#FD6D17"/>
<stop offset="1" stop-color="#FFBC95"/>
</linearGradient>
<linearGradient id="paint14_linear_2016_58781" x1="464.525" y1="249.705" x2="466.062" y2="264.472" gradientUnits="userSpaceOnUse">
<stop stop-color="#FD6D17"/>
<stop offset="1" stop-color="#FFBC95"/>
</linearGradient>
<linearGradient id="paint15_linear_2016_58781" x1="475.348" y1="273.033" x2="384.696" y2="336.113" gradientUnits="userSpaceOnUse">
<stop stop-color="#F5C25B"/>
<stop offset="1" stop-color="#FF928E"/>
</linearGradient>
<linearGradient id="paint16_linear_2016_58781" x1="486.001" y1="285.563" x2="452.519" y2="305.876" gradientUnits="userSpaceOnUse">
<stop stop-color="#FF928E"/>
<stop offset="1" stop-color="#FEB3B1"/>
</linearGradient>
<linearGradient id="paint17_linear_2016_58781" x1="468.668" y1="263.049" x2="507.013" y2="354.301" gradientUnits="userSpaceOnUse">
<stop stop-color="#FD6D17"/>
<stop offset="1" stop-color="#FFBC95"/>
</linearGradient>
<linearGradient id="paint18_linear_2016_58781" x1="481.939" y1="298.071" x2="452.627" y2="295.87" gradientUnits="userSpaceOnUse">
<stop stop-color="#FF928E"/>
<stop offset="1" stop-color="#FEB3B1"/>
</linearGradient>
<linearGradient id="paint19_linear_2016_58781" x1="461.375" y1="277.123" x2="452.001" y2="278.759" gradientUnits="userSpaceOnUse">
<stop stop-color="#FF928E"/>
<stop offset="1" stop-color="#FEB3B1"/>
</linearGradient>
<linearGradient id="paint20_linear_2016_58781" x1="221.729" y1="317.195" x2="545.642" y2="1128.95" gradientUnits="userSpaceOnUse">
<stop stop-color="#FD6D17"/>
<stop offset="1" stop-color="#FFBC95"/>
</linearGradient>
<linearGradient id="paint21_linear_2016_58781" x1="179.844" y1="260.756" x2="209.707" y2="507.441" gradientUnits="userSpaceOnUse">
<stop stop-color="#FD6D17"/>
<stop offset="1" stop-color="#FFBC95"/>
</linearGradient>
<linearGradient id="paint22_linear_2016_58781" x1="135.942" y1="282.682" x2="216.548" y2="474.585" gradientUnits="userSpaceOnUse">
<stop stop-color="#FD6D17"/>
<stop offset="1" stop-color="#FFBC95"/>
</linearGradient>
<linearGradient id="paint23_linear_2016_58781" x1="134.765" y1="342.633" x2="138.827" y2="385.149" gradientUnits="userSpaceOnUse">
<stop stop-color="#FD6D17"/>
<stop offset="1" stop-color="#FFBC95"/>
</linearGradient>
<linearGradient id="paint24_linear_2016_58781" x1="156.017" y1="313.18" x2="182.02" y2="326.566" gradientUnits="userSpaceOnUse">
<stop stop-color="#E1473D"/>
<stop offset="1" stop-color="#E9605A"/>
</linearGradient>
<linearGradient id="paint25_linear_2016_58781" x1="164.125" y1="269.237" x2="181.493" y2="331.967" gradientUnits="userSpaceOnUse">
<stop stop-color="#FD6D17"/>
<stop offset="1" stop-color="#FFBC95"/>
</linearGradient>
<linearGradient id="paint26_linear_2016_58781" x1="378.845" y1="873.212" x2="408.499" y2="944.687" gradientUnits="userSpaceOnUse">
<stop stop-color="#09005D"/>
<stop offset="1" stop-color="#1A0F91"/>
</linearGradient>
<linearGradient id="paint27_linear_2016_58781" x1="149.576" y1="338.657" x2="177.437" y2="426.429" gradientUnits="userSpaceOnUse">
<stop stop-color="#FD6D17"/>
<stop offset="1" stop-color="#FFBC95"/>
</linearGradient>
<linearGradient id="paint28_linear_2016_58781" x1="152.586" y1="351.87" x2="170.971" y2="351.87" gradientUnits="userSpaceOnUse">
<stop stop-color="#FF928E"/>
<stop offset="1" stop-color="#FEB3B1"/>
</linearGradient>
<linearGradient id="paint29_linear_2016_58781" x1="308.963" y1="339.122" x2="336.824" y2="426.894" gradientUnits="userSpaceOnUse">
<stop stop-color="#FD6D17"/>
<stop offset="1" stop-color="#FFBC95"/>
</linearGradient>
<linearGradient id="paint30_linear_2016_58781" x1="311.973" y1="352.335" x2="330.358" y2="352.335" gradientUnits="userSpaceOnUse">
<stop stop-color="#FF928E"/>
<stop offset="1" stop-color="#FEB3B1"/>
</linearGradient>
<linearGradient id="paint31_linear_2016_58781" x1="434.154" y1="850.267" x2="463.808" y2="921.742" gradientUnits="userSpaceOnUse">
<stop stop-color="#09005D"/>
<stop offset="1" stop-color="#1A0F91"/>
</linearGradient>
<linearGradient id="paint32_linear_2016_58781" x1="214.547" y1="339.122" x2="242.408" y2="426.894" gradientUnits="userSpaceOnUse">
<stop stop-color="#FD6D17"/>
<stop offset="1" stop-color="#FFBC95"/>
</linearGradient>
<linearGradient id="paint33_linear_2016_58781" x1="217.557" y1="352.335" x2="235.941" y2="352.335" gradientUnits="userSpaceOnUse">
<stop stop-color="#FF928E"/>
<stop offset="1" stop-color="#FEB3B1"/>
</linearGradient>
<linearGradient id="paint34_linear_2016_58781" x1="347.291" y1="339.122" x2="375.152" y2="426.894" gradientUnits="userSpaceOnUse">
<stop stop-color="#FD6D17"/>
<stop offset="1" stop-color="#FFBC95"/>
</linearGradient>
<linearGradient id="paint35_linear_2016_58781" x1="350.301" y1="352.335" x2="368.686" y2="352.335" gradientUnits="userSpaceOnUse">
<stop stop-color="#FF928E"/>
<stop offset="1" stop-color="#FEB3B1"/>
</linearGradient>
<linearGradient id="paint36_linear_2016_58781" x1="144.868" y1="342.824" x2="139.955" y2="331.112" gradientUnits="userSpaceOnUse">
<stop stop-color="#E1473D"/>
<stop offset="1" stop-color="#E9605A"/>
</linearGradient>
<linearGradient id="paint37_linear_2016_58781" x1="217.742" y1="240.003" x2="200.799" y2="277.673" gradientUnits="userSpaceOnUse">
<stop stop-color="#FF928E"/>
<stop offset="1" stop-color="#FEB3B1"/>
</linearGradient>
<linearGradient id="paint38_linear_2016_58781" x1="227.162" y1="149.344" x2="424.76" y2="681.781" gradientUnits="userSpaceOnUse">
<stop stop-color="#FD6D17"/>
<stop offset="1" stop-color="#FFBC95"/>
</linearGradient>
<linearGradient id="paint39_linear_2016_58781" x1="358.758" y1="177.491" x2="780.842" y2="376.78" gradientUnits="userSpaceOnUse">
<stop stop-color="#CE540B"/>
<stop offset="1" stop-color="#FFBC95"/>
</linearGradient>
<linearGradient id="paint40_linear_2016_58781" x1="554.116" y1="195.812" x2="550.348" y2="223.061" gradientUnits="userSpaceOnUse">
<stop stop-color="#FF928E"/>
<stop offset="1" stop-color="#FEB3B1"/>
</linearGradient>
<linearGradient id="paint41_linear_2016_58781" x1="531.167" y1="192.638" x2="527.399" y2="219.886" gradientUnits="userSpaceOnUse">
<stop stop-color="#FF928E"/>
<stop offset="1" stop-color="#FEB3B1"/>
</linearGradient>
<linearGradient id="paint42_linear_2016_58781" x1="566.966" y1="366.283" x2="562.924" y2="366.283" gradientUnits="userSpaceOnUse">
<stop stop-color="#FF928E"/>
<stop offset="1" stop-color="#FEB3B1"/>
</linearGradient>
<linearGradient id="paint43_linear_2016_58781" x1="581.535" y1="366.076" x2="578.045" y2="366.076" gradientUnits="userSpaceOnUse">
<stop stop-color="#FF928E"/>
<stop offset="1" stop-color="#FEB3B1"/>
</linearGradient>
<linearGradient id="paint44_linear_2016_58781" x1="546.807" y1="263.337" x2="589.551" y2="385.619" gradientUnits="userSpaceOnUse">
<stop stop-color="#FD6D17"/>
<stop offset="1" stop-color="#FFBC95"/>
</linearGradient>
<linearGradient id="paint45_linear_2016_58781" x1="567.548" y1="256.862" x2="577.278" y2="283.783" gradientUnits="userSpaceOnUse">
<stop stop-color="#FF928E"/>
<stop offset="1" stop-color="#FEB3B1"/>
</linearGradient>
<linearGradient id="paint46_linear_2016_58781" x1="565.788" y1="-365.36" x2="565.896" y2="-341.963" gradientUnits="userSpaceOnUse">
<stop stop-color="#FF928E"/>
<stop offset="1" stop-color="#FEB3B1"/>
</linearGradient>
<linearGradient id="paint47_linear_2016_58781" x1="568.944" y1="-365.375" x2="569.051" y2="-341.978" gradientUnits="userSpaceOnUse">
<stop stop-color="#FF928E"/>
<stop offset="1" stop-color="#FEB3B1"/>
</linearGradient>
<linearGradient id="paint48_linear_2016_58781" x1="564.106" y1="245.589" x2="573.696" y2="281.587" gradientUnits="userSpaceOnUse">
<stop stop-color="#FD6D17"/>
<stop offset="1" stop-color="#FFBC95"/>
</linearGradient>
<linearGradient id="paint49_linear_2016_58781" x1="559.055" y1="250.189" x2="560.522" y2="264.533" gradientUnits="userSpaceOnUse">
<stop stop-color="#FD6D17"/>
<stop offset="1" stop-color="#FFBC95"/>
</linearGradient>
<linearGradient id="paint50_linear_2016_58781" x1="577.117" y1="268.395" x2="596.28" y2="324.263" gradientUnits="userSpaceOnUse">
<stop stop-color="#FD6D17"/>
<stop offset="1" stop-color="#FFBC95"/>
</linearGradient>
<linearGradient id="paint51_linear_2016_58781" x1="594.819" y1="292.34" x2="569.053" y2="292.34" gradientUnits="userSpaceOnUse">
<stop stop-color="#FF928E"/>
<stop offset="1" stop-color="#FEB3B1"/>
</linearGradient>
<linearGradient id="paint52_linear_2016_58781" x1="585.585" y1="270.035" x2="578.536" y2="277.534" gradientUnits="userSpaceOnUse">
<stop stop-color="#FF928E"/>
<stop offset="1" stop-color="#FEB3B1"/>
</linearGradient>
<linearGradient id="paint53_linear_2016_58781" x1="577.423" y1="282.01" x2="586.838" y2="256.419" gradientUnits="userSpaceOnUse">
<stop stop-color="#FE7062"/>
<stop offset="1" stop-color="#FF928E"/>
</linearGradient>
<linearGradient id="paint54_linear_2016_58781" x1="589.261" y1="260.347" x2="567.386" y2="297.65" gradientUnits="userSpaceOnUse">
<stop stop-color="#FE7062"/>
<stop offset="1" stop-color="#FF928E"/>
</linearGradient>
<linearGradient id="paint55_linear_2016_58781" x1="405.824" y1="359.922" x2="401.853" y2="359.922" gradientUnits="userSpaceOnUse">
<stop stop-color="#FF928E"/>
<stop offset="1" stop-color="#FEB3B1"/>
</linearGradient>
<linearGradient id="paint56_linear_2016_58781" x1="428.126" y1="357.846" x2="423.381" y2="357.846" gradientUnits="userSpaceOnUse">
<stop stop-color="#FF928E"/>
<stop offset="1" stop-color="#FEB3B1"/>
</linearGradient>
<linearGradient id="paint57_linear_2016_58781" x1="368.219" y1="260.713" x2="406.395" y2="391.523" gradientUnits="userSpaceOnUse">
<stop stop-color="#FD6D17"/>
<stop offset="1" stop-color="#FFBC95"/>
</linearGradient>
<linearGradient id="paint58_linear_2016_58781" x1="403.672" y1="256.54" x2="403.201" y2="267.817" gradientUnits="userSpaceOnUse">
<stop stop-color="#FF928E"/>
<stop offset="1" stop-color="#FEB3B1"/>
</linearGradient>
<linearGradient id="paint59_linear_2016_58781" x1="300.549" y1="-25.2284" x2="305.728" y2="-11.0242" gradientUnits="userSpaceOnUse">
<stop stop-color="#FF928E"/>
<stop offset="1" stop-color="#FEB3B1"/>
</linearGradient>
<linearGradient id="paint60_linear_2016_58781" x1="303.982" y1="-26.4811" x2="309.161" y2="-12.2769" gradientUnits="userSpaceOnUse">
<stop stop-color="#FF928E"/>
<stop offset="1" stop-color="#FEB3B1"/>
</linearGradient>
<linearGradient id="paint61_linear_2016_58781" x1="396.914" y1="243.917" x2="405.007" y2="278.07" gradientUnits="userSpaceOnUse">
<stop stop-color="#FD6D17"/>
<stop offset="1" stop-color="#FFBC95"/>
</linearGradient>
<linearGradient id="paint62_linear_2016_58781" x1="391.85" y1="249.445" x2="393.281" y2="264.012" gradientUnits="userSpaceOnUse">
<stop stop-color="#FD6D17"/>
<stop offset="1" stop-color="#FFBC95"/>
</linearGradient>
<linearGradient id="paint63_linear_2016_58781" x1="403.819" y1="284.616" x2="329.114" y2="336.6" gradientUnits="userSpaceOnUse">
<stop stop-color="#F5C25B"/>
<stop offset="1" stop-color="#FF928E"/>
</linearGradient>
<linearGradient id="paint64_linear_2016_58781" x1="394.191" y1="266.472" x2="338.267" y2="305.388" gradientUnits="userSpaceOnUse">
<stop stop-color="#F5C25B"/>
<stop offset="1" stop-color="#FF928E"/>
</linearGradient>
<linearGradient id="paint65_linear_2016_58781" x1="396.578" y1="270.967" x2="386.034" y2="271.668" gradientUnits="userSpaceOnUse">
<stop stop-color="#FF928E"/>
<stop offset="1" stop-color="#FEB3B1"/>
</linearGradient>
<linearGradient id="paint66_linear_2016_58781" x1="410.635" y1="264.296" x2="465.991" y2="320.52" gradientUnits="userSpaceOnUse">
<stop stop-color="#FD6D17"/>
<stop offset="1" stop-color="#FFBC95"/>
</linearGradient>
<linearGradient id="paint67_linear_2016_58781" x1="395.525" y1="286.604" x2="402.281" y2="296.712" gradientUnits="userSpaceOnUse">
<stop stop-color="#FF928E"/>
<stop offset="1" stop-color="#FEB3B1"/>
</linearGradient>
<linearGradient id="paint68_linear_2016_58781" x1="408.955" y1="288.239" x2="402.335" y2="298.143" gradientUnits="userSpaceOnUse">
<stop stop-color="#FF928E"/>
<stop offset="1" stop-color="#FEB3B1"/>
</linearGradient>
<linearGradient id="paint69_linear_2016_58781" x1="313.744" y1="299.306" x2="1042" y2="299.306" gradientUnits="userSpaceOnUse">
<stop stop-color="white"/>
<stop offset="1" stop-color="#FD6D17"/>
</linearGradient>
</defs>
</svg>
