<svg width="71" height="71" viewBox="0 0 71 71" fill="none" xmlns="http://www.w3.org/2000/svg">
<circle cx="35.8656" cy="35.1351" r="34.2568" stroke="#EDEDED" stroke-opacity="0.4" stroke-width="1.75676"/>
<g clip-path="url(#clip0_2016_61524)">
<path d="M49.0938 27.1963V37.7807H55.709" stroke="#FD6D17" stroke-width="1.75676" stroke-miterlimit="10" stroke-linecap="round" stroke-linejoin="round"/>
<path d="M27.9251 47.0432H42.4787V37.7817H16.0176V44.397C16.0175 44.7446 16.0859 45.0888 16.2189 45.4099C16.352 45.731 16.547 46.0228 16.7929 46.2684C17.0386 46.5141 17.3302 46.7089 17.6512 46.8419C17.9722 46.9748 18.3162 47.0431 18.6637 47.0431H19.9868" stroke="#353535" stroke-width="1.75676" stroke-miterlimit="10" stroke-linecap="round" stroke-linejoin="round"/>
<path d="M42.4787 37.7811V21.9044C42.4787 21.5569 42.4103 21.2128 42.2772 20.8918C42.1442 20.5708 41.9492 20.2792 41.7034 20.0336C41.4577 19.7879 41.1661 19.5929 40.8451 19.4599C40.5241 19.3269 40.1801 19.2584 39.8326 19.2583H18.6637C18.3162 19.2584 17.9722 19.3269 17.6512 19.4599C17.3302 19.5929 17.0385 19.7879 16.7929 20.0336C16.5471 20.2792 16.3521 20.5708 16.219 20.8918C16.086 21.2128 16.0175 21.5569 16.0176 21.9044V37.7811H42.4787Z" stroke="#353535" stroke-width="1.75676" stroke-miterlimit="10" stroke-linecap="round" stroke-linejoin="round"/>
<path d="M50.4188 47.0421H53.0649C53.4123 47.0421 53.7564 46.9737 54.0773 46.8408C54.3983 46.7079 54.69 46.5131 54.9357 46.2674C55.1816 46.0217 55.3766 45.73 55.5096 45.4089C55.6427 45.0878 55.7111 44.7436 55.711 44.396V33.8115C55.711 30.1586 52.7493 27.1963 49.0957 27.1963H42.4805V47.0422" stroke="#353535" stroke-width="1.75676" stroke-miterlimit="10" stroke-linecap="round" stroke-linejoin="round"/>
<path d="M23.9555 51.0116C26.1476 51.0116 27.9247 49.2345 27.9247 47.0424C27.9247 44.8503 26.1476 43.0732 23.9555 43.0732C21.7634 43.0732 19.9863 44.8503 19.9863 47.0424C19.9863 49.2345 21.7634 51.0116 23.9555 51.0116Z" stroke="#FD6D17" stroke-width="1.75676" stroke-miterlimit="10" stroke-linecap="round" stroke-linejoin="round"/>
<path d="M46.4496 51.0116C48.6418 51.0116 50.4188 49.2345 50.4188 47.0424C50.4188 44.8503 48.6418 43.0732 46.4496 43.0732C44.2575 43.0732 42.4805 44.8503 42.4805 47.0424C42.4805 49.2345 44.2575 51.0116 46.4496 51.0116Z" stroke="#FD6D17" stroke-width="1.75676" stroke-miterlimit="10" stroke-linecap="round" stroke-linejoin="round"/>
</g>
<defs>
<clipPath id="clip0_2016_61524">
<rect width="42.1622" height="42.1622" fill="white" transform="translate(14.7832 14.0542)"/>
</clipPath>
</defs>
</svg>
