<svg width="29" height="13" viewBox="0 0 29 13" fill="none" xmlns="http://www.w3.org/2000/svg">
<path fill-rule="evenodd" clip-rule="evenodd" d="M3.87099 2.23628C4.41479 2.28216 4.95859 1.96105 5.29846 1.55393C5.63267 1.13534 5.85359 0.573406 5.79695 0C5.31546 0.0229362 4.72067 0.321107 4.3808 0.739694C4.06925 1.10094 3.80301 1.68581 3.87099 2.23628ZM10.3401 9.62177V0.682376H13.6539C15.3646 0.682376 16.5599 1.87506 16.5599 3.61821C16.5599 5.36136 15.342 6.56552 13.6086 6.56552H11.711V9.62177H10.3401ZM5.79156 2.34525C5.31248 2.31734 4.87534 2.4911 4.52225 2.63144C4.29503 2.72176 4.10262 2.79824 3.95623 2.79824C3.79195 2.79824 3.5916 2.71767 3.36664 2.62721C3.07187 2.50867 2.73487 2.37315 2.38147 2.37965C1.57143 2.39112 0.818044 2.85558 0.404528 3.59527C-0.445161 5.07466 0.183609 7.26507 1.00498 8.46922C1.40716 9.06556 1.88865 9.71924 2.52309 9.69631C2.8022 9.68565 3.00298 9.59941 3.21076 9.51015C3.44998 9.4074 3.69849 9.30066 4.08651 9.30066C4.46109 9.30066 4.69873 9.40462 4.92685 9.50442C5.14375 9.59931 5.35205 9.69043 5.66127 9.68484C6.31837 9.67337 6.73188 9.0885 7.13407 8.49216C7.56809 7.85212 7.75882 7.22748 7.78777 7.13268L7.79116 7.12172C7.79047 7.12102 7.7851 7.11853 7.77564 7.11415C7.63055 7.04691 6.5216 6.53301 6.51096 5.15494C6.50028 3.99825 7.39056 3.4122 7.5307 3.31995L7.53073 3.31993C7.53924 3.31432 7.54499 3.31054 7.54758 3.30857C6.98112 2.45993 6.09745 2.36819 5.79156 2.34525ZM19.0635 9.69051C19.9245 9.69051 20.7232 9.24899 21.0858 8.54943H21.1141V9.6217H22.3829V5.17208C22.3829 3.88191 21.3633 3.05048 19.7942 3.05048C18.3384 3.05048 17.2621 3.89338 17.2225 5.05166H18.4574C18.5593 4.50119 19.0635 4.13995 19.7546 4.13995C20.5929 4.13995 21.0631 4.5356 21.0631 5.26382V5.75695L19.3524 5.86016C17.7606 5.95764 16.8996 6.61706 16.8996 7.76387C16.8996 8.92215 17.789 9.69051 19.0635 9.69051ZM19.432 8.62976C18.7013 8.62976 18.2368 8.27425 18.2368 7.72951C18.2368 7.16758 18.6843 6.84074 19.5397 6.78913L21.0635 6.69165V7.19625C21.0635 8.03342 20.361 8.62976 19.432 8.62976ZM26.592 9.97153C26.0426 11.5369 25.4138 12.053 24.077 12.053C23.975 12.053 23.6351 12.0415 23.5558 12.0186V10.9463C23.6408 10.9578 23.8504 10.9693 23.958 10.9693C24.5641 10.9693 24.904 10.7112 25.1136 10.0403L25.2382 9.64469L22.9157 3.13654H24.3489L25.9633 8.41761H25.9916L27.606 3.13654H28.9995L26.592 9.97153ZM11.7101 1.85207H13.2905C14.4801 1.85207 15.1598 2.49429 15.1598 3.6239C15.1598 4.7535 14.4801 5.40145 13.2848 5.40145H11.7101V1.85207Z" fill="black"/>
</svg>
