<svg width="29" height="10" viewBox="0 0 29 10" fill="none" xmlns="http://www.w3.org/2000/svg">
<path fill-rule="evenodd" clip-rule="evenodd" d="M7.25026 9.68316H4.74051L2.8585 2.50319C2.76917 2.17291 2.5795 1.88093 2.3005 1.74331C1.60423 1.39748 0.836992 1.12224 0 0.983432V0.707003H4.04301C4.60101 0.707003 5.0195 1.12224 5.08925 1.6045L6.06574 6.78365L8.57427 0.707003H11.0143L7.25026 9.68316ZM12.4098 9.68316H10.0396L11.9913 0.707003H14.3616L12.4098 9.68316ZM17.4282 3.19368C17.4979 2.71023 17.9164 2.4338 18.4047 2.4338C19.1719 2.3644 20.0077 2.50321 20.7052 2.84785L21.1237 0.915241C20.4262 0.638813 19.6589 0.5 18.9627 0.5C16.6621 0.5 14.9882 1.74333 14.9882 3.46892C14.9882 4.78165 16.1739 5.47093 17.0109 5.88617C17.9164 6.30022 18.2652 6.57665 18.1954 6.99069C18.1954 7.61176 17.4979 7.88819 16.8016 7.88819C15.9647 7.88819 15.1277 7.68117 14.3616 7.33533L13.9431 9.26913C14.7801 9.61377 15.6857 9.75259 16.5226 9.75259C19.1021 9.8208 20.7052 8.57866 20.7052 6.71426C20.7052 4.36641 17.4282 4.2288 17.4282 3.19368ZM28.9996 9.68316L27.1175 0.707003H25.096C24.6775 0.707003 24.2591 0.983432 24.1196 1.39748L20.6345 9.68316H23.0745L23.5616 8.37162H26.5596L26.8386 9.68316H28.9996ZM25.4461 3.12426L26.1424 6.50722H24.1906L25.4461 3.12426Z" fill="#172B85"/>
</svg>
