<svg width="30" height="18" viewBox="0 0 30 18" fill="none" xmlns="http://www.w3.org/2000/svg">
<path fill-rule="evenodd" clip-rule="evenodd" d="M15.3316 15.85C13.778 17.1907 11.7628 18 9.56078 18C4.64726 18 0.664062 13.9706 0.664062 9C0.664062 4.02944 4.64726 0 9.56078 0C11.7628 0 13.778 0.809314 15.3316 2.14995C16.8851 0.809314 18.9003 0 21.1024 0C26.0159 0 29.9991 4.02944 29.9991 9C29.9991 13.9706 26.0159 18 21.1024 18C18.9003 18 16.8851 17.1907 15.3316 15.85Z" fill="#ED0006"/>
<path fill-rule="evenodd" clip-rule="evenodd" d="M15.332 15.85C17.2449 14.1992 18.4579 11.7429 18.4579 9C18.4579 6.2571 17.2449 3.80079 15.332 2.15002C16.8856 0.809343 18.9008 0 21.1029 0C26.0165 0 29.9996 4.02944 29.9996 9C29.9996 13.9706 26.0165 18 21.1029 18C18.9008 18 16.8856 17.1907 15.332 15.85Z" fill="#F9A000"/>
<path fill-rule="evenodd" clip-rule="evenodd" d="M15.3309 15.8499C17.2438 14.1991 18.4567 11.7428 18.4567 8.99988C18.4567 6.25698 17.2438 3.80067 15.3309 2.1499C13.418 3.80067 12.2051 6.25698 12.2051 8.99988C12.2051 11.7428 13.418 14.1991 15.3309 15.8499Z" fill="#FF5E00"/>
</svg>
