<svg width="70" height="70" viewBox="0 0 70 70" fill="none" xmlns="http://www.w3.org/2000/svg">
<circle cx="34.9564" cy="35.1303" r="33.913" stroke="#D8D8D8" stroke-opacity="0.4" stroke-width="1.73913"/>
<g clip-path="url(#clip0_2016_61445)">
<path d="M39.3925 39.3417C39.308 39.3417 39.2227 39.3273 39.14 39.2977C38.8433 39.1911 38.6454 38.9097 38.6454 38.5944V32.9996L24.6062 24.8952C24.2488 24.6888 24.1263 24.2318 24.3326 23.8744C24.5389 23.517 24.9959 23.3946 25.3534 23.6009L39.7664 31.921C39.9976 32.0545 40.1401 32.3012 40.1401 32.5682V36.5145L41.7193 34.6006C41.8976 34.3844 42.1818 34.2863 42.4557 34.3462L43.8614 34.6543V29.9884L29.8136 21.8829C29.4561 21.6767 29.3336 21.2197 29.5398 20.8622C29.7461 20.5047 30.2031 20.3822 30.5606 20.5884L44.982 28.9095C45.2133 29.043 45.3558 29.2897 45.3558 29.5568V35.5831C45.3558 35.8093 45.2533 36.0234 45.077 36.1653C44.9007 36.3072 44.6695 36.3614 44.4486 36.313L42.5815 35.9038L39.9692 39.07C39.8244 39.2454 39.6114 39.3417 39.3925 39.3417Z" fill="#FD6D17"/>
<path d="M50.0639 26.5319C50.0618 26.5267 50.06 26.5213 50.0578 26.5161C50.0537 26.5069 50.0488 26.4979 50.0443 26.4888C49.9803 26.3538 49.8776 26.238 49.7439 26.1608L35.3296 17.8389C35.0984 17.7054 34.8135 17.7054 34.5823 17.8389L20.2733 26.1002C20.1176 26.159 19.9804 26.2697 19.8907 26.425C19.8098 26.5652 19.7801 26.7205 19.7945 26.8702V43.4521C19.7945 43.7191 19.937 43.9657 20.1682 44.0992L34.5824 52.4212C34.8136 52.5547 35.0984 52.5547 35.3297 52.4212L49.7439 44.0992C49.975 43.9657 50.1175 43.719 50.1175 43.4521V26.8873C50.1287 26.7688 50.1117 26.647 50.0639 26.5319ZM34.956 19.3489L47.8849 26.8134L34.9564 34.2671L22.0418 26.8049L34.956 19.3489ZM21.289 28.0961L34.2087 35.5612V50.4798L21.289 43.0206V28.0961ZM35.7032 50.4798V35.5617L48.6229 28.1131V43.0206L35.7032 50.4798Z" fill="#353535"/>
<path d="M26.2607 44.119C26.1339 44.119 26.0055 44.0867 25.8877 44.0187L22.7995 42.2358C22.4421 42.0294 22.3197 41.5724 22.526 41.215C22.7324 40.8576 23.1895 40.7353 23.5468 40.9415L26.635 42.7245C26.9924 42.9308 27.1149 43.3878 26.9085 43.7452C26.7701 43.9849 26.519 44.119 26.2607 44.119Z" fill="#FD6D17"/>
<path d="M24.8708 40.2722C24.744 40.2722 24.6156 40.2398 24.4978 40.1719L22.7995 39.1914C22.4421 38.985 22.3197 38.528 22.526 38.1706C22.7324 37.8132 23.1895 37.6908 23.5468 37.8971L25.2451 38.8776C25.6025 39.084 25.725 39.541 25.5186 39.8984C25.3802 40.1381 25.129 40.2722 24.8708 40.2722Z" fill="#FD6D17"/>
</g>
<defs>
<clipPath id="clip0_2016_61445">
<rect width="34.7826" height="34.7826" fill="white" transform="translate(17.5645 17.7388)"/>
</clipPath>
</defs>
</svg>
