<svg width="38" height="38" viewBox="0 0 38 38" fill="none" xmlns="http://www.w3.org/2000/svg">
<path d="M37 19C37 28.9411 28.9411 37 19 37C9.05887 37 1 28.9411 1 19C1 9.05887 9.05887 1 19 1C28.9411 1 37 9.05887 37 19Z" fill="white" stroke="#E7E7E7"/>
<g clip-path="url(#clip0_2035_30376)">
<path d="M28 26.875C28 27.4963 27.4963 28 26.875 28H11.125C10.5037 28 10 27.4963 10 26.875C10 26.2537 10.5037 25.75 11.125 25.75H26.875C27.4963 25.75 28 26.2537 28 26.875ZM18.2045 23.3111C18.4242 23.5308 18.7121 23.6407 19 23.6407C19.2879 23.6407 19.5759 23.5308 19.7955 23.3111L23.7814 19.3252C24.2208 18.8859 24.2208 18.1736 23.7814 17.7342C23.3421 17.2949 22.6298 17.2949 22.1904 17.7342L20.125 19.7997V11.125C20.125 10.5037 19.6213 10 19 10C18.3787 10 17.875 10.5037 17.875 11.125V19.7997L15.8096 17.7342C15.3702 17.2949 14.6579 17.2949 14.2186 17.7342C13.7792 18.1736 13.7792 18.8859 14.2186 19.3252L18.2045 23.3111Z" fill="black" stroke="#FCFCFC"/>
</g>
<defs>
<clipPath id="clip0_2035_30376">
<rect width="18" height="18" fill="white" transform="translate(10 10)"/>
</clipPath>
</defs>
</svg>
