<svg width="28" height="28" viewBox="0 0 28 28" fill="none" xmlns="http://www.w3.org/2000/svg">
<path d="M14.125 0.59668C17.7848 0.59668 19.6516 0.600839 21.0967 1.03027L21.3809 1.12207C23.9872 2.03406 26.0538 4.04813 27.0361 6.61914L27.1279 6.86914C27.6486 8.3571 27.6533 10.2209 27.6533 14.125C27.6533 17.7848 27.6492 19.6516 27.2197 21.0967L27.1279 21.3809C26.2159 23.9872 24.2019 26.0538 21.6309 27.0361L21.3809 27.1279C19.8929 27.6486 18.0291 27.6533 14.125 27.6533C10.4652 27.6533 8.59835 27.6492 7.15332 27.2197L6.86914 27.1279C4.26281 26.2159 2.19624 24.2019 1.21387 21.6309L1.12207 21.3809C0.601422 19.8929 0.59668 18.0291 0.59668 14.125C0.59668 10.4652 0.600839 8.59835 1.03027 7.15332L1.12207 6.86914C2.03406 4.26281 4.04813 2.19624 6.61914 1.21387L6.86914 1.12207C8.3571 0.601422 10.2209 0.59668 14.125 0.59668Z" fill="white"/>
<path d="M14.125 0.59668C17.7848 0.59668 19.6516 0.600839 21.0967 1.03027L21.3809 1.12207C23.9872 2.03406 26.0538 4.04813 27.0361 6.61914L27.1279 6.86914C27.6486 8.3571 27.6533 10.2209 27.6533 14.125C27.6533 17.7848 27.6492 19.6516 27.2197 21.0967L27.1279 21.3809C26.2159 23.9872 24.2019 26.0538 21.6309 27.0361L21.3809 27.1279C19.8929 27.6486 18.0291 27.6533 14.125 27.6533C10.4652 27.6533 8.59835 27.6492 7.15332 27.2197L6.86914 27.1279C4.26281 26.2159 2.19624 24.2019 1.21387 21.6309L1.12207 21.3809C0.601422 19.8929 0.59668 18.0291 0.59668 14.125C0.59668 10.4652 0.600839 8.59835 1.03027 7.15332L1.12207 6.86914C2.03406 4.26281 4.04813 2.19624 6.61914 1.21387L6.86914 1.12207C8.3571 0.601422 10.2209 0.59668 14.125 0.59668Z" stroke="#E7E7E7" stroke-width="0.69375"/>
<g clip-path="url(#clip0_2056_32686)">
<path fill-rule="evenodd" clip-rule="evenodd" d="M13.6193 6.97405C13.9017 6.97405 14.1309 7.20328 14.1309 7.48572C14.1309 7.76817 13.9017 7.99739 13.6193 7.99739H11.0684C9.30554 7.99739 8.1669 9.20494 8.1669 11.0736V16.7456C8.1669 18.6142 9.30554 19.8218 11.0684 19.8218H17.0884C18.8513 19.8218 19.9906 18.6142 19.9906 16.7456V13.9976C19.9906 13.7151 20.2198 13.4859 20.5023 13.4859C20.7847 13.4859 21.0139 13.7151 21.0139 13.9976V16.7456C21.0139 19.1975 19.4359 20.8451 17.0884 20.8451H11.0684C8.72087 20.8451 7.14355 19.1975 7.14355 16.7456V11.0736C7.14355 8.62163 8.72087 6.97405 11.0684 6.97405H13.6193ZM19.5612 7.57346L20.3915 8.40373C20.796 8.80761 21.0184 9.34452 21.0178 9.91623C21.0178 10.4879 20.7953 11.0242 20.3915 11.4274L15.2686 16.5502C14.8927 16.9261 14.392 17.1335 13.8598 17.1335H11.3042C11.1664 17.1335 11.034 17.0776 10.9378 16.9787C10.8416 16.8804 10.7891 16.7474 10.7925 16.6089L10.8566 14.0307C10.8696 13.5177 11.0763 13.0354 11.4393 12.6717H11.44L16.5382 7.57346C17.3719 6.74114 18.7275 6.74114 19.5612 7.57346ZM16.1183 9.44003L12.1631 13.3956C11.9864 13.5723 11.8861 13.807 11.88 14.056L11.8288 16.1102H13.8598C14.1191 16.1102 14.3619 16.0099 14.5455 15.8264L18.5245 11.8463L16.1183 9.44003ZM17.2614 8.2973L16.8414 8.71619L19.2476 11.1231L19.6683 10.7035C19.8784 10.4934 19.9944 10.2137 19.9944 9.91623C19.9944 9.61809 19.8784 9.3377 19.6683 9.12757L18.838 8.2973C18.4035 7.86409 17.6967 7.86409 17.2614 8.2973Z" fill="#FD6D17"/>
</g>
<defs>
<clipPath id="clip0_2056_32686">
<rect width="15.6912" height="15.6094" fill="white" transform="translate(6.2793 6.32031)"/>
</clipPath>
</defs>
</svg>
