<svg width="535" height="337" viewBox="0 0 535 337" fill="none" xmlns="http://www.w3.org/2000/svg">
<path opacity="0.15" d="M420.695 73.0737C420.695 73.0737 405.816 -43.3554 318.029 40.3519C205.491 147.652 129.845 -65.6096 46.361 21.4418C0.752237 68.9975 121.273 175.355 40.7821 231.327C-39.7086 287.299 26.0668 329.202 26.0668 329.202H483.114C483.114 329.202 530.428 332.618 534.01 272.748C537.586 212.878 482.586 212.153 516.721 137.231C550.856 62.3093 431.422 120.761 420.695 73.0737Z" fill="#FFF6F1"/>
<path d="M420.695 73.0737C420.695 73.0737 405.816 -43.3554 318.029 40.3519C205.491 147.652 129.845 -65.6096 46.361 21.4418C0.752238 68.9975 121.273 175.355 40.7821 231.327C-39.7086 287.299 26.0668 329.202 26.0668 329.202H483.114C483.114 329.202 530.428 332.618 534.01 272.748C537.586 212.878 482.586 212.153 516.721 137.231C550.856 62.3093 431.422 120.761 420.695 73.0737Z" fill="#F8F8F8"/>
<g opacity="0.45">
<rect x="442.594" y="166.202" width="33.2403" height="163.036" fill="url(#paint0_linear_2035_26863)"/>
<rect x="349.204" y="237.432" width="33.2403" height="91.8066" fill="url(#paint1_linear_2035_26863)"/>
<path d="M382.445 109.219L412.519 83.8926L442.594 109.219V329.238H382.445V109.219Z" fill="url(#paint2_linear_2035_26863)"/>
<rect x="391.942" y="117.133" width="17.4116" height="42.7376" fill="white"/>
<rect x="391.942" y="166.202" width="17.4116" height="42.7376" fill="white"/>
<rect x="391.942" y="215.271" width="17.4116" height="42.7376" fill="white"/>
<rect x="415.684" y="117.133" width="17.4116" height="42.7376" fill="white"/>
<rect x="415.684" y="166.202" width="17.4116" height="42.7376" fill="white"/>
<rect x="415.684" y="215.271" width="17.4116" height="42.7376" fill="white"/>
<rect x="391.942" y="265.923" width="41.1547" height="63.3149" fill="white"/>
<rect x="331.572" y="193.55" width="33.2403" height="135.688" fill="url(#paint3_linear_2035_26863)"/>
<rect x="238.181" y="252.831" width="33.2403" height="76.4068" fill="url(#paint4_linear_2035_26863)"/>
<path d="M271.423 146.125L301.497 125.047L331.572 146.125V329.238H271.423V146.125Z" fill="url(#paint5_linear_2035_26863)"/>
<rect x="280.92" y="152.711" width="17.4116" height="35.5687" fill="white"/>
<rect x="280.92" y="193.55" width="17.4116" height="35.5687" fill="white"/>
<rect x="280.92" y="234.388" width="17.4116" height="35.5687" fill="white"/>
<rect x="304.661" y="152.711" width="17.4116" height="35.5687" fill="white"/>
<rect x="304.661" y="193.55" width="17.4116" height="35.5687" fill="white"/>
<rect x="304.661" y="234.388" width="17.4116" height="35.5687" fill="white"/>
<rect x="280.92" y="276.544" width="41.1547" height="52.6944" fill="white"/>
<path d="M80.3796 186.779L124.7 212.105V329.238H80.3796V186.779Z" fill="url(#paint6_linear_2035_26863)"/>
</g>
<path d="M415.154 253.888C415.154 253.888 418.359 255.143 418.629 257.772V285.915L415.064 289.799L408.654 281.703L415.154 253.888Z" fill="white"/>
<path d="M415.154 253.888C415.154 253.888 418.359 255.143 418.629 257.772V285.915L415.064 289.799L408.654 281.703L415.154 253.888Z" fill="#FFC09B"/>
<path d="M414.494 278.506H135.219V301.78H414.494V278.506Z" fill="#5C5963"/>
<path d="M414.494 298.045H135.219V301.75H414.494V298.045Z" fill="#413F47"/>
<path d="M139.173 285.407H135.219V310.952H139.173V285.407Z" fill="#5C5963"/>
<path d="M403.713 223.175H354.466V279.91L376.902 279.94C391.61 280.179 396.224 290.785 396.224 290.785H415.126V253.888L403.713 223.175Z" fill="white"/>
<path d="M403.713 223.175H354.466V279.91L376.902 279.94C391.61 280.179 396.224 290.785 396.224 290.785H415.126V253.888L403.713 223.175Z" fill="#FFEFE6"/>
<path d="M376.272 246.448H409.313L401.705 226.042H376.272V246.448Z" fill="white"/>
<path d="M376.272 246.448H409.313L401.705 226.042H376.272V246.448Z" fill="#FFC09B"/>
<path d="M354.466 223.234H408.805C406.708 215.466 398.44 214.002 398.44 214.002H354.466V223.234Z" fill="white"/>
<path d="M354.466 223.234H408.805C406.708 215.466 398.44 214.002 398.44 214.002H354.466V223.234Z" fill="#FFC09B"/>
<path d="M387.909 321.108C396.296 312.743 396.296 299.179 387.909 290.814C379.521 282.448 365.922 282.448 357.534 290.814C349.146 299.179 349.146 312.743 357.534 321.108C365.922 329.474 379.521 329.474 387.909 321.108Z" fill="#312E37"/>
<path d="M372.736 291.979C364.978 291.979 358.717 298.254 358.717 305.962C358.717 313.7 365.007 319.944 372.736 319.944C380.495 319.944 386.755 313.67 386.755 305.962C386.755 298.254 380.465 291.979 372.736 291.979ZM372.736 317.195C366.535 317.195 361.503 312.176 361.503 305.992C361.503 299.807 366.535 294.788 372.736 294.788C378.937 294.788 383.969 299.807 383.969 305.992C383.969 312.176 378.937 317.195 372.736 317.195Z" fill="#5C5963"/>
<path d="M372.737 317.166C378.941 317.166 383.97 312.15 383.97 305.962C383.97 299.775 378.941 294.759 372.737 294.759C366.533 294.759 361.503 299.775 361.503 305.962C361.503 312.15 366.533 317.166 372.737 317.166Z" fill="#5C5963"/>
<path d="M376.05 309.278C377.886 307.446 377.886 304.476 376.05 302.644C374.213 300.812 371.235 300.812 369.399 302.644C367.562 304.476 367.562 307.446 369.399 309.278C371.235 311.109 374.213 311.109 376.05 309.278Z" fill="white"/>
<path d="M242.003 321.121C250.39 312.755 250.39 299.192 242.003 290.827C233.615 282.461 220.016 282.461 211.628 290.827C203.24 299.192 203.24 312.755 211.628 321.121C220.016 329.486 233.615 329.486 242.003 321.121Z" fill="#312E37"/>
<path d="M226.822 291.979C219.064 291.979 212.803 298.254 212.803 305.962C212.803 313.7 219.094 319.944 226.822 319.944C234.581 319.944 240.841 313.67 240.841 305.962C240.871 298.254 234.581 291.979 226.822 291.979ZM226.822 317.195C220.621 317.195 215.589 312.176 215.589 305.992C215.589 299.807 220.621 294.788 226.822 294.788C233.023 294.788 238.056 299.807 238.056 305.992C238.085 312.176 233.053 317.195 226.822 317.195Z" fill="#5C5963"/>
<path d="M226.824 317.166C233.028 317.166 238.057 312.15 238.057 305.962C238.057 299.775 233.028 294.759 226.824 294.759C220.62 294.759 215.59 299.775 215.59 305.962C215.59 312.15 220.62 317.166 226.824 317.166Z" fill="#5C5963"/>
<path d="M230.142 309.29C231.978 307.459 231.978 304.489 230.142 302.657C228.305 300.825 225.327 300.825 223.491 302.657C221.654 304.489 221.654 307.459 223.491 309.29C225.327 311.122 228.305 311.122 230.142 309.29Z" fill="white"/>
<path d="M185.712 321.115C194.1 312.749 194.1 299.186 185.712 290.821C177.325 282.455 163.726 282.455 155.338 290.821C146.95 299.186 146.95 312.749 155.338 321.115C163.726 329.48 177.325 329.48 185.712 321.115Z" fill="#312E37"/>
<path d="M170.535 291.979C162.776 291.979 156.516 298.254 156.516 305.962C156.516 313.7 162.806 319.944 170.535 319.944C178.263 319.944 184.554 313.67 184.554 305.962C184.584 298.254 178.293 291.979 170.535 291.979ZM170.535 317.195C164.334 317.195 159.301 312.176 159.301 305.992C159.301 299.807 164.334 294.788 170.535 294.788C176.736 294.788 181.768 299.807 181.768 305.992C181.768 312.176 176.736 317.195 170.535 317.195Z" fill="#5C5963"/>
<path d="M170.538 317.166C176.742 317.166 181.771 312.15 181.771 305.962C181.771 299.775 176.742 294.759 170.538 294.759C164.334 294.759 159.304 299.775 159.304 305.962C159.304 312.15 164.334 317.166 170.538 317.166Z" fill="#5C5963"/>
<path d="M173.854 309.285C175.691 307.453 175.691 304.483 173.854 302.651C172.018 300.819 169.04 300.819 167.203 302.651C165.367 304.483 165.367 307.453 167.203 309.285C169.04 311.116 172.018 311.116 173.854 309.285Z" fill="white"/>
<path d="M372.737 280.269C358.808 280.269 347.425 291.353 346.975 305.126H351.319C351.768 293.713 361.204 284.541 372.737 284.541C384.3 284.541 393.706 293.683 394.155 305.126H398.499C398.05 291.353 386.666 280.269 372.737 280.269Z" fill="#413F47"/>
<path d="M226.821 280.269C212.892 280.269 201.509 291.353 201.06 305.126H205.403C205.852 293.713 215.288 284.541 226.821 284.541C238.354 284.541 247.79 293.683 248.24 305.126H252.583C252.134 291.353 240.781 280.269 226.821 280.269Z" fill="#413F47"/>
<path d="M170.537 280.269C156.608 280.269 145.225 291.353 144.776 305.126H149.119C149.569 293.683 158.975 284.541 170.537 284.541C182.1 284.541 191.506 293.683 191.956 305.126H196.299C195.85 291.353 184.467 280.269 170.537 280.269Z" fill="#413F47"/>
<path opacity="0.5" d="M376.272 226.042V246.448L401.705 226.042H376.272Z" fill="#F19A67"/>
<path opacity="0.5" d="M387.566 262.312C387.566 261.356 386.727 260.609 385.679 260.609H378.729C377.681 260.609 376.842 261.386 376.842 262.312C376.842 263.268 377.681 264.015 378.729 264.015H385.679C386.727 264.015 387.566 263.239 387.566 262.312Z" fill="#F19A67"/>
<path d="M368.216 227.208C368.216 226.641 367.587 226.192 366.808 226.192H360.397C359.619 226.192 358.99 226.641 358.99 227.208V245.104C358.99 245.672 359.619 246.12 360.397 246.12H366.808C367.587 246.12 368.216 245.672 368.216 245.104V227.208Z" fill="white"/>
<path d="M368.216 227.208C368.216 226.641 367.587 226.192 366.808 226.192H360.397C359.619 226.192 358.99 226.641 358.99 227.208V245.104C358.99 245.672 359.619 246.12 360.397 246.12H366.808C367.587 246.12 368.216 245.672 368.216 245.104V227.208Z" fill="#FFC09B"/>
<path d="M135.248 294.012H130.545V307.038H135.248V294.012Z" fill="#5C5963"/>
<rect x="135.301" y="203.557" width="219.847" height="76.8141" fill="white"/>
<rect x="135.301" y="203.557" width="219.847" height="76.8141" fill="#FFC09B"/>
<g opacity="0.5">
<path d="M340.935 238.067H320.615V251.13H340.935V238.067Z" fill="#F6C05F"/>
<path d="M323.48 238.067H320.615V250.881H323.48V238.067Z" fill="#FD6D17"/>
<path opacity="0.21" d="M322.401 238.067H321.696V240.8L321.903 240.614L321.945 240.8L322.111 240.593L322.173 240.8L322.339 240.593L322.401 240.8V238.067Z" fill="#1754AD"/>
<path d="M340.727 238.067H323.417V250.881H340.727V238.067Z" fill="#F6C05F"/>
<path opacity="0.07" d="M340.727 238.067C339.731 246.12 334.313 250.819 326.8 250.302L323.417 250.881H340.727V238.067Z" fill="#1754AD"/>
<path d="M325.556 241.194V241.215C325.556 241.277 325.618 241.339 325.681 241.339C325.743 241.339 325.805 241.277 325.805 241.215V240.407C325.867 240.407 325.909 240.407 325.971 240.428H325.992C326.033 240.428 326.075 240.449 326.116 240.449H326.137C326.241 240.407 326.365 240.407 326.469 240.449C326.469 240.097 326.158 239.89 325.826 239.869H325.743C325.66 239.869 325.577 239.89 325.494 239.911C325.494 239.911 325.494 239.911 325.473 239.911C325.265 239.993 325.099 240.18 325.079 240.407V240.428C325.182 240.387 325.307 240.387 325.411 240.428H325.431C325.452 240.428 325.452 240.428 325.473 240.407C325.494 240.407 325.514 240.407 325.535 240.387C325.577 240.387 325.618 240.366 325.66 240.366H325.681C325.701 240.366 325.722 240.366 325.722 240.366V241.173C325.722 241.194 325.701 241.215 325.681 241.215C325.66 241.215 325.639 241.194 325.639 241.173V241.153H325.556V241.194Z" fill="#454545"/>
<path d="M327.34 240.8C327.153 240.8 327.008 240.656 327.008 240.469V239.89H327.693V240.469C327.672 240.656 327.527 240.8 327.34 240.8Z" fill="#454545"/>
<path d="M327.38 240.76H327.297V241.339H327.38V240.76Z" fill="#454545"/>
<path d="M327.639 241.35V241.267H327.058V241.35H327.639Z" fill="#454545"/>
<path d="M328.439 239.952H328.356V241.091H328.439V239.952Z" fill="#454545"/>
<path d="M328.438 239.952L328.378 239.893L328.184 240.086L328.244 240.146L328.438 239.952Z" fill="#454545"/>
<path d="M328.519 240.138L328.579 240.078L328.385 239.884L328.325 239.944L328.519 240.138Z" fill="#454545"/>
<path d="M328.936 239.951H328.853V241.09H328.936V239.951Z" fill="#454545"/>
<path d="M328.955 239.954L328.895 239.895L328.701 240.088L328.761 240.148L328.955 239.954Z" fill="#454545"/>
<path d="M329.03 240.141L329.09 240.081L328.895 239.887L328.835 239.947L329.03 240.141Z" fill="#454545"/>
<path d="M329.094 241.347V241.264H328.201V241.347H329.094Z" fill="#454545"/>
<path d="M339.399 239.268H335.788V241.731H339.399V239.268Z" fill="white"/>
<path d="M338.902 239.95H336.287V240.137H338.902V239.95Z" fill="#B5B5B5"/>
<path d="M338.902 240.385H336.287V240.572H338.902V240.385Z" fill="#B5B5B5"/>
<path d="M337.449 240.8H336.287V240.987H337.449V240.8Z" fill="#B5B5B5"/>
<path d="M339.566 248.273H334.564V249.515H339.566V248.273Z" fill="white"/>
<path d="M335.566 249.302V248.495H334.943V249.302H335.566Z" fill="#B5B5B5"/>
<path d="M335.139 249.295V248.487H335.097V249.295H335.139Z" fill="#B5B5B5"/>
<path d="M335.318 249.302V248.495H335.255V249.302H335.318Z" fill="#B5B5B5"/>
<path d="M335.478 249.308V248.501H335.395V249.308H335.478Z" fill="#B5B5B5"/>
<path d="M335.582 249.307V248.5H335.54V249.307H335.582Z" fill="#B5B5B5"/>
<path d="M336.052 249.295V248.487H335.699V249.295H336.052Z" fill="#B5B5B5"/>
<path d="M335.885 249.295V248.487H335.823V249.295H335.885Z" fill="#B5B5B5"/>
<path d="M336.034 249.292V248.484H335.971V249.292H336.034Z" fill="#B5B5B5"/>
<path d="M336.207 249.305V248.498H336.145V249.305H336.207Z" fill="#B5B5B5"/>
<path d="M336.784 249.31V248.503H336.266V249.31H336.784Z" fill="#B5B5B5"/>
<path d="M336.51 249.292V248.484H336.427V249.292H336.51Z" fill="#B5B5B5"/>
<path d="M336.653 249.295V248.487H336.591V249.295H336.653Z" fill="#B5B5B5"/>
<path d="M336.806 249.307V248.5H336.723V249.307H336.806Z" fill="#B5B5B5"/>
<path d="M339.173 248.563H337.285V248.75H339.173V248.563Z" fill="#B5B5B5"/>
<path d="M338.364 248.998H337.285V249.185H338.364V248.998Z" fill="#B5B5B5"/>
<path d="M349.374 245.29H341.539V250.326H349.374V245.29Z" fill="#F6C05F"/>
<path d="M342.643 245.29H341.539V250.231H342.643V245.29Z" fill="#FD6D17"/>
<path opacity="0.21" d="M342.226 245.29H341.954V246.344L342.034 246.272L342.05 246.344L342.114 246.264L342.138 246.344L342.202 246.264L342.226 246.344V245.29Z" fill="#1754AD"/>
<path d="M349.293 245.29H342.618V250.231H349.293V245.29Z" fill="#F6C05F"/>
<path opacity="0.07" d="M349.293 245.29C348.908 248.395 346.82 250.207 343.923 250.007L342.618 250.231H349.293V245.29Z" fill="#1754AD"/>
<path d="M343.441 246.495V246.503C343.441 246.527 343.465 246.551 343.489 246.551C343.513 246.551 343.537 246.527 343.537 246.503V246.192C343.561 246.192 343.577 246.192 343.601 246.2H343.609C343.625 246.2 343.641 246.208 343.657 246.208H343.665C343.705 246.192 343.754 246.192 343.794 246.208C343.794 246.072 343.673 245.992 343.545 245.984H343.513C343.481 245.984 343.449 245.992 343.417 246C343.417 246 343.417 246 343.409 246C343.329 246.032 343.265 246.104 343.257 246.192V246.2C343.297 246.184 343.345 246.184 343.385 246.2H343.393C343.401 246.2 343.401 246.2 343.409 246.192C343.417 246.192 343.425 246.192 343.433 246.184C343.449 246.184 343.465 246.176 343.481 246.176H343.489C343.497 246.176 343.505 246.176 343.505 246.176V246.487C343.505 246.495 343.497 246.503 343.489 246.503C343.481 246.503 343.473 246.495 343.473 246.487V246.479H343.441V246.495Z" fill="#454545"/>
<path d="M344.13 246.343C344.057 246.343 344.001 246.288 344.001 246.216V245.992H344.266V246.216C344.258 246.288 344.202 246.343 344.13 246.343Z" fill="#454545"/>
<path d="M344.146 246.328H344.113V246.556H344.146V246.328Z" fill="#454545"/>
<path d="M344.245 246.556V246.523H344.017V246.556H344.245Z" fill="#454545"/>
<path d="M344.55 246.016H344.518V246.455H344.55V246.016Z" fill="#454545"/>
<path d="M344.551 246.015L344.528 245.992L344.452 246.068L344.475 246.091L344.551 246.015Z" fill="#454545"/>
<path d="M344.582 246.088L344.605 246.064L344.529 245.989L344.506 246.012L344.582 246.088Z" fill="#454545"/>
<path d="M344.745 246.016H344.713V246.455H344.745V246.016Z" fill="#454545"/>
<path d="M344.751 246.015L344.728 245.992L344.652 246.068L344.675 246.091L344.751 246.015Z" fill="#454545"/>
<path d="M344.78 246.088L344.804 246.064L344.728 245.989L344.705 246.012L344.78 246.088Z" fill="#454545"/>
<path d="M344.804 246.554V246.522H344.46V246.554H344.804Z" fill="#454545"/>
<path d="M348.781 245.754H347.388V246.704H348.781V245.754Z" fill="white"/>
<path d="M348.588 246.018H347.58V246.09H348.588V246.018Z" fill="#B5B5B5"/>
<path d="M348.588 246.186H347.58V246.258H348.588V246.186Z" fill="#B5B5B5"/>
<path d="M348.028 246.346H347.58V246.418H348.028V246.346Z" fill="#B5B5B5"/>
<path d="M348.843 249.226H346.914V249.704H348.843V249.226Z" fill="white"/>
<path d="M347.303 249.63V249.313H347.059V249.63H347.303Z" fill="#B5B5B5"/>
<path d="M347.137 249.627V249.311H347.121V249.627H347.137Z" fill="#B5B5B5"/>
<path d="M347.207 249.63V249.313H347.183V249.63H347.207Z" fill="#B5B5B5"/>
<path d="M347.269 249.632V249.315H347.236V249.632H347.269Z" fill="#B5B5B5"/>
<path d="M347.309 249.631V249.314H347.292V249.631H347.309Z" fill="#B5B5B5"/>
<path d="M347.49 249.627V249.311H347.351V249.627H347.49Z" fill="#B5B5B5"/>
<path d="M347.426 249.627V249.311H347.401V249.627H347.426Z" fill="#B5B5B5"/>
<path d="M347.481 249.625V249.309H347.457V249.625H347.481Z" fill="#B5B5B5"/>
<path d="M347.549 249.631V249.314H347.524V249.631H347.549Z" fill="#B5B5B5"/>
<path d="M347.77 249.632V249.315H347.566V249.632H347.77Z" fill="#B5B5B5"/>
<path d="M347.668 249.625V249.309H347.635V249.625H347.668Z" fill="#B5B5B5"/>
<path d="M347.721 249.627V249.311H347.696V249.627H347.721Z" fill="#B5B5B5"/>
<path d="M347.782 249.631V249.314H347.749V249.631H347.782Z" fill="#B5B5B5"/>
<path d="M348.693 249.338H347.965V249.41H348.693V249.338Z" fill="#B5B5B5"/>
<path d="M348.381 249.505H347.965V249.577H348.381V249.505Z" fill="#B5B5B5"/>
<path d="M320.405 241.669H306.937V250.326H320.405V241.669Z" fill="#F6C05F"/>
<path d="M308.836 241.669H306.937V250.162H308.836V241.669Z" fill="#FD6D17"/>
<path opacity="0.21" d="M308.118 241.669H307.651V243.48L307.788 243.357L307.816 243.48L307.926 243.343L307.967 243.48L308.077 243.343L308.118 243.48V241.669Z" fill="#1754AD"/>
<path d="M320.267 241.669H308.794V250.162H320.267V241.669Z" fill="#F6C05F"/>
<path opacity="0.07" d="M320.267 241.669C319.606 247.006 316.016 250.121 311.036 249.778L308.794 250.162H320.267V241.669Z" fill="#1754AD"/>
<path d="M310.211 243.739V243.753C310.211 243.794 310.252 243.835 310.294 243.835C310.335 243.835 310.376 243.794 310.376 243.753V243.218C310.418 243.218 310.445 243.218 310.486 243.232H310.5C310.528 243.232 310.555 243.245 310.583 243.245H310.596C310.665 243.218 310.748 243.218 310.816 243.245C310.816 243.012 310.61 242.875 310.39 242.861H310.335C310.28 242.861 310.225 242.875 310.17 242.889C310.17 242.889 310.17 242.889 310.156 242.889C310.019 242.944 309.909 243.067 309.895 243.218V243.232C309.964 243.204 310.046 243.204 310.115 243.232H310.129C310.142 243.232 310.142 243.232 310.156 243.218C310.17 243.218 310.184 243.218 310.197 243.204C310.225 243.204 310.252 243.191 310.28 243.191H310.294C310.307 243.191 310.321 243.191 310.321 243.191V243.726C310.321 243.739 310.307 243.753 310.294 243.753C310.28 243.753 310.266 243.739 310.266 243.726V243.712H310.211V243.739Z" fill="#454545"/>
<path d="M311.395 243.479C311.271 243.479 311.175 243.383 311.175 243.259V242.875H311.629V243.259C311.615 243.383 311.519 243.479 311.395 243.479Z" fill="#454545"/>
<path d="M311.421 243.451H311.365V243.835H311.421V243.451Z" fill="#454545"/>
<path d="M311.592 243.843V243.788H311.207V243.843H311.592Z" fill="#454545"/>
<path d="M312.124 242.916H312.069V243.671H312.124V242.916Z" fill="#454545"/>
<path d="M312.124 242.916L312.084 242.877L311.955 243.005L311.995 243.045L312.124 242.916Z" fill="#454545"/>
<path d="M312.176 243.041L312.216 243.001L312.087 242.873L312.048 242.912L312.176 243.041Z" fill="#454545"/>
<path d="M312.455 242.918H312.4V243.673H312.455V242.918Z" fill="#454545"/>
<path d="M312.471 242.918L312.431 242.879L312.302 243.007L312.342 243.047L312.471 242.918Z" fill="#454545"/>
<path d="M312.519 243.043L312.558 243.004L312.43 242.875L312.39 242.915L312.519 243.043Z" fill="#454545"/>
<path d="M312.559 243.84V243.785H311.967V243.84H312.559Z" fill="#454545"/>
<path d="M319.386 242.465H316.992V244.098H319.386V242.465Z" fill="white"/>
<path d="M319.056 242.917H317.322V243.041H319.056V242.917Z" fill="#B5B5B5"/>
<path d="M319.056 243.206H317.322V243.33H319.056V243.206Z" fill="#B5B5B5"/>
<path d="M318.093 243.479H317.322V243.602H318.093V243.479Z" fill="#B5B5B5"/>
<path d="M319.496 248.434H316.181V249.257H319.496V248.434Z" fill="white"/>
<path d="M316.845 249.116V248.581H316.433V249.116H316.845Z" fill="#B5B5B5"/>
<path d="M316.564 249.111V248.576H316.537V249.111H316.564Z" fill="#B5B5B5"/>
<path d="M316.681 249.116V248.581H316.639V249.116H316.681Z" fill="#B5B5B5"/>
<path d="M316.785 249.12V248.585H316.73V249.12H316.785Z" fill="#B5B5B5"/>
<path d="M316.856 249.12V248.585H316.829V249.12H316.856Z" fill="#B5B5B5"/>
<path d="M317.168 249.111V248.576H316.935V249.111H317.168Z" fill="#B5B5B5"/>
<path d="M317.057 249.111V248.576H317.016V249.111H317.057Z" fill="#B5B5B5"/>
<path d="M317.155 249.109V248.574H317.114V249.109H317.155Z" fill="#B5B5B5"/>
<path d="M317.27 249.117V248.582H317.229V249.117H317.27Z" fill="#B5B5B5"/>
<path d="M317.653 249.122V248.587H317.309V249.122H317.653Z" fill="#B5B5B5"/>
<path d="M317.472 249.109V248.574H317.417V249.109H317.472Z" fill="#B5B5B5"/>
<path d="M317.567 249.111V248.576H317.525V249.111H317.567Z" fill="#B5B5B5"/>
<path d="M317.669 249.12V248.585H317.614V249.12H317.669Z" fill="#B5B5B5"/>
<path d="M319.232 248.625H317.98V248.749H319.232V248.625Z" fill="#B5B5B5"/>
<path d="M318.696 248.914H317.98V249.038H318.696V248.914Z" fill="#B5B5B5"/>
<path d="M296.677 238.067H276.357V251.13H296.677V238.067Z" fill="#F6C05F"/>
<path d="M279.221 238.067H276.357V250.881H279.221V238.067Z" fill="#FD6D17"/>
<path opacity="0.21" d="M278.142 238.067H277.436V240.8L277.644 240.614L277.685 240.8L277.851 240.593L277.913 240.8L278.079 240.593L278.142 240.8V238.067Z" fill="#1754AD"/>
<path d="M296.47 238.067H279.16V250.881H296.47V238.067Z" fill="#F6C05F"/>
<path opacity="0.07" d="M296.47 238.067C295.474 246.12 290.057 250.819 282.543 250.302L279.16 250.881H296.47V238.067Z" fill="#1754AD"/>
<path d="M281.299 241.194V241.215C281.299 241.277 281.362 241.339 281.424 241.339C281.486 241.339 281.548 241.277 281.548 241.215V240.407C281.611 240.407 281.652 240.407 281.715 240.428H281.735C281.777 240.428 281.818 240.449 281.86 240.449H281.881C281.984 240.407 282.109 240.407 282.213 240.449C282.213 240.097 281.901 239.89 281.569 239.869H281.486C281.403 239.869 281.32 239.89 281.237 239.911C281.237 239.911 281.237 239.911 281.216 239.911C281.009 239.993 280.843 240.18 280.822 240.407V240.428C280.926 240.387 281.05 240.387 281.154 240.428H281.175C281.196 240.428 281.196 240.428 281.216 240.407C281.237 240.407 281.258 240.407 281.279 240.387C281.32 240.387 281.362 240.366 281.403 240.366H281.424C281.445 240.366 281.465 240.366 281.465 240.366V241.173C281.465 241.194 281.445 241.215 281.424 241.215C281.403 241.215 281.382 241.194 281.382 241.173V241.153H281.299V241.194Z" fill="#454545"/>
<path d="M283.083 240.8C282.896 240.8 282.751 240.656 282.751 240.469V239.89H283.436V240.469C283.415 240.656 283.27 240.8 283.083 240.8Z" fill="#454545"/>
<path d="M283.123 240.76H283.04V241.339H283.123V240.76Z" fill="#454545"/>
<path d="M283.379 241.35V241.267H282.798V241.35H283.379Z" fill="#454545"/>
<path d="M284.181 239.952H284.098V241.091H284.181V239.952Z" fill="#454545"/>
<path d="M284.178 239.952L284.119 239.893L283.924 240.086L283.984 240.146L284.178 239.952Z" fill="#454545"/>
<path d="M284.261 240.138L284.321 240.078L284.126 239.884L284.066 239.944L284.261 240.138Z" fill="#454545"/>
<path d="M284.678 239.951H284.595V241.09H284.678V239.951Z" fill="#454545"/>
<path d="M284.696 239.954L284.636 239.895L284.442 240.088L284.502 240.148L284.696 239.954Z" fill="#454545"/>
<path d="M284.774 240.141L284.834 240.081L284.639 239.887L284.58 239.947L284.774 240.141Z" fill="#454545"/>
<path d="M284.833 241.347V241.264H283.94V241.347H284.833Z" fill="#454545"/>
<path d="M295.14 239.268H291.529V241.731H295.14V239.268Z" fill="white"/>
<path d="M294.644 239.95H292.029V240.137H294.644V239.95Z" fill="#B5B5B5"/>
<path d="M294.645 240.385H292.03V240.572H294.645V240.385Z" fill="#B5B5B5"/>
<path d="M293.192 240.8H292.03V240.987H293.192V240.8Z" fill="#B5B5B5"/>
<path d="M295.307 248.273H290.305V249.515H295.307V248.273Z" fill="white"/>
<path d="M291.308 249.302V248.495H290.685V249.302H291.308Z" fill="#B5B5B5"/>
<path d="M290.879 249.295V248.487H290.838V249.295H290.879Z" fill="#B5B5B5"/>
<path d="M291.058 249.302V248.495H290.996V249.302H291.058Z" fill="#B5B5B5"/>
<path d="M291.219 249.308V248.501H291.135V249.308H291.219Z" fill="#B5B5B5"/>
<path d="M291.323 249.307V248.5H291.282V249.307H291.323Z" fill="#B5B5B5"/>
<path d="M291.792 249.295V248.487H291.439V249.295H291.792Z" fill="#B5B5B5"/>
<path d="M291.627 249.295V248.487H291.565V249.295H291.627Z" fill="#B5B5B5"/>
<path d="M291.775 249.292V248.484H291.712V249.292H291.775Z" fill="#B5B5B5"/>
<path d="M291.949 249.305V248.498H291.887V249.305H291.949Z" fill="#B5B5B5"/>
<path d="M292.526 249.31V248.503H292.007V249.31H292.526Z" fill="#B5B5B5"/>
<path d="M292.253 249.292V248.484H292.17V249.292H292.253Z" fill="#B5B5B5"/>
<path d="M292.393 249.295V248.487H292.33V249.295H292.393Z" fill="#B5B5B5"/>
<path d="M292.548 249.307V248.5H292.465V249.307H292.548Z" fill="#B5B5B5"/>
<path d="M294.913 248.563H293.024V248.75H294.913V248.563Z" fill="#B5B5B5"/>
<path d="M294.103 248.998H293.024V249.185H294.103V248.998Z" fill="#B5B5B5"/>
<path d="M306.461 244.488H296.473V250.909H306.461V244.488Z" fill="#F6C05F"/>
<path d="M297.881 244.488H296.473V250.787H297.881V244.488Z" fill="#FD6D17"/>
<path opacity="0.21" d="M297.353 244.488H297.006V245.831L297.108 245.74L297.129 245.831L297.21 245.73L297.241 245.831L297.322 245.73L297.353 245.831V244.488Z" fill="#1754AD"/>
<path d="M306.362 244.488H297.853V250.787H306.362V244.488Z" fill="#F6C05F"/>
<path opacity="0.07" d="M306.362 244.488C305.872 248.446 303.209 250.756 299.516 250.502L297.853 250.787H306.362V244.488Z" fill="#1754AD"/>
<path d="M298.903 246.024V246.034C298.903 246.065 298.933 246.095 298.964 246.095C298.994 246.095 299.025 246.065 299.025 246.034V245.638C299.056 245.638 299.076 245.638 299.107 245.648H299.117C299.137 245.648 299.158 245.658 299.178 245.658H299.188C299.239 245.638 299.301 245.638 299.352 245.658C299.352 245.485 299.198 245.383 299.035 245.373H298.994C298.954 245.373 298.913 245.383 298.872 245.393C298.872 245.393 298.872 245.393 298.862 245.393C298.76 245.434 298.678 245.526 298.668 245.638V245.648C298.719 245.627 298.78 245.627 298.831 245.648H298.841C298.852 245.648 298.852 245.648 298.862 245.638C298.872 245.638 298.882 245.638 298.892 245.627C298.913 245.627 298.933 245.617 298.954 245.617H298.964C298.974 245.617 298.984 245.617 298.984 245.617V246.014C298.984 246.024 298.974 246.034 298.964 246.034C298.954 246.034 298.943 246.024 298.943 246.014V246.004H298.903V246.024Z" fill="#454545"/>
<path d="M299.778 245.831C299.687 245.831 299.615 245.759 299.615 245.668V245.383H299.952V245.668C299.942 245.759 299.87 245.831 299.778 245.831Z" fill="#454545"/>
<path d="M299.8 245.811H299.758V246.101H299.8V245.811Z" fill="#454545"/>
<path d="M299.927 246.102V246.061H299.637V246.102H299.927Z" fill="#454545"/>
<path d="M300.32 245.412H300.279V245.972H300.32V245.412Z" fill="#454545"/>
<path d="M300.319 245.412L300.29 245.383L300.196 245.477L300.225 245.506L300.319 245.412Z" fill="#454545"/>
<path d="M300.358 245.504L300.387 245.475L300.293 245.381L300.264 245.41L300.358 245.504Z" fill="#454545"/>
<path d="M300.566 245.413H300.526V245.973H300.566V245.413Z" fill="#454545"/>
<path d="M300.576 245.413L300.547 245.384L300.452 245.478L300.481 245.507L300.576 245.413Z" fill="#454545"/>
<path d="M300.612 245.505L300.641 245.477L300.547 245.383L300.518 245.411L300.612 245.505Z" fill="#454545"/>
<path d="M300.641 246.098V246.058H300.203V246.098H300.641Z" fill="#454545"/>
<path d="M305.707 245.078H303.932V246.289H305.707V245.078Z" fill="white"/>
<path d="M305.465 245.414H304.18V245.506H305.465V245.414Z" fill="#B5B5B5"/>
<path d="M305.465 245.628H304.179V245.72H305.465V245.628Z" fill="#B5B5B5"/>
<path d="M304.751 245.832H304.179V245.924H304.751V245.832Z" fill="#B5B5B5"/>
<path d="M305.79 249.505H303.331V250.115H305.79V249.505Z" fill="white"/>
<path d="M303.826 250.011V249.614H303.52V250.011H303.826Z" fill="#B5B5B5"/>
<path d="M303.615 250.007V249.61H303.595V250.007H303.615Z" fill="#B5B5B5"/>
<path d="M303.702 250.011V249.614H303.671V250.011H303.702Z" fill="#B5B5B5"/>
<path d="M303.782 250.013V249.616H303.742V250.013H303.782Z" fill="#B5B5B5"/>
<path d="M303.835 250.013V249.616H303.815V250.013H303.835Z" fill="#B5B5B5"/>
<path d="M304.066 250.007V249.61H303.892V250.007H304.066Z" fill="#B5B5B5"/>
<path d="M303.984 250.007V249.61H303.953V250.007H303.984Z" fill="#B5B5B5"/>
<path d="M304.054 250.005V249.608H304.023V250.005H304.054Z" fill="#B5B5B5"/>
<path d="M304.14 250.012V249.615H304.11V250.012H304.14Z" fill="#B5B5B5"/>
<path d="M304.425 250.015V249.618H304.17V250.015H304.425Z" fill="#B5B5B5"/>
<path d="M304.29 250.005V249.608H304.249V250.005H304.29Z" fill="#B5B5B5"/>
<path d="M304.361 250.007V249.61H304.33V250.007H304.361Z" fill="#B5B5B5"/>
<path d="M304.437 250.013V249.616H304.396V250.013H304.437Z" fill="#B5B5B5"/>
<path d="M305.598 249.648H304.669V249.74H305.598V249.648Z" fill="#B5B5B5"/>
<path d="M305.2 249.862H304.669V249.954H305.2V249.862Z" fill="#B5B5B5"/>
<path d="M331.149 264.569H311.909V278.791H331.149V264.569Z" fill="#F6C05F"/>
<path d="M330.859 264.569H311.909V278.584H330.859V264.569Z" fill="#F6C05F"/>
<path opacity="0.1" d="M330.881 264.569C328.743 271.546 322.848 276.741 315.625 277.963L311.931 278.584H330.881V264.569Z" fill="#FD6D17"/>
<path d="M314.276 267.985V268.006C314.276 268.089 314.338 268.151 314.422 268.151C314.505 268.151 314.567 268.089 314.567 268.006V267.116C314.629 267.116 314.671 267.116 314.733 267.136H314.754C314.795 267.136 314.857 267.157 314.899 267.178H314.92C315.044 267.136 315.169 267.136 315.272 267.178C315.272 266.805 314.94 266.557 314.567 266.557H314.484C314.38 266.557 314.297 266.577 314.214 266.619H314.193C313.965 266.722 313.778 266.909 313.778 267.178V267.198C313.903 267.157 314.027 267.157 314.131 267.198H314.152C314.172 267.198 314.193 267.198 314.193 267.178C314.214 267.178 314.235 267.157 314.255 267.157C314.297 267.157 314.338 267.136 314.401 267.136C314.422 267.136 314.422 267.136 314.442 267.136C314.463 267.136 314.484 267.136 314.505 267.136V268.026C314.505 268.047 314.484 268.068 314.463 268.068C314.442 268.068 314.422 268.047 314.422 268.026V268.006H314.276V267.985Z" fill="#333333"/>
<path d="M316.225 267.571C316.018 267.571 315.852 267.405 315.852 267.198V266.577H316.599V267.198C316.599 267.405 316.412 267.571 316.225 267.571Z" fill="#333333"/>
<path d="M316.245 267.529H316.162V268.171H316.245V267.529Z" fill="#333333"/>
<path d="M316.532 268.145V268.062H315.888V268.145H316.532Z" fill="#333333"/>
<path d="M317.409 266.619H317.326V267.882H317.409V266.619Z" fill="#333333"/>
<path d="M317.424 266.622L317.364 266.562L317.155 266.771L317.214 266.831L317.424 266.622Z" fill="#333333"/>
<path d="M317.51 266.839L317.57 266.779L317.361 266.571L317.301 266.63L317.51 266.839Z" fill="#333333"/>
<path d="M317.968 266.619H317.885V267.882H317.968V266.619Z" fill="#333333"/>
<path d="M318.002 266.633L317.942 266.573L317.733 266.782L317.793 266.842L318.002 266.633Z" fill="#333333"/>
<path d="M318.077 266.834L318.137 266.774L317.928 266.566L317.868 266.625L318.077 266.834Z" fill="#333333"/>
<path d="M318.153 268.163V268.08H317.157V268.163H318.153Z" fill="#333333"/>
<path d="M329.427 265.874H325.463V268.565H329.427V265.874Z" fill="white"/>
<path d="M328.888 266.641H326.024V266.827H328.888V266.641Z" fill="#B5B5B5"/>
<path d="M328.889 267.096H326.025V267.283H328.889V267.096Z" fill="#B5B5B5"/>
<path d="M327.291 267.552H326.025V267.739H327.291V267.552Z" fill="#B5B5B5"/>
<path d="M329.615 275.748H324.136V277.094H329.615V275.748Z" fill="white"/>
<path d="M325.234 276.875V275.985H324.57V276.875H325.234Z" fill="#B5B5B5"/>
<path d="M324.772 276.88V275.99H324.731V276.88H324.772Z" fill="#B5B5B5"/>
<path d="M324.943 276.875V275.984H324.881V276.875H324.943Z" fill="#B5B5B5"/>
<path d="M325.137 276.865V275.975H325.034V276.865H325.137Z" fill="#B5B5B5"/>
<path d="M325.256 276.873V275.982H325.215V276.873H325.256Z" fill="#B5B5B5"/>
<path d="M325.756 276.873V275.982H325.361V276.873H325.756Z" fill="#B5B5B5"/>
<path d="M325.59 276.873V275.982H325.527V276.873H325.59Z" fill="#B5B5B5"/>
<path d="M325.75 276.877V275.987H325.688V276.877H325.75Z" fill="#B5B5B5"/>
<path d="M325.92 276.875V275.985H325.837V276.875H325.92Z" fill="#B5B5B5"/>
<path d="M326.573 276.867V275.977H326.013V276.867H326.573Z" fill="#B5B5B5"/>
<path d="M326.272 276.875V275.984H326.168V276.875H326.272Z" fill="#B5B5B5"/>
<path d="M326.431 276.883V275.993H326.368V276.883H326.431Z" fill="#B5B5B5"/>
<path d="M326.595 276.883V275.993H326.491V276.883H326.595Z" fill="#B5B5B5"/>
<path d="M329.201 276.079H327.125V276.266H329.201V276.079Z" fill="#B5B5B5"/>
<path d="M328.308 276.535H327.125V276.722H328.308V276.535Z" fill="#B5B5B5"/>
<path d="M350.307 264.569H331.171V278.791H350.307V264.569Z" fill="#F6C05F"/>
<path d="M350.121 264.569H331.171V278.584H350.121V264.569Z" fill="#F6C05F"/>
<path opacity="0.1" d="M350.121 264.569C347.983 271.546 342.088 276.741 334.865 277.963L331.171 278.584H350.121V264.569Z" fill="#FD6D17"/>
<path d="M333.516 267.985V268.006C333.516 268.089 333.578 268.151 333.661 268.151C333.745 268.151 333.807 268.089 333.807 268.006V267.116C333.869 267.116 333.911 267.116 333.973 267.136H333.994C334.035 267.136 334.097 267.157 334.139 267.178H334.16C334.284 267.136 334.409 267.136 334.512 267.178C334.512 266.805 334.18 266.557 333.807 266.557H333.724C333.62 266.557 333.537 266.577 333.454 266.619H333.433C333.205 266.722 333.018 266.909 333.018 267.178V267.198C333.143 267.157 333.267 267.157 333.371 267.198H333.392C333.412 267.198 333.433 267.198 333.433 267.178C333.454 267.178 333.475 267.157 333.495 267.157C333.537 267.157 333.578 267.136 333.641 267.136C333.661 267.136 333.661 267.136 333.682 267.136C333.703 267.136 333.724 267.136 333.745 267.136V268.026C333.745 268.047 333.724 268.068 333.703 268.068C333.682 268.068 333.661 268.047 333.661 268.026V268.006H333.516V267.985Z" fill="#525252"/>
<path d="M335.466 267.571C335.259 267.571 335.093 267.405 335.093 267.198V266.577H335.84V267.198C335.84 267.405 335.674 267.571 335.466 267.571Z" fill="#525252"/>
<path d="M335.507 267.529H335.424V268.171H335.507V267.529Z" fill="#525252"/>
<path d="M335.78 268.159V268.076H335.137V268.159H335.78Z" fill="#525252"/>
<path d="M336.653 266.618H336.57V267.881H336.653V266.618Z" fill="#525252"/>
<path d="M336.686 266.631L336.626 266.571L336.416 266.78L336.476 266.84L336.686 266.631Z" fill="#525252"/>
<path d="M336.765 266.832L336.825 266.772L336.616 266.564L336.556 266.623L336.765 266.832Z" fill="#525252"/>
<path d="M337.212 266.618H337.129V267.881H337.212V266.618Z" fill="#525252"/>
<path d="M337.244 266.628L337.185 266.568L336.975 266.777L337.035 266.837L337.244 266.628Z" fill="#525252"/>
<path d="M337.332 266.829L337.391 266.77L337.182 266.561L337.122 266.62L337.332 266.829Z" fill="#525252"/>
<path d="M337.402 268.155V268.072H336.406V268.155H337.402Z" fill="#525252"/>
<path d="M348.856 275.748H343.377V277.094H348.856V275.748Z" fill="white"/>
<path d="M344.48 276.871V275.98H343.816V276.871H344.48Z" fill="#B5B5B5"/>
<path d="M344.019 276.874V275.983H343.977V276.874H344.019Z" fill="#B5B5B5"/>
<path d="M344.192 276.868V275.978H344.129V276.868H344.192Z" fill="#B5B5B5"/>
<path d="M344.389 276.878V275.988H344.285V276.878H344.389Z" fill="#B5B5B5"/>
<path d="M344.506 276.866V275.976H344.464V276.866H344.506Z" fill="#B5B5B5"/>
<path d="M345.004 276.866V275.976H344.61V276.866H345.004Z" fill="#B5B5B5"/>
<path d="M344.836 276.866V275.976H344.774V276.866H344.836Z" fill="#B5B5B5"/>
<path d="M345 276.871V275.98H344.937V276.871H345Z" fill="#B5B5B5"/>
<path d="M345.167 276.869V275.979H345.084V276.869H345.167Z" fill="#B5B5B5"/>
<path d="M345.818 276.879V275.989H345.258V276.879H345.818Z" fill="#B5B5B5"/>
<path d="M345.519 276.868V275.978H345.415V276.868H345.519Z" fill="#B5B5B5"/>
<path d="M345.677 276.875V275.985H345.615V276.875H345.677Z" fill="#B5B5B5"/>
<path d="M345.843 276.876V275.986H345.739V276.876H345.843Z" fill="#B5B5B5"/>
<path d="M348.44 276.079H346.365V276.266H348.44V276.079Z" fill="#B5B5B5"/>
<path d="M347.548 276.535H346.365V276.722H347.548V276.535Z" fill="#B5B5B5"/>
<path d="M331.007 250.326H311.767V264.548H331.007V250.326Z" fill="#F6C05F"/>
<path d="M330.716 250.326H311.767V264.341H330.716V250.326Z" fill="#F6C05F"/>
<path d="M314.131 253.762V253.783C314.131 253.866 314.194 253.928 314.277 253.928C314.36 253.928 314.422 253.866 314.422 253.783V252.893C314.484 252.893 314.526 252.893 314.588 252.914H314.609C314.65 252.914 314.713 252.934 314.754 252.955H314.775C314.899 252.914 315.024 252.914 315.128 252.955C315.128 252.582 314.796 252.355 314.422 252.334H314.339C314.235 252.334 314.152 252.355 314.069 252.396H314.048C313.82 252.5 313.633 252.686 313.633 252.955V252.976C313.758 252.934 313.882 252.934 313.986 252.976H314.007C314.028 252.976 314.048 252.976 314.048 252.955C314.069 252.955 314.09 252.934 314.111 252.934C314.152 252.934 314.194 252.914 314.256 252.914C314.277 252.914 314.277 252.914 314.297 252.914C314.318 252.914 314.339 252.914 314.36 252.914V253.804C314.36 253.824 314.339 253.845 314.318 253.845C314.297 253.845 314.277 253.824 314.277 253.804V253.783H314.131V253.762Z" fill="#333333"/>
<path d="M316.081 253.329C315.874 253.329 315.708 253.163 315.708 252.956V252.335H316.455V252.956C316.455 253.163 316.289 253.329 316.081 253.329Z" fill="#333333"/>
<path d="M316.104 253.287H316.021V253.929H316.104V253.287Z" fill="#333333"/>
<path d="M316.398 253.907V253.824H315.755V253.907H316.398Z" fill="#333333"/>
<path d="M317.263 252.396H317.18V253.659H317.263V252.396Z" fill="#333333"/>
<path d="M317.284 252.38L317.225 252.32L317.015 252.529L317.075 252.589L317.284 252.38Z" fill="#333333"/>
<path d="M317.373 252.609L317.433 252.55L317.224 252.341L317.164 252.401L317.373 252.609Z" fill="#333333"/>
<path d="M317.826 252.397H317.743V253.66H317.826V252.397Z" fill="#333333"/>
<path d="M317.863 252.392L317.803 252.332L317.593 252.541L317.653 252.6L317.863 252.392Z" fill="#333333"/>
<path d="M317.945 252.608L318.005 252.549L317.796 252.34L317.736 252.4L317.945 252.608Z" fill="#333333"/>
<path d="M318 253.927V253.844H317.003V253.927H318Z" fill="#333333"/>
<path d="M329.302 251.63H325.338V254.321H329.302V251.63Z" fill="white"/>
<path d="M328.742 252.395H325.878V252.581H328.742V252.395Z" fill="#B5B5B5"/>
<path d="M328.742 252.87H325.878V253.057H328.742V252.87Z" fill="#B5B5B5"/>
<path d="M327.144 253.325H325.878V253.512H327.144V253.325Z" fill="#B5B5B5"/>
<path d="M329.468 261.505H323.989V262.85H329.468V261.505Z" fill="white"/>
<path d="M325.079 262.638V261.748H324.415V262.638H325.079Z" fill="#B5B5B5"/>
<path d="M324.617 262.644V261.754H324.576V262.644H324.617Z" fill="#B5B5B5"/>
<path d="M324.808 262.636V261.746H324.745V262.636H324.808Z" fill="#B5B5B5"/>
<path d="M324.982 262.648V261.758H324.879V262.648H324.982Z" fill="#B5B5B5"/>
<path d="M325.102 262.635V261.745H325.06V262.635H325.102Z" fill="#B5B5B5"/>
<path d="M325.601 262.635V261.745H325.206V262.635H325.601Z" fill="#B5B5B5"/>
<path d="M325.455 262.635V261.745H325.393V262.635H325.455Z" fill="#B5B5B5"/>
<path d="M325.616 262.639V261.749H325.554V262.639H325.616Z" fill="#B5B5B5"/>
<path d="M325.784 262.638V261.748H325.701V262.638H325.784Z" fill="#B5B5B5"/>
<path d="M326.437 262.628V261.738H325.876V262.628H326.437Z" fill="#B5B5B5"/>
<path d="M326.117 262.636V261.746H326.013V262.636H326.117Z" fill="#B5B5B5"/>
<path d="M326.295 262.645V261.755H326.233V262.645H326.295Z" fill="#B5B5B5"/>
<path d="M326.44 262.645V261.755H326.336V262.645H326.44Z" fill="#B5B5B5"/>
<path d="M329.054 261.837H326.978V262.024H329.054V261.837Z" fill="#B5B5B5"/>
<path d="M328.161 262.291H326.978V262.478H328.161V262.291Z" fill="#B5B5B5"/>
<path d="M350.162 250.326H331.026V264.548H350.162V250.326Z" fill="#F6C05F"/>
<path d="M349.976 250.326H331.026V264.341H349.976V250.326Z" fill="#F6C05F"/>
<path opacity="0.1" d="M349.976 250.326C347.838 257.302 341.943 262.498 334.72 263.72L331.026 264.341H349.976V250.326Z" fill="#FD6D17"/>
<path d="M333.372 253.762V253.783C333.372 253.866 333.434 253.928 333.517 253.928C333.6 253.928 333.663 253.866 333.663 253.783V252.893C333.725 252.893 333.767 252.893 333.829 252.914H333.85C333.891 252.914 333.953 252.934 333.995 252.955H334.016C334.14 252.914 334.265 252.914 334.368 252.955C334.368 252.582 334.036 252.355 333.663 252.334H333.58C333.476 252.334 333.393 252.355 333.31 252.396H333.289C333.061 252.5 332.874 252.686 332.874 252.955V252.976C332.999 252.934 333.123 252.934 333.227 252.976H333.248C333.268 252.976 333.289 252.976 333.289 252.955C333.31 252.955 333.331 252.934 333.351 252.934C333.393 252.934 333.434 252.914 333.497 252.914C333.517 252.914 333.517 252.914 333.538 252.914C333.559 252.914 333.58 252.914 333.6 252.914V253.804C333.6 253.824 333.58 253.845 333.559 253.845C333.538 253.845 333.517 253.824 333.517 253.804V253.783H333.372V253.762Z" fill="#525252"/>
<path d="M335.321 253.326C335.114 253.326 334.948 253.16 334.948 252.953V252.332H335.695V252.953C335.695 253.16 335.529 253.326 335.321 253.326Z" fill="#525252"/>
<path d="M335.365 253.284H335.282V253.926H335.365V253.284Z" fill="#525252"/>
<path d="M335.646 253.919V253.836H335.002V253.919H335.646Z" fill="#525252"/>
<path d="M336.507 252.396H336.424V253.658H336.507V252.396Z" fill="#525252"/>
<path d="M336.542 252.389L336.482 252.329L336.273 252.538L336.332 252.597L336.542 252.389Z" fill="#525252"/>
<path d="M336.627 252.603L336.687 252.543L336.478 252.334L336.418 252.394L336.627 252.603Z" fill="#525252"/>
<path d="M337.065 252.396H336.982V253.658H337.065V252.396Z" fill="#525252"/>
<path d="M337.1 252.386L337.04 252.326L336.831 252.535L336.891 252.595L337.1 252.386Z" fill="#525252"/>
<path d="M337.192 252.6L337.252 252.54L337.043 252.331L336.983 252.391L337.192 252.6Z" fill="#525252"/>
<path d="M337.245 253.919V253.836H336.249V253.919H337.245Z" fill="#525252"/>
<path d="M348.71 261.505H343.231V262.85H348.71V261.505Z" fill="white"/>
<path d="M344.321 262.633V261.743H343.657V262.633H344.321Z" fill="#B5B5B5"/>
<path d="M343.86 262.636V261.746H343.818V262.636H343.86Z" fill="#B5B5B5"/>
<path d="M344.054 262.63V261.74H343.992V262.63H344.054Z" fill="#B5B5B5"/>
<path d="M344.228 262.641V261.751H344.124V262.641H344.228Z" fill="#B5B5B5"/>
<path d="M344.345 262.628V261.738H344.303V262.628H344.345Z" fill="#B5B5B5"/>
<path d="M344.844 262.628V261.738H344.45V262.628H344.844Z" fill="#B5B5B5"/>
<path d="M344.697 262.628V261.738H344.634V262.628H344.697Z" fill="#B5B5B5"/>
<path d="M344.86 262.633V261.743H344.797V262.633H344.86Z" fill="#B5B5B5"/>
<path d="M345.027 262.631V261.741H344.944V262.631H345.027Z" fill="#B5B5B5"/>
<path d="M345.678 262.642V261.752H345.118V262.642H345.678Z" fill="#B5B5B5"/>
<path d="M345.358 262.63V261.74H345.254V262.63H345.358Z" fill="#B5B5B5"/>
<path d="M345.539 262.638V261.748H345.477V262.638H345.539Z" fill="#B5B5B5"/>
<path d="M345.682 262.639V261.749H345.579V262.639H345.682Z" fill="#B5B5B5"/>
<path d="M348.296 261.837H346.22V262.024H348.296V261.837Z" fill="#B5B5B5"/>
<path d="M347.404 262.291H346.22V262.478H347.404V262.291Z" fill="#B5B5B5"/>
<path d="M293.327 265.151H274.086V279.373H293.327V265.151Z" fill="#F6C05F"/>
<path d="M293.036 265.151H274.086V279.166H293.036V265.151Z" fill="#F6C05F"/>
<path opacity="0.1" d="M293.057 265.151C290.919 272.128 285.024 277.323 277.801 278.545L274.107 279.166H293.057V265.151Z" fill="#FD6D17"/>
<path d="M276.454 268.567V268.588C276.454 268.671 276.516 268.733 276.599 268.733C276.682 268.733 276.744 268.671 276.744 268.588V267.698C276.807 267.698 276.848 267.698 276.91 267.718H276.931C276.973 267.718 277.035 267.739 277.076 267.76H277.097C277.222 267.718 277.346 267.718 277.45 267.76C277.45 267.387 277.118 267.139 276.744 267.139H276.661C276.557 267.139 276.474 267.159 276.391 267.201H276.371C276.142 267.304 275.956 267.491 275.956 267.76V267.78C276.08 267.739 276.205 267.739 276.308 267.78H276.329C276.35 267.78 276.371 267.78 276.371 267.76C276.391 267.76 276.412 267.739 276.433 267.739C276.474 267.739 276.516 267.718 276.578 267.718C276.599 267.718 276.599 267.718 276.62 267.718C276.641 267.718 276.661 267.718 276.682 267.718V268.608C276.682 268.629 276.661 268.65 276.641 268.65C276.62 268.65 276.599 268.629 276.599 268.608V268.588H276.454V268.567Z" fill="#333333"/>
<path d="M278.405 268.154C278.197 268.154 278.031 267.988 278.031 267.781V267.16H278.778V267.781C278.778 267.988 278.591 268.154 278.405 268.154Z" fill="#333333"/>
<path d="M278.425 268.112H278.342V268.754H278.425V268.112Z" fill="#333333"/>
<path d="M278.712 268.728V268.645H278.068V268.728H278.712Z" fill="#333333"/>
<path d="M279.587 267.202H279.504V268.465H279.587V267.202Z" fill="#333333"/>
<path d="M279.603 267.205L279.543 267.146L279.334 267.354L279.394 267.414L279.603 267.205Z" fill="#333333"/>
<path d="M279.69 267.422L279.75 267.362L279.541 267.154L279.481 267.213L279.69 267.422Z" fill="#333333"/>
<path d="M280.149 267.202H280.066V268.465H280.149V267.202Z" fill="#333333"/>
<path d="M280.179 267.217L280.12 267.157L279.91 267.366L279.97 267.426L280.179 267.217Z" fill="#333333"/>
<path d="M280.259 267.418L280.319 267.358L280.11 267.15L280.05 267.209L280.259 267.418Z" fill="#333333"/>
<path d="M280.333 268.746V268.663H279.337V268.746H280.333Z" fill="#333333"/>
<path d="M291.605 266.455H287.641V269.146H291.605V266.455Z" fill="white"/>
<path d="M291.066 267.22H288.202V267.407H291.066V267.22Z" fill="#B5B5B5"/>
<path d="M291.066 267.675H288.202V267.862H291.066V267.675Z" fill="#B5B5B5"/>
<path d="M289.468 268.13H288.202V268.317H289.468V268.13Z" fill="#B5B5B5"/>
<path d="M291.792 276.33H286.313V277.676H291.792V276.33Z" fill="white"/>
<path d="M287.409 277.458V276.567H286.745V277.458H287.409Z" fill="#B5B5B5"/>
<path d="M286.948 277.462V276.572H286.906V277.462H286.948Z" fill="#B5B5B5"/>
<path d="M287.118 277.457V276.566H287.056V277.457H287.118Z" fill="#B5B5B5"/>
<path d="M287.318 277.447V276.557H287.214V277.447H287.318Z" fill="#B5B5B5"/>
<path d="M287.433 277.455V276.564H287.391V277.455H287.433Z" fill="#B5B5B5"/>
<path d="M287.932 277.455V276.564H287.538V277.455H287.932Z" fill="#B5B5B5"/>
<path d="M287.765 277.455V276.564H287.703V277.455H287.765Z" fill="#B5B5B5"/>
<path d="M287.928 277.459V276.569H287.866V277.459H287.928Z" fill="#B5B5B5"/>
<path d="M288.095 277.458V276.567H288.012V277.458H288.095Z" fill="#B5B5B5"/>
<path d="M288.749 277.449V276.559H288.189V277.449H288.749Z" fill="#B5B5B5"/>
<path d="M288.448 277.457V276.566H288.344V277.457H288.448Z" fill="#B5B5B5"/>
<path d="M288.606 277.465V276.575H288.543V277.465H288.606Z" fill="#B5B5B5"/>
<path d="M288.772 277.465V276.575H288.668V277.465H288.772Z" fill="#B5B5B5"/>
<path d="M291.377 276.662H289.301V276.849H291.377V276.662Z" fill="#B5B5B5"/>
<path d="M290.484 277.116H289.301V277.303H290.484V277.116Z" fill="#B5B5B5"/>
<path d="M312.487 265.151H293.35V279.373H312.487V265.151Z" fill="#F6C05F"/>
<path d="M312.3 265.151H293.35V279.166H312.3V265.151Z" fill="#F6C05F"/>
<path opacity="0.1" d="M312.3 265.151C310.162 272.128 304.267 277.323 297.044 278.545L293.35 279.166H312.3V265.151Z" fill="#FD6D17"/>
<path d="M295.695 268.568V268.589C295.695 268.672 295.757 268.734 295.84 268.734C295.923 268.734 295.986 268.672 295.986 268.589V267.699C296.048 267.699 296.09 267.699 296.152 267.719H296.173C296.214 267.719 296.276 267.74 296.318 267.761H296.339C296.463 267.719 296.588 267.719 296.691 267.761C296.691 267.388 296.359 267.14 295.986 267.14H295.903C295.799 267.14 295.716 267.16 295.633 267.202H295.612C295.384 267.305 295.197 267.492 295.197 267.761V267.781C295.322 267.74 295.446 267.74 295.55 267.781H295.571C295.591 267.781 295.612 267.781 295.612 267.761C295.633 267.761 295.654 267.74 295.674 267.74C295.716 267.74 295.757 267.719 295.82 267.719C295.84 267.719 295.84 267.719 295.861 267.719C295.882 267.719 295.903 267.719 295.923 267.719V268.609C295.923 268.63 295.903 268.651 295.882 268.651C295.861 268.651 295.84 268.63 295.84 268.609V268.589H295.695V268.568Z" fill="#525252"/>
<path d="M297.645 268.155C297.437 268.155 297.271 267.989 297.271 267.782V267.161H298.018V267.782C298.018 267.989 297.852 268.155 297.645 268.155Z" fill="#525252"/>
<path d="M297.687 268.112H297.604V268.754H297.687V268.112Z" fill="#525252"/>
<path d="M297.959 268.742V268.659H297.316V268.742H297.959Z" fill="#525252"/>
<path d="M298.826 267.201H298.743V268.464H298.826V267.201Z" fill="#525252"/>
<path d="M298.856 267.214L298.796 267.154L298.587 267.363L298.647 267.423L298.856 267.214Z" fill="#525252"/>
<path d="M298.939 267.415L298.999 267.355L298.789 267.147L298.73 267.206L298.939 267.415Z" fill="#525252"/>
<path d="M299.385 267.201H299.302V268.464H299.385V267.201Z" fill="#525252"/>
<path d="M299.417 267.211L299.357 267.151L299.148 267.36L299.207 267.42L299.417 267.211Z" fill="#525252"/>
<path d="M299.505 267.412L299.565 267.353L299.356 267.144L299.296 267.203L299.505 267.412Z" fill="#525252"/>
<path d="M299.576 268.738V268.655H298.58V268.738H299.576Z" fill="#525252"/>
<path d="M311.032 276.33H305.553V277.676H311.032V276.33Z" fill="white"/>
<path d="M306.658 277.453V276.562H305.994V277.453H306.658Z" fill="#B5B5B5"/>
<path d="M306.196 277.456V276.565H306.155V277.456H306.196Z" fill="#B5B5B5"/>
<path d="M306.369 277.45V276.56H306.306V277.45H306.369Z" fill="#B5B5B5"/>
<path d="M306.564 277.46V276.57H306.46V277.46H306.564Z" fill="#B5B5B5"/>
<path d="M306.681 277.448V276.558H306.64V277.448H306.681Z" fill="#B5B5B5"/>
<path d="M307.179 277.448V276.558H306.785V277.448H307.179Z" fill="#B5B5B5"/>
<path d="M307.014 277.448V276.558H306.952V277.448H307.014Z" fill="#B5B5B5"/>
<path d="M307.177 277.453V276.562H307.114V277.453H307.177Z" fill="#B5B5B5"/>
<path d="M307.344 277.451V276.561H307.261V277.451H307.344Z" fill="#B5B5B5"/>
<path d="M307.998 277.461V276.571H307.438V277.461H307.998Z" fill="#B5B5B5"/>
<path d="M307.696 277.45V276.56H307.592V277.45H307.696Z" fill="#B5B5B5"/>
<path d="M307.854 277.458V276.567H307.791V277.458H307.854Z" fill="#B5B5B5"/>
<path d="M308.02 277.458V276.568H307.916V277.458H308.02Z" fill="#B5B5B5"/>
<path d="M310.617 276.662H308.542V276.849H310.617V276.662Z" fill="#B5B5B5"/>
<path d="M309.725 277.116H308.542V277.303H309.725V277.116Z" fill="#B5B5B5"/>
<path d="M293.182 250.909H273.941V265.131H293.182V250.909Z" fill="#F6C05F"/>
<path d="M292.891 250.909H273.941V264.924H292.891V250.909Z" fill="#F6C05F"/>
<path d="M276.307 254.344V254.365C276.307 254.448 276.369 254.51 276.452 254.51C276.535 254.51 276.598 254.448 276.598 254.365V253.475C276.66 253.475 276.701 253.475 276.764 253.496H276.784C276.826 253.496 276.888 253.516 276.93 253.537H276.95C277.075 253.496 277.199 253.496 277.303 253.537C277.303 253.164 276.971 252.937 276.598 252.916H276.515C276.411 252.916 276.328 252.937 276.245 252.978H276.224C275.996 253.082 275.809 253.268 275.809 253.537V253.558C275.933 253.516 276.058 253.516 276.162 253.558H276.182C276.203 253.558 276.224 253.558 276.224 253.537C276.245 253.537 276.265 253.516 276.286 253.516C276.328 253.516 276.369 253.496 276.432 253.496C276.452 253.496 276.452 253.496 276.473 253.496C276.494 253.496 276.515 253.496 276.535 253.496V254.386C276.535 254.406 276.515 254.427 276.494 254.427C276.473 254.427 276.452 254.406 276.452 254.386V254.365H276.307V254.344Z" fill="#333333"/>
<path d="M278.259 253.91C278.051 253.91 277.885 253.744 277.885 253.537V252.916H278.632V253.537C278.632 253.744 278.466 253.91 278.259 253.91Z" fill="#333333"/>
<path d="M278.277 253.867H278.194V254.509H278.277V253.867Z" fill="#333333"/>
<path d="M278.574 254.489V254.406H277.931V254.489H278.574Z" fill="#333333"/>
<path d="M279.441 252.979H279.358V254.241H279.441V252.979Z" fill="#333333"/>
<path d="M279.463 252.962L279.404 252.902L279.194 253.111L279.254 253.171L279.463 252.962Z" fill="#333333"/>
<path d="M279.553 253.191L279.613 253.132L279.404 252.923L279.344 252.983L279.553 253.191Z" fill="#333333"/>
<path d="M280.002 252.979H279.919V254.242H280.002V252.979Z" fill="#333333"/>
<path d="M280.037 252.974L279.977 252.914L279.768 253.123L279.828 253.182L280.037 252.974Z" fill="#333333"/>
<path d="M280.119 253.19L280.179 253.131L279.97 252.922L279.91 252.982L280.119 253.19Z" fill="#333333"/>
<path d="M280.175 254.509V254.426H279.179V254.509H280.175Z" fill="#333333"/>
<path d="M291.48 252.213H287.516V254.904H291.48V252.213Z" fill="white"/>
<path d="M290.918 252.979H288.054V253.166H290.918V252.979Z" fill="#B5B5B5"/>
<path d="M290.917 253.456H288.053V253.643H290.917V253.456Z" fill="#B5B5B5"/>
<path d="M289.319 253.91H288.053V254.097H289.319V253.91Z" fill="#B5B5B5"/>
<path d="M291.646 262.088H286.167V263.433H291.646V262.088Z" fill="white"/>
<path d="M287.253 263.222V262.332H286.589V263.222H287.253Z" fill="#B5B5B5"/>
<path d="M286.792 263.226V262.336H286.75V263.226H286.792Z" fill="#B5B5B5"/>
<path d="M286.985 263.22V262.33H286.923V263.22H286.985Z" fill="#B5B5B5"/>
<path d="M287.16 263.232V262.342H287.056V263.232H287.16Z" fill="#B5B5B5"/>
<path d="M287.275 263.219V262.329H287.234V263.219H287.275Z" fill="#B5B5B5"/>
<path d="M287.776 263.219V262.329H287.382V263.219H287.776Z" fill="#B5B5B5"/>
<path d="M287.628 263.219V262.329H287.566V263.219H287.628Z" fill="#B5B5B5"/>
<path d="M287.79 263.223V262.333H287.728V263.223H287.79Z" fill="#B5B5B5"/>
<path d="M287.957 263.222V262.332H287.874V263.222H287.957Z" fill="#B5B5B5"/>
<path d="M288.61 263.212V262.322H288.05V263.212H288.61Z" fill="#B5B5B5"/>
<path d="M288.291 263.22V262.33H288.187V263.22H288.291Z" fill="#B5B5B5"/>
<path d="M288.468 263.229V262.339H288.406V263.229H288.468Z" fill="#B5B5B5"/>
<path d="M288.614 263.229V262.339H288.51V263.229H288.614Z" fill="#B5B5B5"/>
<path d="M291.232 262.42H289.156V262.607H291.232V262.42Z" fill="#B5B5B5"/>
<path d="M290.339 262.875H289.156V263.062H290.339V262.875Z" fill="#B5B5B5"/>
<path d="M312.341 250.106H293.205V265.13H312.341V250.106Z" fill="#F6C05F"/>
<path d="M312.154 250.106H293.205V264.912H312.154V250.106Z" fill="#F6C05F"/>
<path opacity="0.1" d="M312.154 250.106C310.017 257.476 304.122 262.965 296.899 264.256L293.205 264.912H312.154V250.106Z" fill="#FD6D17"/>
<path d="M295.548 253.737V253.759C295.548 253.847 295.61 253.912 295.693 253.912C295.776 253.912 295.839 253.847 295.839 253.759V252.819C295.901 252.819 295.943 252.819 296.005 252.841H296.026C296.067 252.841 296.129 252.863 296.171 252.885H296.192C296.316 252.841 296.441 252.841 296.544 252.885C296.544 252.491 296.212 252.25 295.839 252.229H295.756C295.652 252.229 295.569 252.25 295.486 252.294H295.465C295.237 252.403 295.05 252.6 295.05 252.885V252.906C295.175 252.863 295.299 252.863 295.403 252.906H295.424C295.444 252.906 295.465 252.906 295.465 252.885C295.486 252.885 295.507 252.863 295.527 252.863C295.569 252.863 295.61 252.841 295.673 252.841C295.693 252.841 295.693 252.841 295.714 252.841C295.735 252.841 295.756 252.841 295.776 252.841V253.781C295.776 253.803 295.756 253.825 295.735 253.825C295.714 253.825 295.693 253.803 295.693 253.781V253.759H295.548V253.737Z" fill="#525252"/>
<path d="M297.5 253.277C297.293 253.277 297.127 253.102 297.127 252.884V252.228H297.874V252.884C297.874 253.102 297.708 253.277 297.5 253.277Z" fill="#525252"/>
<path d="M297.542 253.232H297.459V253.91H297.542V253.232Z" fill="#525252"/>
<path d="M297.824 253.904V253.816H297.181V253.904H297.824Z" fill="#525252"/>
<path d="M298.686 252.293H298.603V253.627H298.686V252.293Z" fill="#525252"/>
<path d="M298.723 252.286L298.663 252.223L298.454 252.443L298.514 252.506L298.723 252.286Z" fill="#525252"/>
<path d="M298.806 252.512L298.865 252.449L298.656 252.229L298.596 252.292L298.806 252.512Z" fill="#525252"/>
<path d="M299.241 252.293H299.158V253.627H299.241V252.293Z" fill="#525252"/>
<path d="M299.279 252.283L299.219 252.22L299.01 252.44L299.07 252.503L299.279 252.283Z" fill="#525252"/>
<path d="M299.371 252.507L299.431 252.444L299.222 252.224L299.162 252.287L299.371 252.507Z" fill="#525252"/>
<path d="M299.423 253.902V253.814H298.426V253.902H299.423Z" fill="#525252"/>
<path d="M310.887 261.916H305.408V263.338H310.887V261.916Z" fill="white"/>
<path d="M306.502 263.108V262.168H305.838V263.108H306.502Z" fill="#B5B5B5"/>
<path d="M306.041 263.111V262.171H305.999V263.111H306.041Z" fill="#B5B5B5"/>
<path d="M306.233 263.105V262.165H306.171V263.105H306.233Z" fill="#B5B5B5"/>
<path d="M306.406 263.117V262.177H306.303V263.117H306.406Z" fill="#B5B5B5"/>
<path d="M306.526 263.103V262.163H306.484V263.103H306.526Z" fill="#B5B5B5"/>
<path d="M307.025 263.103V262.163H306.63V263.103H307.025Z" fill="#B5B5B5"/>
<path d="M306.879 263.103V262.163H306.817V263.103H306.879Z" fill="#B5B5B5"/>
<path d="M307.042 263.108V262.168H306.98V263.108H307.042Z" fill="#B5B5B5"/>
<path d="M307.208 263.106V262.166H307.125V263.106H307.208Z" fill="#B5B5B5"/>
<path d="M307.861 263.119V262.179H307.3V263.119H307.861Z" fill="#B5B5B5"/>
<path d="M307.539 263.105V262.165H307.436V263.105H307.539Z" fill="#B5B5B5"/>
<path d="M307.718 263.114V262.174H307.656V263.114H307.718Z" fill="#B5B5B5"/>
<path d="M307.863 263.114V262.174H307.759V263.114H307.863Z" fill="#B5B5B5"/>
<path d="M310.471 262.266H308.395V262.463H310.471V262.266Z" fill="#B5B5B5"/>
<path d="M309.578 262.747H308.395V262.944H309.578V262.747Z" fill="#B5B5B5"/>
</g>
<path d="M262.27 204.543V277.881H136.426V204.543H262.27Z" fill="#FD6D17" stroke="#5798F9" stroke-width="2.1043"/>
<rect width="129.789" height="76.8141" transform="translate(135.301 203.557)" fill="#FD6D17"/>
<mask id="mask0_2035_26863" style="mask-type:alpha" maskUnits="userSpaceOnUse" x="135" y="203" width="335" height="199">
<path d="M264.935 204.543V277.881H136.427V204.543H264.935Z" fill="#3681F2" stroke="#5798F9" stroke-width="2.1043"/>
<rect width="334.584" height="197.805" transform="translate(135.398 203.47)" fill="#3681F2"/>
</mask>
<g mask="url(#mask0_2035_26863)">
<mask id="mask1_2035_26863" style="mask-type:alpha" maskUnits="userSpaceOnUse" x="129" y="203" width="215" height="78">
<path d="M343.504 203.557H129.892V280.371H343.504V203.557Z" fill="#FD6D17"/>
</mask>
<g mask="url(#mask1_2035_26863)">
<path opacity="0.4" d="M143.308 183.901L133.813 182.942L104.239 413.412L113.735 414.37L143.308 183.901Z" fill="url(#paint7_linear_2035_26863)" fill-opacity="0.2"/>
<path opacity="0.4" d="M157.122 183.901L147.626 182.942L118.053 413.412L127.548 414.37L157.122 183.901Z" fill="url(#paint8_linear_2035_26863)" fill-opacity="0.2"/>
<path opacity="0.4" d="M170.94 183.901L161.444 182.942L131.871 413.412L141.366 414.37L170.94 183.901Z" fill="url(#paint9_linear_2035_26863)" fill-opacity="0.2"/>
<path opacity="0.4" d="M184.755 183.901L175.26 182.942L145.686 413.412L155.182 414.37L184.755 183.901Z" fill="url(#paint10_linear_2035_26863)" fill-opacity="0.2"/>
<path opacity="0.4" d="M198.574 183.901L189.079 182.942L159.505 413.412L169.001 414.37L198.574 183.901Z" fill="url(#paint11_linear_2035_26863)" fill-opacity="0.2"/>
<path opacity="0.4" d="M212.395 183.901L202.899 182.942L173.326 413.412L182.822 414.37L212.395 183.901Z" fill="url(#paint12_linear_2035_26863)" fill-opacity="0.2"/>
<path opacity="0.4" d="M226.207 183.901L216.711 182.942L187.138 413.412L196.633 414.37L226.207 183.901Z" fill="url(#paint13_linear_2035_26863)" fill-opacity="0.2"/>
<path opacity="0.4" d="M240.026 183.901L230.53 182.942L200.957 413.412L210.452 414.37L240.026 183.901Z" fill="url(#paint14_linear_2035_26863)" fill-opacity="0.2"/>
<path opacity="0.4" d="M253.843 183.901L244.347 182.942L214.774 413.412L224.27 414.37L253.843 183.901Z" fill="url(#paint15_linear_2035_26863)" fill-opacity="0.2"/>
<path opacity="0.4" d="M267.661 183.901L258.166 182.942L228.592 413.412L238.088 414.37L267.661 183.901Z" fill="url(#paint16_linear_2035_26863)" fill-opacity="0.2"/>
<path opacity="0.4" d="M281.478 183.901L271.983 182.942L242.409 413.412L251.905 414.37L281.478 183.901Z" fill="url(#paint17_linear_2035_26863)" fill-opacity="0.2"/>
<path opacity="0.4" d="M295.293 183.901L285.798 182.942L256.224 413.412L265.72 414.37L295.293 183.901Z" fill="url(#paint18_linear_2035_26863)" fill-opacity="0.2"/>
<path opacity="0.4" d="M309.112 183.901L299.617 182.942L270.044 413.412L279.539 414.37L309.112 183.901Z" fill="url(#paint19_linear_2035_26863)" fill-opacity="0.2"/>
<path opacity="0.4" d="M322.928 183.901L313.432 182.942L283.859 413.412L293.354 414.37L322.928 183.901Z" fill="url(#paint20_linear_2035_26863)" fill-opacity="0.2"/>
<path opacity="0.4" d="M336.749 183.901L327.253 182.942L297.68 413.412L307.175 414.37L336.749 183.901Z" fill="url(#paint21_linear_2035_26863)" fill-opacity="0.2"/>
<path opacity="0.4" d="M350.564 183.901L341.068 182.942L311.495 413.412L320.99 414.37L350.564 183.901Z" fill="url(#paint22_linear_2035_26863)" fill-opacity="0.2"/>
<path opacity="0.4" d="M364.381 183.901L354.885 182.942L325.312 413.412L334.808 414.37L364.381 183.901Z" fill="url(#paint23_linear_2035_26863)" fill-opacity="0.2"/>
<path opacity="0.4" d="M378.199 183.901L368.704 182.942L339.13 413.412L348.626 414.37L378.199 183.901Z" fill="url(#paint24_linear_2035_26863)" fill-opacity="0.2"/>
</g>
</g>
<path d="M357.902 138.74V131.38H386.346V138.74L366.937 162.157H386.681V169.517H356.898V162.157L376.307 138.74H357.902Z" fill="url(#paint25_linear_2035_26863)"/>
<path d="M393.974 178.801V174.117H412.379V178.801L399.997 193.855H412.714V198.538H393.305V193.855L405.686 178.801H393.974Z" fill="url(#paint26_linear_2035_26863)"/>
<defs>
<linearGradient id="paint0_linear_2035_26863" x1="417.58" y1="116.515" x2="505.747" y2="118.818" gradientUnits="userSpaceOnUse">
<stop stop-color="#ECD4C5"/>
<stop offset="0.9964" stop-color="#F3EDE9"/>
</linearGradient>
<linearGradient id="paint1_linear_2035_26863" x1="324.19" y1="209.452" x2="412.228" y2="213.536" gradientUnits="userSpaceOnUse">
<stop stop-color="#ECD4C5"/>
<stop offset="0.9964" stop-color="#F3EDE9"/>
</linearGradient>
<linearGradient id="paint2_linear_2035_26863" x1="337.182" y1="9.12069" x2="496.674" y2="14.1296" gradientUnits="userSpaceOnUse">
<stop stop-color="#ECD4C5"/>
<stop offset="0.9964" stop-color="#F3EDE9"/>
</linearGradient>
<linearGradient id="paint3_linear_2035_26863" x1="306.559" y1="152.197" x2="394.699" y2="154.963" gradientUnits="userSpaceOnUse">
<stop stop-color="#ECD4C5"/>
<stop offset="0.9964" stop-color="#F3EDE9"/>
</linearGradient>
<linearGradient id="paint4_linear_2035_26863" x1="213.168" y1="229.545" x2="301.121" y2="234.447" gradientUnits="userSpaceOnUse">
<stop stop-color="#ECD4C5"/>
<stop offset="0.9964" stop-color="#F3EDE9"/>
</linearGradient>
<linearGradient id="paint5_linear_2035_26863" x1="226.16" y1="62.8174" x2="385.582" y2="68.8332" gradientUnits="userSpaceOnUse">
<stop stop-color="#ECD4C5"/>
<stop offset="0.9964" stop-color="#F3EDE9"/>
</linearGradient>
<linearGradient id="paint6_linear_2035_26863" x1="47.0283" y1="143.363" x2="164.478" y2="148.044" gradientUnits="userSpaceOnUse">
<stop stop-color="#ECD4C5"/>
<stop offset="0.9964" stop-color="#F3EDE9"/>
</linearGradient>
<linearGradient id="paint7_linear_2035_26863" x1="138.56" y1="183.421" x2="115.24" y2="414.522" gradientUnits="userSpaceOnUse">
<stop stop-color="white"/>
<stop offset="1" stop-color="white" stop-opacity="0"/>
</linearGradient>
<linearGradient id="paint8_linear_2035_26863" x1="152.374" y1="183.421" x2="129.054" y2="414.522" gradientUnits="userSpaceOnUse">
<stop stop-color="white"/>
<stop offset="1" stop-color="white" stop-opacity="0"/>
</linearGradient>
<linearGradient id="paint9_linear_2035_26863" x1="166.192" y1="183.421" x2="142.872" y2="414.522" gradientUnits="userSpaceOnUse">
<stop stop-color="white"/>
<stop offset="1" stop-color="white" stop-opacity="0"/>
</linearGradient>
<linearGradient id="paint10_linear_2035_26863" x1="180.008" y1="183.421" x2="156.687" y2="414.522" gradientUnits="userSpaceOnUse">
<stop stop-color="white"/>
<stop offset="1" stop-color="white" stop-opacity="0"/>
</linearGradient>
<linearGradient id="paint11_linear_2035_26863" x1="193.826" y1="183.421" x2="170.506" y2="414.522" gradientUnits="userSpaceOnUse">
<stop stop-color="white"/>
<stop offset="1" stop-color="white" stop-opacity="0"/>
</linearGradient>
<linearGradient id="paint12_linear_2035_26863" x1="207.647" y1="183.421" x2="184.327" y2="414.522" gradientUnits="userSpaceOnUse">
<stop stop-color="white"/>
<stop offset="1" stop-color="white" stop-opacity="0"/>
</linearGradient>
<linearGradient id="paint13_linear_2035_26863" x1="221.459" y1="183.421" x2="198.139" y2="414.522" gradientUnits="userSpaceOnUse">
<stop stop-color="white"/>
<stop offset="1" stop-color="white" stop-opacity="0"/>
</linearGradient>
<linearGradient id="paint14_linear_2035_26863" x1="235.278" y1="183.421" x2="211.958" y2="414.522" gradientUnits="userSpaceOnUse">
<stop stop-color="white"/>
<stop offset="1" stop-color="white" stop-opacity="0"/>
</linearGradient>
<linearGradient id="paint15_linear_2035_26863" x1="249.095" y1="183.421" x2="225.775" y2="414.522" gradientUnits="userSpaceOnUse">
<stop stop-color="white"/>
<stop offset="1" stop-color="white" stop-opacity="0"/>
</linearGradient>
<linearGradient id="paint16_linear_2035_26863" x1="262.913" y1="183.421" x2="239.593" y2="414.522" gradientUnits="userSpaceOnUse">
<stop stop-color="white"/>
<stop offset="1" stop-color="white" stop-opacity="0"/>
</linearGradient>
<linearGradient id="paint17_linear_2035_26863" x1="276.73" y1="183.421" x2="253.41" y2="414.522" gradientUnits="userSpaceOnUse">
<stop stop-color="white"/>
<stop offset="1" stop-color="white" stop-opacity="0"/>
</linearGradient>
<linearGradient id="paint18_linear_2035_26863" x1="290.546" y1="183.421" x2="267.225" y2="414.522" gradientUnits="userSpaceOnUse">
<stop stop-color="white"/>
<stop offset="1" stop-color="white" stop-opacity="0"/>
</linearGradient>
<linearGradient id="paint19_linear_2035_26863" x1="304.365" y1="183.421" x2="281.044" y2="414.522" gradientUnits="userSpaceOnUse">
<stop stop-color="white"/>
<stop offset="1" stop-color="white" stop-opacity="0"/>
</linearGradient>
<linearGradient id="paint20_linear_2035_26863" x1="318.18" y1="183.421" x2="294.86" y2="414.522" gradientUnits="userSpaceOnUse">
<stop stop-color="white"/>
<stop offset="1" stop-color="white" stop-opacity="0"/>
</linearGradient>
<linearGradient id="paint21_linear_2035_26863" x1="332.001" y1="183.421" x2="308.681" y2="414.522" gradientUnits="userSpaceOnUse">
<stop stop-color="white"/>
<stop offset="1" stop-color="white" stop-opacity="0"/>
</linearGradient>
<linearGradient id="paint22_linear_2035_26863" x1="345.816" y1="183.421" x2="322.496" y2="414.522" gradientUnits="userSpaceOnUse">
<stop stop-color="white"/>
<stop offset="1" stop-color="white" stop-opacity="0"/>
</linearGradient>
<linearGradient id="paint23_linear_2035_26863" x1="359.633" y1="183.421" x2="336.313" y2="414.522" gradientUnits="userSpaceOnUse">
<stop stop-color="white"/>
<stop offset="1" stop-color="white" stop-opacity="0"/>
</linearGradient>
<linearGradient id="paint24_linear_2035_26863" x1="373.451" y1="183.421" x2="350.131" y2="414.522" gradientUnits="userSpaceOnUse">
<stop stop-color="white"/>
<stop offset="1" stop-color="white" stop-opacity="0"/>
</linearGradient>
<linearGradient id="paint25_linear_2035_26863" x1="371.789" y1="131.38" x2="371.789" y2="169.517" gradientUnits="userSpaceOnUse">
<stop stop-color="#FFB52E"/>
<stop offset="1" stop-color="#E69603"/>
</linearGradient>
<linearGradient id="paint26_linear_2035_26863" x1="403.009" y1="174.117" x2="403.009" y2="198.538" gradientUnits="userSpaceOnUse">
<stop stop-color="#FFB52E"/>
<stop offset="1" stop-color="#E69603"/>
</linearGradient>
</defs>
</svg>
