<svg width="63" height="67" viewBox="0 0 63 67" fill="none" xmlns="http://www.w3.org/2000/svg">
<rect x="0.236328" y="8.25488" width="58.4151" height="58.4151" rx="29.2075" fill="#FFBD86"/>
<g clip-path="url(#clip0_2016_58714)">
<path d="M57.4228 28.361C57.4222 26.8109 56.806 25.3244 55.7097 24.2283C54.6135 23.1323 53.1269 22.5164 51.5767 22.5161H14.6109C13.0601 22.5161 11.5728 23.1322 10.4763 24.2287C9.37972 25.3253 8.76367 26.8125 8.76367 28.3633V38.214H57.4228V28.361Z" fill="#EF4351"/>
<path d="M57.424 39.3053H8.76602C8.47583 39.3053 8.19753 39.19 7.99234 38.9848C7.78715 38.7797 7.67188 38.5014 7.67188 38.2112V28.3605C7.67399 26.5202 8.40579 24.756 9.70681 23.4545C11.0078 22.1531 12.7719 21.4207 14.6121 21.418H51.5779C53.4185 21.4201 55.1831 22.1522 56.4846 23.4537C57.7862 24.7552 58.5183 26.5198 58.5204 28.3605V38.2112C58.5204 38.355 58.492 38.4975 58.4369 38.6304C58.3818 38.7633 58.301 38.884 58.1991 38.9857C58.0973 39.0873 57.9764 39.1678 57.8434 39.2227C57.7104 39.2775 57.5678 39.3056 57.424 39.3053ZM9.86016 37.1193H56.3298V28.3605C56.3283 27.1005 55.8272 25.8926 54.9364 25.0016C54.0456 24.1106 52.8378 23.6092 51.5779 23.6074H14.6121C13.352 23.6089 12.1439 24.1102 11.2528 25.0012C10.3618 25.8923 9.86053 27.1003 9.85902 28.3605L9.86016 37.1193Z" fill="#5E1235"/>
<path d="M11.9238 38.2119H54.3284V44.2166H11.9238V38.2119Z" fill="#EF4351"/>
<path d="M54.3268 45.3108H11.9223C11.6321 45.3108 11.3538 45.1955 11.1486 44.9903C10.9434 44.7851 10.8281 44.5068 10.8281 44.2166V38.212C10.8287 37.9222 10.9443 37.6445 11.1494 37.4398C11.3545 37.2351 11.6325 37.1201 11.9223 37.1201H54.3268C54.617 37.1201 54.8953 37.2354 55.1005 37.4406C55.3057 37.6458 55.421 37.9241 55.421 38.2143V44.2189C55.4204 44.5087 55.3048 44.7864 55.0997 44.9911C54.8946 45.1958 54.6166 45.3108 54.3268 45.3108ZM13.013 43.1214H53.2316V39.3061H13.013V43.1214Z" fill="#5E1235"/>
<path d="M54.3275 39.0027V44.2156H11.8602V38.9936C11.8602 38.5419 11.7712 38.0945 11.5984 37.6772C11.4255 37.2599 11.1721 36.8807 10.8527 36.5612C10.5333 36.2418 10.1541 35.9884 9.73672 35.8156C9.31938 35.6427 8.87207 35.5537 8.42034 35.5537C7.50803 35.5537 6.63309 35.9161 5.98798 36.5612C5.34288 37.2063 4.98047 38.0813 4.98047 38.9936V47.1238C4.98047 47.6476 5.08384 48.1662 5.28468 48.65C5.48551 49.1338 5.77984 49.5732 6.15081 49.943C6.52178 50.3128 6.96209 50.6057 7.4465 50.805C7.9309 51.0044 8.44988 51.1061 8.97369 51.1044L11.8602 51.0953H54.3275L57.2084 51.1079C57.7322 51.1095 58.2511 51.0078 58.7355 50.8085C59.22 50.6092 59.6603 50.3162 60.0312 49.9464C60.4022 49.5766 60.6965 49.1372 60.8974 48.6534C61.0982 48.1697 61.2016 47.651 61.2016 47.1272V39.0027C61.2016 38.0904 60.8392 37.2155 60.1941 36.5704C59.549 35.9253 58.674 35.5628 57.7617 35.5628C56.8504 35.5644 55.9769 35.9274 55.333 36.5724C54.6892 37.2173 54.3275 38.0914 54.3275 39.0027Z" fill="#FFD150"/>
<path d="M57.227 52.2031H57.203L54.3222 52.1906H11.8606L8.9775 52.1997H8.96039C8.29396 52.1996 7.63408 52.0682 7.01843 51.813C6.40278 51.5578 5.84342 51.1839 5.37229 50.7125C4.90116 50.2412 4.52747 49.6817 4.27258 49.0659C4.01768 48.4501 3.88657 47.7902 3.88672 47.1238V38.9936C3.88672 37.7909 4.36447 36.6375 5.21487 35.7871C6.06527 34.9367 7.21866 34.459 8.4213 34.459C9.62395 34.459 10.7773 34.9367 11.6277 35.7871C12.4781 36.6375 12.9559 37.7909 12.9559 38.9936V43.1214H53.2304V39.0027C53.2304 37.8001 53.7081 36.6467 54.5585 35.7963C55.4089 34.9459 56.5623 34.4681 57.7649 34.4681C58.9676 34.4681 60.121 34.9459 60.9714 35.7963C61.8218 36.6467 62.2995 37.8001 62.2995 39.0027V47.1283C62.2995 48.4743 61.7649 49.7651 60.8132 50.7168C59.8614 51.6685 58.5706 52.2031 57.2247 52.2031H57.227ZM54.3268 50.0012L57.2133 50.0137H57.227C57.9924 50.0134 58.7263 49.7092 59.2673 49.1679C59.8084 48.6266 60.1124 47.8925 60.1124 47.1272V39.0027C60.0989 38.3897 59.8459 37.8063 59.4075 37.3776C58.9692 36.9488 58.3804 36.7087 57.7672 36.7087C57.1541 36.7087 56.5653 36.9488 56.1269 37.3776C55.6886 37.8063 55.4356 38.3897 55.4221 39.0027V44.2156C55.4221 44.5057 55.3068 44.784 55.1016 44.9892C54.8964 45.1944 54.6181 45.3097 54.3279 45.3097H11.8606C11.5704 45.3097 11.2921 45.1944 11.0869 44.9892C10.8817 44.784 10.7665 44.5057 10.7665 44.2156V38.9936C10.7529 38.3806 10.4999 37.7972 10.0616 37.3684C9.62327 36.9397 9.03447 36.6996 8.4213 36.6996C7.80814 36.6996 7.21934 36.9397 6.78101 37.3684C6.34268 37.7972 6.08967 38.3806 6.07614 38.9936V47.1238C6.07584 47.5037 6.15055 47.8799 6.29597 48.2309C6.4414 48.5819 6.65469 48.9008 6.9236 49.1692C7.19252 49.4375 7.51177 49.6502 7.86305 49.7949C8.21433 49.9397 8.59073 50.0136 8.97066 50.0126L11.8572 50.0034L54.3268 50.0012Z" fill="#5E1235"/>
<path d="M10.7031 51.1582H17.7392V54.9107H10.7031V51.1582Z" fill="white"/>
<path d="M17.7396 56.0039H10.7035C10.4133 56.0039 10.135 55.8887 9.92984 55.6835C9.72465 55.4783 9.60938 55.2 9.60938 54.9098V51.1527C9.60938 50.8626 9.72465 50.5843 9.92984 50.3791C10.135 50.1739 10.4133 50.0586 10.7035 50.0586H17.7396C18.0296 50.0589 18.3076 50.1743 18.5125 50.3795C18.7175 50.5846 18.8326 50.8627 18.8326 51.1527V54.9052C18.8332 55.0492 18.8054 55.1919 18.7507 55.3251C18.6961 55.4583 18.6157 55.5794 18.5141 55.6814C18.4126 55.7835 18.2919 55.8645 18.159 55.9199C18.0261 55.9752 17.8835 56.0038 17.7396 56.0039ZM11.7977 53.8156H16.6443V52.2526H11.7977V53.8156Z" fill="#5E1235"/>
<path d="M48.2617 51.1582H55.2978V54.9107H48.2617V51.1582Z" fill="white"/>
<path d="M55.296 56.0046H48.2599C47.9697 56.0046 47.6914 55.8893 47.4863 55.6842C47.2811 55.479 47.1658 55.2007 47.1658 54.9105V51.1534C47.1658 50.8632 47.2811 50.5849 47.4863 50.3798C47.6914 50.1746 47.9697 50.0593 48.2599 50.0593H55.296C55.4398 50.0591 55.5822 50.0873 55.715 50.1422C55.8479 50.1972 55.9687 50.2777 56.0704 50.3793C56.1721 50.481 56.2528 50.6016 56.3079 50.7345C56.3629 50.8673 56.3913 51.0096 56.3913 51.1534V54.9059C56.3919 55.0501 56.364 55.1929 56.3092 55.3263C56.2544 55.4596 56.1738 55.5808 56.072 55.6829C55.9702 55.785 55.8493 55.866 55.7161 55.9212C55.5829 55.9764 55.4402 56.0048 55.296 56.0046ZM49.3541 53.8152H54.2007V52.2521H49.3552L49.3541 53.8152ZM41.4897 39.3061C41.1995 39.3061 40.9212 39.1908 40.716 38.9857C40.5108 38.7805 40.3956 38.5022 40.3956 38.212V30.019C40.3956 29.7287 40.5109 29.4502 40.7162 29.245C40.9215 29.0397 41.1999 28.9243 41.4903 28.9243C41.7806 28.9243 42.0591 29.0397 42.2644 29.245C42.4697 29.4502 42.585 29.7287 42.585 30.019V38.212C42.585 38.3558 42.5567 38.4981 42.5016 38.6309C42.4465 38.7638 42.3659 38.8844 42.2641 38.9861C42.1624 39.0877 42.0417 39.1682 41.9088 39.2232C41.7759 39.2781 41.6335 39.3063 41.4897 39.3061ZM24.6977 39.3061C24.4075 39.3061 24.1292 39.1908 23.924 38.9857C23.7188 38.7805 23.6035 38.5022 23.6035 38.212V30.019C23.6035 29.7287 23.7189 29.4502 23.9241 29.245C24.1294 29.0397 24.4079 28.9243 24.6982 28.9243C24.9886 28.9243 25.267 29.0397 25.4723 29.245C25.6776 29.4502 25.7929 29.7287 25.7929 30.019V38.212C25.7929 38.3558 25.7646 38.4981 25.7095 38.6309C25.6545 38.7638 25.5738 38.8844 25.4721 38.9861C25.3703 39.0877 25.2496 39.1682 25.1167 39.2232C24.9838 39.2781 24.8414 39.3063 24.6977 39.3061Z" fill="#5E1235"/>
<path d="M27.2935 23.0627C26.3137 22.0835 25.6541 20.8302 25.4017 19.4682C25.1493 18.1063 25.3161 16.6998 25.8799 15.4345L28.739 18.2948C28.9695 18.5252 29.2436 18.7073 29.5453 18.8305C29.847 18.9538 30.1702 19.0157 30.4961 19.0126C30.822 19.0095 31.144 18.9415 31.4433 18.8126C31.7426 18.6837 32.0132 18.4964 32.2394 18.2617C33.1772 17.2897 33.1042 15.7232 32.1492 14.7682L29.3494 11.9661C30.6145 11.4017 32.0212 11.2344 33.3834 11.4864C34.7457 11.7383 35.9994 12.3976 36.979 13.3772C37.9586 14.3568 38.6179 15.6105 38.8698 16.9728C39.1218 18.335 38.9545 19.7417 38.3901 21.0068L44.551 27.1678C46.5336 24.304 47.3719 20.8017 46.9009 17.3507C46.4299 13.8996 44.6838 10.75 42.0064 8.52228C39.329 6.29451 35.9144 5.15006 32.4352 5.31435C28.9561 5.47864 25.6646 6.93976 23.209 9.40992C20.7534 11.8801 19.3118 15.1802 19.1681 18.6603C19.0244 22.1403 20.1891 25.548 22.4327 28.2122C24.6762 30.8764 27.8361 32.6039 31.2899 33.0544C34.7437 33.505 38.2409 32.6459 41.0929 30.6464L34.9194 24.4752C33.6545 25.0386 32.2486 25.2053 30.8871 24.9531C29.5256 24.7009 28.2726 24.0418 27.2935 23.0627Z" fill="white"/>
<path d="M33.094 34.1601C24.8657 34.1601 18.1719 27.4663 18.1719 19.238C18.1719 11.0097 24.8657 4.31592 33.094 4.31592C41.3223 4.31592 48.0161 11.0097 48.0161 19.238C48.0221 22.2742 47.0962 25.239 45.3634 27.7322C45.2811 27.8505 45.1738 27.9494 45.0492 28.0218C44.9245 28.0942 44.7855 28.1384 44.6419 28.1512C44.4983 28.1641 44.3536 28.1453 44.218 28.0961C44.0825 28.047 43.9594 27.9687 43.8574 27.8668L37.6964 21.7058C37.5556 21.5648 37.4608 21.3845 37.4246 21.1885C37.3883 20.9926 37.4123 20.7903 37.4934 20.6083C37.9229 19.6444 38.0841 18.5825 37.96 17.5346C37.836 16.4867 37.4312 15.4917 36.7884 14.6548C36.1456 13.818 35.2888 13.1702 34.3084 12.7801C33.3279 12.3899 32.2603 12.2717 31.2183 12.4381L32.8464 14.0731C34.1938 15.4205 34.2406 17.6099 32.9491 18.9471C32.6321 19.276 32.2528 19.5384 31.8333 19.7191C31.4137 19.8998 30.9624 19.995 30.5057 19.9992C30.0489 20.0035 29.5959 19.9167 29.1731 19.7438C28.7503 19.571 28.3661 19.3157 28.0431 18.9927L26.3511 17.3007C26.2082 18.2149 26.2822 19.15 26.5672 20.0303C26.8522 20.9107 27.3402 21.7117 27.9918 22.3687C28.8329 23.2029 29.9058 23.7644 31.0707 23.9801C32.2355 24.1958 33.4383 24.0557 34.5224 23.5781C34.7044 23.497 34.9068 23.473 35.1027 23.5093C35.2986 23.5455 35.479 23.6403 35.62 23.7812L41.7946 29.9558C41.8963 30.0575 41.9746 30.1802 42.0239 30.3153C42.0731 30.4504 42.0923 30.5947 42.0799 30.738C42.0675 30.8813 42.0239 31.0201 41.9521 31.1448C41.8804 31.2694 41.7822 31.3768 41.6646 31.4595C39.1557 33.2243 36.1613 34.1678 33.094 34.1601ZM33.094 6.28629C31.1087 6.28547 29.1499 6.74103 27.3688 7.61777C25.5876 8.49451 24.0319 9.76897 22.8217 11.3427C21.6115 12.9164 20.7793 14.7472 20.3893 16.6938C19.9993 18.6403 20.062 20.6505 20.5726 22.5689C21.0831 24.4874 22.0279 26.2628 23.3338 27.758C24.6398 29.2532 26.2719 30.4282 28.1043 31.1922C29.9366 31.9562 31.92 32.2888 33.9013 32.1642C35.8827 32.0396 37.8088 31.4613 39.531 30.4738L34.6798 25.6272C33.2919 26.0975 31.8003 26.1718 30.3725 25.8417C28.9447 25.5116 27.6371 24.7902 26.5964 23.7583C25.4818 22.6345 24.7314 21.201 24.4431 19.6447C24.1547 18.0883 24.3417 16.4811 24.9797 15.0326C25.0449 14.8866 25.1445 14.7586 25.2701 14.6597C25.3957 14.5608 25.5435 14.4939 25.7007 14.4648C25.8579 14.4357 26.0198 14.4453 26.1725 14.4928C26.3251 14.5402 26.464 14.624 26.577 14.7371L29.435 17.5951C29.5729 17.7331 29.7369 17.8422 29.9174 17.916C30.098 17.9898 30.2914 18.0269 30.4865 18.0251C30.6815 18.0233 30.8742 17.9826 31.0534 17.9055C31.2325 17.8283 31.3945 17.7162 31.5298 17.5757C32.0808 17.0052 32.0466 16.056 31.4522 15.4627L28.6512 12.6617C28.5382 12.5487 28.4543 12.4099 28.4069 12.2572C28.3595 12.1045 28.3499 11.9426 28.379 11.7854C28.408 11.6282 28.4749 11.4804 28.5738 11.3548C28.6727 11.2292 28.8007 11.1296 28.9467 11.0645C30.34 10.4443 31.884 10.2443 33.3893 10.4892C34.8946 10.7341 36.2957 11.413 37.4206 12.4428C38.5455 13.4726 39.3452 14.8084 39.7218 16.2863C40.0983 17.7641 40.0352 19.3198 39.5402 20.7623L44.3777 25.5964C45.4867 23.6254 46.0606 21.3986 46.0422 19.1371C46.0238 16.8757 45.4137 14.6584 44.2728 12.7058C43.1318 10.7533 41.4996 9.13332 39.5384 8.00711C37.5773 6.88089 35.3555 6.28762 33.094 6.28629Z" fill="#5E1235"/>
<path d="M44.5555 27.1711L38.3945 21.0101C38.9589 19.7449 39.1262 18.3383 38.8743 16.9761C38.6223 15.6138 37.963 14.3601 36.9834 13.3805C36.0039 12.4009 34.7501 11.7416 33.3879 11.4896C32.0256 11.2377 30.619 11.405 29.3539 11.9694L32.1548 14.7704C33.1098 15.7253 33.1816 17.2918 32.2449 18.2639C32.0188 18.4986 31.7482 18.6858 31.4489 18.8148C31.1496 18.9437 30.8276 19.0117 30.5017 19.0147C30.1758 19.0178 29.8526 18.9559 29.5509 18.8327C29.2492 18.7095 28.9751 18.5273 28.7446 18.297L25.8866 15.439C25.3249 16.7032 25.1594 18.108 25.4119 19.4682C25.6644 20.8284 26.3232 22.0801 27.3013 23.0585C28.2794 24.0368 29.531 24.6959 30.8911 24.9487C32.2512 25.2016 33.656 25.0365 34.9204 24.4751L41.0951 30.6497C42.4441 29.7027 43.6155 28.5251 44.5555 27.1711Z" fill="#7BF6FF"/>
<path d="M41.0959 31.6357C40.9659 31.6362 40.837 31.611 40.7168 31.5614C40.5965 31.5119 40.4873 31.439 40.3954 31.347L34.6794 25.6276C33.2369 26.1226 31.6812 26.1857 30.2034 25.8092C28.7255 25.4327 27.3897 24.6329 26.3599 23.508C25.3301 22.3831 24.6512 20.982 24.4063 19.4767C24.1614 17.9715 24.3614 16.4274 24.9816 15.0341C25.0467 14.8881 25.1463 14.7602 25.2719 14.6613C25.3975 14.5623 25.5453 14.4955 25.7025 14.4664C25.8597 14.4373 26.0216 14.4469 26.1743 14.4943C26.327 14.5418 26.4658 14.6256 26.5788 14.7387L29.4368 17.5967C29.5747 17.7346 29.7387 17.8437 29.9193 17.9176C30.0998 17.9914 30.2932 18.0285 30.4883 18.0267C30.6833 18.0249 30.8761 17.9842 31.0552 17.907C31.2343 17.8299 31.3963 17.7178 31.5316 17.5773C32.0826 17.0068 32.0484 16.0576 31.454 15.4643L28.653 12.6633C28.54 12.5503 28.4561 12.4114 28.4087 12.2588C28.3613 12.1061 28.3517 11.9442 28.3808 11.787C28.4099 11.6298 28.4767 11.482 28.5756 11.3564C28.6746 11.2308 28.8025 11.1312 28.9485 11.066C30.3418 10.4458 31.8858 10.2459 33.3911 10.4908C34.8964 10.7356 36.2975 11.4146 37.4224 12.4444C38.5473 13.4742 39.3471 14.81 39.7236 16.2878C40.1001 17.7657 40.037 19.3213 39.542 20.7638L45.2466 26.4684C45.4091 26.6314 45.5095 26.8461 45.5304 27.0753C45.5512 27.3046 45.4912 27.5339 45.3607 27.7235C44.3564 29.1734 43.1033 30.4342 41.6595 31.4474C41.4956 31.5668 41.2987 31.6325 41.0959 31.6357ZM34.919 23.4906C35.0484 23.4906 35.1766 23.5161 35.2962 23.5656C35.4158 23.6152 35.5245 23.6878 35.6161 23.7793L41.186 29.3493C41.9521 28.7361 42.646 28.038 43.2545 27.2682L37.6914 21.7051C37.5506 21.5641 37.4558 21.3838 37.4195 21.1878C37.3833 20.9919 37.4073 20.7896 37.4883 20.6075C37.9179 19.6437 38.0791 18.5817 37.955 17.5338C37.8309 16.4859 37.4261 15.491 36.7834 14.6541C36.1406 13.8173 35.2838 13.1695 34.3033 12.7793C33.3229 12.3892 32.2553 12.271 31.2133 12.4374L32.8459 14.0735C34.1933 15.4209 34.2401 17.6103 32.9486 18.9475C32.6317 19.2764 32.2523 19.5389 31.8328 19.7195C31.4133 19.9002 30.9619 19.9954 30.5052 19.9997C30.0484 20.0039 29.5954 19.9171 29.1726 19.7443C28.7498 19.5715 28.3657 19.3161 28.0426 18.9931L26.3507 17.3012C26.1843 18.3432 26.3024 19.4108 26.6926 20.3912C27.0828 21.3717 27.7305 22.2285 28.5674 22.8713C29.4043 23.514 30.3992 23.9188 31.4471 24.0429C32.495 24.167 33.5569 24.0057 34.5208 23.5762C34.6461 23.5202 34.7817 23.4911 34.919 23.4906Z" fill="#5E1235"/>
<path d="M13.4838 33.3724C13.2224 33.3724 12.9716 33.2685 12.7868 33.0836C12.6019 32.8988 12.498 32.648 12.498 32.3866V28.107C12.5067 27.8515 12.6143 27.6094 12.7982 27.4317C12.982 27.2541 13.2276 27.1548 13.4832 27.1548C13.7389 27.1548 13.9845 27.2541 14.1683 27.4317C14.3521 27.6094 14.4597 27.8515 14.4684 28.107V32.3866C14.4684 32.6478 14.3647 32.8984 14.1801 33.0832C13.9955 33.2681 13.745 33.3721 13.4838 33.3724Z" fill="white"/>
</g>
<defs>
<clipPath id="clip0_2016_58714">
<rect width="58.4151" height="58.4151" fill="white" transform="translate(3.88672 0.952637)"/>
</clipPath>
</defs>
</svg>
