<svg width="69" height="67" viewBox="0 0 69 67" fill="none" xmlns="http://www.w3.org/2000/svg">
<rect x="9.88672" y="8.25488" width="58.4151" height="58.4151" rx="29.2075" fill="#D8ECFE"/>
<path d="M58.5665 20.4243C58.5665 9.66987 49.8492 0.952637 39.0947 0.952637C28.3403 0.952637 19.623 9.66987 19.623 20.4243C19.623 24.1057 20.6441 27.5473 22.4197 30.4827L38.053 56.3447C38.161 56.5245 38.3137 56.6732 38.4961 56.7765C38.6786 56.8798 38.8847 56.9342 39.0944 56.9343C39.3041 56.9344 39.5103 56.8803 39.6929 56.7772C39.8754 56.6741 40.0283 56.5256 40.1365 56.346L55.7698 30.4839C57.6049 27.4498 58.5722 23.9702 58.5665 20.4243Z" fill="#00A0C8"/>
<path d="M39.094 36.2451C47.1595 36.2451 53.6978 29.7068 53.6978 21.6414C53.6978 13.5759 47.1595 7.0376 39.094 7.0376C31.0286 7.0376 24.4902 13.5759 24.4902 21.6414C24.4902 29.7068 31.0286 36.2451 39.094 36.2451Z" fill="#0082AA"/>
<path d="M39.094 35.0283C47.1595 35.0283 53.6978 28.49 53.6978 20.4246C53.6978 12.3591 47.1595 5.8208 39.094 5.8208C31.0286 5.8208 24.4902 12.3591 24.4902 20.4246C24.4902 28.49 31.0286 35.0283 39.094 35.0283Z" fill="#0A5078"/>
<path d="M43.9608 30.1603H34.225C33.5795 30.1603 32.9604 29.9039 32.5039 29.4474C32.0474 28.9909 31.791 28.3719 31.791 27.7263V15.5565C31.791 14.911 32.0474 14.2919 32.5039 13.8354C32.9604 13.379 33.5795 13.1226 34.225 13.1226H43.9608C44.6064 13.1226 45.2254 13.379 45.6819 13.8354C46.1384 14.2919 46.3948 14.911 46.3948 15.5565V27.7263C46.3948 28.3719 46.1384 28.9909 45.6819 29.4474C45.2254 29.9039 44.6064 30.1603 43.9608 30.1603Z" fill="#00325A"/>
<path d="M43.9608 28.9435H34.225C33.5795 28.9435 32.9604 28.6871 32.5039 28.2306C32.0474 27.7741 31.791 27.1551 31.791 26.5095V14.3397C31.791 13.6942 32.0474 13.0751 32.5039 12.6187C32.9604 12.1622 33.5795 11.9058 34.225 11.9058H43.9608C44.6064 11.9058 45.2254 12.1622 45.6819 12.6187C46.1384 13.0751 46.3948 13.6942 46.3948 14.3397V26.5095C46.3948 27.1551 46.1384 27.7741 45.6819 28.2306C45.2254 28.6871 44.6064 28.9435 43.9608 28.9435Z" fill="#FAB400"/>
<path d="M40.3111 16.7737H37.8771C37.5544 16.7737 37.2448 16.6455 37.0166 16.4172C36.7884 16.189 36.6602 15.8795 36.6602 15.5567V11.9058H41.5281V15.5567C41.5281 15.8795 41.3999 16.189 41.1716 16.4172C40.9434 16.6455 40.6339 16.7737 40.3111 16.7737Z" fill="#F0F0F0"/>
<path d="M52.4807 59.368H13.5373C13.2145 59.368 12.905 59.2398 12.6768 59.0116C12.4485 58.7834 12.3203 58.4738 12.3203 58.1511C12.3203 57.8283 12.4485 57.5188 12.6768 57.2905C12.905 57.0623 13.2145 56.9341 13.5373 56.9341H52.4807C52.8035 56.9341 53.113 57.0623 53.3412 57.2905C53.5695 57.5188 53.6977 57.8283 53.6977 58.1511C53.6977 58.4738 53.5695 58.7834 53.3412 59.0116C53.113 59.2398 52.8035 59.368 52.4807 59.368Z" fill="#0A5078"/>
<path d="M17.1881 21.6416H7.45228C7.12952 21.6416 6.81997 21.5134 6.59174 21.2852C6.36352 21.0569 6.2353 20.7474 6.2353 20.4246C6.2353 20.1019 6.36352 19.7923 6.59174 19.5641C6.81997 19.3359 7.12952 19.2076 7.45228 19.2076H17.1881C17.5109 19.2076 17.8204 19.3359 18.0487 19.5641C18.2769 19.7923 18.4051 20.1019 18.4051 20.4246C18.4051 20.7474 18.2769 21.0569 18.0487 21.2852C17.8204 21.5134 17.5109 21.6416 17.1881 21.6416ZM18.4051 14.3397H11.1032C10.7805 14.3397 10.4709 14.2115 10.2427 13.9833C10.0145 13.7551 9.88624 13.4455 9.88624 13.1227C9.88624 12.8 10.0145 12.4904 10.2427 12.2622C10.4709 12.034 10.7805 11.9058 11.1032 11.9058H18.4051C18.7279 11.9058 19.0374 12.034 19.2656 12.2622C19.4939 12.4904 19.6221 12.8 19.6221 13.1227C19.6221 13.4455 19.4939 13.7551 19.2656 13.9833C19.0374 14.2115 18.7279 14.3397 18.4051 14.3397ZM18.4051 28.9435H11.1032C10.7805 28.9435 10.4709 28.8153 10.2427 28.587C10.0145 28.3588 9.88624 28.0493 9.88624 27.7265C9.88624 27.4037 10.0145 27.0942 10.2427 26.866C10.4709 26.6377 10.7805 26.5095 11.1032 26.5095H18.4051C18.7279 26.5095 19.0374 26.6377 19.2656 26.866C19.4939 27.0942 19.6221 27.4037 19.6221 27.7265C19.6221 28.0493 19.4939 28.3588 19.2656 28.587C19.0374 28.8153 18.7279 28.9435 18.4051 28.9435ZM2.58435 21.6416H1.36737C1.04461 21.6416 0.735065 21.5134 0.506836 21.2852C0.278608 21.0569 0.150391 20.7474 0.150391 20.4246C0.150391 20.1019 0.278608 19.7923 0.506836 19.5641C0.735065 19.3359 1.04461 19.2076 1.36737 19.2076H2.58435C2.90712 19.2076 3.21666 19.3359 3.44489 19.5641C3.67312 19.7923 3.80133 20.1019 3.80133 20.4246C3.80133 20.7474 3.67312 21.0569 3.44489 21.2852C3.21666 21.5134 2.90712 21.6416 2.58435 21.6416Z" fill="#C80A50"/>
</svg>
