<svg width="60" height="60" viewBox="0 0 60 60" fill="none" xmlns="http://www.w3.org/2000/svg">
<rect x="0.501953" y="0.754883" width="58.4151" height="58.4151" rx="29.2075" fill="#9BD069"/>
<path d="M52.9524 39.1469H22.0871C21.0369 39.1469 20.1855 38.2956 20.1855 37.2453V6.38005C20.1855 5.32983 21.0369 4.47852 22.0871 4.47852H52.9524C54.0026 4.47852 54.8539 5.32983 54.8539 6.38005V37.2453C54.8539 38.2956 54.0026 39.1469 52.9524 39.1469Z" fill="#FFA91A"/>
<path d="M52.9522 4.47852H37.5195V39.1471H52.9522C54.0024 39.1471 54.8537 38.2958 54.8537 37.2455V6.38005C54.8537 5.32983 54.0024 4.47852 52.9522 4.47852Z" fill="#F79219"/>
<path d="M52.9528 4.47852H44.1719C45.483 4.47852 46.5458 5.54128 46.5458 6.85239V36.7732C46.5458 38.0843 45.483 39.1471 44.1719 39.1471H52.9528C54.003 39.1471 54.8543 38.2958 54.8543 37.2455V6.38005C54.8543 5.32983 54.003 4.47852 52.9528 4.47852Z" fill="#EF7816"/>
<path d="M22.0871 4.47852H30.868C29.5569 4.47852 28.4941 5.54128 28.4941 6.85239V36.7732C28.4941 38.0843 29.5569 39.1471 30.868 39.1471H22.0871C21.0369 39.1471 20.1855 38.2958 20.1855 37.2455V6.38005C20.1855 5.32983 21.0369 4.47852 22.0871 4.47852Z" fill="#F79219"/>
<path d="M21.3276 19.6588C21.2267 19.6588 21.13 19.6188 21.0587 19.5474C20.9873 19.4761 20.9473 19.3794 20.9473 19.2785V8.43979C20.9473 8.33893 20.9873 8.24219 21.0587 8.17087C21.13 8.09955 21.2267 8.05948 21.3276 8.05948C21.4284 8.05948 21.5252 8.09955 21.5965 8.17087C21.6678 8.24219 21.7079 8.33893 21.7079 8.43979V19.2785C21.7079 19.3794 21.6678 19.4761 21.5965 19.5474C21.5252 19.6188 21.4284 19.6588 21.3276 19.6588ZM21.3276 7.29887C21.2267 7.29887 21.13 7.2588 21.0587 7.18748C20.9873 7.11616 20.9473 7.01943 20.9473 6.91856V6.87445C20.9473 6.77358 20.9873 6.67685 21.0587 6.60553C21.13 6.53421 21.2267 6.49414 21.3276 6.49414C21.4284 6.49414 21.5252 6.53421 21.5965 6.60553C21.6678 6.67685 21.7079 6.77358 21.7079 6.87445V6.91856C21.7079 7.01943 21.6678 7.11616 21.5965 7.18748C21.5252 7.2588 21.4284 7.29887 21.3276 7.29887Z" fill="#FFC91D"/>
<path d="M39.4879 15.7833H35.5519C34.5017 15.7833 33.6504 14.932 33.6504 13.8818V4.47852H41.3894V13.882C41.3894 14.932 40.5379 15.7833 39.4879 15.7833Z" fill="#8C3F0A"/>
<path d="M39.4874 15.7833C40.5376 15.7833 41.389 14.932 41.389 13.8818V4.47852H37.5195V15.7835L39.4874 15.7833Z" fill="#7C3108"/>
<path d="M42.7233 34.5258H43.7022C43.8661 34.5258 43.999 34.3929 43.999 34.2289V30.1671H44.8589C45.1002 30.1671 45.2407 29.8944 45.1004 29.698L43.4544 27.3929C43.427 27.3545 43.3908 27.3231 43.3488 27.3015C43.3068 27.2798 43.2602 27.2686 43.2129 27.2686C43.1657 27.2686 43.1191 27.2798 43.0771 27.3015C43.0351 27.3231 42.9989 27.3545 42.9714 27.3929L41.3255 29.698C41.1851 29.8944 41.3257 30.1671 41.567 30.1671H42.4268V34.2289C42.4268 34.2679 42.4344 34.3065 42.4492 34.3425C42.4641 34.3786 42.4859 34.4113 42.5135 34.4389C42.541 34.4664 42.5737 34.4883 42.6097 34.5032C42.6457 34.5181 42.6843 34.5258 42.7233 34.5258ZM48.658 34.5258H49.6369C49.8008 34.5258 49.9337 34.3929 49.9337 34.2289V30.1671H50.7936C51.0349 30.1671 51.1754 29.8944 51.0351 29.698L49.3891 27.3929C49.3617 27.3545 49.3254 27.3231 49.2834 27.3015C49.2414 27.2798 49.1949 27.2686 49.1476 27.2686C49.1004 27.2686 49.0538 27.2798 49.0118 27.3015C48.9698 27.3231 48.9336 27.3545 48.9061 27.3929L47.2602 29.698C47.1198 29.8944 47.2603 30.1671 47.5017 30.1671H48.3615V34.2289C48.3615 34.2679 48.3691 34.3065 48.384 34.3425C48.3989 34.3785 48.4207 34.4112 48.4482 34.4388C48.4758 34.4664 48.5085 34.4882 48.5444 34.5032C48.5804 34.5181 48.619 34.5258 48.658 34.5258ZM50.9896 36.8468H41.3705C41.2697 36.8468 41.1729 36.8067 41.1016 36.7354C41.0303 36.6641 40.9902 36.5673 40.9902 36.4665V35.7433C40.9902 35.6425 41.0303 35.5457 41.1016 35.4744C41.1729 35.4031 41.2697 35.363 41.3705 35.363H50.9896C51.0905 35.363 51.1872 35.4031 51.2586 35.4744C51.3299 35.5457 51.3699 35.6425 51.3699 35.7433V36.4665C51.3699 36.5673 51.3299 36.6641 51.2586 36.7354C51.1872 36.8067 51.0905 36.8468 50.9896 36.8468Z" fill="#6D2E03"/>
<path d="M20.7155 44.4815V24.2615C20.7155 22.6063 23.6562 21.2644 27.284 21.2642H10.6836L11.7218 22.4243L10.6836 23.5848L11.7218 24.7451L10.6836 25.9058L11.7218 27.0661L10.6836 28.2268L11.7218 29.3877L10.6836 30.548L11.7218 31.7076L10.6836 32.8683L11.7218 34.0284L10.6836 35.1889L11.7218 36.35L10.6836 37.511L11.7218 38.6721L10.6836 39.8328L11.7218 40.9937L10.6836 42.1557L11.7218 43.3185L10.6836 44.4813L20.7155 44.4815Z" fill="#5E9CF7"/>
<path d="M15.3672 21.2642V21.5494C15.3672 21.5998 15.3872 21.6482 15.4229 21.6838C15.4585 21.7195 15.5069 21.7395 15.5573 21.7395C15.6078 21.7395 15.6561 21.7195 15.6918 21.6838C15.7275 21.6482 15.7475 21.5998 15.7475 21.5494V21.2642H15.3672ZM15.5573 43.2816C15.5069 43.2816 15.4585 43.2616 15.4229 43.2259C15.3872 43.1903 15.3672 43.1419 15.3672 43.0915V42.5391C15.3672 42.4886 15.3872 42.4403 15.4229 42.4046C15.4585 42.369 15.5069 42.3489 15.5573 42.3489C15.6078 42.3489 15.6561 42.369 15.6918 42.4046C15.7275 42.4403 15.7475 42.4886 15.7475 42.5391V43.0915C15.7475 43.1419 15.7275 43.1903 15.6918 43.2259C15.6561 43.2616 15.6078 43.2816 15.5573 43.2816ZM15.5573 41.6244C15.5069 41.6244 15.4585 41.6044 15.4229 41.5687C15.3872 41.5331 15.3672 41.4847 15.3672 41.4343V40.8819C15.3672 40.8315 15.3872 40.7831 15.4229 40.7474C15.4585 40.7118 15.5069 40.6917 15.5573 40.6917C15.6078 40.6917 15.6561 40.7118 15.6918 40.7474C15.7275 40.7831 15.7475 40.8315 15.7475 40.8819V41.4343C15.7475 41.4847 15.7275 41.5331 15.6918 41.5687C15.6561 41.6044 15.6078 41.6244 15.5573 41.6244ZM15.5573 39.9674C15.5069 39.9674 15.4585 39.9474 15.4229 39.9118C15.3872 39.8761 15.3672 39.8277 15.3672 39.7773V39.2249C15.3672 39.1745 15.3872 39.1261 15.4229 39.0904C15.4585 39.0548 15.5069 39.0347 15.5573 39.0347C15.6078 39.0347 15.6561 39.0548 15.6918 39.0904C15.7275 39.1261 15.7475 39.1745 15.7475 39.2249V39.7773C15.7475 39.8277 15.7275 39.8761 15.6918 39.9118C15.6561 39.9474 15.6078 39.9674 15.5573 39.9674ZM15.5573 38.3104C15.5069 38.3104 15.4585 38.2904 15.4229 38.2548C15.3872 38.2191 15.3672 38.1707 15.3672 38.1203V37.5679C15.3672 37.5175 15.3872 37.4691 15.4229 37.4334C15.4585 37.3978 15.5069 37.3777 15.5573 37.3777C15.6078 37.3777 15.6561 37.3978 15.6918 37.4334C15.7275 37.4691 15.7475 37.5175 15.7475 37.5679V38.1203C15.7475 38.1707 15.7275 38.2191 15.6918 38.2548C15.6561 38.2904 15.6078 38.3104 15.5573 38.3104ZM15.5573 36.6533C15.5069 36.6533 15.4585 36.6332 15.4229 36.5976C15.3872 36.5619 15.3672 36.5135 15.3672 36.4631V35.9107C15.3672 35.8603 15.3872 35.8119 15.4229 35.7763C15.4585 35.7406 15.5069 35.7206 15.5573 35.7206C15.6078 35.7206 15.6561 35.7406 15.6918 35.7763C15.7275 35.8119 15.7475 35.8603 15.7475 35.9107V36.4631C15.7475 36.5135 15.7275 36.5619 15.6918 36.5976C15.6561 36.6332 15.6078 36.6533 15.5573 36.6533ZM15.5573 34.9961C15.5069 34.9961 15.4585 34.976 15.4229 34.9404C15.3872 34.9047 15.3672 34.8564 15.3672 34.8059V34.2535C15.3672 34.2031 15.3872 34.1547 15.4229 34.1191C15.4585 34.0834 15.5069 34.0634 15.5573 34.0634C15.6078 34.0634 15.6561 34.0834 15.6918 34.1191C15.7275 34.1547 15.7475 34.2031 15.7475 34.2535V34.8059C15.7475 34.8564 15.7275 34.9047 15.6918 34.9404C15.6561 34.976 15.6078 34.9961 15.5573 34.9961ZM15.5573 33.3391C15.5069 33.3391 15.4585 33.319 15.4229 33.2834C15.3872 33.2477 15.3672 33.1994 15.3672 33.1489V32.5965C15.3672 32.5461 15.3872 32.4977 15.4229 32.4621C15.4585 32.4264 15.5069 32.4064 15.5573 32.4064C15.6078 32.4064 15.6561 32.4264 15.6918 32.4621C15.7275 32.4977 15.7475 32.5461 15.7475 32.5965V33.1489C15.7475 33.1994 15.7275 33.2477 15.6918 33.2834C15.6561 33.319 15.6078 33.3391 15.5573 33.3391ZM15.5573 31.6821C15.5069 31.6821 15.4585 31.6621 15.4229 31.6264C15.3872 31.5907 15.3672 31.5424 15.3672 31.4919V30.9395C15.3672 30.8891 15.3872 30.8407 15.4229 30.8051C15.4585 30.7694 15.5069 30.7494 15.5573 30.7494C15.6078 30.7494 15.6561 30.7694 15.6918 30.8051C15.7275 30.8407 15.7475 30.8891 15.7475 30.9395V31.4919C15.7475 31.5424 15.7275 31.5907 15.6918 31.6264C15.6561 31.6621 15.6078 31.6821 15.5573 31.6821ZM15.5573 30.0249C15.5069 30.0249 15.4585 30.0049 15.4229 29.9692C15.3872 29.9335 15.3672 29.8852 15.3672 29.8347V29.2824C15.3672 29.2319 15.3872 29.1836 15.4229 29.1479C15.4585 29.1122 15.5069 29.0922 15.5573 29.0922C15.6078 29.0922 15.6561 29.1122 15.6918 29.1479C15.7275 29.1836 15.7475 29.2319 15.7475 29.2824V29.8347C15.7475 29.8852 15.7275 29.9335 15.6918 29.9692C15.6561 30.0049 15.6078 30.0249 15.5573 30.0249ZM15.5573 28.3679C15.5069 28.3679 15.4585 28.3479 15.4229 28.3122C15.3872 28.2765 15.3672 28.2282 15.3672 28.1778V27.6254C15.3672 27.5749 15.3872 27.5266 15.4229 27.4909C15.4585 27.4552 15.5069 27.4352 15.5573 27.4352C15.6078 27.4352 15.6561 27.4552 15.6918 27.4909C15.7275 27.5266 15.7475 27.5749 15.7475 27.6254V28.1778C15.7475 28.2282 15.7275 28.2765 15.6918 28.3122C15.6561 28.3479 15.6078 28.3679 15.5573 28.3679ZM15.5573 26.7107C15.5069 26.7107 15.4585 26.6907 15.4229 26.655C15.3872 26.6194 15.3672 26.571 15.3672 26.5206V25.9682C15.3672 25.9177 15.3872 25.8694 15.4229 25.8337C15.4585 25.7981 15.5069 25.778 15.5573 25.778C15.6078 25.778 15.6561 25.7981 15.6918 25.8337C15.7275 25.8694 15.7475 25.9177 15.7475 25.9682V26.5206C15.7475 26.571 15.7275 26.6194 15.6918 26.655C15.6561 26.6907 15.6078 26.7107 15.5573 26.7107ZM15.5573 25.0535C15.5069 25.0535 15.4585 25.0335 15.4229 24.9978C15.3872 24.9622 15.3672 24.9138 15.3672 24.8634V24.311C15.3672 24.2606 15.3872 24.2122 15.4229 24.1765C15.4585 24.1409 15.5069 24.1208 15.5573 24.1208C15.6078 24.1208 15.6561 24.1409 15.6918 24.1765C15.7275 24.2122 15.7475 24.2606 15.7475 24.311V24.8634C15.7475 24.9138 15.7275 24.9622 15.6918 24.9978C15.6561 25.0335 15.6078 25.0535 15.5573 25.0535ZM15.5573 23.3965C15.5069 23.3965 15.4585 23.3765 15.4229 23.3408C15.3872 23.3052 15.3672 23.2568 15.3672 23.2064V22.654C15.3672 22.6036 15.3872 22.5552 15.4229 22.5195C15.4585 22.4839 15.5069 22.4638 15.5573 22.4638C15.6078 22.4638 15.6561 22.4839 15.6918 22.5195C15.7275 22.5552 15.7475 22.6036 15.7475 22.654V23.2064C15.7475 23.2568 15.7275 23.3052 15.6918 23.3408C15.6561 23.3765 15.6078 23.3965 15.5573 23.3965ZM15.5573 44.0061C15.5069 44.0061 15.4585 44.0261 15.4229 44.0618C15.3872 44.0975 15.3672 44.1458 15.3672 44.1963V44.4815H15.7475V44.1963C15.7475 44.1458 15.7275 44.0975 15.6918 44.0618C15.6561 44.0261 15.6078 44.0061 15.5573 44.0061Z" fill="#F1F2F2"/>
<path d="M33.8541 24.2617V47.4791C33.8541 49.1345 30.9128 50.4766 27.2845 50.4766C23.6561 50.4766 20.7148 49.1345 20.7148 47.4791V24.2617H33.8541Z" fill="#377DE2"/>
<path d="M31.8915 24.2617V45.5155C31.8915 47.171 28.9502 48.5131 25.3219 48.5131C23.5337 48.5131 21.9132 48.1866 20.7285 47.6578C20.931 49.2302 23.7887 50.4768 27.2856 50.4768C30.9139 50.4768 33.8552 49.1347 33.8552 47.4792V24.2617H31.8915Z" fill="#2266D3"/>
<path d="M27.2845 27.2589C30.9127 27.2589 33.8541 25.917 33.8541 24.2615C33.8541 22.6061 30.9127 21.2642 27.2845 21.2642C23.6562 21.2642 20.7148 22.6061 20.7148 24.2615C20.7148 25.917 23.6562 27.2589 27.2845 27.2589Z" fill="#478CF7"/>
<path d="M25.0781 24.2615C25.0781 24.7353 26.066 25.1195 27.2845 25.1195C28.503 25.1195 29.4908 24.7353 29.4908 24.2615C29.4908 23.7876 28.503 23.4033 27.2845 23.4033C26.066 23.4035 25.0781 23.7876 25.0781 24.2615Z" fill="#2266D3"/>
</svg>
