<svg width="63" height="65" viewBox="0 0 63 65" fill="none" xmlns="http://www.w3.org/2000/svg">
<rect x="0.548828" y="5.75488" width="58.4151" height="58.4151" rx="29.2075" fill="#FEF056"/>
<path d="M53.4858 30.0942H44.3585V44.698H11.5V51.9999H57.1368C57.6209 51.9999 58.0853 51.8076 58.4276 51.4652C58.7699 51.1229 58.9623 50.6586 58.9623 50.1744V39.2216L53.4858 30.0942Z" fill="#3CC8B4"/>
<path d="M7.84961 44.6982H11.5006V52.0001H7.84961V44.6982Z" fill="#1EAA96"/>
<path d="M53.4867 30.0943H44.3594V26.4434H53.4867C53.9709 26.4434 54.4352 26.6357 54.7775 26.978C55.1199 27.3204 55.3122 27.7847 55.3122 28.2688C55.3122 28.753 55.1199 29.2173 54.7775 29.5596C54.4352 29.902 53.9709 30.0943 53.4867 30.0943Z" fill="#505050"/>
<path d="M58.9626 39.2216H48.0098V30.0942H53.4862L58.9626 39.2216Z" fill="#F0F0F0"/>
<path d="M54.3991 46.5235H58.9627V42.8726H54.3991C54.157 42.8726 53.9248 42.9687 53.7537 43.1399C53.5825 43.3111 53.4863 43.5432 53.4863 43.7853V45.6108C53.4863 45.8528 53.5825 46.085 53.7537 46.2562C53.9248 46.4273 54.157 46.5235 54.3991 46.5235Z" fill="#FAB400"/>
<path d="M50.7476 55.6507C50.1483 55.6507 49.5548 55.5326 49.0011 55.3031C48.4473 55.0737 47.9442 54.7375 47.5204 54.3136C47.0967 53.8897 46.7605 53.3866 46.5312 52.8328C46.3019 52.279 46.1839 51.6855 46.184 51.0861C46.184 50.4868 46.3021 49.8933 46.5316 49.3396C46.761 48.7858 47.0972 48.2827 47.5211 47.8589C47.9449 47.4352 48.4481 47.099 49.0019 46.8697C49.5557 46.6404 50.1492 46.5224 50.7486 46.5225C51.959 46.5226 53.1199 47.0036 53.9757 47.8596C54.8316 48.7156 55.3124 49.8766 55.3122 51.0871C55.3121 52.2975 54.8311 53.4584 53.9751 54.3142C53.1191 55.1701 51.9581 55.6509 50.7476 55.6507ZM16.0637 55.6507C15.4643 55.6507 14.8708 55.5326 14.3171 55.3031C13.7634 55.0737 13.2603 54.7375 12.8365 54.3136C12.4127 53.8897 12.0766 53.3866 11.8472 52.8328C11.6179 52.279 11.4999 51.6855 11.5 51.0861C11.5001 50.4868 11.6182 49.8933 11.8476 49.3396C12.077 48.7858 12.4133 48.2827 12.8371 47.8589C13.261 47.4352 13.7642 47.099 14.3179 46.8697C14.8717 46.6404 15.4652 46.5224 16.0646 46.5225C17.2751 46.5226 18.4359 47.0036 19.2918 47.8596C20.1476 48.7156 20.6284 49.8766 20.6283 51.0871C20.6281 52.2975 20.1472 53.4584 19.2911 54.3142C18.4351 55.1701 17.2742 55.6509 16.0637 55.6507Z" fill="#505050"/>
<path d="M50.7499 52.9122C50.5068 52.9177 50.2651 52.8746 50.0389 52.7853C49.8127 52.6961 49.6066 52.5626 49.4327 52.3927C49.2588 52.2227 49.1206 52.0197 49.0262 51.7956C48.9319 51.5715 48.8832 51.3308 48.8832 51.0876C48.8831 50.8445 48.9316 50.6038 49.0259 50.3796C49.1201 50.1555 49.2582 49.9524 49.432 49.7824C49.6058 49.6123 49.8119 49.4787 50.038 49.3894C50.2642 49.3 50.5059 49.2568 50.749 49.2622C51.226 49.2727 51.6799 49.4696 52.0135 49.8106C52.3471 50.1516 52.534 50.6097 52.5341 51.0867C52.5342 51.5638 52.3476 52.022 52.0141 52.3632C51.6807 52.7043 51.2269 52.9014 50.7499 52.9122ZM16.066 52.9122C15.8229 52.9177 15.5811 52.8746 15.3549 52.7853C15.1287 52.6961 14.9226 52.5626 14.7487 52.3927C14.5748 52.2227 14.4366 52.0197 14.3423 51.7956C14.2479 51.5715 14.1993 51.3308 14.1992 51.0876C14.1992 50.8445 14.2477 50.6038 14.3419 50.3796C14.4362 50.1555 14.5743 49.9524 14.7481 49.7824C14.9219 49.6123 15.1279 49.4787 15.3541 49.3894C15.5802 49.3 15.8219 49.2568 16.065 49.2622C16.542 49.2727 16.9959 49.4696 17.3295 49.8106C17.6632 50.1516 17.85 50.6097 17.8502 51.0867C17.8503 51.5638 17.6636 52.022 17.3302 52.3632C16.9967 52.7043 16.5429 52.9014 16.066 52.9122Z" fill="#F0F0F0"/>
<path d="M48.0098 30.0942H49.8352V39.2216H48.0098V30.0942Z" fill="#D2D2D2"/>
<path d="M34.0144 17.6204V15.4907H8.45784C7.89301 15.4907 7.3513 15.7151 6.9519 16.1145C6.55251 16.5139 6.32813 17.0556 6.32812 17.6204V32.5285H38.2739V21.8799C35.9248 21.8799 34.0144 19.9695 34.0144 17.6204Z" fill="#FA6450"/>
<path d="M12.7173 15.4907H8.45784C7.89301 15.4907 7.3513 15.7151 6.9519 16.1145C6.55251 16.5139 6.32813 17.0556 6.32812 17.6204V32.5285H10.5876V17.6204C10.5876 17.0556 10.8119 16.5139 11.2113 16.1145C11.6107 15.7151 12.1524 15.4907 12.7173 15.4907Z" fill="#DC4632"/>
<path d="M15.9164 21.8797C15.634 21.8797 15.3632 21.7675 15.1635 21.5678C14.9638 21.3681 14.8516 21.0973 14.8516 20.8149C14.8516 20.5324 14.9638 20.2616 15.1635 20.0619C15.3632 19.8622 15.634 19.75 15.9164 19.75C16.1988 19.75 16.4697 19.8622 16.6694 20.0619C16.8691 20.2616 16.9813 20.5324 16.9813 20.8149C16.9813 21.0973 16.8691 21.3681 16.6694 21.5678C16.4697 21.7675 16.1988 21.8797 15.9164 21.8797ZM28.6947 21.8797C28.4123 21.8797 28.1414 21.7675 27.9417 21.5678C27.7421 21.3681 27.6299 21.0973 27.6299 20.8149C27.6299 20.5324 27.7421 20.2616 27.9417 20.0619C28.1414 19.8622 28.4123 19.75 28.6947 19.75C28.9771 19.75 29.248 19.8622 29.4477 20.0619C29.6474 20.2616 29.7596 20.5324 29.7596 20.8149C29.7596 21.0973 29.6474 21.3681 29.4477 21.5678C29.248 21.7675 28.9771 21.8797 28.6947 21.8797Z" fill="#BE2814"/>
<path d="M8.45898 28.269H36.1453V30.3988H8.45898V28.269Z" fill="#FAB400"/>
<path d="M39.3384 21.8799C38.4911 21.8799 37.6786 22.2165 37.0795 22.8156C36.4804 23.4147 36.1438 24.2272 36.1438 25.0745V30.3987H8.45751V25.0745C8.45751 24.6549 8.37488 24.2395 8.21434 23.8519C8.05379 23.4644 7.81848 23.1122 7.52184 22.8156C7.2252 22.5189 6.87303 22.2836 6.48545 22.1231C6.09786 21.9625 5.68245 21.8799 5.26293 21.8799C4.84342 21.8799 4.42801 21.9625 4.04042 22.1231C3.65284 22.2836 3.30067 22.5189 3.00403 22.8156C2.70739 23.1122 2.47207 23.4644 2.31153 23.8519C2.15099 24.2395 2.06836 24.6549 2.06836 25.0745C2.06954 25.7332 2.275 26.3753 2.65644 26.9124C3.03788 27.4495 3.5765 27.855 4.19808 28.0731V36.7879C4.19808 37.3527 4.42246 37.8944 4.82186 38.2938C5.22125 38.6932 5.76296 38.9176 6.32779 38.9176H38.2735C38.8384 38.9176 39.3801 38.6932 39.7795 38.2938C40.1789 37.8944 40.4033 37.3527 40.4033 36.7879V28.0731C41.0248 27.855 41.5635 27.4495 41.9449 26.9124C42.3263 26.3753 42.5318 25.7332 42.533 25.0745C42.533 24.2272 42.1964 23.4147 41.5973 22.8156C40.9982 22.2165 40.1857 21.8799 39.3384 21.8799Z" fill="#BE2814"/>
<path d="M8.45898 38.9175H12.7184V41.0472H8.45898V38.9175ZM31.8859 38.9175H36.1453V41.0472H31.8859V38.9175Z" fill="#505050"/>
<path d="M7.84961 41.0474H44.359V44.6983H7.84961V41.0474Z" fill="#FAB400"/>
<path d="M7.84961 41.0474H11.5006V44.6983H7.84961V41.0474Z" fill="#DC9600"/>
</svg>
