<svg width="1170" height="211" viewBox="0 0 1170 211" fill="none" xmlns="http://www.w3.org/2000/svg">
<rect x="1.21698" y="1.21698" width="1167.57" height="208.566" rx="14.783" fill="white"/>
<rect x="1.21698" y="1.21698" width="1167.57" height="208.566" rx="14.783" stroke="#EDEDED" stroke-width="2.43396"/>
<rect x="136.887" y="49.2549" width="58.4151" height="58.4151" rx="29.2075" fill="#D8ECFE"/>
<path d="M185.566 61.4243C185.566 50.6699 176.849 41.9526 166.095 41.9526C155.34 41.9526 146.623 50.6699 146.623 61.4243C146.623 65.1057 147.644 68.5473 149.42 71.4827L165.053 97.3447C165.161 97.5245 165.314 97.6732 165.496 97.7765C165.679 97.8798 165.885 97.9342 166.094 97.9343C166.304 97.9344 166.51 97.8803 166.693 97.7772C166.875 97.6741 167.028 97.5256 167.136 97.346L182.77 71.4839C184.605 68.4498 185.572 64.9702 185.566 61.4243Z" fill="#00A0C8"/>
<path d="M166.094 77.2451C174.159 77.2451 180.698 70.7068 180.698 62.6414C180.698 54.5759 174.159 48.0376 166.094 48.0376C158.029 48.0376 151.49 54.5759 151.49 62.6414C151.49 70.7068 158.029 77.2451 166.094 77.2451Z" fill="#0082AA"/>
<path d="M166.094 76.0283C174.159 76.0283 180.698 69.49 180.698 61.4246C180.698 53.3591 174.159 46.8208 166.094 46.8208C158.029 46.8208 151.49 53.3591 151.49 61.4246C151.49 69.49 158.029 76.0283 166.094 76.0283Z" fill="#0A5078"/>
<path d="M170.961 71.1603H161.225C160.579 71.1603 159.96 70.9039 159.504 70.4474C159.047 69.9909 158.791 69.3719 158.791 68.7263V56.5565C158.791 55.911 159.047 55.2919 159.504 54.8354C159.96 54.379 160.579 54.1226 161.225 54.1226H170.961C171.606 54.1226 172.225 54.379 172.682 54.8354C173.138 55.2919 173.395 55.911 173.395 56.5565V68.7263C173.395 69.3719 173.138 69.9909 172.682 70.4474C172.225 70.9039 171.606 71.1603 170.961 71.1603Z" fill="#00325A"/>
<path d="M170.961 69.9435H161.225C160.579 69.9435 159.96 69.6871 159.504 69.2306C159.047 68.7741 158.791 68.1551 158.791 67.5095V55.3397C158.791 54.6942 159.047 54.0751 159.504 53.6187C159.96 53.1622 160.579 52.9058 161.225 52.9058H170.961C171.606 52.9058 172.225 53.1622 172.682 53.6187C173.138 54.0751 173.395 54.6942 173.395 55.3397V67.5095C173.395 68.1551 173.138 68.7741 172.682 69.2306C172.225 69.6871 171.606 69.9435 170.961 69.9435Z" fill="#FAB400"/>
<path d="M167.311 57.7737H164.877C164.554 57.7737 164.245 57.6455 164.017 57.4172C163.788 57.189 163.66 56.8795 163.66 56.5567V52.9058H168.528V56.5567C168.528 56.8795 168.4 57.189 168.172 57.4172C167.943 57.6455 167.634 57.7737 167.311 57.7737Z" fill="#F0F0F0"/>
<path d="M179.481 100.368H140.537C140.215 100.368 139.905 100.24 139.677 100.012C139.449 99.7834 139.32 99.4738 139.32 99.1511C139.32 98.8283 139.449 98.5188 139.677 98.2905C139.905 98.0623 140.215 97.9341 140.537 97.9341H179.481C179.803 97.9341 180.113 98.0623 180.341 98.2905C180.569 98.5188 180.698 98.8283 180.698 99.1511C180.698 99.4738 180.569 99.7834 180.341 100.012C180.113 100.24 179.803 100.368 179.481 100.368Z" fill="#0A5078"/>
<path d="M144.188 62.6416H134.452C134.13 62.6416 133.82 62.5134 133.592 62.2852C133.364 62.0569 133.235 61.7474 133.235 61.4246C133.235 61.1019 133.364 60.7923 133.592 60.5641C133.82 60.3359 134.13 60.2076 134.452 60.2076H144.188C144.511 60.2076 144.82 60.3359 145.049 60.5641C145.277 60.7923 145.405 61.1019 145.405 61.4246C145.405 61.7474 145.277 62.0569 145.049 62.2852C144.82 62.5134 144.511 62.6416 144.188 62.6416ZM145.405 55.3397H138.103C137.78 55.3397 137.471 55.2115 137.243 54.9833C137.014 54.7551 136.886 54.4455 136.886 54.1227C136.886 53.8 137.014 53.4904 137.243 53.2622C137.471 53.034 137.78 52.9058 138.103 52.9058H145.405C145.728 52.9058 146.037 53.034 146.266 53.2622C146.494 53.4904 146.622 53.8 146.622 54.1227C146.622 54.4455 146.494 54.7551 146.266 54.9833C146.037 55.2115 145.728 55.3397 145.405 55.3397ZM145.405 69.9435H138.103C137.78 69.9435 137.471 69.8153 137.243 69.587C137.014 69.3588 136.886 69.0493 136.886 68.7265C136.886 68.4037 137.014 68.0942 137.243 67.866C137.471 67.6377 137.78 67.5095 138.103 67.5095H145.405C145.728 67.5095 146.037 67.6377 146.266 67.866C146.494 68.0942 146.622 68.4037 146.622 68.7265C146.622 69.0493 146.494 69.3588 146.266 69.587C146.037 69.8153 145.728 69.9435 145.405 69.9435ZM129.584 62.6416H128.367C128.045 62.6416 127.735 62.5134 127.507 62.2852C127.279 62.0569 127.15 61.7474 127.15 61.4246C127.15 61.1019 127.279 60.7923 127.507 60.5641C127.735 60.3359 128.045 60.2076 128.367 60.2076H129.584C129.907 60.2076 130.217 60.3359 130.445 60.5641C130.673 60.7923 130.801 61.1019 130.801 61.4246C130.801 61.7474 130.673 62.0569 130.445 62.2852C130.217 62.5134 129.907 62.6416 129.584 62.6416Z" fill="#C80A50"/>
<path d="M122.268 144.401C122.428 144.401 122.508 144.473 122.508 144.617V146.921C122.508 147.081 122.428 147.161 122.268 147.161C121.116 147.161 120.236 146.777 119.628 146.009V146.537C119.628 148.553 119.1 150.017 118.044 150.929C117.004 151.857 115.412 152.321 113.268 152.321L113.052 150.137C114.332 150.137 115.316 149.833 116.004 149.225C116.708 148.633 117.06 147.705 117.06 146.441L117.036 135.521L119.628 135.161V142.313C119.724 143.049 120.012 143.585 120.492 143.921C120.988 144.241 121.58 144.401 122.268 144.401ZM142.413 135.137V142.385C142.413 143.905 142.005 145.081 141.189 145.913C140.373 146.729 139.165 147.137 137.565 147.137C136.269 147.137 134.941 146.705 133.581 145.841C132.669 146.705 131.429 147.137 129.861 147.137C128.693 147.137 127.501 146.697 126.285 145.817C125.389 146.713 124.061 147.161 122.301 147.161C122.141 147.161 122.061 147.081 122.061 146.921V144.617C122.061 144.473 122.141 144.401 122.301 144.401C124.093 144.401 124.989 143.465 124.989 141.593L124.965 138.041L127.581 137.681V142.409C127.581 142.921 127.517 143.417 127.389 143.897C128.173 144.217 128.917 144.377 129.621 144.377C131.413 144.377 132.309 143.441 132.309 141.569L132.285 138.017L134.901 137.657V142.385C134.901 142.913 134.837 143.417 134.709 143.897C135.509 144.217 136.325 144.377 137.157 144.377C138.021 144.377 138.677 144.145 139.125 143.681C139.589 143.201 139.821 142.497 139.821 141.569V135.497L142.413 135.137ZM133.581 130.937L132.117 129.473L133.557 128.009L135.045 129.473L133.581 130.937ZM135.549 134.681L133.557 132.737L131.613 134.681L129.477 132.569L131.589 130.481L133.557 132.401L135.525 130.481L137.661 132.569L135.549 134.681ZM151.018 147.161C147.498 147.161 145.738 145.529 145.738 142.265L145.714 130.001L148.33 129.641V141.497C148.33 142.489 148.546 143.225 148.978 143.705C149.41 144.169 150.082 144.401 150.994 144.401C151.154 144.401 151.234 144.473 151.234 144.617L151.258 146.921C151.258 147.081 151.178 147.161 151.018 147.161ZM159.076 144.401C159.236 144.401 159.316 144.473 159.316 144.617V146.921C159.316 147.081 159.236 147.161 159.076 147.161C157.7 147.161 156.444 146.641 155.308 145.601C154.412 146.641 152.98 147.161 151.012 147.161C150.852 147.161 150.772 147.081 150.772 146.921L150.796 144.617C150.796 144.473 150.876 144.401 151.036 144.401C152.828 144.401 153.724 143.465 153.724 141.593L153.7 138.041L156.316 137.681V142.409C156.316 142.825 156.284 143.193 156.22 143.513C157.1 144.105 158.052 144.401 159.076 144.401ZM152.788 150.857L154.9 148.745L157.06 150.857L154.948 152.945L152.788 150.857ZM165.65 135.281C166.706 135.281 167.658 135.529 168.506 136.025C169.354 136.505 170.018 137.169 170.498 138.017C170.994 138.865 171.242 139.817 171.242 140.873C171.242 142.153 170.97 143.273 170.426 144.233C169.882 145.177 169.098 145.905 168.074 146.417C167.066 146.913 165.866 147.161 164.474 147.161H159.074C158.914 147.161 158.834 147.081 158.834 146.921V144.617C158.834 144.473 158.914 144.401 159.074 144.401H160.826C160.234 143.089 159.938 141.985 159.938 141.089C159.938 139.937 160.178 138.921 160.658 138.041C161.138 137.161 161.81 136.481 162.674 136.001C163.538 135.521 164.53 135.281 165.65 135.281ZM164.594 144.401C165.842 144.401 166.826 144.097 167.546 143.489C168.266 142.865 168.626 142.009 168.626 140.921C168.626 140.025 168.33 139.289 167.738 138.713C167.162 138.121 166.434 137.825 165.554 137.825C164.994 137.825 164.474 137.969 163.994 138.257C163.53 138.545 163.162 138.937 162.89 139.433C162.618 139.913 162.482 140.433 162.482 140.993C162.482 142.081 162.818 143.217 163.49 144.401H164.594ZM192.37 144.401C192.53 144.401 192.61 144.473 192.61 144.617V146.921C192.61 147.081 192.53 147.161 192.37 147.161C191.026 147.161 189.786 146.993 188.65 146.657C187.514 146.321 186.426 145.817 185.386 145.145C184.33 145.705 183.546 146.145 183.034 146.465C182.522 146.769 182.106 147.097 181.786 147.449C181.466 147.801 181.306 148.193 181.306 148.625C181.306 149.393 181.706 150.001 182.506 150.449C183.306 150.897 184.394 151.121 185.77 151.121C187.37 151.121 189.114 150.833 191.002 150.257L191.722 152.489C190.49 152.953 189.402 153.281 188.458 153.473C187.514 153.665 186.53 153.761 185.506 153.761C184.162 153.761 182.986 153.561 181.978 153.161C180.986 152.777 180.218 152.217 179.674 151.481C179.13 150.761 178.858 149.913 178.858 148.937C178.858 147.945 179.194 147.105 179.866 146.417C180.538 145.713 181.546 144.993 182.89 144.257C181.994 143.233 181.242 142.289 180.634 141.425C180.042 140.561 179.394 139.457 178.69 138.113L179.674 135.785C180.842 135.193 181.898 134.769 182.842 134.513C183.802 134.241 184.746 134.105 185.674 134.105C186.746 134.105 187.714 134.297 188.578 134.681C189.442 135.065 190.114 135.601 190.594 136.289C191.09 136.977 191.338 137.761 191.338 138.641C191.338 140.433 190.186 142.113 187.882 143.681C188.554 143.905 189.242 144.081 189.946 144.209C190.666 144.337 191.474 144.401 192.37 144.401ZM185.17 136.697C184.114 136.697 182.874 137.009 181.45 137.633C182.042 138.801 182.618 139.793 183.178 140.609C183.738 141.425 184.386 142.249 185.122 143.081C186.322 142.409 187.21 141.793 187.786 141.233C188.378 140.673 188.674 140.097 188.674 139.505C188.674 138.673 188.354 138.001 187.714 137.489C187.09 136.961 186.242 136.697 185.17 136.697ZM200.443 144.401C200.603 144.401 200.683 144.473 200.683 144.617V146.921C200.683 147.081 200.603 147.161 200.443 147.161C199.067 147.161 197.811 146.641 196.675 145.601C195.779 146.641 194.347 147.161 192.379 147.161C192.219 147.161 192.139 147.081 192.139 146.921L192.163 144.617C192.163 144.473 192.243 144.401 192.403 144.401C194.195 144.401 195.091 143.465 195.091 141.593L195.067 138.041L197.683 137.681V142.409C197.683 142.825 197.651 143.193 197.587 143.513C198.467 144.105 199.419 144.401 200.443 144.401ZM194.155 150.857L196.267 148.745L198.427 150.857L196.315 152.945L194.155 150.857ZM209.561 144.401C209.721 144.401 209.801 144.473 209.801 144.617V146.921C209.801 147.081 209.721 147.161 209.561 147.161C208.873 147.161 208.177 147.009 207.473 146.705C206.785 146.401 206.145 145.961 205.553 145.385C204.609 146.569 202.905 147.161 200.441 147.161C200.281 147.161 200.201 147.081 200.201 146.921L200.225 144.617C200.225 144.473 200.305 144.401 200.465 144.401C201.633 144.401 202.489 144.185 203.033 143.753C203.593 143.305 203.873 142.585 203.873 141.593V138.041L206.465 137.681V142.409C206.465 142.729 206.441 143.049 206.393 143.369C207.369 144.057 208.425 144.401 209.561 144.401ZM207.041 136.241L205.049 134.297L203.105 136.241L200.969 134.129L203.081 132.041L205.049 133.961L207.017 132.041L209.153 134.129L207.041 136.241ZM209.559 147.161C209.399 147.161 209.319 147.081 209.319 146.921L209.343 144.617C209.343 144.473 209.423 144.401 209.583 144.401H211.479C213.255 144.401 214.143 143.465 214.143 141.593V135.521L216.735 135.161V142.409C216.735 143.945 216.287 145.121 215.391 145.937C214.511 146.753 213.199 147.161 211.455 147.161H209.559ZM217.263 133.553L215.271 131.609L213.327 133.553L211.191 131.441L213.303 129.353L215.271 131.273L217.239 129.353L219.375 131.441L217.263 133.553Z" fill="#6B6E80"/>
<line x1="319.99" y1="37" x2="319.99" y2="173.302" stroke="#EDEDED" stroke-width="2.43396"/>
<rect x="426.236" y="49.2549" width="58.4151" height="58.4151" rx="29.2075" fill="#FFBD86"/>
<g clip-path="url(#clip0_2016_58697)">
<path d="M483.423 69.361C483.422 67.8109 482.806 66.3244 481.71 65.2283C480.613 64.1323 479.127 63.5164 477.577 63.5161H440.611C439.06 63.5161 437.573 64.1322 436.476 65.2287C435.38 66.3253 434.764 67.8125 434.764 69.3633V79.214H483.423V69.361Z" fill="#EF4351"/>
<path d="M483.424 80.3053H434.766C434.476 80.3053 434.198 80.19 433.992 79.9848C433.787 79.7797 433.672 79.5014 433.672 79.2112V69.3605C433.674 67.5202 434.406 65.756 435.707 64.4545C437.008 63.1531 438.772 62.4207 440.612 62.418H477.578C479.419 62.4201 481.183 63.1522 482.485 64.4537C483.786 65.7552 484.518 67.5198 484.52 69.3605V79.2112C484.52 79.355 484.492 79.4975 484.437 79.6304C484.382 79.7633 484.301 79.884 484.199 79.9857C484.097 80.0873 483.976 80.1678 483.843 80.2227C483.71 80.2775 483.568 80.3056 483.424 80.3053ZM435.86 78.1193H482.33V69.3605C482.328 68.1005 481.827 66.8926 480.936 66.0016C480.046 65.1106 478.838 64.6092 477.578 64.6074H440.612C439.352 64.6089 438.144 65.1102 437.253 66.0012C436.362 66.8923 435.861 68.1003 435.859 69.3605L435.86 78.1193Z" fill="#5E1235"/>
<path d="M437.924 79.2119H480.328V85.2166H437.924V79.2119Z" fill="#EF4351"/>
<path d="M480.327 86.3108H437.922C437.632 86.3108 437.354 86.1955 437.149 85.9903C436.943 85.7851 436.828 85.5068 436.828 85.2166V79.212C436.829 78.9222 436.944 78.6445 437.149 78.4398C437.355 78.2351 437.632 78.1201 437.922 78.1201H480.327C480.617 78.1201 480.895 78.2354 481.101 78.4406C481.306 78.6458 481.421 78.9241 481.421 79.2143V85.2189C481.42 85.5087 481.305 85.7864 481.1 85.9911C480.895 86.1958 480.617 86.3108 480.327 86.3108ZM439.013 84.1214H479.232V80.3061H439.013V84.1214Z" fill="#5E1235"/>
<path d="M480.328 80.0027V85.2156H437.86V79.9936C437.86 79.5419 437.771 79.0945 437.598 78.6772C437.426 78.2599 437.172 77.8807 436.853 77.5612C436.533 77.2418 436.154 76.9884 435.737 76.8156C435.319 76.6427 434.872 76.5537 434.42 76.5537C433.508 76.5537 432.633 76.9161 431.988 77.5612C431.343 78.2063 430.98 79.0813 430.98 79.9936V88.1238C430.98 88.6476 431.084 89.1662 431.285 89.65C431.486 90.1338 431.78 90.5732 432.151 90.943C432.522 91.3128 432.962 91.6057 433.446 91.805C433.931 92.0044 434.45 92.1061 434.974 92.1044L437.86 92.0953H480.328L483.208 92.1079C483.732 92.1095 484.251 92.0078 484.736 91.8085C485.22 91.6092 485.66 91.3162 486.031 90.9464C486.402 90.5766 486.697 90.1372 486.897 89.6534C487.098 89.1697 487.202 88.651 487.202 88.1272V80.0027C487.202 79.0904 486.839 78.2155 486.194 77.5704C485.549 76.9253 484.674 76.5628 483.762 76.5628C482.85 76.5644 481.977 76.9274 481.333 77.5724C480.689 78.2173 480.328 79.0914 480.328 80.0027Z" fill="#FFD150"/>
<path d="M483.227 93.2031H483.203L480.322 93.1906H437.861L434.978 93.1997H434.96C434.294 93.1996 433.634 93.0682 433.018 92.813C432.403 92.5578 431.843 92.1839 431.372 91.7125C430.901 91.2412 430.527 90.6817 430.273 90.0659C430.018 89.4501 429.887 88.7902 429.887 88.1238V79.9936C429.887 78.7909 430.364 77.6375 431.215 76.7871C432.065 75.9367 433.219 75.459 434.421 75.459C435.624 75.459 436.777 75.9367 437.628 76.7871C438.478 77.6375 438.956 78.7909 438.956 79.9936V84.1214H479.23V80.0027C479.23 78.8001 479.708 77.6467 480.559 76.7963C481.409 75.9459 482.562 75.4681 483.765 75.4681C484.968 75.4681 486.121 75.9459 486.971 76.7963C487.822 77.6467 488.3 78.8001 488.3 80.0027V88.1283C488.3 89.4743 487.765 90.7651 486.813 91.7168C485.861 92.6685 484.571 93.2031 483.225 93.2031H483.227ZM480.327 91.0012L483.213 91.0137H483.227C483.992 91.0134 484.726 90.7092 485.267 90.1679C485.808 89.6266 486.112 88.8925 486.112 88.1272V80.0027C486.099 79.3897 485.846 78.8063 485.408 78.3776C484.969 77.9488 484.38 77.7087 483.767 77.7087C483.154 77.7087 482.565 77.9488 482.127 78.3776C481.689 78.8063 481.436 79.3897 481.422 80.0027V85.2156C481.422 85.5057 481.307 85.784 481.102 85.9892C480.896 86.1944 480.618 86.3097 480.328 86.3097H437.861C437.57 86.3097 437.292 86.1944 437.087 85.9892C436.882 85.784 436.766 85.5057 436.766 85.2156V79.9936C436.753 79.3806 436.5 78.7972 436.062 78.3684C435.623 77.9397 435.034 77.6996 434.421 77.6996C433.808 77.6996 433.219 77.9397 432.781 78.3684C432.343 78.7972 432.09 79.3806 432.076 79.9936V88.1238C432.076 88.5037 432.151 88.8799 432.296 89.2309C432.441 89.5819 432.655 89.9008 432.924 90.1692C433.193 90.4375 433.512 90.6502 433.863 90.7949C434.214 90.9397 434.591 91.0136 434.971 91.0126L437.857 91.0034L480.327 91.0012Z" fill="#5E1235"/>
<path d="M436.703 92.1582H443.739V95.9107H436.703V92.1582Z" fill="white"/>
<path d="M443.74 97.0039H436.704C436.413 97.0039 436.135 96.8887 435.93 96.6835C435.725 96.4783 435.609 96.2 435.609 95.9098V92.1527C435.609 91.8626 435.725 91.5843 435.93 91.3791C436.135 91.1739 436.413 91.0586 436.704 91.0586H443.74C444.03 91.0589 444.308 91.1743 444.513 91.3795C444.717 91.5846 444.833 91.8627 444.833 92.1527V95.9052C444.833 96.0492 444.805 96.1919 444.751 96.3251C444.696 96.4583 444.616 96.5794 444.514 96.6814C444.413 96.7835 444.292 96.8645 444.159 96.9199C444.026 96.9752 443.884 97.0038 443.74 97.0039ZM437.798 94.8156H442.644V93.2526H437.798V94.8156Z" fill="#5E1235"/>
<path d="M474.262 92.1582H481.298V95.9107H474.262V92.1582Z" fill="white"/>
<path d="M481.296 97.0046H474.26C473.97 97.0046 473.691 96.8893 473.486 96.6842C473.281 96.479 473.166 96.2007 473.166 95.9105V92.1534C473.166 91.8632 473.281 91.5849 473.486 91.3798C473.691 91.1746 473.97 91.0593 474.26 91.0593H481.296C481.44 91.0591 481.582 91.0873 481.715 91.1422C481.848 91.1972 481.969 91.2777 482.07 91.3793C482.172 91.481 482.253 91.6016 482.308 91.7345C482.363 91.8673 482.391 92.0096 482.391 92.1534V95.9059C482.392 96.0501 482.364 96.1929 482.309 96.3263C482.254 96.4596 482.174 96.5808 482.072 96.6829C481.97 96.785 481.849 96.866 481.716 96.9212C481.583 96.9764 481.44 97.0048 481.296 97.0046ZM475.354 94.8152H480.201V93.2521H475.355L475.354 94.8152ZM467.49 80.3061C467.2 80.3061 466.921 80.1908 466.716 79.9857C466.511 79.7805 466.396 79.5022 466.396 79.212V71.019C466.396 70.7287 466.511 70.4502 466.716 70.245C466.922 70.0397 467.2 69.9243 467.49 69.9243C467.781 69.9243 468.059 70.0397 468.264 70.245C468.47 70.4502 468.585 70.7287 468.585 71.019V79.212C468.585 79.3558 468.557 79.4981 468.502 79.6309C468.447 79.7638 468.366 79.8844 468.264 79.9861C468.162 80.0877 468.042 80.1682 467.909 80.2232C467.776 80.2781 467.633 80.3063 467.49 80.3061ZM450.698 80.3061C450.407 80.3061 450.129 80.1908 449.924 79.9857C449.719 79.7805 449.604 79.5022 449.604 79.212V71.019C449.604 70.7287 449.719 70.4502 449.924 70.245C450.129 70.0397 450.408 69.9243 450.698 69.9243C450.989 69.9243 451.267 70.0397 451.472 70.245C451.678 70.4502 451.793 70.7287 451.793 71.019V79.212C451.793 79.3558 451.765 79.4981 451.71 79.6309C451.654 79.7638 451.574 79.8844 451.472 79.9861C451.37 80.0877 451.25 80.1682 451.117 80.2232C450.984 80.2781 450.841 80.3063 450.698 80.3061Z" fill="#5E1235"/>
<path d="M453.293 64.0627C452.314 63.0835 451.654 61.8302 451.402 60.4682C451.149 59.1063 451.316 57.6998 451.88 56.4345L454.739 59.2948C454.97 59.5252 455.244 59.7073 455.545 59.8305C455.847 59.9538 456.17 60.0157 456.496 60.0126C456.822 60.0095 457.144 59.9415 457.443 59.8126C457.743 59.6837 458.013 59.4964 458.239 59.2617C459.177 58.2897 459.104 56.7232 458.149 55.7682L455.349 52.9661C456.615 52.4017 458.021 52.2344 459.383 52.4864C460.746 52.7383 461.999 53.3976 462.979 54.3772C463.959 55.3568 464.618 56.6105 464.87 57.9728C465.122 59.335 464.954 60.7417 464.39 62.0068L470.551 68.1678C472.534 65.304 473.372 61.8017 472.901 58.3507C472.43 54.8996 470.684 51.75 468.006 49.5223C465.329 47.2945 461.914 46.1501 458.435 46.3144C454.956 46.4786 451.665 47.9398 449.209 50.4099C446.753 52.8801 445.312 56.1802 445.168 59.6603C445.024 63.1403 446.189 66.548 448.433 69.2122C450.676 71.8764 453.836 73.6039 457.29 74.0544C460.744 74.505 464.241 73.6459 467.093 71.6464L460.919 65.4752C459.655 66.0386 458.249 66.2053 456.887 65.9531C455.526 65.7009 454.273 65.0418 453.293 64.0627Z" fill="white"/>
<path d="M459.094 75.1601C450.866 75.1601 444.172 68.4663 444.172 60.238C444.172 52.0097 450.866 45.3159 459.094 45.3159C467.322 45.3159 474.016 52.0097 474.016 60.238C474.022 63.2742 473.096 66.239 471.363 68.7322C471.281 68.8505 471.174 68.9494 471.049 69.0218C470.924 69.0942 470.785 69.1384 470.642 69.1512C470.498 69.1641 470.354 69.1453 470.218 69.0961C470.083 69.047 469.959 68.9687 469.857 68.8668L463.696 62.7058C463.556 62.5648 463.461 62.3845 463.425 62.1885C463.388 61.9926 463.412 61.7903 463.493 61.6083C463.923 60.6444 464.084 59.5825 463.96 58.5346C463.836 57.4867 463.431 56.4917 462.788 55.6548C462.146 54.818 461.289 54.1702 460.308 53.7801C459.328 53.3899 458.26 53.2717 457.218 53.4381L458.846 55.0731C460.194 56.4205 460.241 58.6099 458.949 59.9471C458.632 60.276 458.253 60.5384 457.833 60.7191C457.414 60.8998 456.962 60.995 456.506 60.9992C456.049 61.0035 455.596 60.9167 455.173 60.7438C454.75 60.571 454.366 60.3157 454.043 59.9927L452.351 58.3007C452.208 59.2149 452.282 60.15 452.567 61.0303C452.852 61.9107 453.34 62.7117 453.992 63.3687C454.833 64.2029 455.906 64.7644 457.071 64.9801C458.235 65.1958 459.438 65.0557 460.522 64.5781C460.704 64.497 460.907 64.473 461.103 64.5093C461.299 64.5455 461.479 64.6403 461.62 64.7812L467.795 70.9558C467.896 71.0575 467.975 71.1802 468.024 71.3153C468.073 71.4504 468.092 71.5947 468.08 71.738C468.067 71.8813 468.024 72.0201 467.952 72.1448C467.88 72.2694 467.782 72.3768 467.665 72.4595C465.156 74.2243 462.161 75.1678 459.094 75.1601ZM459.094 47.2863C457.109 47.2855 455.15 47.741 453.369 48.6178C451.588 49.4945 450.032 50.769 448.822 52.3427C447.611 53.9164 446.779 55.7472 446.389 57.6938C445.999 59.6403 446.062 61.6505 446.573 63.5689C447.083 65.4874 448.028 67.2628 449.334 68.758C450.64 70.2532 452.272 71.4282 454.104 72.1922C455.937 72.9562 457.92 73.2888 459.901 73.1642C461.883 73.0396 463.809 72.4613 465.531 71.4738L460.68 66.6272C459.292 67.0975 457.8 67.1718 456.373 66.8417C454.945 66.5116 453.637 65.7902 452.596 64.7583C451.482 63.6345 450.731 62.201 450.443 60.6447C450.155 59.0883 450.342 57.4811 450.98 56.0326C451.045 55.8866 451.145 55.7586 451.27 55.6597C451.396 55.5608 451.543 55.4939 451.701 55.4648C451.858 55.4357 452.02 55.4453 452.172 55.4928C452.325 55.5402 452.464 55.624 452.577 55.7371L455.435 58.5951C455.573 58.7331 455.737 58.8422 455.917 58.916C456.098 58.9898 456.291 59.0269 456.486 59.0251C456.682 59.0233 456.874 58.9826 457.053 58.9055C457.233 58.8283 457.394 58.7162 457.53 58.5757C458.081 58.0052 458.047 57.056 457.452 56.4627L454.651 53.6617C454.538 53.5487 454.454 53.4099 454.407 53.2572C454.359 53.1045 454.35 52.9426 454.379 52.7854C454.408 52.6282 454.475 52.4804 454.574 52.3548C454.673 52.2292 454.801 52.1296 454.947 52.0645C456.34 51.4443 457.884 51.2443 459.389 51.4892C460.895 51.7341 462.296 52.413 463.421 53.4428C464.545 54.4726 465.345 55.8084 465.722 57.2863C466.098 58.7641 466.035 60.3198 465.54 61.7623L470.378 66.5964C471.487 64.6254 472.061 62.3986 472.042 60.1371C472.024 57.8757 471.414 55.6584 470.273 53.7058C469.132 51.7533 467.5 50.1333 465.538 49.0071C463.577 47.8809 461.355 47.2876 459.094 47.2863Z" fill="#5E1235"/>
<path d="M470.555 68.1711L464.395 62.0101C464.959 60.7449 465.126 59.3383 464.874 57.9761C464.622 56.6138 463.963 55.3601 462.983 54.3805C462.004 53.4009 460.75 52.7416 459.388 52.4896C458.026 52.2377 456.619 52.405 455.354 52.9694L458.155 55.7704C459.11 56.7253 459.182 58.2918 458.245 59.2639C458.019 59.4986 457.748 59.6858 457.449 59.8148C457.15 59.9437 456.828 60.0117 456.502 60.0147C456.176 60.0178 455.853 59.9559 455.551 59.8327C455.249 59.7095 454.975 59.5273 454.745 59.297L451.887 56.439C451.325 57.7032 451.159 59.108 451.412 60.4682C451.664 61.8284 452.323 63.0801 453.301 64.0585C454.279 65.0368 455.531 65.6959 456.891 65.9487C458.251 66.2016 459.656 66.0365 460.92 65.4751L467.095 71.6497C468.444 70.7027 469.616 69.5251 470.555 68.1711Z" fill="#7BF6FF"/>
<path d="M467.096 72.6357C466.966 72.6362 466.837 72.611 466.717 72.5614C466.597 72.5119 466.487 72.439 466.395 72.347L460.679 66.6276C459.237 67.1226 457.681 67.1857 456.203 66.8092C454.726 66.4327 453.39 65.6329 452.36 64.508C451.33 63.3831 450.651 61.982 450.406 60.4767C450.161 58.9715 450.361 57.4274 450.982 56.0341C451.047 55.8881 451.146 55.7602 451.272 55.6613C451.398 55.5623 451.545 55.4955 451.702 55.4664C451.86 55.4373 452.022 55.4469 452.174 55.4943C452.327 55.5418 452.466 55.6256 452.579 55.7387L455.437 58.5967C455.575 58.7346 455.739 58.8437 455.919 58.9176C456.1 58.9914 456.293 59.0285 456.488 59.0267C456.683 59.0249 456.876 58.9842 457.055 58.907C457.234 58.8299 457.396 58.7178 457.532 58.5773C458.083 58.0068 458.048 57.0576 457.454 56.4643L454.653 53.6633C454.54 53.5503 454.456 53.4114 454.409 53.2588C454.361 53.1061 454.352 52.9442 454.381 52.787C454.41 52.6298 454.477 52.482 454.576 52.3564C454.675 52.2308 454.803 52.1312 454.949 52.066C456.342 51.4458 457.886 51.2459 459.391 51.4908C460.896 51.7356 462.297 52.4146 463.422 53.4444C464.547 54.4742 465.347 55.81 465.724 57.2878C466.1 58.7657 466.037 60.3213 465.542 61.7638L471.247 67.4684C471.409 67.6314 471.51 67.8461 471.53 68.0753C471.551 68.3046 471.491 68.5339 471.361 68.7235C470.356 70.1734 469.103 71.4342 467.66 72.4474C467.496 72.5668 467.299 72.6325 467.096 72.6357ZM460.919 64.4906C461.048 64.4906 461.177 64.5161 461.296 64.5656C461.416 64.6152 461.525 64.6878 461.616 64.7793L467.186 70.3493C467.952 69.7361 468.646 69.038 469.255 68.2682L463.691 62.7051C463.551 62.5641 463.456 62.3838 463.42 62.1878C463.383 61.9919 463.407 61.7896 463.488 61.6075C463.918 60.6437 464.079 59.5817 463.955 58.5338C463.831 57.4859 463.426 56.491 462.783 55.6541C462.141 54.8173 461.284 54.1695 460.303 53.7793C459.323 53.3892 458.255 53.271 457.213 53.4374L458.846 55.0735C460.193 56.4209 460.24 58.6103 458.949 59.9475C458.632 60.2764 458.252 60.5389 457.833 60.7195C457.413 60.9002 456.962 60.9954 456.505 60.9997C456.048 61.0039 455.595 60.9171 455.173 60.7443C454.75 60.5715 454.366 60.3161 454.043 59.9931L452.351 58.3012C452.184 59.3432 452.302 60.4108 452.693 61.3912C453.083 62.3717 453.731 63.2285 454.567 63.8713C455.404 64.514 456.399 64.9188 457.447 65.0429C458.495 65.167 459.557 65.0057 460.521 64.5762C460.646 64.5202 460.782 64.4911 460.919 64.4906Z" fill="#5E1235"/>
<path d="M439.484 74.3724C439.222 74.3724 438.972 74.2685 438.787 74.0836C438.602 73.8988 438.498 73.648 438.498 73.3866V69.107C438.507 68.8515 438.614 68.6094 438.798 68.4317C438.982 68.2541 439.228 68.1548 439.483 68.1548C439.739 68.1548 439.984 68.2541 440.168 68.4317C440.352 68.6094 440.46 68.8515 440.468 69.107V73.3866C440.468 73.6478 440.365 73.8984 440.18 74.0832C439.995 74.2681 439.745 74.3721 439.484 74.3724Z" fill="white"/>
</g>
<path d="M419.029 144.401C419.189 144.401 419.269 144.473 419.269 144.617V146.921C419.269 147.081 419.189 147.161 419.029 147.161C417.653 147.161 416.397 146.641 415.261 145.601C414.445 146.577 413.125 147.097 411.301 147.161H411.253H405.013C403.061 147.161 401.581 146.705 400.573 145.793C399.581 144.881 399.085 143.521 399.085 141.713C399.085 140.401 399.317 138.697 399.781 136.601L402.037 136.889C401.701 138.665 401.533 140.025 401.533 140.969C401.533 142.137 401.869 143.001 402.541 143.561C403.213 144.121 404.253 144.401 405.661 144.401H410.989C412.781 144.401 413.677 143.465 413.677 141.593L413.653 138.041L416.269 137.681V142.409C416.269 142.825 416.237 143.193 416.173 143.513C417.053 144.105 418.005 144.401 419.029 144.401ZM406.165 150.809L408.277 148.697L410.437 150.809L408.325 152.897L406.165 150.809ZM428.153 144.401C428.313 144.401 428.393 144.473 428.393 144.617V146.921C428.393 147.081 428.313 147.161 428.153 147.161C427.465 147.161 426.769 147.009 426.065 146.705C425.377 146.401 424.737 145.961 424.145 145.385C423.201 146.569 421.497 147.161 419.033 147.161C418.873 147.161 418.793 147.081 418.793 146.921L418.817 144.617C418.817 144.473 418.897 144.401 419.057 144.401C420.225 144.401 421.081 144.185 421.625 143.753C422.185 143.305 422.465 142.585 422.465 141.593V138.041L425.057 137.681V142.409C425.057 142.729 425.033 143.049 424.985 143.369C425.961 144.057 427.017 144.401 428.153 144.401ZM425.537 152.921L423.545 150.977L421.601 152.921L419.465 150.809L421.577 148.721L423.545 150.641L425.513 148.721L427.649 150.809L425.537 152.921ZM435.422 136.817C436.59 136.817 437.614 137.025 438.494 137.441C439.39 137.857 440.078 138.449 440.558 139.217C441.054 139.969 441.302 140.849 441.302 141.857C441.302 143.505 440.798 144.801 439.79 145.745C438.798 146.689 437.446 147.161 435.734 147.161H428.15C427.99 147.161 427.91 147.081 427.91 146.921V144.617C427.91 144.473 427.99 144.401 428.15 144.401H435.614C436.558 144.401 437.302 144.177 437.846 143.729C438.406 143.265 438.686 142.633 438.686 141.833C438.686 141.033 438.414 140.401 437.87 139.937C437.326 139.457 436.582 139.217 435.638 139.217H429.998L428.606 136.793L435.662 128.321L438.182 129.689L431.678 136.817H435.422ZM450.759 144.401C450.919 144.401 450.999 144.473 450.999 144.617V146.921C450.999 147.081 450.919 147.161 450.759 147.161C449.607 147.161 448.727 146.777 448.119 146.009V146.537C448.119 148.553 447.591 150.017 446.535 150.929C445.495 151.857 443.903 152.321 441.759 152.321L441.543 150.137C442.823 150.137 443.807 149.833 444.495 149.225C445.199 148.633 445.551 147.705 445.551 146.441L445.527 135.521L448.119 135.161V142.313C448.215 143.049 448.503 143.585 448.983 143.921C449.479 144.241 450.071 144.401 450.759 144.401ZM450.791 147.161C450.631 147.161 450.551 147.081 450.551 146.921L450.575 144.617C450.575 144.473 450.655 144.401 450.815 144.401H452.711C454.487 144.401 455.375 143.465 455.375 141.593V135.521L457.967 135.161V142.409C457.967 143.945 457.519 145.121 456.623 145.937C455.743 146.753 454.431 147.161 452.687 147.161H450.791ZM458.495 133.553L456.503 131.609L454.559 133.553L452.423 131.441L454.535 129.353L456.503 131.273L458.471 129.353L460.607 131.441L458.495 133.553ZM466.579 135.401C467.587 135.401 468.483 135.633 469.267 136.097C470.051 136.561 470.667 137.217 471.115 138.065C471.563 138.897 471.787 139.873 471.787 140.993V146.609C471.787 150.417 468.699 152.321 462.523 152.321L462.235 150.137C464.619 150.137 466.371 149.849 467.491 149.273C468.627 148.713 469.195 147.801 469.195 146.537C468.235 146.953 467.331 147.161 466.483 147.161C465.379 147.161 464.403 146.929 463.555 146.465C462.723 145.985 462.075 145.305 461.611 144.425C461.147 143.545 460.915 142.521 460.915 141.353C460.915 140.217 461.155 139.201 461.635 138.305C462.131 137.393 462.811 136.681 463.675 136.169C464.539 135.657 465.507 135.401 466.579 135.401ZM463.291 141.257C463.291 142.297 463.595 143.105 464.203 143.681C464.811 144.241 465.627 144.521 466.651 144.521C467.579 144.521 468.427 144.393 469.195 144.137V141.185C469.195 140.241 468.931 139.489 468.403 138.929C467.875 138.353 467.187 138.065 466.339 138.065C465.475 138.065 464.747 138.361 464.155 138.953C463.579 139.545 463.291 140.313 463.291 141.257ZM499.994 146.921C499.994 147.081 499.914 147.161 499.754 147.161C497.61 147.161 496.114 146.553 495.266 145.337C494.338 145.961 493.354 146.425 492.314 146.729C491.274 147.017 490.09 147.161 488.762 147.161H485.474C483.538 147.161 482.066 146.721 481.058 145.841C480.066 144.945 479.57 143.625 479.57 141.881C479.57 140.713 479.738 139.369 480.074 137.849L482.33 138.137C482.106 139.481 481.994 140.473 481.994 141.113C481.994 142.249 482.33 143.081 483.002 143.609C483.69 144.137 484.722 144.401 486.098 144.401H488.762C490.058 144.401 491.17 144.313 492.098 144.137C493.042 143.945 493.858 143.665 494.546 143.297C494.498 142.977 494.474 142.633 494.474 142.265L494.45 130.001L497.066 129.641V141.497C497.066 142.489 497.282 143.225 497.714 143.705C498.146 144.169 498.818 144.401 499.73 144.401C499.89 144.401 499.97 144.473 499.97 144.617L499.994 146.921ZM491.33 138.785H485.498V136.769H486.89C486.602 136.305 486.458 135.817 486.458 135.305C486.458 134.537 486.714 133.921 487.226 133.457C487.738 132.993 488.402 132.761 489.218 132.761C489.778 132.761 490.402 132.929 491.09 133.265V135.113C490.434 134.873 489.882 134.753 489.434 134.753C489.05 134.753 488.738 134.849 488.498 135.041C488.274 135.217 488.162 135.457 488.162 135.761C488.162 136.113 488.298 136.449 488.57 136.769H491.906L491.33 138.785ZM506.328 135.281C507.384 135.281 508.336 135.529 509.184 136.025C510.032 136.505 510.696 137.169 511.176 138.017C511.672 138.865 511.92 139.817 511.92 140.873C511.92 142.153 511.648 143.273 511.104 144.233C510.56 145.177 509.776 145.905 508.752 146.417C507.744 146.913 506.544 147.161 505.152 147.161H499.752C499.592 147.161 499.512 147.081 499.512 146.921V144.617C499.512 144.473 499.592 144.401 499.752 144.401H501.504C500.912 143.089 500.616 141.985 500.616 141.089C500.616 139.937 500.856 138.921 501.336 138.041C501.816 137.161 502.488 136.481 503.352 136.001C504.216 135.521 505.208 135.281 506.328 135.281ZM505.272 144.401C506.52 144.401 507.504 144.097 508.224 143.489C508.944 142.865 509.304 142.009 509.304 140.921C509.304 140.025 509.008 139.289 508.416 138.713C507.84 138.121 507.112 137.825 506.232 137.825C505.672 137.825 505.152 137.969 504.672 138.257C504.208 138.545 503.84 138.937 503.568 139.433C503.296 139.913 503.16 140.433 503.16 140.993C503.16 142.081 503.496 143.217 504.168 144.401H505.272ZM503.856 131.417L505.968 129.329L508.128 131.417L506.016 133.529L503.856 131.417Z" fill="#6B6E80"/>
<line x1="593.52" y1="37" x2="593.52" y2="173.302" stroke="#EDEDED" stroke-width="2.43396"/>
<rect x="709.502" y="47.7549" width="58.4151" height="58.4151" rx="29.2075" fill="#9BD069"/>
<path d="M761.952 86.1469H731.087C730.037 86.1469 729.186 85.2956 729.186 84.2453V53.38C729.186 52.3298 730.037 51.4785 731.087 51.4785H761.952C763.003 51.4785 763.854 52.3298 763.854 53.38V84.2453C763.854 85.2956 763.003 86.1469 761.952 86.1469Z" fill="#FFA91A"/>
<path d="M761.952 51.4785H746.52V86.1471H761.952C763.002 86.1471 763.854 85.2958 763.854 84.2455V53.38C763.854 52.3298 763.002 51.4785 761.952 51.4785Z" fill="#F79219"/>
<path d="M761.953 51.4785H753.172C754.483 51.4785 755.546 52.5413 755.546 53.8524V83.7732C755.546 85.0843 754.483 86.1471 753.172 86.1471H761.953C763.003 86.1471 763.854 85.2958 763.854 84.2455V53.38C763.854 52.3298 763.003 51.4785 761.953 51.4785Z" fill="#EF7816"/>
<path d="M731.087 51.4785H739.868C738.557 51.4785 737.494 52.5413 737.494 53.8524V83.7732C737.494 85.0843 738.557 86.1471 739.868 86.1471H731.087C730.037 86.1471 729.186 85.2958 729.186 84.2455V53.38C729.186 52.3298 730.037 51.4785 731.087 51.4785Z" fill="#F79219"/>
<path d="M730.328 66.6588C730.227 66.6588 730.13 66.6188 730.059 66.5474C729.987 66.4761 729.947 66.3794 729.947 66.2785V55.4398C729.947 55.3389 729.987 55.2422 730.059 55.1709C730.13 55.0996 730.227 55.0595 730.328 55.0595C730.428 55.0595 730.525 55.0996 730.596 55.1709C730.668 55.2422 730.708 55.3389 730.708 55.4398V66.2785C730.708 66.3794 730.668 66.4761 730.596 66.5474C730.525 66.6188 730.428 66.6588 730.328 66.6588ZM730.328 54.2989C730.227 54.2989 730.13 54.2588 730.059 54.1875C729.987 54.1162 729.947 54.0194 729.947 53.9186V53.8744C729.947 53.7736 729.987 53.6769 730.059 53.6055C730.13 53.5342 730.227 53.4941 730.328 53.4941C730.428 53.4941 730.525 53.5342 730.596 53.6055C730.668 53.6769 730.708 53.7736 730.708 53.8744V53.9186C730.708 54.0194 730.668 54.1162 730.596 54.1875C730.525 54.2588 730.428 54.2989 730.328 54.2989Z" fill="#FFC91D"/>
<path d="M748.488 62.7833H744.552C743.502 62.7833 742.65 61.932 742.65 60.8818V51.4785H750.389V60.882C750.389 61.932 749.538 62.7833 748.488 62.7833Z" fill="#8C3F0A"/>
<path d="M748.487 62.7833C749.538 62.7833 750.389 61.932 750.389 60.8818V51.4785H746.52V62.7835L748.487 62.7833Z" fill="#7C3108"/>
<path d="M751.723 81.5258H752.702C752.866 81.5258 752.999 81.3929 752.999 81.2289V77.1671H753.859C754.1 77.1671 754.241 76.8944 754.1 76.698L752.454 74.3929C752.427 74.3545 752.391 74.3231 752.349 74.3015C752.307 74.2798 752.26 74.2686 752.213 74.2686C752.166 74.2686 752.119 74.2798 752.077 74.3015C752.035 74.3231 751.999 74.3545 751.971 74.3929L750.325 76.698C750.185 76.8944 750.326 77.1671 750.567 77.1671H751.427V81.2289C751.427 81.2679 751.434 81.3065 751.449 81.3425C751.464 81.3786 751.486 81.4113 751.513 81.4389C751.541 81.4664 751.574 81.4883 751.61 81.5032C751.646 81.5181 751.684 81.5258 751.723 81.5258ZM757.658 81.5258H758.637C758.801 81.5258 758.934 81.3929 758.934 81.2289V77.1671H759.794C760.035 77.1671 760.175 76.8944 760.035 76.698L758.389 74.3929C758.362 74.3545 758.325 74.3231 758.283 74.3015C758.241 74.2798 758.195 74.2686 758.148 74.2686C758.1 74.2686 758.054 74.2798 758.012 74.3015C757.97 74.3231 757.934 74.3545 757.906 74.3929L756.26 76.698C756.12 76.8944 756.26 77.1671 756.502 77.1671H757.362V81.2289C757.361 81.2679 757.369 81.3065 757.384 81.3425C757.399 81.3785 757.421 81.4112 757.448 81.4388C757.476 81.4664 757.508 81.4882 757.544 81.5032C757.58 81.5181 757.619 81.5258 757.658 81.5258ZM759.99 83.8468H750.371C750.27 83.8468 750.173 83.8067 750.102 83.7354C750.03 83.6641 749.99 83.5673 749.99 83.4665V82.7433C749.99 82.6425 750.03 82.5457 750.102 82.4744C750.173 82.4031 750.27 82.363 750.371 82.363H759.99C760.091 82.363 760.187 82.4031 760.259 82.4744C760.33 82.5457 760.37 82.6425 760.37 82.7433V83.4665C760.37 83.5673 760.33 83.6641 760.259 83.7354C760.187 83.8067 760.091 83.8468 759.99 83.8468Z" fill="#6D2E03"/>
<path d="M729.716 91.4815V71.2615C729.716 69.6063 732.656 68.2644 736.284 68.2642H719.684L720.722 69.4243L719.684 70.5848L720.722 71.7451L719.684 72.9058L720.722 74.0661L719.684 75.2268L720.722 76.3877L719.684 77.548L720.722 78.7076L719.684 79.8683L720.722 81.0284L719.684 82.1889L720.722 83.35L719.684 84.511L720.722 85.6721L719.684 86.8328L720.722 87.9937L719.684 89.1557L720.722 90.3185L719.684 91.4813L729.716 91.4815Z" fill="#5E9CF7"/>
<path d="M724.367 68.2642V68.5494C724.367 68.5998 724.387 68.6482 724.423 68.6838C724.459 68.7195 724.507 68.7395 724.557 68.7395C724.608 68.7395 724.656 68.7195 724.692 68.6838C724.727 68.6482 724.747 68.5998 724.747 68.5494V68.2642H724.367ZM724.557 90.2816C724.507 90.2816 724.459 90.2616 724.423 90.2259C724.387 90.1903 724.367 90.1419 724.367 90.0915V89.5391C724.367 89.4886 724.387 89.4403 724.423 89.4046C724.459 89.369 724.507 89.3489 724.557 89.3489C724.608 89.3489 724.656 89.369 724.692 89.4046C724.727 89.4403 724.747 89.4886 724.747 89.5391V90.0915C724.747 90.1419 724.727 90.1903 724.692 90.2259C724.656 90.2616 724.608 90.2816 724.557 90.2816ZM724.557 88.6244C724.507 88.6244 724.459 88.6044 724.423 88.5687C724.387 88.5331 724.367 88.4847 724.367 88.4343V87.8819C724.367 87.8315 724.387 87.7831 724.423 87.7474C724.459 87.7118 724.507 87.6917 724.557 87.6917C724.608 87.6917 724.656 87.7118 724.692 87.7474C724.727 87.7831 724.747 87.8315 724.747 87.8819V88.4343C724.747 88.4847 724.727 88.5331 724.692 88.5687C724.656 88.6044 724.608 88.6244 724.557 88.6244ZM724.557 86.9674C724.507 86.9674 724.459 86.9474 724.423 86.9118C724.387 86.8761 724.367 86.8277 724.367 86.7773V86.2249C724.367 86.1745 724.387 86.1261 724.423 86.0904C724.459 86.0548 724.507 86.0347 724.557 86.0347C724.608 86.0347 724.656 86.0548 724.692 86.0904C724.727 86.1261 724.747 86.1745 724.747 86.2249V86.7773C724.747 86.8277 724.727 86.8761 724.692 86.9118C724.656 86.9474 724.608 86.9674 724.557 86.9674ZM724.557 85.3104C724.507 85.3104 724.459 85.2904 724.423 85.2548C724.387 85.2191 724.367 85.1707 724.367 85.1203V84.5679C724.367 84.5175 724.387 84.4691 724.423 84.4334C724.459 84.3978 724.507 84.3777 724.557 84.3777C724.608 84.3777 724.656 84.3978 724.692 84.4334C724.727 84.4691 724.747 84.5175 724.747 84.5679V85.1203C724.747 85.1707 724.727 85.2191 724.692 85.2548C724.656 85.2904 724.608 85.3104 724.557 85.3104ZM724.557 83.6533C724.507 83.6533 724.459 83.6332 724.423 83.5976C724.387 83.5619 724.367 83.5135 724.367 83.4631V82.9107C724.367 82.8603 724.387 82.8119 724.423 82.7763C724.459 82.7406 724.507 82.7206 724.557 82.7206C724.608 82.7206 724.656 82.7406 724.692 82.7763C724.727 82.8119 724.747 82.8603 724.747 82.9107V83.4631C724.747 83.5135 724.727 83.5619 724.692 83.5976C724.656 83.6332 724.608 83.6533 724.557 83.6533ZM724.557 81.9961C724.507 81.9961 724.459 81.976 724.423 81.9404C724.387 81.9047 724.367 81.8564 724.367 81.8059V81.2535C724.367 81.2031 724.387 81.1547 724.423 81.1191C724.459 81.0834 724.507 81.0634 724.557 81.0634C724.608 81.0634 724.656 81.0834 724.692 81.1191C724.727 81.1547 724.747 81.2031 724.747 81.2535V81.8059C724.747 81.8564 724.727 81.9047 724.692 81.9404C724.656 81.976 724.608 81.9961 724.557 81.9961ZM724.557 80.3391C724.507 80.3391 724.459 80.319 724.423 80.2834C724.387 80.2477 724.367 80.1994 724.367 80.1489V79.5965C724.367 79.5461 724.387 79.4977 724.423 79.4621C724.459 79.4264 724.507 79.4064 724.557 79.4064C724.608 79.4064 724.656 79.4264 724.692 79.4621C724.727 79.4977 724.747 79.5461 724.747 79.5965V80.1489C724.747 80.1994 724.727 80.2477 724.692 80.2834C724.656 80.319 724.608 80.3391 724.557 80.3391ZM724.557 78.6821C724.507 78.6821 724.459 78.6621 724.423 78.6264C724.387 78.5907 724.367 78.5424 724.367 78.4919V77.9395C724.367 77.8891 724.387 77.8407 724.423 77.8051C724.459 77.7694 724.507 77.7494 724.557 77.7494C724.608 77.7494 724.656 77.7694 724.692 77.8051C724.727 77.8407 724.747 77.8891 724.747 77.9395V78.4919C724.747 78.5424 724.727 78.5907 724.692 78.6264C724.656 78.6621 724.608 78.6821 724.557 78.6821ZM724.557 77.0249C724.507 77.0249 724.459 77.0049 724.423 76.9692C724.387 76.9335 724.367 76.8852 724.367 76.8347V76.2824C724.367 76.2319 724.387 76.1836 724.423 76.1479C724.459 76.1122 724.507 76.0922 724.557 76.0922C724.608 76.0922 724.656 76.1122 724.692 76.1479C724.727 76.1836 724.747 76.2319 724.747 76.2824V76.8347C724.747 76.8852 724.727 76.9335 724.692 76.9692C724.656 77.0049 724.608 77.0249 724.557 77.0249ZM724.557 75.3679C724.507 75.3679 724.459 75.3479 724.423 75.3122C724.387 75.2765 724.367 75.2282 724.367 75.1778V74.6254C724.367 74.5749 724.387 74.5266 724.423 74.4909C724.459 74.4552 724.507 74.4352 724.557 74.4352C724.608 74.4352 724.656 74.4552 724.692 74.4909C724.727 74.5266 724.747 74.5749 724.747 74.6254V75.1778C724.747 75.2282 724.727 75.2765 724.692 75.3122C724.656 75.3479 724.608 75.3679 724.557 75.3679ZM724.557 73.7107C724.507 73.7107 724.459 73.6907 724.423 73.655C724.387 73.6194 724.367 73.571 724.367 73.5206V72.9682C724.367 72.9177 724.387 72.8694 724.423 72.8337C724.459 72.7981 724.507 72.778 724.557 72.778C724.608 72.778 724.656 72.7981 724.692 72.8337C724.727 72.8694 724.747 72.9177 724.747 72.9682V73.5206C724.747 73.571 724.727 73.6194 724.692 73.655C724.656 73.6907 724.608 73.7107 724.557 73.7107ZM724.557 72.0535C724.507 72.0535 724.459 72.0335 724.423 71.9978C724.387 71.9622 724.367 71.9138 724.367 71.8634V71.311C724.367 71.2606 724.387 71.2122 724.423 71.1765C724.459 71.1409 724.507 71.1208 724.557 71.1208C724.608 71.1208 724.656 71.1409 724.692 71.1765C724.727 71.2122 724.747 71.2606 724.747 71.311V71.8634C724.747 71.9138 724.727 71.9622 724.692 71.9978C724.656 72.0335 724.608 72.0535 724.557 72.0535ZM724.557 70.3965C724.507 70.3965 724.459 70.3765 724.423 70.3408C724.387 70.3052 724.367 70.2568 724.367 70.2064V69.654C724.367 69.6036 724.387 69.5552 724.423 69.5195C724.459 69.4839 724.507 69.4638 724.557 69.4638C724.608 69.4638 724.656 69.4839 724.692 69.5195C724.727 69.5552 724.747 69.6036 724.747 69.654V70.2064C724.747 70.2568 724.727 70.3052 724.692 70.3408C724.656 70.3765 724.608 70.3965 724.557 70.3965ZM724.557 91.0061C724.507 91.0061 724.459 91.0261 724.423 91.0618C724.387 91.0975 724.367 91.1458 724.367 91.1963V91.4815H724.747V91.1963C724.747 91.1458 724.727 91.0975 724.692 91.0618C724.656 91.0261 724.608 91.0061 724.557 91.0061Z" fill="#F1F2F2"/>
<path d="M742.854 71.2617V94.4791C742.854 96.1345 739.913 97.4766 736.284 97.4766C732.656 97.4766 729.715 96.1345 729.715 94.4791V71.2617H742.854Z" fill="#377DE2"/>
<path d="M740.891 71.2617V92.5155C740.891 94.171 737.95 95.5131 734.322 95.5131C732.534 95.5131 730.913 95.1866 729.729 94.6578C729.931 96.2302 732.789 97.4768 736.286 97.4768C739.914 97.4768 742.855 96.1347 742.855 94.4792V71.2617H740.891Z" fill="#2266D3"/>
<path d="M736.284 74.2589C739.913 74.2589 742.854 72.917 742.854 71.2615C742.854 69.6061 739.913 68.2642 736.284 68.2642C732.656 68.2642 729.715 69.6061 729.715 71.2615C729.715 72.917 732.656 74.2589 736.284 74.2589Z" fill="#478CF7"/>
<path d="M734.078 71.2615C734.078 71.7353 735.066 72.1195 736.284 72.1195C737.503 72.1195 738.491 71.7353 738.491 71.2615C738.491 70.7876 737.503 70.4033 736.284 70.4033C735.066 70.4035 734.078 70.7876 734.078 71.2615Z" fill="#2266D3"/>
<path d="M690.431 144.901C690.591 144.901 690.671 144.973 690.671 145.117V147.421C690.671 147.581 690.591 147.661 690.431 147.661H684.719C683.215 147.661 681.927 147.317 680.855 146.629C679.799 145.941 679.071 144.981 678.671 143.749C677.663 143.973 677.159 144.749 677.159 146.077V153.781L674.567 154.141L674.543 145.861C674.543 142.949 675.807 141.325 678.335 140.989C678.399 139.981 678.671 139.085 679.151 138.301C679.647 137.517 680.311 136.901 681.143 136.453C681.975 136.005 682.903 135.781 683.927 135.781C684.919 135.781 685.823 136.029 686.639 136.525C687.471 137.005 688.127 137.661 688.607 138.493C689.087 139.309 689.327 140.197 689.327 141.157C689.327 142.293 689.079 143.541 688.583 144.901H690.431ZM686.375 144.901C686.807 143.589 687.023 142.469 687.023 141.541C687.023 140.981 686.887 140.453 686.615 139.957C686.359 139.461 685.999 139.061 685.535 138.757C685.087 138.453 684.583 138.301 684.023 138.301C683.095 138.301 682.343 138.597 681.767 139.189C681.207 139.765 680.927 140.525 680.927 141.469C680.927 142.493 681.255 143.325 681.911 143.965C682.567 144.589 683.463 144.901 684.599 144.901H686.375ZM706.087 144.901C706.247 144.901 706.327 144.973 706.327 145.117V147.421C706.327 147.581 706.247 147.661 706.087 147.661C704.663 147.661 703.399 147.133 702.295 146.077C701.815 146.589 701.207 146.981 700.471 147.253C699.751 147.525 698.943 147.661 698.047 147.661H690.463C690.303 147.661 690.223 147.581 690.223 147.421V145.117C690.223 144.973 690.303 144.901 690.463 144.901H697.927C698.871 144.901 699.615 144.677 700.159 144.229C700.719 143.765 700.999 143.133 700.999 142.333C700.999 141.533 700.727 140.901 700.183 140.437C699.639 139.957 698.895 139.717 697.951 139.717H692.311L690.919 137.293L697.975 128.821L700.495 130.189L693.991 137.317H697.735C698.903 137.317 699.927 137.525 700.807 137.941C701.703 138.357 702.391 138.949 702.871 139.717C703.367 140.469 703.615 141.349 703.615 142.357C703.615 142.965 703.543 143.549 703.399 144.109C704.247 144.637 705.143 144.901 706.087 144.901ZM721.312 144.901C721.472 144.901 721.552 144.973 721.552 145.117V147.421C721.552 147.581 721.472 147.661 721.312 147.661H720.448C719.472 147.661 718.664 147.445 718.024 147.013C717.384 146.565 716.944 145.941 716.704 145.141C714.832 146.021 713.064 146.661 711.4 147.061C709.736 147.461 707.976 147.661 706.12 147.661C705.944 147.661 705.856 147.581 705.856 147.421V145.117C705.856 144.973 705.944 144.901 706.12 144.901C708.152 144.901 710.024 144.709 711.736 144.325C713.448 143.941 715.184 143.349 716.944 142.549C715.616 141.509 714.552 140.725 713.752 140.197C712.952 139.653 712.264 139.277 711.688 139.069C711.128 138.861 710.56 138.757 709.984 138.757C709.648 138.757 709.288 138.797 708.904 138.877C708.52 138.941 708.104 139.021 707.656 139.117L707.152 136.789C708.4 136.309 709.464 136.069 710.344 136.069C711.064 136.069 711.776 136.205 712.48 136.477C713.2 136.749 714.096 137.253 715.168 137.989C716.24 138.709 717.72 139.813 719.608 141.301L719.152 143.917C718.8 144.109 718.536 144.245 718.36 144.325C718.824 144.709 719.528 144.901 720.472 144.901H721.312ZM727.883 135.781C728.939 135.781 729.891 136.029 730.739 136.525C731.587 137.005 732.251 137.669 732.731 138.517C733.227 139.365 733.475 140.317 733.475 141.373C733.475 142.653 733.203 143.773 732.659 144.733C732.115 145.677 731.331 146.405 730.307 146.917C729.299 147.413 728.099 147.661 726.707 147.661H721.307C721.147 147.661 721.067 147.581 721.067 147.421V145.117C721.067 144.973 721.147 144.901 721.307 144.901H723.059C722.467 143.589 722.171 142.485 722.171 141.589C722.171 140.437 722.411 139.421 722.891 138.541C723.371 137.661 724.043 136.981 724.907 136.501C725.771 136.021 726.763 135.781 727.883 135.781ZM726.827 144.901C728.075 144.901 729.059 144.597 729.779 143.989C730.499 143.365 730.859 142.509 730.859 141.421C730.859 140.525 730.563 139.789 729.971 139.213C729.395 138.621 728.667 138.325 727.787 138.325C727.227 138.325 726.707 138.469 726.227 138.757C725.763 139.045 725.395 139.437 725.123 139.933C724.851 140.413 724.715 140.933 724.715 141.493C724.715 142.581 725.051 143.717 725.723 144.901H726.827ZM756.427 134.029L754.267 131.917L756.379 129.829L758.539 131.917L756.427 134.029ZM763.315 144.901C763.475 144.901 763.555 144.973 763.555 145.117V147.421C763.555 147.581 763.475 147.661 763.315 147.661C761.027 147.661 758.835 147.341 756.739 146.701C754.915 147.309 752.691 147.629 750.067 147.661H750.043H746.755C744.819 147.661 743.347 147.221 742.339 146.341C741.347 145.445 740.851 144.125 740.851 142.381C740.851 141.213 741.019 139.869 741.355 138.349L743.611 138.637C743.387 139.981 743.275 140.973 743.275 141.613C743.275 142.749 743.611 143.581 744.283 144.109C744.971 144.637 746.003 144.901 747.379 144.901H749.803C751.099 144.901 752.147 144.861 752.947 144.781C752.387 144.269 751.955 143.693 751.651 143.053C751.347 142.397 751.195 141.685 751.195 140.917C751.195 139.957 751.427 139.085 751.891 138.301C752.371 137.517 753.019 136.901 753.835 136.453C754.667 136.005 755.595 135.781 756.619 135.781C757.659 135.781 758.587 136.013 759.403 136.477C760.235 136.941 760.875 137.565 761.323 138.349C761.787 139.117 762.019 139.965 762.019 140.893C762.019 142.365 761.435 143.645 760.267 144.733C761.099 144.845 762.115 144.901 763.315 144.901ZM756.547 138.325C755.715 138.325 755.035 138.597 754.507 139.141C753.979 139.669 753.715 140.357 753.715 141.205C753.715 141.941 753.971 142.613 754.483 143.221C755.011 143.829 755.707 144.269 756.571 144.541C757.451 144.221 758.155 143.757 758.683 143.149C759.227 142.541 759.499 141.893 759.499 141.205C759.499 140.373 759.211 139.685 758.635 139.141C758.075 138.597 757.379 138.325 756.547 138.325ZM772.427 144.901C772.587 144.901 772.667 144.973 772.667 145.117V147.421C772.667 147.581 772.587 147.661 772.427 147.661C771.739 147.661 771.043 147.509 770.339 147.205C769.651 146.901 769.011 146.461 768.419 145.885C767.475 147.069 765.771 147.661 763.307 147.661C763.147 147.661 763.067 147.581 763.067 147.421L763.091 145.117C763.091 144.973 763.171 144.901 763.331 144.901C764.499 144.901 765.355 144.685 765.899 144.253C766.459 143.805 766.739 143.085 766.739 142.093V138.541L769.331 138.181V142.909C769.331 143.229 769.307 143.549 769.259 143.869C770.235 144.557 771.291 144.901 772.427 144.901ZM769.811 153.421L767.819 151.477L765.875 153.421L763.739 151.309L765.851 149.221L767.819 151.141L769.787 149.221L771.923 151.309L769.811 153.421ZM780.488 147.421C780.488 147.581 780.408 147.661 780.248 147.661C778.248 147.661 776.824 147.149 775.976 146.125C775.384 146.669 774.816 147.061 774.272 147.301C773.744 147.541 773.128 147.661 772.424 147.661C772.264 147.661 772.184 147.581 772.184 147.421V145.117C772.184 144.973 772.264 144.901 772.424 144.901C773.432 144.901 774.312 144.613 775.064 144.037C775 143.701 774.968 143.277 774.968 142.765L774.944 130.501L777.56 130.141V141.997C777.56 142.989 777.776 143.725 778.208 144.205C778.64 144.669 779.312 144.901 780.224 144.901C780.384 144.901 780.464 144.973 780.464 145.117L780.488 147.421ZM794.603 144.901C794.763 144.901 794.843 144.973 794.843 145.117V147.421C794.843 147.581 794.763 147.661 794.603 147.661C793.291 147.661 792.107 147.557 791.051 147.349C790.011 147.141 789.027 146.805 788.099 146.341C786.979 146.853 785.835 147.205 784.667 147.397C783.515 147.573 782.051 147.661 780.275 147.661C780.115 147.645 780.035 147.565 780.035 147.421V145.117C780.035 144.973 780.115 144.901 780.275 144.901C781.715 144.901 783.139 144.797 784.547 144.589C783.827 143.725 783.195 142.893 782.651 142.093C782.123 141.293 781.547 140.293 780.923 139.093L781.907 136.765C783.075 136.173 784.131 135.749 785.075 135.493C786.035 135.221 786.979 135.085 787.907 135.085C788.979 135.085 789.947 135.277 790.811 135.661C791.675 136.045 792.347 136.581 792.827 137.269C793.323 137.957 793.571 138.741 793.571 139.621C793.571 140.469 793.347 141.341 792.899 142.237C792.451 143.117 791.763 143.917 790.835 144.637C791.923 144.813 793.179 144.901 794.603 144.901ZM787.403 137.677C786.347 137.677 785.107 137.989 783.683 138.613C784.307 139.829 784.899 140.861 785.459 141.709C786.035 142.541 786.707 143.373 787.475 144.205C788.515 143.725 789.347 143.141 789.971 142.453C790.595 141.765 790.907 141.109 790.907 140.485C790.907 139.653 790.587 138.981 789.947 138.469C789.323 137.941 788.475 137.677 787.403 137.677ZM785.291 131.293L787.403 129.205L789.563 131.293L787.451 133.405L785.291 131.293ZM794.666 147.661C794.506 147.661 794.426 147.581 794.426 147.421L794.45 145.117C794.45 144.973 794.53 144.901 794.69 144.901H796.586C798.362 144.901 799.25 143.965 799.25 142.093V136.021L801.842 135.661V142.909C801.842 144.445 801.394 145.621 800.498 146.437C799.618 147.253 798.306 147.661 796.562 147.661H794.666ZM802.37 134.053L800.378 132.109L798.434 134.053L796.298 131.941L798.41 129.853L800.378 131.773L802.346 129.853L804.482 131.941L802.37 134.053Z" fill="#6B6E80"/>
<line x1="886.52" y1="37" x2="886.52" y2="173.302" stroke="#EDEDED" stroke-width="2.43396"/>
<rect x="991.549" y="47.7549" width="58.4151" height="58.4151" rx="29.2075" fill="#FEF056"/>
<path d="M1044.49 72.0942H1035.36V86.698H1002.5V93.9999H1048.14C1048.62 93.9999 1049.09 93.8076 1049.43 93.4652C1049.77 93.1229 1049.96 92.6586 1049.96 92.1744V81.2216L1044.49 72.0942Z" fill="#3CC8B4"/>
<path d="M998.85 86.6982H1002.5V94.0001H998.85V86.6982Z" fill="#1EAA96"/>
<path d="M1044.49 72.0943H1035.36V68.4434H1044.49C1044.97 68.4434 1045.44 68.6357 1045.78 68.978C1046.12 69.3204 1046.31 69.7847 1046.31 70.2688C1046.31 70.753 1046.12 71.2173 1045.78 71.5596C1045.44 71.902 1044.97 72.0943 1044.49 72.0943Z" fill="#505050"/>
<path d="M1049.96 81.2216H1039.01V72.0942H1044.49L1049.96 81.2216Z" fill="#F0F0F0"/>
<path d="M1045.4 88.5235H1049.96V84.8726H1045.4C1045.16 84.8726 1044.92 84.9687 1044.75 85.1399C1044.58 85.3111 1044.49 85.5432 1044.49 85.7853V87.6108C1044.49 87.8528 1044.58 88.085 1044.75 88.2562C1044.92 88.4273 1045.16 88.5235 1045.4 88.5235Z" fill="#FAB400"/>
<path d="M1041.75 97.6507C1041.15 97.6507 1040.55 97.5326 1040 97.3031C1039.45 97.0737 1038.94 96.7375 1038.52 96.3136C1038.1 95.8897 1037.76 95.3866 1037.53 94.8328C1037.3 94.279 1037.18 93.6855 1037.18 93.0861C1037.18 92.4868 1037.3 91.8933 1037.53 91.3396C1037.76 90.7858 1038.1 90.2827 1038.52 89.8589C1038.94 89.4352 1039.45 89.099 1040 88.8697C1040.56 88.6404 1041.15 88.5224 1041.75 88.5225C1042.96 88.5226 1044.12 89.0036 1044.98 89.8596C1045.83 90.7156 1046.31 91.8766 1046.31 93.0871C1046.31 94.2975 1045.83 95.4584 1044.98 96.3142C1044.12 97.1701 1042.96 97.6509 1041.75 97.6507ZM1007.06 97.6507C1006.46 97.6507 1005.87 97.5326 1005.32 97.3031C1004.76 97.0737 1004.26 96.7375 1003.84 96.3136C1003.41 95.8897 1003.08 95.3866 1002.85 94.8328C1002.62 94.279 1002.5 93.6855 1002.5 93.0861C1002.5 92.4868 1002.62 91.8933 1002.85 91.3396C1003.08 90.7858 1003.41 90.2827 1003.84 89.8589C1004.26 89.4352 1004.76 89.099 1005.32 88.8697C1005.87 88.6404 1006.47 88.5224 1007.06 88.5225C1008.28 88.5226 1009.44 89.0036 1010.29 89.8596C1011.15 90.7156 1011.63 91.8766 1011.63 93.0871C1011.63 94.2975 1011.15 95.4584 1010.29 96.3142C1009.44 97.1701 1008.27 97.6509 1007.06 97.6507Z" fill="#505050"/>
<path d="M1041.75 94.9122C1041.51 94.9177 1041.27 94.8746 1041.04 94.7853C1040.81 94.6961 1040.61 94.5626 1040.43 94.3927C1040.26 94.2227 1040.12 94.0197 1040.03 93.7956C1039.93 93.5715 1039.88 93.3308 1039.88 93.0876C1039.88 92.8445 1039.93 92.6038 1040.03 92.3796C1040.12 92.1555 1040.26 91.9524 1040.43 91.7824C1040.61 91.6123 1040.81 91.4787 1041.04 91.3894C1041.26 91.3 1041.51 91.2568 1041.75 91.2622C1042.23 91.2727 1042.68 91.4696 1043.01 91.8106C1043.35 92.1516 1043.53 92.6097 1043.53 93.0867C1043.53 93.5638 1043.35 94.022 1043.01 94.3632C1042.68 94.7043 1042.23 94.9014 1041.75 94.9122ZM1007.07 94.9122C1006.82 94.9177 1006.58 94.8746 1006.35 94.7853C1006.13 94.6961 1005.92 94.5626 1005.75 94.3927C1005.57 94.2227 1005.44 94.0197 1005.34 93.7956C1005.25 93.5715 1005.2 93.3308 1005.2 93.0876C1005.2 92.8445 1005.25 92.6038 1005.34 92.3796C1005.44 92.1555 1005.57 91.9524 1005.75 91.7824C1005.92 91.6123 1006.13 91.4787 1006.35 91.3894C1006.58 91.3 1006.82 91.2568 1007.07 91.2622C1007.54 91.2727 1008 91.4696 1008.33 91.8106C1008.66 92.1516 1008.85 92.6097 1008.85 93.0867C1008.85 93.5638 1008.66 94.022 1008.33 94.3632C1008 94.7043 1007.54 94.9014 1007.07 94.9122Z" fill="#F0F0F0"/>
<path d="M1039.01 72.0942H1040.84V81.2216H1039.01V72.0942Z" fill="#D2D2D2"/>
<path d="M1025.01 59.6204V57.4907H999.458C998.893 57.4907 998.351 57.7151 997.952 58.1145C997.553 58.5139 997.328 59.0556 997.328 59.6204V74.5285H1029.27V63.8799C1026.92 63.8799 1025.01 61.9695 1025.01 59.6204Z" fill="#FA6450"/>
<path d="M1003.72 57.4907H999.458C998.893 57.4907 998.351 57.7151 997.952 58.1145C997.553 58.5139 997.328 59.0556 997.328 59.6204V74.5285H1001.59V59.6204C1001.59 59.0556 1001.81 58.5139 1002.21 58.1145C1002.61 57.7151 1003.15 57.4907 1003.72 57.4907Z" fill="#DC4632"/>
<path d="M1006.92 63.8797C1006.63 63.8797 1006.36 63.7675 1006.16 63.5678C1005.96 63.3681 1005.85 63.0973 1005.85 62.8149C1005.85 62.5324 1005.96 62.2616 1006.16 62.0619C1006.36 61.8622 1006.63 61.75 1006.92 61.75C1007.2 61.75 1007.47 61.8622 1007.67 62.0619C1007.87 62.2616 1007.98 62.5324 1007.98 62.8149C1007.98 63.0973 1007.87 63.3681 1007.67 63.5678C1007.47 63.7675 1007.2 63.8797 1006.92 63.8797ZM1019.69 63.8797C1019.41 63.8797 1019.14 63.7675 1018.94 63.5678C1018.74 63.3681 1018.63 63.0973 1018.63 62.8149C1018.63 62.5324 1018.74 62.2616 1018.94 62.0619C1019.14 61.8622 1019.41 61.75 1019.69 61.75C1019.98 61.75 1020.25 61.8622 1020.45 62.0619C1020.65 62.2616 1020.76 62.5324 1020.76 62.8149C1020.76 63.0973 1020.65 63.3681 1020.45 63.5678C1020.25 63.7675 1019.98 63.8797 1019.69 63.8797Z" fill="#BE2814"/>
<path d="M999.459 70.269H1027.15V72.3988H999.459V70.269Z" fill="#FAB400"/>
<path d="M1030.34 63.8799C1029.49 63.8799 1028.68 64.2165 1028.08 64.8156C1027.48 65.4147 1027.14 66.2272 1027.14 67.0745V72.3987H999.458V67.0745C999.458 66.6549 999.375 66.2395 999.214 65.8519C999.054 65.4644 998.818 65.1122 998.522 64.8156C998.225 64.5189 997.873 64.2836 997.485 64.1231C997.098 63.9625 996.682 63.8799 996.263 63.8799C995.843 63.8799 995.428 63.9625 995.04 64.1231C994.653 64.2836 994.301 64.5189 994.004 64.8156C993.707 65.1122 993.472 65.4644 993.312 65.8519C993.151 66.2395 993.068 66.6549 993.068 67.0745C993.07 67.7332 993.275 68.3753 993.656 68.9124C994.038 69.4495 994.576 69.855 995.198 70.0731V78.7879C995.198 79.3527 995.422 79.8944 995.822 80.2938C996.221 80.6932 996.763 80.9176 997.328 80.9176H1029.27C1029.84 80.9176 1030.38 80.6932 1030.78 80.2938C1031.18 79.8944 1031.4 79.3527 1031.4 78.7879V70.0731C1032.02 69.855 1032.56 69.4495 1032.94 68.9124C1033.33 68.3753 1033.53 67.7332 1033.53 67.0745C1033.53 66.2272 1033.2 65.4147 1032.6 64.8156C1032 64.2165 1031.19 63.8799 1030.34 63.8799Z" fill="#BE2814"/>
<path d="M999.459 80.9175H1003.72V83.0472H999.459V80.9175ZM1022.89 80.9175H1027.15V83.0472H1022.89V80.9175Z" fill="#505050"/>
<path d="M998.85 83.0474H1035.36V86.6983H998.85V83.0474Z" fill="#FAB400"/>
<path d="M998.85 83.0474H1002.5V86.6983H998.85V83.0474Z" fill="#DC9600"/>
<path d="M988.234 135.661V142.909C988.234 144.445 987.794 145.621 986.914 146.437C986.034 147.237 984.722 147.645 982.978 147.661H976.618C974.682 147.661 973.21 147.221 972.202 146.341C971.21 145.445 970.714 144.125 970.714 142.381C970.714 141.213 970.882 139.869 971.218 138.349L973.474 138.637C973.25 139.981 973.138 140.973 973.138 141.613C973.138 142.749 973.474 143.581 974.146 144.109C974.834 144.637 975.866 144.901 977.242 144.901H982.954C984.746 144.901 985.642 143.965 985.642 142.093L985.618 136.021L988.234 135.661ZM979.258 133.069L977.794 131.605L979.234 130.141L980.722 131.605L979.258 133.069ZM981.226 136.813L979.234 134.869L977.29 136.813L975.154 134.701L977.266 132.613L979.234 134.533L981.202 132.613L983.338 134.701L981.226 136.813ZM996.95 147.661C993.43 147.661 991.67 146.029 991.67 142.765L991.646 130.501L994.262 130.141V141.997C994.262 142.989 994.478 143.725 994.91 144.205C995.342 144.669 996.014 144.901 996.926 144.901C997.086 144.901 997.166 144.973 997.166 145.117L997.19 147.421C997.19 147.581 997.11 147.661 996.95 147.661ZM996.943 147.661C996.783 147.661 996.703 147.581 996.703 147.421L996.727 145.117C996.727 144.973 996.807 144.901 996.967 144.901H998.863C1000.64 144.901 1001.53 143.965 1001.53 142.093V136.021L1004.12 135.661V142.909C1004.12 144.445 1003.67 145.621 1002.78 146.437C1001.9 147.253 1000.58 147.661 998.839 147.661H996.943ZM1002.73 130.333L1001.26 128.869L1002.7 127.405L1004.19 128.869L1002.73 130.333ZM1004.7 134.077L1002.7 132.133L1000.76 134.077L998.623 131.965L1000.74 129.877L1002.7 131.797L1004.67 129.877L1006.81 131.965L1004.7 134.077ZM1020.14 130.141V142.765C1020.14 146.029 1018.38 147.661 1014.84 147.661H1007.04L1006.58 144.901H1011.74L1009.54 133.933L1012.1 133.285L1014.17 144.901H1014.84H1014.86C1015.78 144.901 1016.45 144.669 1016.88 144.205C1017.31 143.725 1017.53 142.989 1017.53 141.997L1017.55 130.501L1020.14 130.141ZM1013.4 130.237L1013.04 131.917H1007.52V130.237H1008.72C1008.5 129.853 1008.38 129.413 1008.38 128.917C1008.38 128.309 1008.59 127.805 1009.01 127.405C1009.44 127.005 1009.98 126.805 1010.62 126.805C1011.19 126.805 1011.85 126.957 1012.58 127.261V128.653C1011.96 128.413 1011.45 128.293 1011.05 128.293C1010.73 128.293 1010.46 128.381 1010.26 128.557C1010.05 128.733 1009.94 128.957 1009.94 129.229C1009.94 129.613 1010.06 129.949 1010.3 130.237H1013.4ZM1024.04 130.501L1026.65 130.141V147.661H1024.04V130.501ZM1051.59 144.901C1051.75 144.901 1051.83 144.973 1051.83 145.117V147.421C1051.83 147.581 1051.75 147.661 1051.59 147.661C1050.32 147.661 1049.36 147.229 1048.68 146.365C1048.52 148.397 1047.86 149.981 1046.69 151.117C1045.52 152.253 1043.86 152.821 1041.7 152.821C1039.56 152.821 1037.89 152.293 1036.71 151.237C1035.52 150.181 1034.93 148.613 1034.93 146.533C1034.93 144.869 1035.28 142.965 1035.99 140.821L1038.1 141.397C1037.57 143.013 1037.31 144.485 1037.31 145.813C1037.32 147.221 1037.72 148.277 1038.48 148.981C1039.25 149.701 1040.35 150.061 1041.77 150.061C1043.24 150.061 1044.34 149.653 1045.06 148.837C1045.78 148.021 1046.14 146.757 1046.14 145.045V136.021V130.381L1048.76 130.021V142.453C1048.76 143.221 1049.04 143.821 1049.6 144.253C1050.16 144.685 1050.82 144.901 1051.59 144.901ZM1065.11 144.901C1065.27 144.901 1065.35 144.973 1065.35 145.117V147.421C1065.35 147.581 1065.27 147.661 1065.11 147.661C1062.82 147.661 1060.63 147.341 1058.54 146.701C1056.63 147.341 1054.32 147.661 1051.6 147.661C1051.44 147.645 1051.36 147.565 1051.36 147.421V145.117C1051.36 144.973 1051.44 144.901 1051.6 144.901C1052.9 144.901 1053.94 144.861 1054.74 144.781C1054.18 144.269 1053.75 143.693 1053.45 143.053C1053.14 142.397 1052.99 141.685 1052.99 140.917C1052.99 139.957 1053.22 139.085 1053.69 138.301C1054.17 137.517 1054.82 136.901 1055.63 136.453C1056.46 136.005 1057.39 135.781 1058.42 135.781C1059.46 135.781 1060.38 136.013 1061.2 136.477C1062.03 136.941 1062.67 137.565 1063.12 138.349C1063.58 139.117 1063.82 139.965 1063.82 140.893C1063.82 142.365 1063.23 143.645 1062.06 144.733C1062.9 144.845 1063.91 144.901 1065.11 144.901ZM1058.34 138.325C1057.51 138.325 1056.83 138.597 1056.3 139.141C1055.78 139.669 1055.51 140.357 1055.51 141.205C1055.51 141.941 1055.77 142.613 1056.28 143.221C1056.81 143.829 1057.5 144.269 1058.37 144.541C1059.25 144.221 1059.95 143.757 1060.48 143.149C1061.02 142.541 1061.3 141.893 1061.3 141.205C1061.3 140.373 1061.01 139.685 1060.43 139.141C1059.87 138.597 1059.18 138.325 1058.34 138.325ZM1060.24 134.029L1058.25 132.085L1056.3 134.029L1054.17 131.917L1056.28 129.829L1058.25 131.749L1060.22 129.829L1062.35 131.917L1060.24 134.029ZM1065.12 147.661C1064.96 147.661 1064.88 147.581 1064.88 147.421L1064.91 145.117C1064.91 144.973 1064.99 144.901 1065.15 144.901C1066.94 144.901 1067.84 143.965 1067.84 142.093L1067.81 136.021L1070.43 135.661V142.909C1070.43 144.445 1069.98 145.621 1069.08 146.437C1068.2 147.253 1066.88 147.661 1065.12 147.661ZM1066.9 131.749L1069.01 129.661L1071.17 131.749L1069.06 133.861L1066.9 131.749Z" fill="#6B6E80"/>
<defs>
<clipPath id="clip0_2016_58697">
<rect width="58.4151" height="58.4151" fill="white" transform="translate(429.887 41.9526)"/>
</clipPath>
</defs>
</svg>
