<svg width="72" height="40" viewBox="0 0 72 40" fill="none" xmlns="http://www.w3.org/2000/svg">
<rect x="0.5" y="0.5" width="71" height="39" rx="13.5" stroke="white"/>
<path d="M23 31.25C17.07 31.25 12.25 26.43 12.25 20.5C12.25 14.57 17.07 9.75 23 9.75C28.93 9.75 33.75 14.57 33.75 20.5C33.75 26.43 28.93 31.25 23 31.25ZM23 11.25C17.9 11.25 13.75 15.4 13.75 20.5C13.75 25.6 17.9 29.75 23 29.75C28.1 29.75 32.25 25.6 32.25 20.5C32.25 15.4 28.1 11.25 23 11.25Z" fill="white"/>
<path d="M19.9983 30.25H18.9983C18.5883 30.25 18.2483 29.91 18.2483 29.5C18.2483 29.09 18.5683 28.76 18.9783 28.75C17.4083 23.39 17.4083 17.61 18.9783 12.25C18.5683 12.24 18.2483 11.91 18.2483 11.5C18.2483 11.09 18.5883 10.75 18.9983 10.75H19.9983C20.2383 10.75 20.4683 10.87 20.6083 11.06C20.7483 11.26 20.7883 11.51 20.7083 11.74C18.8283 17.39 18.8283 23.61 20.7083 29.27C20.7883 29.5 20.7483 29.75 20.6083 29.95C20.4683 30.13 20.2383 30.25 19.9983 30.25Z" fill="white"/>
<path d="M25.9984 30.2507C25.9184 30.2507 25.8384 30.2407 25.7584 30.2107C25.3684 30.0807 25.1484 29.6507 25.2884 29.2607C27.1684 23.6107 27.1684 17.3907 25.2884 11.7307C25.1584 11.3407 25.3684 10.9107 25.7584 10.7807C26.1584 10.6507 26.5784 10.8607 26.7084 11.2507C28.6984 17.2107 28.6984 23.7707 26.7084 29.7207C26.6084 30.0507 26.3084 30.2507 25.9984 30.2507Z" fill="white"/>
<path d="M23 25.7008C20.21 25.7008 17.43 25.3108 14.75 24.5208C14.74 24.9208 14.41 25.2508 14 25.2508C13.59 25.2508 13.25 24.9108 13.25 24.5008V23.5008C13.25 23.2608 13.37 23.0308 13.56 22.8908C13.76 22.7508 14.01 22.7108 14.24 22.7908C19.89 24.6708 26.12 24.6708 31.77 22.7908C32 22.7108 32.25 22.7508 32.45 22.8908C32.65 23.0308 32.76 23.2608 32.76 23.5008V24.5008C32.76 24.9108 32.42 25.2508 32.01 25.2508C31.6 25.2508 31.27 24.9308 31.26 24.5208C28.57 25.3108 25.79 25.7008 23 25.7008Z" fill="white"/>
<path d="M31.9998 18.2494C31.9198 18.2494 31.8398 18.2394 31.7598 18.2094C26.1098 16.3294 19.8798 16.3294 14.2298 18.2094C13.8298 18.3394 13.4098 18.1294 13.2798 17.7394C13.1598 17.3394 13.3698 16.9194 13.7598 16.7894C19.7198 14.7994 26.2798 14.7994 32.2298 16.7894C32.6198 16.9194 32.8398 17.3494 32.6998 17.7394C32.6098 18.0494 32.3098 18.2494 31.9998 18.2494Z" fill="white"/>
<path d="M43.208 31.516C42.5827 31.516 41.9713 31.4413 41.374 31.292C40.786 31.1427 40.254 30.9047 39.778 30.578C39.302 30.2607 38.924 29.85 38.644 29.346C38.364 28.842 38.224 28.2353 38.224 27.526C38.224 26.7607 38.378 26.0607 38.686 25.426C38.994 24.782 39.428 24.2127 39.988 23.718C40.548 23.2233 41.2107 22.8127 41.976 22.486C42.7507 22.15 43.5953 21.912 44.51 21.772L44.972 23.62C44.1507 23.7693 43.4367 23.9653 42.83 24.208C42.2327 24.4507 41.738 24.7353 41.346 25.062C40.954 25.3887 40.66 25.7387 40.464 26.112C40.2773 26.4947 40.184 26.896 40.184 27.316C40.184 27.652 40.2447 27.946 40.366 28.198C40.4967 28.45 40.6693 28.66 40.884 28.828C41.0987 29.0053 41.3367 29.1453 41.598 29.248C41.8593 29.36 42.13 29.4393 42.41 29.486C42.69 29.5327 42.956 29.556 43.208 29.556C43.852 29.556 44.4493 29.4953 45 29.374C45.56 29.2527 46.05 29.1033 46.47 28.926L47.03 30.732C46.806 30.844 46.4887 30.9607 46.078 31.082C45.6767 31.2033 45.224 31.306 44.72 31.39C44.2253 31.474 43.7213 31.516 43.208 31.516ZM40.422 23.76C40.0953 23.6293 39.792 23.4427 39.512 23.2C39.2413 22.9573 39.022 22.6587 38.854 22.304C38.6953 21.94 38.616 21.5247 38.616 21.058C38.616 20.47 38.77 19.9613 39.078 19.532C39.386 19.1027 39.7967 18.7713 40.31 18.538C40.8233 18.3047 41.3833 18.188 41.99 18.188C42.2887 18.188 42.564 18.2067 42.816 18.244C43.0773 18.2813 43.3433 18.3373 43.614 18.412L43.306 20.274C43.11 20.2273 42.9093 20.19 42.704 20.162C42.4987 20.134 42.3167 20.12 42.158 20.12C41.8313 20.12 41.5467 20.1667 41.304 20.26C41.0707 20.3533 40.8887 20.4887 40.758 20.666C40.6367 20.834 40.576 21.0347 40.576 21.268C40.576 21.4547 40.632 21.632 40.744 21.8C40.8653 21.968 41.0193 22.1173 41.206 22.248C41.3927 22.3693 41.598 22.472 41.822 22.556C42.046 22.6307 42.2653 22.6727 42.48 22.682L40.422 23.76Z" fill="white"/>
<path d="M59.8076 18.6838L55.4613 23.2965C55.4007 23.361 55.3287 23.4122 55.2495 23.4471C55.1702 23.482 55.0853 23.5 54.9995 23.5C54.9136 23.5 54.8287 23.482 54.7494 23.4471C54.6702 23.4122 54.5982 23.361 54.5377 23.2965L50.1913 18.6838C50.0688 18.5538 50 18.3775 50 18.1937C50 18.0099 50.0688 17.8336 50.1913 17.7036C50.3138 17.5736 50.4799 17.5006 50.6531 17.5006C50.8263 17.5006 50.9924 17.5736 51.1149 17.7036L55 21.8268L58.8851 17.703C59.0076 17.573 59.1737 17.5 59.3469 17.5C59.5201 17.5 59.6862 17.573 59.8087 17.703C59.9312 17.833 60 18.0093 60 18.1931C60 18.3769 59.9312 18.5532 59.8087 18.6832L59.8076 18.6838Z" fill="white"/>
</svg>
