<svg width="163" height="50" viewBox="0 0 163 50" fill="none" xmlns="http://www.w3.org/2000/svg">
<path d="M23.9717 19.5369L20.2424 42H16.1403L8.73666 27.8618H8.56116L6.20297 42H1.45369L5.18292 19.5369H9.35088L16.7216 33.6641H16.9081L19.2443 19.5369H23.9717ZM28.8388 42.3181C27.7713 42.3181 26.8463 42.1316 26.0639 41.7587C25.2888 41.3785 24.7184 40.8154 24.3528 40.0696C23.9872 39.3237 23.8958 38.3987 24.0786 37.2946C24.2395 36.3586 24.5429 35.5762 24.989 34.9474C25.4423 34.3112 25.9944 33.7994 26.6452 33.4118C27.296 33.0243 28.0162 32.7281 28.8059 32.5234C29.603 32.3186 30.4256 32.1797 31.2738 32.1066C32.2537 32.0042 33.0507 31.9055 33.6649 31.8104C34.2864 31.7154 34.7508 31.5801 35.0579 31.4046C35.365 31.2218 35.5515 30.9512 35.6173 30.5929V30.5271C35.727 29.8398 35.599 29.306 35.2334 28.9258C34.8751 28.5382 34.3011 28.3444 33.5114 28.3444C32.6778 28.3444 31.9685 28.5272 31.3835 28.8929C30.8058 29.2585 30.3927 29.7228 30.1441 30.2858L25.8884 29.9348C26.2686 28.9111 26.8426 28.0264 27.6104 27.2805C28.3855 26.5274 29.3178 25.9497 30.4073 25.5475C31.4968 25.138 32.718 24.9333 34.0707 24.9333C35.0067 24.9333 35.8805 25.043 36.6922 25.2623C37.5111 25.4817 38.2168 25.8217 38.8091 26.2824C39.4087 26.7431 39.8401 27.3354 40.1033 28.0593C40.3739 28.7759 40.4287 29.635 40.2678 30.6368L38.3703 42H33.9391L34.334 39.6637H34.2024C33.8441 40.1902 33.4053 40.6546 32.8862 41.0567C32.367 41.4516 31.771 41.7624 31.0983 41.989C30.4256 42.2084 29.6724 42.3181 28.8388 42.3181ZM30.7144 39.0934C31.3945 39.0934 32.0197 38.9581 32.59 38.6876C33.1677 38.4097 33.643 38.0368 34.0159 37.5688C34.3961 37.1008 34.6374 36.5707 34.7398 35.9784L35.025 34.1906C34.8787 34.2856 34.6667 34.3697 34.3888 34.4428C34.1183 34.5159 33.8221 34.5854 33.5004 34.6512C33.186 34.7097 32.8679 34.7646 32.5461 34.8157C32.2244 34.8596 31.9356 34.9035 31.6796 34.9474C31.1166 35.0278 30.6121 35.1558 30.166 35.3313C29.72 35.5068 29.358 35.7444 29.0801 36.0442C28.8023 36.3367 28.6304 36.7023 28.5646 37.141C28.4623 37.7772 28.6122 38.2635 29.0143 38.5998C29.4238 38.9289 29.9905 39.0934 30.7144 39.0934ZM52.0862 48.3178L53.5669 39.3018H53.4243C53.1392 39.7698 52.7589 40.2341 52.2836 40.6948C51.8083 41.1481 51.227 41.5247 50.5397 41.8245C49.8596 42.1243 49.0663 42.2742 48.1595 42.2742C46.8799 42.2742 45.7794 41.9452 44.8581 41.2871C43.9367 40.6216 43.2786 39.6455 42.8838 38.3585C42.4962 37.0643 42.456 35.4775 42.7631 33.5983C43.0849 31.6678 43.6625 30.0628 44.4961 28.7832C45.3297 27.4962 46.3169 26.5347 47.4576 25.8985C48.5983 25.255 49.7829 24.9333 51.0113 24.9333C51.9546 24.9333 52.7151 25.0942 53.2927 25.4159C53.8777 25.7303 54.3274 26.1252 54.6418 26.6005C54.9562 27.0685 55.1756 27.5291 55.2999 27.9825H55.4974L55.9909 25.1527H60.5976L56.7587 48.3178H52.0862ZM50.2545 38.5559C51.0077 38.5559 51.6804 38.3512 52.2727 37.9417C52.8723 37.5249 53.3695 36.9436 53.7644 36.1978C54.1665 35.4519 54.4517 34.5781 54.6199 33.5763C54.7881 32.5746 54.7917 31.7044 54.6309 30.9659C54.4773 30.2273 54.1702 29.657 53.7095 29.2548C53.2562 28.8526 52.6529 28.6516 51.8997 28.6516C51.1246 28.6516 50.441 28.86 49.8487 29.2767C49.2564 29.6935 48.7628 30.2712 48.3679 31.0097C47.9731 31.7483 47.6952 32.6038 47.5344 33.5763C47.3735 34.5562 47.3662 35.4227 47.5124 36.1758C47.666 36.9217 47.9694 37.5066 48.4228 37.9308C48.8835 38.3475 49.494 38.5559 50.2545 38.5559ZM69.9426 19.5369L66.2134 42H61.5409L65.2701 19.5369H69.9426ZM74.7166 42.3181C73.649 42.3181 72.724 42.1316 71.9416 41.7587C71.1665 41.3785 70.5962 40.8154 70.2306 40.0696C69.8649 39.3237 69.7735 38.3987 69.9563 37.2946C70.1172 36.3586 70.4207 35.5762 70.8667 34.9474C71.3201 34.3112 71.8721 33.7994 72.5229 33.4118C73.1737 33.0243 73.894 32.7281 74.6837 32.5234C75.4807 32.3186 76.3033 32.1797 77.1516 32.1066C78.1314 32.0042 78.9284 31.9055 79.5427 31.8104C80.1642 31.7154 80.6285 31.5801 80.9356 31.4046C81.2427 31.2218 81.4292 30.9512 81.495 30.5929V30.5271C81.6047 29.8398 81.4767 29.306 81.1111 28.9258C80.7528 28.5382 80.1788 28.3444 79.3891 28.3444C78.5555 28.3444 77.8462 28.5272 77.2612 28.8929C76.6836 29.2585 76.2704 29.7228 76.0218 30.2858L71.7661 29.9348C72.1464 28.9111 72.7204 28.0264 73.4881 27.2805C74.2632 26.5274 75.1955 25.9497 76.2851 25.5475C77.3746 25.138 78.5957 24.9333 79.9485 24.9333C80.8844 24.9333 81.7583 25.043 82.5699 25.2623C83.3889 25.4817 84.0945 25.8217 84.6868 26.2824C85.2864 26.7431 85.7178 27.3354 85.9811 28.0593C86.2516 28.7759 86.3065 29.635 86.1456 30.6368L84.2481 42H79.8169L80.2117 39.6637H80.0801C79.7218 40.1902 79.2831 40.6546 78.7639 41.0567C78.2447 41.4516 77.6488 41.7624 76.9761 41.989C76.3033 42.2084 75.5502 42.3181 74.7166 42.3181ZM76.5922 39.0934C77.2722 39.0934 77.8974 38.9581 78.4678 38.6876C79.0454 38.4097 79.5207 38.0368 79.8936 37.5688C80.2739 37.1008 80.5152 36.5707 80.6176 35.9784L80.9027 34.1906C80.7565 34.2856 80.5444 34.3697 80.2666 34.4428C79.996 34.5159 79.6999 34.5854 79.3781 34.6512C79.0637 34.7097 78.7456 34.7646 78.4239 34.8157C78.1022 34.8596 77.8133 34.9035 77.5574 34.9474C76.9944 35.0278 76.4898 35.1558 76.0438 35.3313C75.5977 35.5068 75.2358 35.7444 74.9579 36.0442C74.68 36.3367 74.5082 36.7023 74.4424 37.141C74.34 37.7772 74.4899 38.2635 74.8921 38.5998C75.3016 38.9289 75.8683 39.0934 76.5922 39.0934ZM94.1909 32.2601L92.5675 42H87.906L91.6352 19.5369H96.1652L94.7612 28.1251H94.9477C95.4888 27.1306 96.231 26.3519 97.1742 25.7888C98.1175 25.2185 99.2326 24.9333 100.52 24.9333C101.69 24.9333 102.666 25.1892 103.448 25.7011C104.238 26.2056 104.797 26.9332 105.126 27.8838C105.455 28.827 105.51 29.9568 105.291 31.273L103.492 42H98.8305L100.476 32.1066C100.644 31.0682 100.509 30.2602 100.07 29.6826C99.6385 29.1049 98.9511 28.8161 98.0078 28.8161C97.3717 28.8161 96.7867 28.9514 96.2529 29.2219C95.7191 29.4925 95.2694 29.8873 94.9038 30.4065C94.5455 30.9183 94.3078 31.5362 94.1909 32.2601Z" fill="#FD6D17"/>
<g clip-path="url(#clip0_2035_30134)">
<path d="M127.202 38.8659H123.111C122.546 38.8659 122.088 38.4077 122.088 37.8431C122.088 37.2785 122.546 36.8203 123.111 36.8203H127.202C127.766 36.8203 128.225 37.2785 128.225 37.8431C128.225 38.4077 127.766 38.8659 127.202 38.8659Z" fill="#FD6D17"/>
<path d="M160.444 38.8664H157.887C157.323 38.8664 156.865 38.4082 156.865 37.8436C156.865 37.279 157.323 36.8208 157.887 36.8208H159.595L160.974 29.473C160.956 25.7132 157.744 22.5017 153.796 22.5017H147.08L143.826 36.8208H149.705C150.27 36.8208 150.728 37.279 150.728 37.8436C150.728 38.4082 150.27 38.8664 149.705 38.8664H142.545C142.234 38.8664 141.94 38.7253 141.746 38.4819C141.551 38.2405 141.478 37.9214 141.547 37.6186L145.266 21.2538C145.372 20.7854 145.786 20.4561 146.264 20.4561H153.796C158.871 20.4561 163.001 24.5861 163.001 29.6612L161.449 38.0318C161.359 38.5166 160.937 38.8664 160.444 38.8664Z" fill="#FD6D17"/>
<path d="M153.796 42.9575C150.977 42.9575 148.682 40.6644 148.682 37.8435C148.682 35.0226 150.977 32.7295 153.796 32.7295C156.614 32.7295 158.91 35.0226 158.91 37.8435C158.91 40.6644 156.614 42.9575 153.796 42.9575ZM153.796 34.7751C152.104 34.7751 150.727 36.1518 150.727 37.8435C150.727 39.5352 152.104 40.9119 153.796 40.9119C155.487 40.9119 156.864 39.5352 156.864 37.8435C156.864 36.1518 155.487 34.7751 153.796 34.7751Z" fill="#FD6D17"/>
<path d="M131.293 42.9575C128.474 42.9575 126.179 40.6644 126.179 37.8435C126.179 35.0226 128.474 32.7295 131.293 32.7295C134.112 32.7295 136.407 35.0226 136.407 37.8435C136.407 40.6644 134.112 42.9575 131.293 42.9575ZM131.293 34.7751C129.601 34.7751 128.224 36.1518 128.224 37.8435C128.224 39.5352 129.601 40.9119 131.293 40.9119C132.984 40.9119 134.361 39.5352 134.361 37.8435C134.361 36.1518 132.984 34.7751 131.293 34.7751Z" fill="#FD6D17"/>
<path d="M127.202 20.4558H119.02C118.455 20.4558 117.997 19.9975 117.997 19.433C117.997 18.8684 118.455 18.4102 119.02 18.4102H127.202C127.767 18.4102 128.225 18.8684 128.225 19.433C128.225 19.9975 127.767 20.4558 127.202 20.4558Z" fill="#FD6D17"/>
<path d="M127.202 26.5925H116.974C116.409 26.5925 115.951 26.1343 115.951 25.5697C115.951 25.0051 116.409 24.5469 116.974 24.5469H127.202C127.767 24.5469 128.225 25.0051 128.225 25.5697C128.225 26.1343 127.767 26.5925 127.202 26.5925Z" fill="#FD6D17"/>
<path d="M127.202 32.7292H114.928C114.363 32.7292 113.905 32.271 113.905 31.7064C113.905 31.1418 114.363 30.6836 114.928 30.6836H127.202C127.766 30.6836 128.224 31.1418 128.224 31.7064C128.224 32.271 127.766 32.7292 127.202 32.7292Z" fill="#FD6D17"/>
<path d="M142.544 38.8665H135.384C134.82 38.8665 134.361 38.4083 134.361 37.8437C134.361 37.2791 134.82 36.8209 135.384 36.8209H141.728L146.375 16.3649H123.111C122.546 16.3649 122.088 15.9067 122.088 15.3421C122.088 14.7775 122.546 14.3193 123.111 14.3193H147.658C147.969 14.3193 148.263 14.4605 148.458 14.7039C148.652 14.9453 148.726 15.2644 148.656 15.5672L143.542 38.0687C143.436 38.5372 143.02 38.8665 142.544 38.8665Z" fill="#FD6D17"/>
</g>
<defs>
<clipPath id="clip0_2035_30134">
<rect width="49.0943" height="49.0943" fill="white" transform="translate(113.905)"/>
</clipPath>
</defs>
</svg>
