<svg width="44" height="44" viewBox="0 0 44 44" fill="none" xmlns="http://www.w3.org/2000/svg">
<circle cx="22" cy="22" r="22" fill="#FFF2EA"/>
<path d="M31.3394 27.0367C30.616 26.4264 30.0347 25.6653 29.6362 24.8068C29.2377 23.9482 29.0317 23.013 29.0324 22.0665V19.364C29.0294 17.7335 28.44 16.1584 27.3718 14.9266C26.3036 13.6947 24.8279 12.8881 23.2143 12.6542V11.6069C23.2143 11.3496 23.1121 11.1028 22.9301 10.9209C22.7482 10.7389 22.5014 10.6367 22.2441 10.6367C21.9868 10.6367 21.74 10.7389 21.5581 10.9209C21.3761 11.1028 21.2739 11.3496 21.2739 11.6069V12.6542C19.6603 12.8881 18.1846 13.6947 17.1164 14.9266C16.0482 16.1584 15.4588 17.7335 15.4557 19.364V22.068C15.4559 23.0163 15.2487 23.9532 14.8487 24.813C14.4487 25.6728 13.8656 26.4347 13.1401 27.0454C12.876 27.2708 12.6874 27.5717 12.5998 27.9076C12.5122 28.2435 12.5298 28.5981 12.6502 28.9237C12.7705 29.2493 12.9879 29.5301 13.2729 29.7283C13.558 29.9264 13.897 30.0323 14.2441 30.0316H30.2441C30.5917 30.031 30.9308 29.9237 31.2156 29.7242C31.5003 29.5248 31.717 29.2427 31.8364 28.9162C31.9558 28.5897 31.9722 28.2344 31.8833 27.8983C31.7944 27.5622 31.6046 27.2615 31.3394 27.0367Z" fill="#FD6D17"/>
<path d="M22.2443 33.9091C23.9999 33.9091 25.469 32.6582 25.8065 31H18.6807C19.0196 32.6582 20.4887 33.9091 22.2443 33.9091Z" fill="#FD6D17"/>
</svg>
