<svg width="136" height="111" viewBox="0 0 136 111" fill="none" xmlns="http://www.w3.org/2000/svg">
<circle cx="68" cy="62" r="41" fill="#FFF4ED"/>
<circle cx="68" cy="62" r="30" fill="#FFE3D2"/>
<path opacity="0.99" d="M64.4769 69.505C64.2415 69.5053 64.0085 69.4579 63.7911 69.3658C63.5737 69.2736 63.3763 69.1383 63.2101 68.9678L58.1711 63.8116C57.8386 63.4671 57.6528 63.002 57.6543 62.5178C57.6558 62.0337 57.8444 61.5697 58.179 61.2274C58.5136 60.885 58.9669 60.692 59.4401 60.6904C59.9133 60.6889 60.3678 60.879 60.7045 61.2192L64.4768 65.0792L74.2961 55.0317C74.6328 54.6915 75.0873 54.5014 75.5605 54.5029C76.0337 54.5045 76.487 54.6975 76.8216 55.0399C77.1562 55.3822 77.3448 55.8462 77.3463 56.3303C77.3478 56.8145 77.162 57.2796 76.8295 57.6241L65.7436 68.9679C65.5774 69.1384 65.38 69.2736 65.1626 69.3658C64.9452 69.458 64.7122 69.5053 64.4769 69.505Z" fill="#FD6D17"/>
<path d="M67.5007 43.6665C63.9571 43.6665 60.4931 44.7417 57.5467 46.7562C54.6003 48.7707 52.3039 51.634 50.9478 54.984C49.5917 58.334 49.2369 62.0202 49.9283 65.5765C50.6196 69.1328 52.326 72.3995 54.8317 74.9635C57.3374 77.5274 60.5298 79.2735 64.0053 79.9809C67.4808 80.6883 71.0832 80.3252 74.3571 78.9376C77.6309 77.55 80.4291 75.2002 82.3978 72.1853C84.3665 69.1704 85.4173 65.6258 85.4173 61.9998C85.4119 57.1392 83.5225 52.4793 80.1637 49.0424C76.8048 45.6054 72.2508 43.6721 67.5007 43.6665ZM76.8299 57.6242L65.7439 68.9679C65.5776 69.1382 65.3801 69.2733 65.1628 69.3654C64.9454 69.4576 64.7124 69.505 64.4772 69.505C64.2419 69.505 64.0089 69.4576 63.7916 69.3654C63.5742 69.2733 63.3767 69.1382 63.2104 68.9679L58.1715 63.8117C57.839 63.4672 57.6532 63.0021 57.6547 62.5179C57.6561 62.0337 57.8448 61.5698 58.1793 61.2274C58.5139 60.8851 58.9673 60.692 59.4405 60.6905C59.9136 60.689 60.3682 60.879 60.7049 61.2192L64.4772 65.0793L74.2965 55.0317C74.6331 54.6915 75.0877 54.5015 75.5609 54.503C76.034 54.5045 76.4874 54.6976 76.822 55.0399C77.1566 55.3823 77.3452 55.8462 77.3466 56.3304C77.3481 56.8146 77.1623 57.2797 76.8299 57.6242Z" fill="#FD6D17"/>
<path d="M66.3678 66.3407C66.3678 65.8493 66.3489 65.4524 66.3111 65.1499C66.2733 64.8475 66.2072 64.6018 66.1127 64.4128C66.0182 64.2049 65.8764 64.0253 65.6874 63.8741C65.4984 63.704 65.2621 63.515 64.9786 63.3071C64.0903 62.6834 63.4004 62.1447 62.909 61.6911C62.4176 61.2186 62.049 60.7839 61.8033 60.3869C61.5576 59.99 61.4064 59.6025 61.3497 59.2245C61.3119 58.8465 61.293 58.4307 61.293 57.9771C61.293 57.1832 61.4631 56.4367 61.8033 55.7373C62.1435 55.0191 62.6255 54.3954 63.2492 53.8661C63.8918 53.3369 64.6668 52.9211 65.574 52.6187C66.5001 52.2974 67.5302 52.1367 68.6643 52.1367C69.6093 52.1367 70.4788 52.2407 71.2726 52.4486C72.0664 52.6376 72.7752 52.9495 73.399 53.3842L72.1231 56.5595C71.6317 56.0681 71.0552 55.709 70.3937 55.4822C69.7511 55.2554 69.099 55.142 68.4375 55.142C67.9461 55.142 67.483 55.1987 67.0483 55.3121C66.6325 55.4255 66.2544 55.605 65.9142 55.8507C65.5929 56.0964 65.3377 56.3989 65.1487 56.758C64.9597 57.1171 64.8652 57.5329 64.8652 58.0054C64.8652 58.2322 64.8936 58.4307 64.9503 58.6008C65.007 58.7709 65.1298 58.9694 65.3188 59.1962C65.5079 59.423 65.7914 59.6971 66.1694 60.0184C66.5474 60.3208 67.0483 60.7271 67.672 61.2375C68.1067 61.5777 68.4658 61.899 68.7493 62.2014C69.0518 62.5038 69.288 62.8346 69.4581 63.1937C69.6282 63.5528 69.7511 63.9875 69.8267 64.4979C69.9023 64.9893 69.9401 65.6036 69.9401 66.3407H66.3678ZM65.9709 69.8846C65.9709 69.2798 66.1788 68.7695 66.5947 68.3536C67.0294 67.9189 67.5491 67.7016 68.154 67.7016C68.7399 67.7016 69.2313 67.9189 69.6282 68.3536C70.0441 68.7695 70.252 69.2798 70.252 69.8846C70.252 70.4705 70.0441 70.962 69.6282 71.3589C69.2313 71.7747 68.7399 71.9826 68.154 71.9826C67.5491 71.9826 67.0294 71.7747 66.5947 71.3589C66.1788 70.962 65.9709 70.4705 65.9709 69.8846Z" fill="white"/>
<path d="M28.232 7.76796L31.7676 4.23242" stroke="#B5B5B5" stroke-width="1.5" stroke-linecap="round"/>
<path d="M28.232 4.23204L31.7676 7.76758" stroke="#B5B5B5" stroke-width="1.5" stroke-linecap="round"/>
<path d="M104.232 106.768L107.768 103.232" stroke="#B5B5B5" stroke-width="1.5" stroke-linecap="round"/>
<path d="M104.232 103.232L107.768 106.768" stroke="#B5B5B5" stroke-width="1.5" stroke-linecap="round"/>
<g clip-path="url(#clip0_2018_65174)">
<path d="M12.9994 103.667C12.3401 103.667 11.6956 103.862 11.1474 104.228C10.5993 104.595 10.172 105.115 9.91975 105.724C9.66746 106.333 9.60145 107.004 9.73007 107.65C9.85868 108.297 10.1762 108.891 10.6423 109.357C11.1085 109.823 11.7024 110.141 12.349 110.269C12.9957 110.398 13.6659 110.332 14.275 110.079C14.884 109.827 15.4046 109.4 15.7709 108.852C16.1372 108.304 16.3327 107.659 16.3327 107C16.3327 106.562 16.2465 106.129 16.0789 105.724C15.9114 105.32 15.6659 104.952 15.3564 104.643C15.0468 104.333 14.6794 104.088 14.275 103.92C13.8705 103.753 13.4371 103.667 12.9994 103.667ZM12.9994 109.667C12.4719 109.667 11.9564 109.51 11.5178 109.217C11.0793 108.924 10.7375 108.508 10.5357 108.02C10.3338 107.533 10.281 106.997 10.3839 106.48C10.4868 105.962 10.7408 105.487 11.1137 105.114C11.4867 104.741 11.9618 104.487 12.4791 104.384C12.9964 104.282 13.5326 104.334 14.0198 104.536C14.5071 104.738 14.9236 105.08 15.2166 105.518C15.5096 105.957 15.666 106.472 15.666 107C15.666 107.707 15.3851 108.385 14.885 108.885C14.3849 109.386 13.7066 109.667 12.9994 109.667Z" fill="#B5B5B5"/>
</g>
<g clip-path="url(#clip1_2018_65174)">
<path d="M131.999 55.6665C131.34 55.6665 130.696 55.862 130.147 56.2283C129.599 56.5945 129.172 57.1151 128.92 57.7242C128.667 58.3333 128.601 59.0035 128.73 59.6501C128.859 60.2967 129.176 60.8907 129.642 61.3569C130.109 61.823 130.702 62.1405 131.349 62.2691C131.996 62.3977 132.666 62.3317 133.275 62.0794C133.884 61.8271 134.405 61.3999 134.771 60.8517C135.137 60.3036 135.333 59.6591 135.333 58.9998C135.333 58.5621 135.246 58.1286 135.079 57.7242C134.911 57.3198 134.666 56.9523 134.356 56.6428C134.047 56.3333 133.679 56.0878 133.275 55.9202C132.871 55.7527 132.437 55.6665 131.999 55.6665ZM131.999 61.6665C131.472 61.6665 130.956 61.5101 130.518 61.2171C130.079 60.9241 129.738 60.5076 129.536 60.0203C129.334 59.5331 129.281 58.9969 129.384 58.4796C129.487 57.9623 129.741 57.4872 130.114 57.1142C130.487 56.7413 130.962 56.4873 131.479 56.3844C131.996 56.2815 132.533 56.3343 133.02 56.5362C133.507 56.738 133.924 57.0798 134.217 57.5183C134.51 57.9568 134.666 58.4724 134.666 58.9998C134.666 59.7071 134.385 60.3854 133.885 60.8855C133.385 61.3856 132.707 61.6665 131.999 61.6665Z" fill="#B5B5B5"/>
</g>
<circle cx="2.5" cy="48.5" r="2.5" fill="#FD6D17"/>
<circle cx="108.5" cy="16.5" r="2.5" fill="#FD6D17"/>
<defs>
<clipPath id="clip0_2018_65174">
<rect width="8" height="8" fill="white" transform="translate(9 103)"/>
</clipPath>
<clipPath id="clip1_2018_65174">
<rect width="8" height="8" fill="white" transform="translate(128 55)"/>
</clipPath>
</defs>
</svg>
