<svg width="13" height="15" viewBox="0 0 13 15" fill="none" xmlns="http://www.w3.org/2000/svg">
<g clip-path="url(#clip0_3292_39591)">
<path d="M7.96851 12.923C7.75437 13.4187 7.61282 13.9565 7.55859 14.5206L12.0902 13.5151C12.3043 13.0195 12.4457 12.4815 12.5001 11.9175L7.96851 12.923Z" fill="#353535"/>
<path d="M12.0901 10.5024C12.3042 10.0069 12.4458 9.46892 12.5 8.90486L8.97005 9.68855V8.18201L12.09 7.48992C12.3041 6.99439 12.4457 6.4564 12.4999 5.89234L8.96994 6.67536V1.2574C8.42905 1.57442 7.94868 1.9964 7.5582 2.49416V6.98871L6.14645 7.30194V0.520508C5.60556 0.837416 5.12519 1.25951 4.7347 1.75727V7.61506L1.57592 8.31573C1.36178 8.81126 1.22012 9.34925 1.16579 9.91331L4.7347 9.12159V11.0188L0.909913 11.8672C0.695776 12.3628 0.554228 12.9008 0.5 13.4648L4.50349 12.5767C4.82939 12.506 5.1095 12.3048 5.29161 12.028L6.02582 10.8918C6.10204 10.7742 6.14645 10.6323 6.14645 10.4796V8.80836L7.5582 8.49513V11.5082L12.0901 10.5024Z" fill="#353535"/>
</g>
<defs>
<clipPath id="clip0_3292_39591">
<rect width="12" height="14" fill="white" transform="translate(0.5 0.5)"/>
</clipPath>
</defs>
</svg>
