<svg width="32" height="32" viewBox="0 0 32 32" fill="none" xmlns="http://www.w3.org/2000/svg">
<path d="M32 16C32 7.16344 24.8366 0 16 0C7.16344 0 0 7.16344 0 16C0 24.8366 7.16344 32 16 32C24.8366 32 32 24.8366 32 16Z" fill="#30D158"/>
<path fill-rule="evenodd" clip-rule="evenodd" d="M22.7308 10.1003L13.1867 19.3163L10.6534 16.6083C10.4185 16.3973 10.1185 16.2731 9.8032 16.2561C9.48792 16.2391 9.17631 16.3305 8.92008 16.515C8.67126 16.692 8.49769 16.9558 8.43354 17.2543C8.36938 17.5529 8.41928 17.8647 8.57341 18.1283L11.5747 23.0096C11.7243 23.2354 11.9274 23.4207 12.166 23.5488C12.4046 23.677 12.6712 23.7441 12.9421 23.7441C13.2129 23.7441 13.4795 23.677 13.7181 23.5488C13.9567 23.4207 14.1599 23.2354 14.3094 23.0096C14.7894 22.383 23.9521 11.4603 23.9521 11.4603C25.1521 10.2336 23.6987 9.15362 22.7387 10.087L22.7308 10.1003Z" fill="white"/>
</svg>
