<svg width="38" height="38" viewBox="0 0 38 38" fill="none" xmlns="http://www.w3.org/2000/svg">
<rect x="0.5" y="0.5" width="37" height="37" rx="18.5" fill="white"/>
<rect x="0.5" y="0.5" width="37" height="37" rx="18.5" stroke="#E7E7E7"/>
<path d="M22.2084 19.5003C22.2084 21.2722 20.772 22.7087 19.0001 22.7087C17.2282 22.7087 15.7917 21.2722 15.7917 19.5003C15.7917 17.7284 17.2282 16.292 19.0001 16.292C20.772 16.292 22.2084 17.7284 22.2084 19.5003Z" stroke="#151515" stroke-width="1.2"/>
<path d="M27.3731 21.3937C27.7866 21.2973 27.9934 21.249 28.08 21.1398C28.1667 21.0306 28.1667 20.8548 28.1667 20.5033V18.4975C28.1667 18.1459 28.1667 17.9702 28.08 17.8609C27.9934 17.7517 27.7866 17.7035 27.3731 17.607C25.4809 17.1656 24.2947 15.1838 24.8465 13.3374C24.9702 12.9233 25.0321 12.7163 24.98 12.5866C24.9278 12.4569 24.7736 12.3693 24.4652 12.1942L22.6813 11.1814C22.3792 11.0098 22.2281 10.924 22.0911 10.9448C21.9541 10.9656 21.811 11.1182 21.525 11.4233C20.1709 12.8678 17.8307 12.8677 16.4765 11.4232C16.1905 11.1181 16.0475 10.9655 15.9105 10.9448C15.7735 10.924 15.6224 11.0097 15.3202 11.1813L13.5363 12.1941C13.2279 12.3692 13.0737 12.4568 13.0216 12.5865C12.9695 12.7162 13.0313 12.9232 13.155 13.3374C13.7066 15.1838 12.5194 17.1656 10.627 17.607C10.2135 17.7035 10.0067 17.7517 9.92005 17.8609C9.83337 17.9701 9.83337 18.1459 9.83337 18.4975V20.5033C9.83337 20.8548 9.83337 21.0306 9.92004 21.1398C10.0067 21.249 10.2135 21.2973 10.627 21.3937C12.5191 21.8352 13.7054 23.8169 13.1536 25.6633C13.0299 26.0774 12.968 26.2844 13.0201 26.4141C13.0722 26.5439 13.2264 26.6314 13.5348 26.8065L15.3187 27.8194C15.6209 27.9909 15.772 28.0767 15.909 28.0559C16.0461 28.0351 16.1891 27.8825 16.475 27.5774C17.8299 26.1318 20.1717 26.1318 21.5265 27.5773C21.8125 27.8824 21.9555 28.035 22.0925 28.0558C22.2295 28.0766 22.3806 27.9908 22.6828 27.8193L24.4667 26.8064C24.7751 26.6313 24.9293 26.5438 24.9814 26.414C25.0335 26.2843 24.9716 26.0773 24.8479 25.6632C24.2959 23.8169 25.4812 21.8352 27.3731 21.3937Z" stroke="#151515" stroke-width="1.2" stroke-linecap="round"/>
</svg>
