<svg width="48" height="48" viewBox="0 0 48 48" fill="none" xmlns="http://www.w3.org/2000/svg">
<circle cx="24" cy="24" r="23.5" fill="white" stroke="#EDEDED"/>
<path d="M23.755 20.4165C23.098 20.4165 22.081 19.6695 21.01 19.6965C19.597 19.7145 18.301 20.5155 17.572 21.7845C16.105 24.3315 17.194 28.0935 18.625 30.1635C19.327 31.1715 20.155 32.3055 21.253 32.2695C22.306 32.2245 22.702 31.5855 23.98 31.5855C25.249 31.5855 25.609 32.2695 26.725 32.2425C27.859 32.2245 28.579 31.2165 29.272 30.1995C30.073 29.0295 30.406 27.8955 30.424 27.8325C30.397 27.8235 28.219 26.9865 28.192 24.4665C28.174 22.3605 29.911 21.3525 29.992 21.3075C29.002 19.8585 27.481 19.6965 26.95 19.6605C25.564 19.5525 24.403 20.4165 23.755 20.4165ZM26.095 18.2925C26.68 17.5905 27.067 16.6095 26.959 15.6375C26.122 15.6735 25.114 16.1955 24.511 16.8975C23.971 17.5185 23.503 18.5175 23.629 19.4715C24.556 19.5435 25.51 18.9945 26.095 18.2925Z" fill="black"/>
</svg>
