<svg width="1036" height="42" viewBox="0 0 1036 42" fill="none" xmlns="http://www.w3.org/2000/svg">
<g clip-path="url(#clip0_2022_10049)">
<circle cx="10.4348" cy="10.4348" r="10.4348" transform="matrix(-1 0 0 1 1035.17 10.6514)" fill="#FD6D17"/>
<path d="M1023.35 22.9928L1028.89 17.4556L1029.74 18.3074L1023.35 24.6965L1019.52 20.8631L1020.37 20.0112L1023.35 22.9928Z" fill="white" stroke="white" stroke-width="0.869565"/>
</g>
<g clip-path="url(#clip1_2022_10049)">
<path d="M987.294 32.875H972.886V23.7065H999.082V30.2554C999.082 30.5995 999.014 30.9403 998.883 31.2582C998.751 31.5761 998.558 31.8649 998.315 32.1081C998.071 32.3513 997.783 32.5442 997.465 32.6758C997.147 32.8073 996.806 32.875 996.462 32.875H995.153" stroke="#FD6D17" stroke-width="2.43478" stroke-miterlimit="10" stroke-linecap="round" stroke-linejoin="round"/>
<path d="M972.886 23.7061V7.98868C972.886 7.64469 972.954 7.30407 973.086 6.98629C973.218 6.6685 973.411 6.3798 973.654 6.13667C973.897 5.89339 974.186 5.7004 974.504 5.56871C974.821 5.43701 975.162 5.3692 975.506 5.36914H996.462C996.806 5.3692 997.147 5.43701 997.465 5.56871C997.783 5.7004 998.071 5.89339 998.315 6.13667C998.558 6.3798 998.751 6.6685 998.883 6.98629C999.014 7.30407 999.082 7.64469 999.082 7.98868V23.7061H972.886Z" stroke="#FD6D17" stroke-width="2.43478" stroke-miterlimit="10" stroke-linecap="round" stroke-linejoin="round"/>
<path d="M965.028 32.8742H962.408C962.065 32.8743 961.724 32.8066 961.406 32.675C961.088 32.5434 960.8 32.3505 960.556 32.1073C960.313 31.8641 960.12 31.5753 959.988 31.2574C959.857 30.9395 959.789 30.5988 959.789 30.2547V19.7764C959.789 16.1601 962.721 13.2275 966.338 13.2275H972.887V32.8743" stroke="#FD6D17" stroke-width="2.43478" stroke-miterlimit="10" stroke-linecap="round" stroke-linejoin="round"/>
<path d="M991.223 36.804C989.053 36.804 987.294 35.0448 987.294 32.8747C987.294 30.7045 989.053 28.9453 991.223 28.9453C993.393 28.9453 995.152 30.7045 995.152 32.8747C995.152 35.0448 993.393 36.804 991.223 36.804Z" stroke="#FD6D17" stroke-width="2.43478" stroke-miterlimit="10" stroke-linecap="round" stroke-linejoin="round"/>
<path d="M968.957 36.804C966.787 36.804 965.028 35.0448 965.028 32.8747C965.028 30.7045 966.787 28.9453 968.957 28.9453C971.127 28.9453 972.887 30.7045 972.887 32.8747C972.887 35.0448 971.127 36.804 968.957 36.804Z" stroke="#FD6D17" stroke-width="2.43478" stroke-miterlimit="10" stroke-linecap="round" stroke-linejoin="round"/>
<path d="M966.338 13.2275V23.7058H959.789" stroke="#FD6D17" stroke-width="2.43478" stroke-miterlimit="10" stroke-linecap="round" stroke-linejoin="round"/>
</g>
<line x1="944.564" y1="21.956" x2="543.564" y2="21.956" stroke="#FD6D17" stroke-width="1.73913" stroke-dasharray="6.96 6.96"/>
<g clip-path="url(#clip2_2022_10049)">
<circle cx="10.4348" cy="10.4348" r="9.56522" transform="matrix(-1 0 0 1 529.564 10.6514)" stroke="#EDEDED" stroke-width="1.73913"/>
</g>
<line y1="-0.869565" x2="459" y2="-0.869565" transform="matrix(-1 0 0 1 494.695 21.0864)" stroke="#EDEDED" stroke-width="1.73913"/>
<g clip-path="url(#clip3_2022_10049)">
<circle cx="10.4348" cy="10.4348" r="9.56522" transform="matrix(-1 0 0 1 21.6953 10.6514)" stroke="#EDEDED" stroke-width="1.73913"/>
</g>
<defs>
<clipPath id="clip0_2022_10049">
<rect width="20.8696" height="20.8696" fill="white" transform="matrix(-1 0 0 1 1035.17 10.6514)"/>
</clipPath>
<clipPath id="clip1_2022_10049">
<rect width="41.7391" height="41.7391" fill="white" transform="matrix(-1 0 0 1 1000.3 0.216797)"/>
</clipPath>
<clipPath id="clip2_2022_10049">
<rect width="20.8696" height="20.8696" fill="white" transform="matrix(-1 0 0 1 529.564 10.6514)"/>
</clipPath>
<clipPath id="clip3_2022_10049">
<rect width="20.8696" height="20.8696" fill="white" transform="matrix(-1 0 0 1 21.6953 10.6514)"/>
</clipPath>
</defs>
</svg>
