<svg width="79" height="79" viewBox="0 0 79 79" fill="none" xmlns="http://www.w3.org/2000/svg">
<g clip-path="url(#clip0_2022_17317)">
<path d="M15.0686 58.0936L20.9729 54.6847L15.3894 51.9043L15.0686 58.0936Z" fill="url(#paint0_linear_2022_17317)"/>
<path d="M57.0948 45.6947V45.6802L21.9502 25.0663C21.5865 24.8563 21.2618 24.8916 21.0484 25.1167L26.0944 28.3655L0.407227 37.034L36.3084 57.7106L57.0948 45.6947Z" fill="url(#paint1_linear_2022_17317)"/>
<path d="M0.635742 14.0575L23.3146 0.291931C23.6744 0.0563195 24.1554 0.0627999 24.6838 0.367999L56.9449 19.274C58.0596 19.9176 58.9634 21.6443 58.9634 23.1306V41.2585C58.9634 42.1366 58.6478 42.7341 58.1598 42.9436L36.4426 56.148L35.6863 56.5909L0.635742 14.0575Z" fill="url(#paint2_linear_2022_17317)"/>
<path d="M2.01851 37.6344L34.2794 56.5405C35.3942 57.1841 36.2979 56.501 36.2979 55.0146V36.8868C36.2979 35.4005 35.3942 33.6738 34.2794 33.0302L2.01851 14.124C0.903717 13.4805 0 14.1637 0 15.65V33.7779C0 35.2642 0.903717 36.9908 2.01851 37.6344Z" fill="url(#paint3_linear_2022_17317)"/>
<path d="M3.71289 34.8193V18.3125L7.14584 20.2946V36.8013L3.71289 34.8193Z" fill="url(#paint4_linear_2022_17317)"/>
<path d="M10.0237 38.5635V22.0566L13.4566 24.0386V40.5454L10.0237 38.5635Z" fill="url(#paint5_linear_2022_17317)"/>
<path d="M16.3342 42.3086V25.8018L19.7672 27.7839V44.2907L16.3342 42.3086Z" fill="url(#paint6_linear_2022_17317)"/>
<path d="M22.6445 46.0537V29.5469L26.0775 31.5288V48.0357L22.6445 46.0537Z" fill="url(#paint7_linear_2022_17317)"/>
<path d="M28.9551 49.7978V33.291L32.388 35.2731V51.7799L28.9551 49.7978Z" fill="url(#paint8_linear_2022_17317)"/>
<path d="M25.3147 64.0301L31.219 60.6214L25.6356 57.8408L25.3147 64.0301ZM50.8298 78.6157L56.734 75.2068L51.1506 72.4264L50.8298 78.6157Z" fill="url(#paint9_linear_2022_17317)"/>
<path d="M76.5565 48.8031L73.3954 45.3456L71.1413 35.7242C70.5519 33.2079 69.0027 30.8636 67.2677 29.862L60.5878 26.0053C59.7185 25.5034 58.9242 25.4691 58.3129 25.8166L58.3123 25.8154L37.4856 37.8456L57.503 75.5795L78.2616 63.5883L78.261 63.5872C78.7125 63.3399 78.9999 62.7466 78.9999 61.8971V54.9694C78.9999 52.8638 78.0293 50.414 76.5565 48.8031Z" fill="url(#paint10_linear_2022_17317)"/>
<path d="M36.3086 61.1194V40.6516C36.3086 38.0794 37.8724 36.8972 39.8016 38.0109L46.4814 41.8676C48.2165 42.8693 49.7654 45.2135 50.355 47.7298L52.6091 57.3513L55.7702 60.8088C57.243 62.4196 58.2138 64.8694 58.2138 66.9754V70.9965C58.2138 72.5262 57.2837 73.2293 56.1364 72.567L36.3086 61.1194Z" fill="url(#paint11_linear_2022_17317)"/>
<path d="M58.2139 70.3585L56.7048 74.0746L57.5032 75.5794L78.2618 63.5882L78.2612 63.5872C78.7127 63.3398 79.0001 62.7466 79.0001 61.897V58.3574L58.2139 70.3585Z" fill="url(#paint12_linear_2022_17317)"/>
<path d="M1.16402 37.0967L36.3085 57.7105V64.0256L1.16402 43.4117C0.521215 43.0406 0 42.0447 0 41.1876V37.9767C0 37.1196 0.521215 36.7255 1.16402 37.0967Z" fill="url(#paint13_linear_2022_17317)"/>
<path d="M35.6454 57.3428L58.2136 70.3576V73.9027C58.2136 75.4324 57.2835 76.1355 56.1362 75.4731L35.6453 63.6577L35.6454 57.3428Z" fill="url(#paint14_linear_2022_17317)"/>
<path d="M50.185 55.9522L48.3678 48.1959C47.9154 46.2648 46.6929 44.3469 45.4608 43.6356L38.781 39.779C38.6709 39.7154 38.5826 39.6782 38.5193 39.6572C38.447 39.8063 38.3496 40.1244 38.3496 40.652V49.1189L50.185 55.9522Z" fill="url(#paint15_linear_2022_17317)"/>
<path d="M70.1839 36.1962C70.0061 35.4371 69.7397 34.6946 69.4084 33.999L50.7346 44.7804C51.0764 45.4894 51.35 46.2488 51.5319 47.0251L53.786 56.6466L72.438 45.8179L70.1839 36.1962Z" fill="url(#paint16_linear_2022_17317)"/>
<path d="M57.4029 66.5077L57.0695 66.3152C56.6618 66.0799 56.1523 66.374 56.1523 66.8447V69.1681L58.2137 70.3584L62.8087 67.7054V65.3192C62.8087 64.8764 62.3295 64.5997 61.9459 64.8211L59.0244 66.5077C58.7779 66.65 58.4983 66.7249 58.2137 66.7249C57.929 66.7249 57.6494 66.65 57.4029 66.5077Z" fill="url(#paint17_linear_2022_17317)"/>
<path d="M75.7686 57.864V60.2226L79 58.3483V54.9658L76.6542 56.3264C76.3848 56.4827 76.1612 56.7069 76.0058 56.9768C75.8504 57.2466 75.7686 57.5526 75.7686 57.864Z" fill="url(#paint18_linear_2022_17317)"/>
<path d="M62.8086 65.3192L75.7685 57.8369V60.2231L62.8086 67.7054V65.3192Z" fill="url(#paint19_linear_2022_17317)"/>
<path d="M27.1121 60.0533C27.1121 63.6136 24.9475 65.2501 22.2774 63.7083C19.6071 62.1667 17.4426 58.0308 17.4426 54.4706C17.4426 50.9103 19.6073 49.2739 22.2774 50.8156C24.9476 52.3573 27.1121 56.4931 27.1121 60.0533Z" fill="url(#paint20_linear_2022_17317)"/>
<path d="M24.6543 58.6338C24.6543 60.3841 23.59 61.1888 22.2772 60.4309C20.9643 59.6728 19.9001 57.6393 19.9001 55.889C19.9001 54.1385 20.9643 53.334 22.2772 54.0919C23.59 54.8499 24.6543 56.8834 24.6543 58.6338Z" fill="url(#paint21_linear_2022_17317)"/>
<path d="M24.3151 58.4388C24.3151 59.9395 23.4027 60.6292 22.2773 59.9795C21.1519 59.3297 20.2395 57.5865 20.2395 56.0858C20.2395 54.5853 21.1519 53.8956 22.2773 54.5453C23.4027 55.1951 24.3151 56.9383 24.3151 58.4388Z" fill="url(#paint22_linear_2022_17317)"/>
<path d="M22.2774 54.5445C22.2275 54.5157 22.1784 54.4925 22.1292 54.4688C22.0978 54.6489 22.0824 54.8315 22.083 55.0143C22.083 56.5149 22.9954 58.2581 24.1208 58.908C24.1708 58.9369 24.2199 58.9599 24.269 58.9836C24.2986 58.8162 24.3151 58.6345 24.3151 58.438C24.3152 56.9373 23.4029 55.1943 22.2774 54.5445Z" fill="url(#paint23_linear_2022_17317)"/>
<path d="M16.866 54.1168C16.866 57.6771 14.7014 59.3135 12.0313 57.7718C9.36101 56.2302 7.19653 52.0943 7.19653 48.5341C7.19653 44.9738 9.36116 43.3373 12.0313 44.8791C14.7014 46.4206 16.866 50.5566 16.866 54.1168Z" fill="url(#paint24_linear_2022_17317)"/>
<path d="M14.4082 52.6982C14.4082 54.4487 13.3441 55.2532 12.0312 54.4953C10.7182 53.7372 9.65405 51.7038 9.65405 49.9534C9.65405 48.2029 10.7182 47.3984 12.0312 48.1563C13.3439 48.9142 14.4082 50.9477 14.4082 52.6982Z" fill="url(#paint25_linear_2022_17317)"/>
<path d="M14.069 52.5013C14.069 54.002 13.1566 54.6917 12.0312 54.042C10.9058 53.3922 9.99341 51.649 9.99341 50.1483C9.99341 48.6478 10.9058 47.9581 12.0312 48.6078C13.1566 49.2576 14.069 51.0008 14.069 52.5013Z" fill="url(#paint26_linear_2022_17317)"/>
<path d="M12.0311 48.6078C11.9811 48.579 11.932 48.5558 11.8828 48.5322C11.8515 48.7124 11.8361 48.895 11.8367 49.0778C11.8367 50.5784 12.749 52.3216 13.8745 52.9715C13.9245 53.0004 13.9735 53.0235 14.0226 53.0471C14.0522 52.8797 14.0687 52.6979 14.0687 52.5015C14.0687 51.0008 13.1565 49.2576 12.0311 48.6078Z" fill="url(#paint27_linear_2022_17317)"/>
<path d="M52.6272 74.6383C52.6272 78.1986 50.4625 79.835 47.7924 78.2933C45.1221 76.7517 42.9575 72.6158 42.9575 69.0555C42.9575 65.4953 45.1221 63.8588 47.7924 65.4006C50.4625 66.9421 52.6272 71.0781 52.6272 74.6383Z" fill="url(#paint28_linear_2022_17317)"/>
<path d="M50.1695 73.2197C50.1695 74.97 49.1053 75.7747 47.7924 75.0168C46.4795 74.2587 45.4153 72.2253 45.4153 70.4749C45.4153 68.7244 46.4795 67.9199 47.7924 68.6778C49.1053 69.4357 50.1695 71.4692 50.1695 73.2197Z" fill="url(#paint29_linear_2022_17317)"/>
<path d="M49.8302 73.0238C49.8302 74.5245 48.9179 75.2142 47.7924 74.5644C46.667 73.9147 45.7546 72.1715 45.7546 70.6708C45.7546 69.1702 46.667 68.4805 47.7924 69.1303C48.9179 69.78 49.8302 71.5233 49.8302 73.0238Z" fill="url(#paint30_linear_2022_17317)"/>
<path d="M47.7923 69.1303C47.7423 69.1014 47.6933 69.0783 47.644 69.0547C47.6128 69.2349 47.5973 69.4174 47.5979 69.6003C47.5979 71.1008 48.5103 72.8441 49.6357 73.494C49.6857 73.5228 49.7348 73.5458 49.7838 73.5696C49.8135 73.4022 49.83 73.2204 49.83 73.024C49.83 71.5233 48.9176 69.78 47.7923 69.1303Z" fill="url(#paint31_linear_2022_17317)"/>
</g>
<defs>
<linearGradient id="paint0_linear_2022_17317" x1="18.0208" y1="51.9043" x2="18.0208" y2="58.0936" gradientUnits="userSpaceOnUse">
<stop stop-color="#414141"/>
<stop offset="1" stop-color="#5F5F5F"/>
</linearGradient>
<linearGradient id="paint1_linear_2022_17317" x1="28.751" y1="24.9268" x2="28.751" y2="57.7106" gradientUnits="userSpaceOnUse">
<stop stop-color="#414141"/>
<stop offset="1" stop-color="#5F5F5F"/>
</linearGradient>
<linearGradient id="paint2_linear_2022_17317" x1="40.2626" y1="36.1018" x2="35.4741" y2="27.8082" gradientUnits="userSpaceOnUse">
<stop offset="0.069" stop-color="#FFC538"/>
<stop offset="0.407" stop-color="#FAD73E"/>
<stop offset="0.547" stop-color="#F7E041"/>
<stop offset="1" stop-color="#FCF3B3"/>
</linearGradient>
<linearGradient id="paint3_linear_2022_17317" x1="18.149" y1="68.3654" x2="18.149" y2="9.81297" gradientUnits="userSpaceOnUse">
<stop stop-color="#FFA538"/>
<stop offset="1" stop-color="#FFC538"/>
</linearGradient>
<linearGradient id="paint4_linear_2022_17317" x1="3.71289" y1="18.3125" x2="7.14584" y2="18.3125" gradientUnits="userSpaceOnUse">
<stop stop-color="#CC8241"/>
<stop offset="1" stop-color="#FFA538"/>
</linearGradient>
<linearGradient id="paint5_linear_2022_17317" x1="10.0237" y1="22.0566" x2="13.4566" y2="22.0566" gradientUnits="userSpaceOnUse">
<stop stop-color="#CC8241"/>
<stop offset="1" stop-color="#FFA538"/>
</linearGradient>
<linearGradient id="paint6_linear_2022_17317" x1="16.3342" y1="25.8018" x2="19.7672" y2="25.8018" gradientUnits="userSpaceOnUse">
<stop stop-color="#CC8241"/>
<stop offset="1" stop-color="#FFA538"/>
</linearGradient>
<linearGradient id="paint7_linear_2022_17317" x1="22.6445" y1="29.5469" x2="26.0775" y2="29.5469" gradientUnits="userSpaceOnUse">
<stop stop-color="#CC8241"/>
<stop offset="1" stop-color="#FFA538"/>
</linearGradient>
<linearGradient id="paint8_linear_2022_17317" x1="28.9551" y1="33.291" x2="32.388" y2="33.291" gradientUnits="userSpaceOnUse">
<stop stop-color="#CC8241"/>
<stop offset="1" stop-color="#FFA538"/>
</linearGradient>
<linearGradient id="paint9_linear_2022_17317" x1="41.0244" y1="57.8408" x2="41.0244" y2="78.6157" gradientUnits="userSpaceOnUse">
<stop stop-color="#414141"/>
<stop offset="1" stop-color="#5F5F5F"/>
</linearGradient>
<linearGradient id="paint10_linear_2022_17317" x1="34.4224" y1="19.4147" x2="94.201" y2="174.925" gradientUnits="userSpaceOnUse">
<stop stop-color="#FD6D17"/>
<stop offset="1" stop-color="#FFBC95"/>
</linearGradient>
<linearGradient id="paint11_linear_2022_17317" x1="34.6923" y1="33.2429" x2="85.7849" y2="132.78" gradientUnits="userSpaceOnUse">
<stop stop-color="#FD6D17"/>
<stop offset="1" stop-color="#D57033"/>
</linearGradient>
<linearGradient id="paint12_linear_2022_17317" x1="67.8525" y1="58.3574" x2="67.8525" y2="75.5794" gradientUnits="userSpaceOnUse">
<stop stop-color="#414141"/>
<stop offset="1" stop-color="#5F5F5F"/>
</linearGradient>
<linearGradient id="paint13_linear_2022_17317" x1="18.1543" y1="36.957" x2="18.1543" y2="64.0256" gradientUnits="userSpaceOnUse">
<stop stop-color="#414141"/>
<stop offset="1" stop-color="#5F5F5F"/>
</linearGradient>
<linearGradient id="paint14_linear_2022_17317" x1="46.9295" y1="57.3428" x2="46.9295" y2="75.7224" gradientUnits="userSpaceOnUse">
<stop stop-color="#414141"/>
<stop offset="1" stop-color="#5F5F5F"/>
</linearGradient>
<linearGradient id="paint15_linear_2022_17317" x1="44.2673" y1="39.6572" x2="44.2673" y2="55.9522" gradientUnits="userSpaceOnUse">
<stop stop-color="#414141"/>
<stop offset="1" stop-color="#5F5F5F"/>
</linearGradient>
<linearGradient id="paint16_linear_2022_17317" x1="61.5863" y1="33.999" x2="61.5863" y2="56.6466" gradientUnits="userSpaceOnUse">
<stop stop-color="#414141"/>
<stop offset="1" stop-color="#5F5F5F"/>
</linearGradient>
<linearGradient id="paint17_linear_2022_17317" x1="56.1523" y1="64.7432" x2="62.8087" y2="64.7432" gradientUnits="userSpaceOnUse">
<stop stop-color="#FFBC95"/>
<stop offset="1" stop-color="white"/>
</linearGradient>
<linearGradient id="paint18_linear_2022_17317" x1="75.7686" y1="54.9658" x2="79" y2="54.9658" gradientUnits="userSpaceOnUse">
<stop stop-color="#FFBC95"/>
<stop offset="1" stop-color="white"/>
</linearGradient>
<linearGradient id="paint19_linear_2022_17317" x1="69.2885" y1="57.8369" x2="69.2885" y2="67.7054" gradientUnits="userSpaceOnUse">
<stop stop-color="#414141"/>
<stop offset="1" stop-color="#5F5F5F"/>
</linearGradient>
<linearGradient id="paint20_linear_2022_17317" x1="22.2774" y1="50.2354" x2="22.2774" y2="64.2886" gradientUnits="userSpaceOnUse">
<stop stop-color="#414141"/>
<stop offset="1" stop-color="#5F5F5F"/>
</linearGradient>
<linearGradient id="paint21_linear_2022_17317" x1="22.2772" y1="53.8066" x2="22.2772" y2="60.7161" gradientUnits="userSpaceOnUse">
<stop stop-color="#414141"/>
<stop offset="1" stop-color="#3B3B3B"/>
</linearGradient>
<linearGradient id="paint22_linear_2022_17317" x1="22.2773" y1="54.3008" x2="22.2773" y2="60.224" gradientUnits="userSpaceOnUse">
<stop stop-color="#BFBFBF"/>
<stop offset="1" stop-color="#303030"/>
</linearGradient>
<linearGradient id="paint23_linear_2022_17317" x1="23.199" y1="54.4688" x2="23.199" y2="58.9836" gradientUnits="userSpaceOnUse">
<stop stop-color="#414141"/>
<stop offset="1" stop-color="#5F5F5F"/>
</linearGradient>
<linearGradient id="paint24_linear_2022_17317" x1="12.0313" y1="44.2988" x2="12.0313" y2="58.352" gradientUnits="userSpaceOnUse">
<stop stop-color="#414141"/>
<stop offset="1" stop-color="#5F5F5F"/>
</linearGradient>
<linearGradient id="paint25_linear_2022_17317" x1="12.0312" y1="47.8711" x2="12.0312" y2="54.7805" gradientUnits="userSpaceOnUse">
<stop stop-color="#414141"/>
<stop offset="1" stop-color="#3B3B3B"/>
</linearGradient>
<linearGradient id="paint26_linear_2022_17317" x1="12.0312" y1="48.3633" x2="12.0312" y2="54.2865" gradientUnits="userSpaceOnUse">
<stop stop-color="#BFBFBF"/>
<stop offset="1" stop-color="#303030"/>
</linearGradient>
<linearGradient id="paint27_linear_2022_17317" x1="12.9527" y1="48.5322" x2="12.9527" y2="53.0471" gradientUnits="userSpaceOnUse">
<stop stop-color="#414141"/>
<stop offset="1" stop-color="#5F5F5F"/>
</linearGradient>
<linearGradient id="paint28_linear_2022_17317" x1="47.7923" y1="64.8203" x2="47.7923" y2="78.8735" gradientUnits="userSpaceOnUse">
<stop stop-color="#414141"/>
<stop offset="1" stop-color="#5F5F5F"/>
</linearGradient>
<linearGradient id="paint29_linear_2022_17317" x1="47.7924" y1="68.3926" x2="47.7924" y2="75.302" gradientUnits="userSpaceOnUse">
<stop stop-color="#414141"/>
<stop offset="1" stop-color="#3B3B3B"/>
</linearGradient>
<linearGradient id="paint30_linear_2022_17317" x1="47.7924" y1="68.8857" x2="47.7924" y2="74.809" gradientUnits="userSpaceOnUse">
<stop stop-color="#BFBFBF"/>
<stop offset="1" stop-color="#303030"/>
</linearGradient>
<linearGradient id="paint31_linear_2022_17317" x1="48.7139" y1="69.0547" x2="48.7139" y2="73.5696" gradientUnits="userSpaceOnUse">
<stop stop-color="#414141"/>
<stop offset="1" stop-color="#5F5F5F"/>
</linearGradient>
<clipPath id="clip0_2022_17317">
<rect width="79" height="79" fill="white"/>
</clipPath>
</defs>
</svg>
