<svg width="1036" height="42" viewBox="0 0 1036 42" fill="none" xmlns="http://www.w3.org/2000/svg">
<g clip-path="url(#clip0_2016_61454)">
<circle cx="10.4348" cy="10.4348" r="10.4348" transform="matrix(-1 0 0 1 1035.17 10.6514)" fill="#FD6D17"/>
<path d="M1023.35 22.9928L1028.89 17.4556L1029.74 18.3074L1023.35 24.6965L1019.52 20.8631L1020.37 20.0112L1023.35 22.9928Z" fill="white" stroke="white" stroke-width="0.869565"/>
</g>
<line y1="-0.869565" x2="470.3" y2="-0.869565" transform="matrix(-1 0 0 1 1006.35 21.0864)" stroke="#FD6D17" stroke-width="1.73913"/>
<g clip-path="url(#clip1_2016_61454)">
<circle cx="10.4348" cy="10.4348" r="10.4348" transform="matrix(-1 0 0 1 528.104 10.6514)" fill="#FD6D17"/>
<path d="M516.285 22.9928L521.822 17.4556L522.674 18.3074L516.285 24.6965L512.451 20.8631L513.303 20.0112L516.285 22.9928Z" fill="white" stroke="white" stroke-width="0.869565"/>
</g>
<line x1="499.285" y1="21.956" x2="246.285" y2="21.956" stroke="#FD6D17" stroke-width="1.73913" stroke-dasharray="6.96 6.96"/>
<g clip-path="url(#clip2_2016_61454)">
<path d="M225.323 32.875H210.916V23.7065H237.111V30.2554C237.111 30.5995 237.044 30.9403 236.912 31.2582C236.78 31.5761 236.587 31.8649 236.344 32.1081C236.101 32.3513 235.812 32.5442 235.494 32.6758C235.176 32.8073 234.836 32.875 234.492 32.875H233.182" stroke="#FD6D17" stroke-width="2.43478" stroke-miterlimit="10" stroke-linecap="round" stroke-linejoin="round"/>
<path d="M210.916 23.7061V7.98868C210.916 7.64469 210.983 7.30407 211.115 6.98629C211.247 6.6685 211.44 6.3798 211.683 6.13667C211.926 5.89339 212.215 5.7004 212.533 5.56871C212.851 5.43701 213.191 5.3692 213.535 5.36914H234.492C234.836 5.3692 235.176 5.43701 235.494 5.56871C235.812 5.7004 236.101 5.89339 236.344 6.13667C236.587 6.3798 236.78 6.6685 236.912 6.98629C237.044 7.30407 237.111 7.64469 237.111 7.98868V23.7061H210.916Z" stroke="#FD6D17" stroke-width="2.43478" stroke-miterlimit="10" stroke-linecap="round" stroke-linejoin="round"/>
<path d="M203.057 32.8742H200.438C200.094 32.8743 199.753 32.8066 199.435 32.675C199.118 32.5434 198.829 32.3505 198.586 32.1073C198.342 31.8641 198.149 31.5753 198.018 31.2574C197.886 30.9395 197.818 30.5988 197.818 30.2547V19.7764C197.818 16.1601 200.75 13.2275 204.367 13.2275H210.916V32.8743" stroke="#FD6D17" stroke-width="2.43478" stroke-miterlimit="10" stroke-linecap="round" stroke-linejoin="round"/>
<path d="M229.252 36.804C227.082 36.804 225.323 35.0448 225.323 32.8747C225.323 30.7045 227.082 28.9453 229.252 28.9453C231.422 28.9453 233.182 30.7045 233.182 32.8747C233.182 35.0448 231.422 36.804 229.252 36.804Z" stroke="#FD6D17" stroke-width="2.43478" stroke-miterlimit="10" stroke-linecap="round" stroke-linejoin="round"/>
<path d="M206.987 36.804C204.817 36.804 203.057 35.0448 203.057 32.8747C203.057 30.7045 204.817 28.9453 206.987 28.9453C209.157 28.9453 210.916 30.7045 210.916 32.8747C210.916 35.0448 209.157 36.804 206.987 36.804Z" stroke="#FD6D17" stroke-width="2.43478" stroke-miterlimit="10" stroke-linecap="round" stroke-linejoin="round"/>
<path d="M204.367 13.2275V23.7058H197.818" stroke="#FD6D17" stroke-width="2.43478" stroke-miterlimit="10" stroke-linecap="round" stroke-linejoin="round"/>
</g>
<line y1="-0.869565" x2="159" y2="-0.869565" transform="matrix(-1 0 0 1 188.645 21.0864)" stroke="#EDEDED" stroke-width="1.73913"/>
<g clip-path="url(#clip3_2016_61454)">
<circle cx="10.4348" cy="10.4348" r="9.56522" transform="matrix(-1 0 0 1 21.6953 10.6514)" stroke="#EDEDED" stroke-width="1.73913"/>
</g>
<defs>
<clipPath id="clip0_2016_61454">
<rect width="20.8696" height="20.8696" fill="white" transform="matrix(-1 0 0 1 1035.17 10.6514)"/>
</clipPath>
<clipPath id="clip1_2016_61454">
<rect width="20.8696" height="20.8696" fill="white" transform="matrix(-1 0 0 1 528.104 10.6514)"/>
</clipPath>
<clipPath id="clip2_2016_61454">
<rect width="41.7391" height="41.7391" fill="white" transform="matrix(-1 0 0 1 238.334 0.216797)"/>
</clipPath>
<clipPath id="clip3_2016_61454">
<rect width="20.8696" height="20.8696" fill="white" transform="matrix(-1 0 0 1 21.6953 10.6514)"/>
</clipPath>
</defs>
</svg>
